%TF.GenerationSoftware,KiCad,Pcbnew,(6.0.2)*%
%TF.CreationDate,2023-03-13T10:24:41-04:00*%
%TF.ProjectId,avc-computer,6176632d-636f-46d7-9075-7465722e6b69,rev?*%
%TF.SameCoordinates,Original*%
%TF.FileFunction,Soldermask,Top*%
%TF.FilePolarity,Negative*%
%FSLAX46Y46*%
G04 Gerber Fmt 4.6, Leading zero omitted, Abs format (unit mm)*
G04 Created by KiCad (PCBNEW (6.0.2)) date 2023-03-13 10:24:41*
%MOMM*%
%LPD*%
G01*
G04 APERTURE LIST*
G04 Aperture macros list*
%AMRoundRect*
0 Rectangle with rounded corners*
0 $1 Rounding radius*
0 $2 $3 $4 $5 $6 $7 $8 $9 X,Y pos of 4 corners*
0 Add a 4 corners polygon primitive as box body*
4,1,4,$2,$3,$4,$5,$6,$7,$8,$9,$2,$3,0*
0 Add four circle primitives for the rounded corners*
1,1,$1+$1,$2,$3*
1,1,$1+$1,$4,$5*
1,1,$1+$1,$6,$7*
1,1,$1+$1,$8,$9*
0 Add four rect primitives between the rounded corners*
20,1,$1+$1,$2,$3,$4,$5,0*
20,1,$1+$1,$4,$5,$6,$7,0*
20,1,$1+$1,$6,$7,$8,$9,0*
20,1,$1+$1,$8,$9,$2,$3,0*%
G04 Aperture macros list end*
%ADD10RoundRect,0.250000X-0.250000X-0.475000X0.250000X-0.475000X0.250000X0.475000X-0.250000X0.475000X0*%
%ADD11R,0.740000X2.400000*%
%ADD12RoundRect,0.250002X-1.699998X-1.699998X1.699998X-1.699998X1.699998X1.699998X-1.699998X1.699998X0*%
%ADD13C,3.900000*%
%ADD14RoundRect,0.250000X0.250000X0.475000X-0.250000X0.475000X-0.250000X-0.475000X0.250000X-0.475000X0*%
%ADD15R,1.700000X1.700000*%
%ADD16O,1.700000X1.700000*%
%ADD17RoundRect,0.250000X0.450000X-0.262500X0.450000X0.262500X-0.450000X0.262500X-0.450000X-0.262500X0*%
%ADD18RoundRect,0.250000X-0.475000X0.250000X-0.475000X-0.250000X0.475000X-0.250000X0.475000X0.250000X0*%
%ADD19RoundRect,0.250000X0.262500X0.450000X-0.262500X0.450000X-0.262500X-0.450000X0.262500X-0.450000X0*%
%ADD20RoundRect,0.140000X0.170000X-0.140000X0.170000X0.140000X-0.170000X0.140000X-0.170000X-0.140000X0*%
%ADD21RoundRect,0.250000X0.475000X-0.250000X0.475000X0.250000X-0.475000X0.250000X-0.475000X-0.250000X0*%
%ADD22RoundRect,0.218750X0.256250X-0.218750X0.256250X0.218750X-0.256250X0.218750X-0.256250X-0.218750X0*%
%ADD23RoundRect,0.250000X-0.450000X0.262500X-0.450000X-0.262500X0.450000X-0.262500X0.450000X0.262500X0*%
%ADD24R,2.200000X0.600000*%
%ADD25RoundRect,0.150000X-0.825000X-0.150000X0.825000X-0.150000X0.825000X0.150000X-0.825000X0.150000X0*%
%ADD26RoundRect,0.294500X0.480500X-0.870500X0.480500X0.870500X-0.480500X0.870500X-0.480500X-0.870500X0*%
%ADD27RoundRect,0.075000X-0.415425X-0.521491X0.521491X0.415425X0.415425X0.521491X-0.521491X-0.415425X0*%
%ADD28RoundRect,0.075000X0.415425X-0.521491X0.521491X-0.415425X-0.415425X0.521491X-0.521491X0.415425X0*%
%ADD29R,2.000000X1.500000*%
%ADD30R,2.000000X3.800000*%
%ADD31R,0.675000X0.250000*%
%ADD32R,0.250000X0.675000*%
%ADD33R,2.350000X3.500000*%
%ADD34R,0.325000X0.300000*%
%ADD35R,0.300000X0.325000*%
G04 APERTURE END LIST*
D10*
%TO.C,C6*%
X123830000Y-103505000D03*
X125730000Y-103505000D03*
%TD*%
D11*
%TO.C,J1*%
X120650000Y-59645000D03*
X120650000Y-63545000D03*
X119380000Y-59645000D03*
X119380000Y-63545000D03*
X118110000Y-59645000D03*
X118110000Y-63545000D03*
X116840000Y-59645000D03*
X116840000Y-63545000D03*
X115570000Y-59645000D03*
X115570000Y-63545000D03*
%TD*%
D12*
%TO.C,J2*%
X103780000Y-60960000D03*
D13*
X111580000Y-60960000D03*
%TD*%
D14*
%TO.C,C10*%
X110170000Y-83820000D03*
X108270000Y-83820000D03*
%TD*%
D15*
%TO.C,J5*%
X140335000Y-108600000D03*
D16*
X140335000Y-111140000D03*
X140335000Y-113680000D03*
%TD*%
D17*
%TO.C,R8*%
X104775000Y-96162500D03*
X104775000Y-94337500D03*
%TD*%
D18*
%TO.C,C7*%
X136525000Y-103190000D03*
X136525000Y-105090000D03*
%TD*%
D15*
%TO.C,J6*%
X106045000Y-134620000D03*
D16*
X106045000Y-132080000D03*
X106045000Y-129540000D03*
X106045000Y-127000000D03*
%TD*%
D19*
%TO.C,R6*%
X128547500Y-81915000D03*
X126722500Y-81915000D03*
%TD*%
D20*
%TO.C,R2*%
X102235000Y-104620000D03*
X102235000Y-103660000D03*
%TD*%
D14*
%TO.C,C16*%
X112075000Y-95250000D03*
X110175000Y-95250000D03*
%TD*%
D21*
%TO.C,C1*%
X104140000Y-113980000D03*
X104140000Y-112080000D03*
%TD*%
D14*
%TO.C,C15*%
X112075000Y-91440000D03*
X110175000Y-91440000D03*
%TD*%
D22*
%TO.C,D1*%
X128270000Y-96672500D03*
X128270000Y-95097500D03*
%TD*%
D19*
%TO.C,R3*%
X123467500Y-79375000D03*
X121642500Y-79375000D03*
%TD*%
D18*
%TO.C,C11*%
X105410000Y-76520000D03*
X105410000Y-78420000D03*
%TD*%
D23*
%TO.C,R10*%
X129540000Y-113387500D03*
X129540000Y-115212500D03*
%TD*%
D17*
%TO.C,R4*%
X112395000Y-88542500D03*
X112395000Y-86717500D03*
%TD*%
D14*
%TO.C,C14*%
X123505000Y-81915000D03*
X121605000Y-81915000D03*
%TD*%
D18*
%TO.C,C9*%
X133985000Y-103190000D03*
X133985000Y-105090000D03*
%TD*%
D17*
%TO.C,R5*%
X109220000Y-88542500D03*
X109220000Y-86717500D03*
%TD*%
D18*
%TO.C,C12*%
X105410000Y-80330000D03*
X105410000Y-82230000D03*
%TD*%
D19*
%TO.C,R11*%
X126642500Y-111760000D03*
X124817500Y-111760000D03*
%TD*%
D24*
%TO.C,IC1*%
X111065000Y-78105000D03*
X111065000Y-79375000D03*
X111065000Y-80645000D03*
X111065000Y-81915000D03*
X116265000Y-81915000D03*
X116265000Y-80645000D03*
X116265000Y-79375000D03*
X116265000Y-78105000D03*
%TD*%
D25*
%TO.C,U2*%
X132780000Y-64235000D03*
X132780000Y-65505000D03*
X132780000Y-66775000D03*
X132780000Y-68045000D03*
X137730000Y-68045000D03*
X137730000Y-66775000D03*
X137730000Y-65505000D03*
X137730000Y-64235000D03*
%TD*%
D26*
%TO.C,D3*%
X100330000Y-78335000D03*
X100330000Y-74065000D03*
%TD*%
D10*
%TO.C,C20*%
X117795000Y-120015000D03*
X119695000Y-120015000D03*
%TD*%
D20*
%TO.C,R1*%
X104775000Y-104620000D03*
X104775000Y-103660000D03*
%TD*%
D27*
%TO.C,U3*%
X108142124Y-112123788D03*
X108495678Y-112477342D03*
X108849231Y-112830895D03*
X109202785Y-113184449D03*
X109556338Y-113538002D03*
X109909891Y-113891555D03*
X110263445Y-114245109D03*
X110616998Y-114598662D03*
X110970551Y-114952215D03*
X111324105Y-115305769D03*
X111677658Y-115659322D03*
X112031212Y-116012876D03*
D28*
X114028788Y-116012876D03*
X114382342Y-115659322D03*
X114735895Y-115305769D03*
X115089449Y-114952215D03*
X115443002Y-114598662D03*
X115796555Y-114245109D03*
X116150109Y-113891555D03*
X116503662Y-113538002D03*
X116857215Y-113184449D03*
X117210769Y-112830895D03*
X117564322Y-112477342D03*
X117917876Y-112123788D03*
D27*
X117917876Y-110126212D03*
X117564322Y-109772658D03*
X117210769Y-109419105D03*
X116857215Y-109065551D03*
X116503662Y-108711998D03*
X116150109Y-108358445D03*
X115796555Y-108004891D03*
X115443002Y-107651338D03*
X115089449Y-107297785D03*
X114735895Y-106944231D03*
X114382342Y-106590678D03*
X114028788Y-106237124D03*
D28*
X112031212Y-106237124D03*
X111677658Y-106590678D03*
X111324105Y-106944231D03*
X110970551Y-107297785D03*
X110616998Y-107651338D03*
X110263445Y-108004891D03*
X109909891Y-108358445D03*
X109556338Y-108711998D03*
X109202785Y-109065551D03*
X108849231Y-109419105D03*
X108495678Y-109772658D03*
X108142124Y-110126212D03*
%TD*%
D17*
%TO.C,R12*%
X130175000Y-104417500D03*
X130175000Y-102592500D03*
%TD*%
D14*
%TO.C,C2*%
X122235000Y-112395000D03*
X120335000Y-112395000D03*
%TD*%
D25*
%TO.C,U6*%
X124330000Y-64235000D03*
X124330000Y-65505000D03*
X124330000Y-66775000D03*
X124330000Y-68045000D03*
X129280000Y-68045000D03*
X129280000Y-66775000D03*
X129280000Y-65505000D03*
X129280000Y-64235000D03*
%TD*%
D29*
%TO.C,U7*%
X118135000Y-86600000D03*
D30*
X124435000Y-88900000D03*
D29*
X118135000Y-88900000D03*
X118135000Y-91200000D03*
%TD*%
D21*
%TO.C,C18*%
X128270000Y-89215000D03*
X128270000Y-87315000D03*
%TD*%
D31*
%TO.C,U4*%
X131737500Y-106970000D03*
D32*
X130925000Y-106957500D03*
X130425000Y-106957500D03*
X129925000Y-106957500D03*
X129425000Y-106957500D03*
D31*
X128612500Y-106970000D03*
X128612500Y-107470000D03*
X128612500Y-107970000D03*
X128612500Y-108470000D03*
X128612500Y-108970000D03*
X128612500Y-109470000D03*
X128612500Y-109970000D03*
X128612500Y-110470000D03*
X128612500Y-110970000D03*
X128612500Y-111470000D03*
D32*
X129425000Y-111482500D03*
X129925000Y-111482500D03*
X130425000Y-111482500D03*
X130925000Y-111482500D03*
D31*
X131737500Y-111470000D03*
X131737500Y-110970000D03*
X131737500Y-110470000D03*
X131737500Y-109970000D03*
X131737500Y-109470000D03*
X131737500Y-108966000D03*
X131737500Y-108458000D03*
X131737500Y-107950000D03*
X131737500Y-107470000D03*
%TD*%
D22*
%TO.C,D2*%
X104775000Y-99847500D03*
X104775000Y-98272500D03*
%TD*%
D23*
%TO.C,R9*%
X104775000Y-119102500D03*
X104775000Y-120927500D03*
%TD*%
D25*
%TO.C,U5*%
X124330000Y-57785000D03*
X124330000Y-59055000D03*
X124330000Y-60325000D03*
X124330000Y-61595000D03*
X129280000Y-61595000D03*
X129280000Y-60325000D03*
X129280000Y-59055000D03*
X129280000Y-57785000D03*
%TD*%
D12*
%TO.C,J4*%
X103960000Y-68580000D03*
D13*
X111760000Y-68580000D03*
%TD*%
D33*
%TO.C,L1*%
X100480000Y-89535000D03*
X106530000Y-89535000D03*
%TD*%
D18*
%TO.C,C3*%
X114300000Y-101920000D03*
X114300000Y-103820000D03*
%TD*%
D23*
%TO.C,R13*%
X108585000Y-119102500D03*
X108585000Y-120927500D03*
%TD*%
D15*
%TO.C,J3*%
X133980000Y-79380000D03*
D16*
X133980000Y-76840000D03*
X136520000Y-79380000D03*
X136520000Y-76840000D03*
X139060000Y-79380000D03*
X139060000Y-76840000D03*
X141600000Y-79380000D03*
X141600000Y-76840000D03*
%TD*%
D10*
%TO.C,C5*%
X106365000Y-116205000D03*
X108265000Y-116205000D03*
%TD*%
D18*
%TO.C,C17*%
X115570000Y-91125000D03*
X115570000Y-93025000D03*
%TD*%
D10*
%TO.C,C4*%
X104460000Y-108585000D03*
X106360000Y-108585000D03*
%TD*%
%TO.C,C8*%
X124780000Y-108585000D03*
X126680000Y-108585000D03*
%TD*%
D14*
%TO.C,C19*%
X124140000Y-118745000D03*
X122240000Y-118745000D03*
%TD*%
D17*
%TO.C,R7*%
X128270000Y-92987500D03*
X128270000Y-91162500D03*
%TD*%
D34*
%TO.C,U8*%
X121805000Y-121035000D03*
X121805000Y-121535000D03*
D35*
X122055000Y-122060000D03*
X122555000Y-122060000D03*
X123055000Y-122060000D03*
D34*
X123305000Y-121535000D03*
X123305000Y-121035000D03*
X123055000Y-120510000D03*
X122555000Y-120510000D03*
X122055000Y-120510000D03*
%TD*%
D18*
%TO.C,C13*%
X119380000Y-75885000D03*
X119380000Y-77785000D03*
%TD*%
D25*
%TO.C,U1*%
X132780000Y-57785000D03*
X132780000Y-59055000D03*
X132780000Y-60325000D03*
X132780000Y-61595000D03*
X137730000Y-61595000D03*
X137730000Y-60325000D03*
X137730000Y-59055000D03*
X137730000Y-57785000D03*
%TD*%
M02*
