%TF.GenerationSoftware,KiCad,Pcbnew,7.0.2*%
%TF.CreationDate,2023-11-12T14:51:14-05:00*%
%TF.ProjectId,avc-computer,6176632d-636f-46d7-9075-7465722e6b69,rev?*%
%TF.SameCoordinates,Original*%
%TF.FileFunction,Drillmap*%
%TF.FilePolarity,Positive*%
%FSLAX45Y45*%
G04 Gerber Fmt 4.5, Leading zero omitted, Abs format (unit mm)*
G04 Created by KiCad (PCBNEW 7.0.2) date 2023-11-12 14:51:14*
%MOMM*%
%LPD*%
G01*
G04 APERTURE LIST*
%ADD10C,0.100000*%
%ADD11C,0.200000*%
%ADD12C,0.040000*%
%ADD13C,0.250000*%
%ADD14C,0.300000*%
G04 APERTURE END LIST*
D10*
X9904000Y-13925050D02*
G75*
G03*
X9904000Y-13925050I-170000J0D01*
G01*
X9334500Y-5562600D02*
X15113000Y-5562600D01*
X15113000Y-14287500D01*
X9334500Y-14287500D01*
X9334500Y-5562600D01*
X9904000Y-5925050D02*
G75*
G03*
X9904000Y-5925050I-170000J0D01*
G01*
X14904000Y-5925050D02*
G75*
G03*
X14904000Y-5925050I-170000J0D01*
G01*
X14904000Y-13925050D02*
G75*
G03*
X14904000Y-13925050I-170000J0D01*
G01*
D11*
D12*
X10076500Y-11473500D02*
X10116500Y-11513500D01*
X10116500Y-11473500D02*
X10076500Y-11513500D01*
X10203500Y-10457500D02*
X10243500Y-10497500D01*
X10243500Y-10457500D02*
X10203500Y-10497500D01*
X10203500Y-11600500D02*
X10243500Y-11640500D01*
X10243500Y-11600500D02*
X10203500Y-11640500D01*
X10394000Y-11029000D02*
X10434000Y-11069000D01*
X10434000Y-11029000D02*
X10394000Y-11069000D01*
X10394000Y-11537000D02*
X10434000Y-11577000D01*
X10434000Y-11537000D02*
X10394000Y-11577000D01*
X10457500Y-10457500D02*
X10497500Y-10497500D01*
X10497500Y-10457500D02*
X10457500Y-10497500D01*
X10648000Y-11346500D02*
X10688000Y-11386500D01*
X10688000Y-11346500D02*
X10648000Y-11386500D01*
X10711500Y-10521000D02*
X10751500Y-10561000D01*
X10751500Y-10521000D02*
X10711500Y-10561000D01*
X10711500Y-10648000D02*
X10751500Y-10688000D01*
X10751500Y-10648000D02*
X10711500Y-10688000D01*
X10806500Y-11600500D02*
X10846500Y-11640500D01*
X10846500Y-11600500D02*
X10806500Y-11640500D01*
X10952800Y-8031800D02*
X10992800Y-8071800D01*
X10992800Y-8031800D02*
X10952800Y-8071800D01*
X11029000Y-10394000D02*
X11069000Y-10434000D01*
X11069000Y-10394000D02*
X11029000Y-10434000D01*
X11092500Y-12489500D02*
X11132500Y-12529500D01*
X11132500Y-12489500D02*
X11092500Y-12529500D01*
X11156000Y-11092500D02*
X11196000Y-11132500D01*
X11196000Y-11092500D02*
X11156000Y-11132500D01*
X11156000Y-11727500D02*
X11196000Y-11767500D01*
X11196000Y-11727500D02*
X11156000Y-11767500D01*
X11156000Y-11981500D02*
X11196000Y-12021500D01*
X11196000Y-11981500D02*
X11156000Y-12021500D01*
X11168269Y-12667731D02*
X11208269Y-12707731D01*
X11208269Y-12667731D02*
X11168269Y-12707731D01*
X11283000Y-10965500D02*
X11323000Y-11005500D01*
X11323000Y-10965500D02*
X11283000Y-11005500D01*
X11283000Y-11219500D02*
X11323000Y-11259500D01*
X11323000Y-11219500D02*
X11283000Y-11259500D01*
X11346500Y-11727500D02*
X11386500Y-11767500D01*
X11386500Y-11727500D02*
X11346500Y-11767500D01*
X11359200Y-7777800D02*
X11399200Y-7817800D01*
X11399200Y-7777800D02*
X11359200Y-7817800D01*
X11410000Y-11092500D02*
X11450000Y-11132500D01*
X11450000Y-11092500D02*
X11410000Y-11132500D01*
X11664000Y-10330500D02*
X11704000Y-10370500D01*
X11704000Y-10330500D02*
X11664000Y-10370500D01*
X11664000Y-10457500D02*
X11704000Y-10497500D01*
X11704000Y-10457500D02*
X11664000Y-10497500D01*
X11727500Y-12680000D02*
X11767500Y-12720000D01*
X11767500Y-12680000D02*
X11727500Y-12720000D01*
X11854500Y-6965000D02*
X11894500Y-7005000D01*
X11894500Y-6965000D02*
X11854500Y-7005000D01*
X11854500Y-9886000D02*
X11894500Y-9926000D01*
X11894500Y-9886000D02*
X11854500Y-9926000D01*
X11854500Y-10013000D02*
X11894500Y-10053000D01*
X11894500Y-10013000D02*
X11854500Y-10053000D01*
X11854500Y-12362500D02*
X11894500Y-12402500D01*
X11894500Y-12362500D02*
X11854500Y-12402500D01*
X11918000Y-11664000D02*
X11958000Y-11704000D01*
X11958000Y-11664000D02*
X11918000Y-11704000D01*
X11981500Y-7028500D02*
X12021500Y-7068500D01*
X12021500Y-7028500D02*
X11981500Y-7068500D01*
X12045000Y-12146600D02*
X12085000Y-12186600D01*
X12085000Y-12146600D02*
X12045000Y-12186600D01*
X12108500Y-9822500D02*
X12148500Y-9862500D01*
X12148500Y-9822500D02*
X12108500Y-9862500D01*
X12108500Y-12362500D02*
X12148500Y-12402500D01*
X12148500Y-12362500D02*
X12108500Y-12402500D01*
X12172000Y-10140000D02*
X12212000Y-10180000D01*
X12212000Y-10140000D02*
X12172000Y-10180000D01*
X12197400Y-10902000D02*
X12237400Y-10942000D01*
X12237400Y-10902000D02*
X12197400Y-10942000D01*
X12222800Y-12273600D02*
X12262800Y-12313600D01*
X12262800Y-12273600D02*
X12222800Y-12313600D01*
X12362500Y-10330500D02*
X12402500Y-10370500D01*
X12402500Y-10330500D02*
X12362500Y-10370500D01*
X12489500Y-7663500D02*
X12529500Y-7703500D01*
X12529500Y-7663500D02*
X12489500Y-7703500D01*
X12489500Y-9187500D02*
X12529500Y-9227500D01*
X12529500Y-9187500D02*
X12489500Y-9227500D01*
X12527600Y-12095800D02*
X12567600Y-12135800D01*
X12567600Y-12095800D02*
X12527600Y-12135800D01*
X12616500Y-9974900D02*
X12656500Y-10014900D01*
X12656500Y-9974900D02*
X12616500Y-10014900D01*
X12680000Y-11460800D02*
X12720000Y-11500800D01*
X12720000Y-11460800D02*
X12680000Y-11500800D01*
X12832400Y-9962200D02*
X12872400Y-10002200D01*
X12872400Y-9962200D02*
X12832400Y-10002200D01*
X12870500Y-6012500D02*
X12910500Y-6052500D01*
X12910500Y-6012500D02*
X12870500Y-6052500D01*
X12870500Y-6647500D02*
X12910500Y-6687500D01*
X12910500Y-6647500D02*
X12870500Y-6687500D01*
X12908600Y-11410000D02*
X12948600Y-11450000D01*
X12948600Y-11410000D02*
X12908600Y-11450000D01*
X12934000Y-6774500D02*
X12974000Y-6814500D01*
X12974000Y-6774500D02*
X12934000Y-6814500D01*
X12934000Y-6901500D02*
X12974000Y-6941500D01*
X12974000Y-6901500D02*
X12934000Y-6941500D01*
X12934000Y-11156000D02*
X12974000Y-11196000D01*
X12974000Y-11156000D02*
X12934000Y-11196000D01*
X12959400Y-6126800D02*
X12999400Y-6166800D01*
X12999400Y-6126800D02*
X12959400Y-6166800D01*
X12972100Y-9708200D02*
X13012100Y-9748200D01*
X13012100Y-9708200D02*
X12972100Y-9748200D01*
X12990284Y-11238596D02*
X13030284Y-11278596D01*
X13030284Y-11238596D02*
X12990284Y-11278596D01*
X13086400Y-11460800D02*
X13126400Y-11500800D01*
X13126400Y-11460800D02*
X13086400Y-11500800D01*
X13162600Y-11587800D02*
X13202600Y-11627800D01*
X13202600Y-11587800D02*
X13162600Y-11627800D01*
X13251500Y-11854500D02*
X13291500Y-11894500D01*
X13291500Y-11854500D02*
X13251500Y-11894500D01*
X13645200Y-6126800D02*
X13685200Y-6166800D01*
X13685200Y-6126800D02*
X13645200Y-6166800D01*
X13759500Y-6012500D02*
X13799500Y-6052500D01*
X13799500Y-6012500D02*
X13759500Y-6052500D01*
X13759500Y-6647500D02*
X13799500Y-6687500D01*
X13799500Y-6647500D02*
X13759500Y-6687500D01*
D10*
X10654500Y-12700000D02*
G75*
G03*
X10654500Y-12700000I-50000J0D01*
G01*
X10654500Y-12954000D02*
G75*
G03*
X10654500Y-12954000I-50000J0D01*
G01*
X10654500Y-13208000D02*
G75*
G03*
X10654500Y-13208000I-50000J0D01*
G01*
X10654500Y-13462000D02*
G75*
G03*
X10654500Y-13462000I-50000J0D01*
G01*
X13448500Y-7683500D02*
G75*
G03*
X13448500Y-7683500I-50000J0D01*
G01*
X13448500Y-7937500D02*
G75*
G03*
X13448500Y-7937500I-50000J0D01*
G01*
X13702500Y-7683500D02*
G75*
G03*
X13702500Y-7683500I-50000J0D01*
G01*
X13702500Y-7937500D02*
G75*
G03*
X13702500Y-7937500I-50000J0D01*
G01*
X13956500Y-7683500D02*
G75*
G03*
X13956500Y-7683500I-50000J0D01*
G01*
X13956500Y-7937500D02*
G75*
G03*
X13956500Y-7937500I-50000J0D01*
G01*
X14083500Y-10860000D02*
G75*
G03*
X14083500Y-10860000I-50000J0D01*
G01*
X14083500Y-11114000D02*
G75*
G03*
X14083500Y-11114000I-50000J0D01*
G01*
X14083500Y-11368000D02*
G75*
G03*
X14083500Y-11368000I-50000J0D01*
G01*
X14210500Y-7683500D02*
G75*
G03*
X14210500Y-7683500I-50000J0D01*
G01*
X14210500Y-7937500D02*
G75*
G03*
X14210500Y-7937500I-50000J0D01*
G01*
X14464500Y-10858500D02*
G75*
G03*
X14464500Y-10858500I-50000J0D01*
G01*
X14464500Y-11112500D02*
G75*
G03*
X14464500Y-11112500I-50000J0D01*
G01*
X14464500Y-11366500D02*
G75*
G03*
X14464500Y-11366500I-50000J0D01*
G01*
X14845500Y-10858500D02*
G75*
G03*
X14845500Y-10858500I-50000J0D01*
G01*
X14845500Y-11112500D02*
G75*
G03*
X14845500Y-11112500I-50000J0D01*
G01*
X14845500Y-11366500D02*
G75*
G03*
X14845500Y-11366500I-50000J0D01*
G01*
D13*
X10378000Y-5971000D02*
X10378000Y-6221000D01*
X10253000Y-6096000D02*
X10503000Y-6096000D01*
X11158000Y-5971000D02*
X11158000Y-6221000D01*
X11033000Y-6096000D02*
X11283000Y-6096000D01*
D14*
X10502067Y-6964067D02*
X10502067Y-6751933D01*
X10289933Y-6751933D01*
X10289933Y-6964067D01*
X10502067Y-6964067D01*
X11282067Y-6964067D02*
X11282067Y-6751933D01*
X11069933Y-6751933D01*
X11069933Y-6964067D01*
X11282067Y-6964067D01*
D11*
X9577119Y-14605024D02*
X9577119Y-14405024D01*
X9577119Y-14405024D02*
X9624738Y-14405024D01*
X9624738Y-14405024D02*
X9653310Y-14414548D01*
X9653310Y-14414548D02*
X9672357Y-14433595D01*
X9672357Y-14433595D02*
X9681881Y-14452643D01*
X9681881Y-14452643D02*
X9691405Y-14490738D01*
X9691405Y-14490738D02*
X9691405Y-14519309D01*
X9691405Y-14519309D02*
X9681881Y-14557405D01*
X9681881Y-14557405D02*
X9672357Y-14576452D01*
X9672357Y-14576452D02*
X9653310Y-14595500D01*
X9653310Y-14595500D02*
X9624738Y-14605024D01*
X9624738Y-14605024D02*
X9577119Y-14605024D01*
X9777119Y-14605024D02*
X9777119Y-14471690D01*
X9777119Y-14509786D02*
X9786643Y-14490738D01*
X9786643Y-14490738D02*
X9796167Y-14481214D01*
X9796167Y-14481214D02*
X9815214Y-14471690D01*
X9815214Y-14471690D02*
X9834262Y-14471690D01*
X9900929Y-14605024D02*
X9900929Y-14471690D01*
X9900929Y-14405024D02*
X9891405Y-14414548D01*
X9891405Y-14414548D02*
X9900929Y-14424071D01*
X9900929Y-14424071D02*
X9910452Y-14414548D01*
X9910452Y-14414548D02*
X9900929Y-14405024D01*
X9900929Y-14405024D02*
X9900929Y-14424071D01*
X10024738Y-14605024D02*
X10005690Y-14595500D01*
X10005690Y-14595500D02*
X9996167Y-14576452D01*
X9996167Y-14576452D02*
X9996167Y-14405024D01*
X10129500Y-14605024D02*
X10110452Y-14595500D01*
X10110452Y-14595500D02*
X10100929Y-14576452D01*
X10100929Y-14576452D02*
X10100929Y-14405024D01*
X10358071Y-14605024D02*
X10358071Y-14405024D01*
X10358071Y-14405024D02*
X10424738Y-14547881D01*
X10424738Y-14547881D02*
X10491405Y-14405024D01*
X10491405Y-14405024D02*
X10491405Y-14605024D01*
X10672357Y-14605024D02*
X10672357Y-14500262D01*
X10672357Y-14500262D02*
X10662833Y-14481214D01*
X10662833Y-14481214D02*
X10643786Y-14471690D01*
X10643786Y-14471690D02*
X10605690Y-14471690D01*
X10605690Y-14471690D02*
X10586643Y-14481214D01*
X10672357Y-14595500D02*
X10653310Y-14605024D01*
X10653310Y-14605024D02*
X10605690Y-14605024D01*
X10605690Y-14605024D02*
X10586643Y-14595500D01*
X10586643Y-14595500D02*
X10577119Y-14576452D01*
X10577119Y-14576452D02*
X10577119Y-14557405D01*
X10577119Y-14557405D02*
X10586643Y-14538357D01*
X10586643Y-14538357D02*
X10605690Y-14528833D01*
X10605690Y-14528833D02*
X10653310Y-14528833D01*
X10653310Y-14528833D02*
X10672357Y-14519309D01*
X10767595Y-14471690D02*
X10767595Y-14671690D01*
X10767595Y-14481214D02*
X10786643Y-14471690D01*
X10786643Y-14471690D02*
X10824738Y-14471690D01*
X10824738Y-14471690D02*
X10843786Y-14481214D01*
X10843786Y-14481214D02*
X10853310Y-14490738D01*
X10853310Y-14490738D02*
X10862833Y-14509786D01*
X10862833Y-14509786D02*
X10862833Y-14566928D01*
X10862833Y-14566928D02*
X10853310Y-14585976D01*
X10853310Y-14585976D02*
X10843786Y-14595500D01*
X10843786Y-14595500D02*
X10824738Y-14605024D01*
X10824738Y-14605024D02*
X10786643Y-14605024D01*
X10786643Y-14605024D02*
X10767595Y-14595500D01*
X10948548Y-14585976D02*
X10958071Y-14595500D01*
X10958071Y-14595500D02*
X10948548Y-14605024D01*
X10948548Y-14605024D02*
X10939024Y-14595500D01*
X10939024Y-14595500D02*
X10948548Y-14585976D01*
X10948548Y-14585976D02*
X10948548Y-14605024D01*
X10948548Y-14481214D02*
X10958071Y-14490738D01*
X10958071Y-14490738D02*
X10948548Y-14500262D01*
X10948548Y-14500262D02*
X10939024Y-14490738D01*
X10939024Y-14490738D02*
X10948548Y-14481214D01*
X10948548Y-14481214D02*
X10948548Y-14500262D01*
D12*
X9289500Y-14912500D02*
X9329500Y-14952500D01*
X9329500Y-14912500D02*
X9289500Y-14952500D01*
D11*
X9615214Y-14825024D02*
X9634262Y-14825024D01*
X9634262Y-14825024D02*
X9653310Y-14834548D01*
X9653310Y-14834548D02*
X9662833Y-14844071D01*
X9662833Y-14844071D02*
X9672357Y-14863119D01*
X9672357Y-14863119D02*
X9681881Y-14901214D01*
X9681881Y-14901214D02*
X9681881Y-14948833D01*
X9681881Y-14948833D02*
X9672357Y-14986928D01*
X9672357Y-14986928D02*
X9662833Y-15005976D01*
X9662833Y-15005976D02*
X9653310Y-15015500D01*
X9653310Y-15015500D02*
X9634262Y-15025024D01*
X9634262Y-15025024D02*
X9615214Y-15025024D01*
X9615214Y-15025024D02*
X9596167Y-15015500D01*
X9596167Y-15015500D02*
X9586643Y-15005976D01*
X9586643Y-15005976D02*
X9577119Y-14986928D01*
X9577119Y-14986928D02*
X9567595Y-14948833D01*
X9567595Y-14948833D02*
X9567595Y-14901214D01*
X9567595Y-14901214D02*
X9577119Y-14863119D01*
X9577119Y-14863119D02*
X9586643Y-14844071D01*
X9586643Y-14844071D02*
X9596167Y-14834548D01*
X9596167Y-14834548D02*
X9615214Y-14825024D01*
X9767595Y-15005976D02*
X9777119Y-15015500D01*
X9777119Y-15015500D02*
X9767595Y-15025024D01*
X9767595Y-15025024D02*
X9758071Y-15015500D01*
X9758071Y-15015500D02*
X9767595Y-15005976D01*
X9767595Y-15005976D02*
X9767595Y-15025024D01*
X9948548Y-14891690D02*
X9948548Y-15025024D01*
X9900929Y-14815500D02*
X9853310Y-14958357D01*
X9853310Y-14958357D02*
X9977119Y-14958357D01*
X10091405Y-14825024D02*
X10110452Y-14825024D01*
X10110452Y-14825024D02*
X10129500Y-14834548D01*
X10129500Y-14834548D02*
X10139024Y-14844071D01*
X10139024Y-14844071D02*
X10148548Y-14863119D01*
X10148548Y-14863119D02*
X10158071Y-14901214D01*
X10158071Y-14901214D02*
X10158071Y-14948833D01*
X10158071Y-14948833D02*
X10148548Y-14986928D01*
X10148548Y-14986928D02*
X10139024Y-15005976D01*
X10139024Y-15005976D02*
X10129500Y-15015500D01*
X10129500Y-15015500D02*
X10110452Y-15025024D01*
X10110452Y-15025024D02*
X10091405Y-15025024D01*
X10091405Y-15025024D02*
X10072357Y-15015500D01*
X10072357Y-15015500D02*
X10062833Y-15005976D01*
X10062833Y-15005976D02*
X10053310Y-14986928D01*
X10053310Y-14986928D02*
X10043786Y-14948833D01*
X10043786Y-14948833D02*
X10043786Y-14901214D01*
X10043786Y-14901214D02*
X10053310Y-14863119D01*
X10053310Y-14863119D02*
X10062833Y-14844071D01*
X10062833Y-14844071D02*
X10072357Y-14834548D01*
X10072357Y-14834548D02*
X10091405Y-14825024D01*
X10281881Y-14825024D02*
X10300929Y-14825024D01*
X10300929Y-14825024D02*
X10319976Y-14834548D01*
X10319976Y-14834548D02*
X10329500Y-14844071D01*
X10329500Y-14844071D02*
X10339024Y-14863119D01*
X10339024Y-14863119D02*
X10348548Y-14901214D01*
X10348548Y-14901214D02*
X10348548Y-14948833D01*
X10348548Y-14948833D02*
X10339024Y-14986928D01*
X10339024Y-14986928D02*
X10329500Y-15005976D01*
X10329500Y-15005976D02*
X10319976Y-15015500D01*
X10319976Y-15015500D02*
X10300929Y-15025024D01*
X10300929Y-15025024D02*
X10281881Y-15025024D01*
X10281881Y-15025024D02*
X10262833Y-15015500D01*
X10262833Y-15015500D02*
X10253310Y-15005976D01*
X10253310Y-15005976D02*
X10243786Y-14986928D01*
X10243786Y-14986928D02*
X10234262Y-14948833D01*
X10234262Y-14948833D02*
X10234262Y-14901214D01*
X10234262Y-14901214D02*
X10243786Y-14863119D01*
X10243786Y-14863119D02*
X10253310Y-14844071D01*
X10253310Y-14844071D02*
X10262833Y-14834548D01*
X10262833Y-14834548D02*
X10281881Y-14825024D01*
X10434262Y-15025024D02*
X10434262Y-14891690D01*
X10434262Y-14910738D02*
X10443786Y-14901214D01*
X10443786Y-14901214D02*
X10462833Y-14891690D01*
X10462833Y-14891690D02*
X10491405Y-14891690D01*
X10491405Y-14891690D02*
X10510452Y-14901214D01*
X10510452Y-14901214D02*
X10519976Y-14920262D01*
X10519976Y-14920262D02*
X10519976Y-15025024D01*
X10519976Y-14920262D02*
X10529500Y-14901214D01*
X10529500Y-14901214D02*
X10548548Y-14891690D01*
X10548548Y-14891690D02*
X10577119Y-14891690D01*
X10577119Y-14891690D02*
X10596167Y-14901214D01*
X10596167Y-14901214D02*
X10605691Y-14920262D01*
X10605691Y-14920262D02*
X10605691Y-15025024D01*
X10700929Y-15025024D02*
X10700929Y-14891690D01*
X10700929Y-14910738D02*
X10710452Y-14901214D01*
X10710452Y-14901214D02*
X10729500Y-14891690D01*
X10729500Y-14891690D02*
X10758072Y-14891690D01*
X10758072Y-14891690D02*
X10777119Y-14901214D01*
X10777119Y-14901214D02*
X10786643Y-14920262D01*
X10786643Y-14920262D02*
X10786643Y-15025024D01*
X10786643Y-14920262D02*
X10796167Y-14901214D01*
X10796167Y-14901214D02*
X10815214Y-14891690D01*
X10815214Y-14891690D02*
X10843786Y-14891690D01*
X10843786Y-14891690D02*
X10862833Y-14901214D01*
X10862833Y-14901214D02*
X10872357Y-14920262D01*
X10872357Y-14920262D02*
X10872357Y-15025024D01*
X11262833Y-14815500D02*
X11091405Y-15072643D01*
X11519976Y-14825024D02*
X11539024Y-14825024D01*
X11539024Y-14825024D02*
X11558072Y-14834548D01*
X11558072Y-14834548D02*
X11567595Y-14844071D01*
X11567595Y-14844071D02*
X11577119Y-14863119D01*
X11577119Y-14863119D02*
X11586643Y-14901214D01*
X11586643Y-14901214D02*
X11586643Y-14948833D01*
X11586643Y-14948833D02*
X11577119Y-14986928D01*
X11577119Y-14986928D02*
X11567595Y-15005976D01*
X11567595Y-15005976D02*
X11558072Y-15015500D01*
X11558072Y-15015500D02*
X11539024Y-15025024D01*
X11539024Y-15025024D02*
X11519976Y-15025024D01*
X11519976Y-15025024D02*
X11500929Y-15015500D01*
X11500929Y-15015500D02*
X11491405Y-15005976D01*
X11491405Y-15005976D02*
X11481881Y-14986928D01*
X11481881Y-14986928D02*
X11472357Y-14948833D01*
X11472357Y-14948833D02*
X11472357Y-14901214D01*
X11472357Y-14901214D02*
X11481881Y-14863119D01*
X11481881Y-14863119D02*
X11491405Y-14844071D01*
X11491405Y-14844071D02*
X11500929Y-14834548D01*
X11500929Y-14834548D02*
X11519976Y-14825024D01*
X11672357Y-15005976D02*
X11681881Y-15015500D01*
X11681881Y-15015500D02*
X11672357Y-15025024D01*
X11672357Y-15025024D02*
X11662833Y-15015500D01*
X11662833Y-15015500D02*
X11672357Y-15005976D01*
X11672357Y-15005976D02*
X11672357Y-15025024D01*
X11805691Y-14825024D02*
X11824738Y-14825024D01*
X11824738Y-14825024D02*
X11843786Y-14834548D01*
X11843786Y-14834548D02*
X11853310Y-14844071D01*
X11853310Y-14844071D02*
X11862833Y-14863119D01*
X11862833Y-14863119D02*
X11872357Y-14901214D01*
X11872357Y-14901214D02*
X11872357Y-14948833D01*
X11872357Y-14948833D02*
X11862833Y-14986928D01*
X11862833Y-14986928D02*
X11853310Y-15005976D01*
X11853310Y-15005976D02*
X11843786Y-15015500D01*
X11843786Y-15015500D02*
X11824738Y-15025024D01*
X11824738Y-15025024D02*
X11805691Y-15025024D01*
X11805691Y-15025024D02*
X11786643Y-15015500D01*
X11786643Y-15015500D02*
X11777119Y-15005976D01*
X11777119Y-15005976D02*
X11767595Y-14986928D01*
X11767595Y-14986928D02*
X11758072Y-14948833D01*
X11758072Y-14948833D02*
X11758072Y-14901214D01*
X11758072Y-14901214D02*
X11767595Y-14863119D01*
X11767595Y-14863119D02*
X11777119Y-14844071D01*
X11777119Y-14844071D02*
X11786643Y-14834548D01*
X11786643Y-14834548D02*
X11805691Y-14825024D01*
X12062833Y-15025024D02*
X11948548Y-15025024D01*
X12005691Y-15025024D02*
X12005691Y-14825024D01*
X12005691Y-14825024D02*
X11986643Y-14853595D01*
X11986643Y-14853595D02*
X11967595Y-14872643D01*
X11967595Y-14872643D02*
X11948548Y-14882167D01*
X12243786Y-14825024D02*
X12148548Y-14825024D01*
X12148548Y-14825024D02*
X12139024Y-14920262D01*
X12139024Y-14920262D02*
X12148548Y-14910738D01*
X12148548Y-14910738D02*
X12167595Y-14901214D01*
X12167595Y-14901214D02*
X12215214Y-14901214D01*
X12215214Y-14901214D02*
X12234262Y-14910738D01*
X12234262Y-14910738D02*
X12243786Y-14920262D01*
X12243786Y-14920262D02*
X12253310Y-14939309D01*
X12253310Y-14939309D02*
X12253310Y-14986928D01*
X12253310Y-14986928D02*
X12243786Y-15005976D01*
X12243786Y-15005976D02*
X12234262Y-15015500D01*
X12234262Y-15015500D02*
X12215214Y-15025024D01*
X12215214Y-15025024D02*
X12167595Y-15025024D01*
X12167595Y-15025024D02*
X12148548Y-15015500D01*
X12148548Y-15015500D02*
X12139024Y-15005976D01*
X12319976Y-14825024D02*
X12453310Y-14825024D01*
X12453310Y-14825024D02*
X12367595Y-15025024D01*
X12519976Y-14825024D02*
X12519976Y-14863119D01*
X12596167Y-14825024D02*
X12596167Y-14863119D01*
X12891405Y-15101214D02*
X12881881Y-15091690D01*
X12881881Y-15091690D02*
X12862834Y-15063119D01*
X12862834Y-15063119D02*
X12853310Y-15044071D01*
X12853310Y-15044071D02*
X12843786Y-15015500D01*
X12843786Y-15015500D02*
X12834262Y-14967881D01*
X12834262Y-14967881D02*
X12834262Y-14929786D01*
X12834262Y-14929786D02*
X12843786Y-14882167D01*
X12843786Y-14882167D02*
X12853310Y-14853595D01*
X12853310Y-14853595D02*
X12862834Y-14834548D01*
X12862834Y-14834548D02*
X12881881Y-14805976D01*
X12881881Y-14805976D02*
X12891405Y-14796452D01*
X13062834Y-14825024D02*
X12967595Y-14825024D01*
X12967595Y-14825024D02*
X12958072Y-14920262D01*
X12958072Y-14920262D02*
X12967595Y-14910738D01*
X12967595Y-14910738D02*
X12986643Y-14901214D01*
X12986643Y-14901214D02*
X13034262Y-14901214D01*
X13034262Y-14901214D02*
X13053310Y-14910738D01*
X13053310Y-14910738D02*
X13062834Y-14920262D01*
X13062834Y-14920262D02*
X13072357Y-14939309D01*
X13072357Y-14939309D02*
X13072357Y-14986928D01*
X13072357Y-14986928D02*
X13062834Y-15005976D01*
X13062834Y-15005976D02*
X13053310Y-15015500D01*
X13053310Y-15015500D02*
X13034262Y-15025024D01*
X13034262Y-15025024D02*
X12986643Y-15025024D01*
X12986643Y-15025024D02*
X12967595Y-15015500D01*
X12967595Y-15015500D02*
X12958072Y-15005976D01*
X13167595Y-15025024D02*
X13205691Y-15025024D01*
X13205691Y-15025024D02*
X13224738Y-15015500D01*
X13224738Y-15015500D02*
X13234262Y-15005976D01*
X13234262Y-15005976D02*
X13253310Y-14977405D01*
X13253310Y-14977405D02*
X13262834Y-14939309D01*
X13262834Y-14939309D02*
X13262834Y-14863119D01*
X13262834Y-14863119D02*
X13253310Y-14844071D01*
X13253310Y-14844071D02*
X13243786Y-14834548D01*
X13243786Y-14834548D02*
X13224738Y-14825024D01*
X13224738Y-14825024D02*
X13186643Y-14825024D01*
X13186643Y-14825024D02*
X13167595Y-14834548D01*
X13167595Y-14834548D02*
X13158072Y-14844071D01*
X13158072Y-14844071D02*
X13148548Y-14863119D01*
X13148548Y-14863119D02*
X13148548Y-14910738D01*
X13148548Y-14910738D02*
X13158072Y-14929786D01*
X13158072Y-14929786D02*
X13167595Y-14939309D01*
X13167595Y-14939309D02*
X13186643Y-14948833D01*
X13186643Y-14948833D02*
X13224738Y-14948833D01*
X13224738Y-14948833D02*
X13243786Y-14939309D01*
X13243786Y-14939309D02*
X13253310Y-14929786D01*
X13253310Y-14929786D02*
X13262834Y-14910738D01*
X13500929Y-15025024D02*
X13500929Y-14825024D01*
X13586643Y-15025024D02*
X13586643Y-14920262D01*
X13586643Y-14920262D02*
X13577119Y-14901214D01*
X13577119Y-14901214D02*
X13558072Y-14891690D01*
X13558072Y-14891690D02*
X13529500Y-14891690D01*
X13529500Y-14891690D02*
X13510453Y-14901214D01*
X13510453Y-14901214D02*
X13500929Y-14910738D01*
X13710453Y-15025024D02*
X13691405Y-15015500D01*
X13691405Y-15015500D02*
X13681881Y-15005976D01*
X13681881Y-15005976D02*
X13672357Y-14986928D01*
X13672357Y-14986928D02*
X13672357Y-14929786D01*
X13672357Y-14929786D02*
X13681881Y-14910738D01*
X13681881Y-14910738D02*
X13691405Y-14901214D01*
X13691405Y-14901214D02*
X13710453Y-14891690D01*
X13710453Y-14891690D02*
X13739024Y-14891690D01*
X13739024Y-14891690D02*
X13758072Y-14901214D01*
X13758072Y-14901214D02*
X13767596Y-14910738D01*
X13767596Y-14910738D02*
X13777119Y-14929786D01*
X13777119Y-14929786D02*
X13777119Y-14986928D01*
X13777119Y-14986928D02*
X13767596Y-15005976D01*
X13767596Y-15005976D02*
X13758072Y-15015500D01*
X13758072Y-15015500D02*
X13739024Y-15025024D01*
X13739024Y-15025024D02*
X13710453Y-15025024D01*
X13891405Y-15025024D02*
X13872357Y-15015500D01*
X13872357Y-15015500D02*
X13862834Y-14996452D01*
X13862834Y-14996452D02*
X13862834Y-14825024D01*
X14043786Y-15015500D02*
X14024738Y-15025024D01*
X14024738Y-15025024D02*
X13986643Y-15025024D01*
X13986643Y-15025024D02*
X13967596Y-15015500D01*
X13967596Y-15015500D02*
X13958072Y-14996452D01*
X13958072Y-14996452D02*
X13958072Y-14920262D01*
X13958072Y-14920262D02*
X13967596Y-14901214D01*
X13967596Y-14901214D02*
X13986643Y-14891690D01*
X13986643Y-14891690D02*
X14024738Y-14891690D01*
X14024738Y-14891690D02*
X14043786Y-14901214D01*
X14043786Y-14901214D02*
X14053310Y-14920262D01*
X14053310Y-14920262D02*
X14053310Y-14939309D01*
X14053310Y-14939309D02*
X13958072Y-14958357D01*
X14129500Y-15015500D02*
X14148548Y-15025024D01*
X14148548Y-15025024D02*
X14186643Y-15025024D01*
X14186643Y-15025024D02*
X14205691Y-15015500D01*
X14205691Y-15015500D02*
X14215215Y-14996452D01*
X14215215Y-14996452D02*
X14215215Y-14986928D01*
X14215215Y-14986928D02*
X14205691Y-14967881D01*
X14205691Y-14967881D02*
X14186643Y-14958357D01*
X14186643Y-14958357D02*
X14158072Y-14958357D01*
X14158072Y-14958357D02*
X14139024Y-14948833D01*
X14139024Y-14948833D02*
X14129500Y-14929786D01*
X14129500Y-14929786D02*
X14129500Y-14920262D01*
X14129500Y-14920262D02*
X14139024Y-14901214D01*
X14139024Y-14901214D02*
X14158072Y-14891690D01*
X14158072Y-14891690D02*
X14186643Y-14891690D01*
X14186643Y-14891690D02*
X14205691Y-14901214D01*
X14281881Y-15101214D02*
X14291405Y-15091690D01*
X14291405Y-15091690D02*
X14310453Y-15063119D01*
X14310453Y-15063119D02*
X14319977Y-15044071D01*
X14319977Y-15044071D02*
X14329500Y-15015500D01*
X14329500Y-15015500D02*
X14339024Y-14967881D01*
X14339024Y-14967881D02*
X14339024Y-14929786D01*
X14339024Y-14929786D02*
X14329500Y-14882167D01*
X14329500Y-14882167D02*
X14319977Y-14853595D01*
X14319977Y-14853595D02*
X14310453Y-14834548D01*
X14310453Y-14834548D02*
X14291405Y-14805976D01*
X14291405Y-14805976D02*
X14281881Y-14796452D01*
D10*
X9329500Y-15196500D02*
G75*
G03*
X9329500Y-15196500I-50000J0D01*
G01*
D11*
X9681881Y-15289024D02*
X9567595Y-15289024D01*
X9624738Y-15289024D02*
X9624738Y-15089024D01*
X9624738Y-15089024D02*
X9605690Y-15117595D01*
X9605690Y-15117595D02*
X9586643Y-15136643D01*
X9586643Y-15136643D02*
X9567595Y-15146167D01*
X9767595Y-15269976D02*
X9777119Y-15279500D01*
X9777119Y-15279500D02*
X9767595Y-15289024D01*
X9767595Y-15289024D02*
X9758071Y-15279500D01*
X9758071Y-15279500D02*
X9767595Y-15269976D01*
X9767595Y-15269976D02*
X9767595Y-15289024D01*
X9900929Y-15089024D02*
X9919976Y-15089024D01*
X9919976Y-15089024D02*
X9939024Y-15098548D01*
X9939024Y-15098548D02*
X9948548Y-15108071D01*
X9948548Y-15108071D02*
X9958071Y-15127119D01*
X9958071Y-15127119D02*
X9967595Y-15165214D01*
X9967595Y-15165214D02*
X9967595Y-15212833D01*
X9967595Y-15212833D02*
X9958071Y-15250928D01*
X9958071Y-15250928D02*
X9948548Y-15269976D01*
X9948548Y-15269976D02*
X9939024Y-15279500D01*
X9939024Y-15279500D02*
X9919976Y-15289024D01*
X9919976Y-15289024D02*
X9900929Y-15289024D01*
X9900929Y-15289024D02*
X9881881Y-15279500D01*
X9881881Y-15279500D02*
X9872357Y-15269976D01*
X9872357Y-15269976D02*
X9862833Y-15250928D01*
X9862833Y-15250928D02*
X9853310Y-15212833D01*
X9853310Y-15212833D02*
X9853310Y-15165214D01*
X9853310Y-15165214D02*
X9862833Y-15127119D01*
X9862833Y-15127119D02*
X9872357Y-15108071D01*
X9872357Y-15108071D02*
X9881881Y-15098548D01*
X9881881Y-15098548D02*
X9900929Y-15089024D01*
X10091405Y-15089024D02*
X10110452Y-15089024D01*
X10110452Y-15089024D02*
X10129500Y-15098548D01*
X10129500Y-15098548D02*
X10139024Y-15108071D01*
X10139024Y-15108071D02*
X10148548Y-15127119D01*
X10148548Y-15127119D02*
X10158071Y-15165214D01*
X10158071Y-15165214D02*
X10158071Y-15212833D01*
X10158071Y-15212833D02*
X10148548Y-15250928D01*
X10148548Y-15250928D02*
X10139024Y-15269976D01*
X10139024Y-15269976D02*
X10129500Y-15279500D01*
X10129500Y-15279500D02*
X10110452Y-15289024D01*
X10110452Y-15289024D02*
X10091405Y-15289024D01*
X10091405Y-15289024D02*
X10072357Y-15279500D01*
X10072357Y-15279500D02*
X10062833Y-15269976D01*
X10062833Y-15269976D02*
X10053310Y-15250928D01*
X10053310Y-15250928D02*
X10043786Y-15212833D01*
X10043786Y-15212833D02*
X10043786Y-15165214D01*
X10043786Y-15165214D02*
X10053310Y-15127119D01*
X10053310Y-15127119D02*
X10062833Y-15108071D01*
X10062833Y-15108071D02*
X10072357Y-15098548D01*
X10072357Y-15098548D02*
X10091405Y-15089024D01*
X10281881Y-15089024D02*
X10300929Y-15089024D01*
X10300929Y-15089024D02*
X10319976Y-15098548D01*
X10319976Y-15098548D02*
X10329500Y-15108071D01*
X10329500Y-15108071D02*
X10339024Y-15127119D01*
X10339024Y-15127119D02*
X10348548Y-15165214D01*
X10348548Y-15165214D02*
X10348548Y-15212833D01*
X10348548Y-15212833D02*
X10339024Y-15250928D01*
X10339024Y-15250928D02*
X10329500Y-15269976D01*
X10329500Y-15269976D02*
X10319976Y-15279500D01*
X10319976Y-15279500D02*
X10300929Y-15289024D01*
X10300929Y-15289024D02*
X10281881Y-15289024D01*
X10281881Y-15289024D02*
X10262833Y-15279500D01*
X10262833Y-15279500D02*
X10253310Y-15269976D01*
X10253310Y-15269976D02*
X10243786Y-15250928D01*
X10243786Y-15250928D02*
X10234262Y-15212833D01*
X10234262Y-15212833D02*
X10234262Y-15165214D01*
X10234262Y-15165214D02*
X10243786Y-15127119D01*
X10243786Y-15127119D02*
X10253310Y-15108071D01*
X10253310Y-15108071D02*
X10262833Y-15098548D01*
X10262833Y-15098548D02*
X10281881Y-15089024D01*
X10434262Y-15289024D02*
X10434262Y-15155690D01*
X10434262Y-15174738D02*
X10443786Y-15165214D01*
X10443786Y-15165214D02*
X10462833Y-15155690D01*
X10462833Y-15155690D02*
X10491405Y-15155690D01*
X10491405Y-15155690D02*
X10510452Y-15165214D01*
X10510452Y-15165214D02*
X10519976Y-15184262D01*
X10519976Y-15184262D02*
X10519976Y-15289024D01*
X10519976Y-15184262D02*
X10529500Y-15165214D01*
X10529500Y-15165214D02*
X10548548Y-15155690D01*
X10548548Y-15155690D02*
X10577119Y-15155690D01*
X10577119Y-15155690D02*
X10596167Y-15165214D01*
X10596167Y-15165214D02*
X10605691Y-15184262D01*
X10605691Y-15184262D02*
X10605691Y-15289024D01*
X10700929Y-15289024D02*
X10700929Y-15155690D01*
X10700929Y-15174738D02*
X10710452Y-15165214D01*
X10710452Y-15165214D02*
X10729500Y-15155690D01*
X10729500Y-15155690D02*
X10758072Y-15155690D01*
X10758072Y-15155690D02*
X10777119Y-15165214D01*
X10777119Y-15165214D02*
X10786643Y-15184262D01*
X10786643Y-15184262D02*
X10786643Y-15289024D01*
X10786643Y-15184262D02*
X10796167Y-15165214D01*
X10796167Y-15165214D02*
X10815214Y-15155690D01*
X10815214Y-15155690D02*
X10843786Y-15155690D01*
X10843786Y-15155690D02*
X10862833Y-15165214D01*
X10862833Y-15165214D02*
X10872357Y-15184262D01*
X10872357Y-15184262D02*
X10872357Y-15289024D01*
X11262833Y-15079500D02*
X11091405Y-15336643D01*
X11519976Y-15089024D02*
X11539024Y-15089024D01*
X11539024Y-15089024D02*
X11558072Y-15098548D01*
X11558072Y-15098548D02*
X11567595Y-15108071D01*
X11567595Y-15108071D02*
X11577119Y-15127119D01*
X11577119Y-15127119D02*
X11586643Y-15165214D01*
X11586643Y-15165214D02*
X11586643Y-15212833D01*
X11586643Y-15212833D02*
X11577119Y-15250928D01*
X11577119Y-15250928D02*
X11567595Y-15269976D01*
X11567595Y-15269976D02*
X11558072Y-15279500D01*
X11558072Y-15279500D02*
X11539024Y-15289024D01*
X11539024Y-15289024D02*
X11519976Y-15289024D01*
X11519976Y-15289024D02*
X11500929Y-15279500D01*
X11500929Y-15279500D02*
X11491405Y-15269976D01*
X11491405Y-15269976D02*
X11481881Y-15250928D01*
X11481881Y-15250928D02*
X11472357Y-15212833D01*
X11472357Y-15212833D02*
X11472357Y-15165214D01*
X11472357Y-15165214D02*
X11481881Y-15127119D01*
X11481881Y-15127119D02*
X11491405Y-15108071D01*
X11491405Y-15108071D02*
X11500929Y-15098548D01*
X11500929Y-15098548D02*
X11519976Y-15089024D01*
X11672357Y-15269976D02*
X11681881Y-15279500D01*
X11681881Y-15279500D02*
X11672357Y-15289024D01*
X11672357Y-15289024D02*
X11662833Y-15279500D01*
X11662833Y-15279500D02*
X11672357Y-15269976D01*
X11672357Y-15269976D02*
X11672357Y-15289024D01*
X11805691Y-15089024D02*
X11824738Y-15089024D01*
X11824738Y-15089024D02*
X11843786Y-15098548D01*
X11843786Y-15098548D02*
X11853310Y-15108071D01*
X11853310Y-15108071D02*
X11862833Y-15127119D01*
X11862833Y-15127119D02*
X11872357Y-15165214D01*
X11872357Y-15165214D02*
X11872357Y-15212833D01*
X11872357Y-15212833D02*
X11862833Y-15250928D01*
X11862833Y-15250928D02*
X11853310Y-15269976D01*
X11853310Y-15269976D02*
X11843786Y-15279500D01*
X11843786Y-15279500D02*
X11824738Y-15289024D01*
X11824738Y-15289024D02*
X11805691Y-15289024D01*
X11805691Y-15289024D02*
X11786643Y-15279500D01*
X11786643Y-15279500D02*
X11777119Y-15269976D01*
X11777119Y-15269976D02*
X11767595Y-15250928D01*
X11767595Y-15250928D02*
X11758072Y-15212833D01*
X11758072Y-15212833D02*
X11758072Y-15165214D01*
X11758072Y-15165214D02*
X11767595Y-15127119D01*
X11767595Y-15127119D02*
X11777119Y-15108071D01*
X11777119Y-15108071D02*
X11786643Y-15098548D01*
X11786643Y-15098548D02*
X11805691Y-15089024D01*
X11939024Y-15089024D02*
X12062833Y-15089024D01*
X12062833Y-15089024D02*
X11996167Y-15165214D01*
X11996167Y-15165214D02*
X12024738Y-15165214D01*
X12024738Y-15165214D02*
X12043786Y-15174738D01*
X12043786Y-15174738D02*
X12053310Y-15184262D01*
X12053310Y-15184262D02*
X12062833Y-15203309D01*
X12062833Y-15203309D02*
X12062833Y-15250928D01*
X12062833Y-15250928D02*
X12053310Y-15269976D01*
X12053310Y-15269976D02*
X12043786Y-15279500D01*
X12043786Y-15279500D02*
X12024738Y-15289024D01*
X12024738Y-15289024D02*
X11967595Y-15289024D01*
X11967595Y-15289024D02*
X11948548Y-15279500D01*
X11948548Y-15279500D02*
X11939024Y-15269976D01*
X12158072Y-15289024D02*
X12196167Y-15289024D01*
X12196167Y-15289024D02*
X12215214Y-15279500D01*
X12215214Y-15279500D02*
X12224738Y-15269976D01*
X12224738Y-15269976D02*
X12243786Y-15241405D01*
X12243786Y-15241405D02*
X12253310Y-15203309D01*
X12253310Y-15203309D02*
X12253310Y-15127119D01*
X12253310Y-15127119D02*
X12243786Y-15108071D01*
X12243786Y-15108071D02*
X12234262Y-15098548D01*
X12234262Y-15098548D02*
X12215214Y-15089024D01*
X12215214Y-15089024D02*
X12177119Y-15089024D01*
X12177119Y-15089024D02*
X12158072Y-15098548D01*
X12158072Y-15098548D02*
X12148548Y-15108071D01*
X12148548Y-15108071D02*
X12139024Y-15127119D01*
X12139024Y-15127119D02*
X12139024Y-15174738D01*
X12139024Y-15174738D02*
X12148548Y-15193786D01*
X12148548Y-15193786D02*
X12158072Y-15203309D01*
X12158072Y-15203309D02*
X12177119Y-15212833D01*
X12177119Y-15212833D02*
X12215214Y-15212833D01*
X12215214Y-15212833D02*
X12234262Y-15203309D01*
X12234262Y-15203309D02*
X12243786Y-15193786D01*
X12243786Y-15193786D02*
X12253310Y-15174738D01*
X12424738Y-15155690D02*
X12424738Y-15289024D01*
X12377119Y-15079500D02*
X12329500Y-15222357D01*
X12329500Y-15222357D02*
X12453310Y-15222357D01*
X12519976Y-15089024D02*
X12519976Y-15127119D01*
X12596167Y-15089024D02*
X12596167Y-15127119D01*
X12891405Y-15365214D02*
X12881881Y-15355690D01*
X12881881Y-15355690D02*
X12862834Y-15327119D01*
X12862834Y-15327119D02*
X12853310Y-15308071D01*
X12853310Y-15308071D02*
X12843786Y-15279500D01*
X12843786Y-15279500D02*
X12834262Y-15231881D01*
X12834262Y-15231881D02*
X12834262Y-15193786D01*
X12834262Y-15193786D02*
X12843786Y-15146167D01*
X12843786Y-15146167D02*
X12853310Y-15117595D01*
X12853310Y-15117595D02*
X12862834Y-15098548D01*
X12862834Y-15098548D02*
X12881881Y-15069976D01*
X12881881Y-15069976D02*
X12891405Y-15060452D01*
X12958072Y-15108071D02*
X12967595Y-15098548D01*
X12967595Y-15098548D02*
X12986643Y-15089024D01*
X12986643Y-15089024D02*
X13034262Y-15089024D01*
X13034262Y-15089024D02*
X13053310Y-15098548D01*
X13053310Y-15098548D02*
X13062834Y-15108071D01*
X13062834Y-15108071D02*
X13072357Y-15127119D01*
X13072357Y-15127119D02*
X13072357Y-15146167D01*
X13072357Y-15146167D02*
X13062834Y-15174738D01*
X13062834Y-15174738D02*
X12948548Y-15289024D01*
X12948548Y-15289024D02*
X13072357Y-15289024D01*
X13262834Y-15289024D02*
X13148548Y-15289024D01*
X13205691Y-15289024D02*
X13205691Y-15089024D01*
X13205691Y-15089024D02*
X13186643Y-15117595D01*
X13186643Y-15117595D02*
X13167595Y-15136643D01*
X13167595Y-15136643D02*
X13148548Y-15146167D01*
X13500929Y-15289024D02*
X13500929Y-15089024D01*
X13586643Y-15289024D02*
X13586643Y-15184262D01*
X13586643Y-15184262D02*
X13577119Y-15165214D01*
X13577119Y-15165214D02*
X13558072Y-15155690D01*
X13558072Y-15155690D02*
X13529500Y-15155690D01*
X13529500Y-15155690D02*
X13510453Y-15165214D01*
X13510453Y-15165214D02*
X13500929Y-15174738D01*
X13710453Y-15289024D02*
X13691405Y-15279500D01*
X13691405Y-15279500D02*
X13681881Y-15269976D01*
X13681881Y-15269976D02*
X13672357Y-15250928D01*
X13672357Y-15250928D02*
X13672357Y-15193786D01*
X13672357Y-15193786D02*
X13681881Y-15174738D01*
X13681881Y-15174738D02*
X13691405Y-15165214D01*
X13691405Y-15165214D02*
X13710453Y-15155690D01*
X13710453Y-15155690D02*
X13739024Y-15155690D01*
X13739024Y-15155690D02*
X13758072Y-15165214D01*
X13758072Y-15165214D02*
X13767596Y-15174738D01*
X13767596Y-15174738D02*
X13777119Y-15193786D01*
X13777119Y-15193786D02*
X13777119Y-15250928D01*
X13777119Y-15250928D02*
X13767596Y-15269976D01*
X13767596Y-15269976D02*
X13758072Y-15279500D01*
X13758072Y-15279500D02*
X13739024Y-15289024D01*
X13739024Y-15289024D02*
X13710453Y-15289024D01*
X13891405Y-15289024D02*
X13872357Y-15279500D01*
X13872357Y-15279500D02*
X13862834Y-15260452D01*
X13862834Y-15260452D02*
X13862834Y-15089024D01*
X14043786Y-15279500D02*
X14024738Y-15289024D01*
X14024738Y-15289024D02*
X13986643Y-15289024D01*
X13986643Y-15289024D02*
X13967596Y-15279500D01*
X13967596Y-15279500D02*
X13958072Y-15260452D01*
X13958072Y-15260452D02*
X13958072Y-15184262D01*
X13958072Y-15184262D02*
X13967596Y-15165214D01*
X13967596Y-15165214D02*
X13986643Y-15155690D01*
X13986643Y-15155690D02*
X14024738Y-15155690D01*
X14024738Y-15155690D02*
X14043786Y-15165214D01*
X14043786Y-15165214D02*
X14053310Y-15184262D01*
X14053310Y-15184262D02*
X14053310Y-15203309D01*
X14053310Y-15203309D02*
X13958072Y-15222357D01*
X14129500Y-15279500D02*
X14148548Y-15289024D01*
X14148548Y-15289024D02*
X14186643Y-15289024D01*
X14186643Y-15289024D02*
X14205691Y-15279500D01*
X14205691Y-15279500D02*
X14215215Y-15260452D01*
X14215215Y-15260452D02*
X14215215Y-15250928D01*
X14215215Y-15250928D02*
X14205691Y-15231881D01*
X14205691Y-15231881D02*
X14186643Y-15222357D01*
X14186643Y-15222357D02*
X14158072Y-15222357D01*
X14158072Y-15222357D02*
X14139024Y-15212833D01*
X14139024Y-15212833D02*
X14129500Y-15193786D01*
X14129500Y-15193786D02*
X14129500Y-15184262D01*
X14129500Y-15184262D02*
X14139024Y-15165214D01*
X14139024Y-15165214D02*
X14158072Y-15155690D01*
X14158072Y-15155690D02*
X14186643Y-15155690D01*
X14186643Y-15155690D02*
X14205691Y-15165214D01*
X14281881Y-15365214D02*
X14291405Y-15355690D01*
X14291405Y-15355690D02*
X14310453Y-15327119D01*
X14310453Y-15327119D02*
X14319977Y-15308071D01*
X14319977Y-15308071D02*
X14329500Y-15279500D01*
X14329500Y-15279500D02*
X14339024Y-15231881D01*
X14339024Y-15231881D02*
X14339024Y-15193786D01*
X14339024Y-15193786D02*
X14329500Y-15146167D01*
X14329500Y-15146167D02*
X14319977Y-15117595D01*
X14319977Y-15117595D02*
X14310453Y-15098548D01*
X14310453Y-15098548D02*
X14291405Y-15069976D01*
X14291405Y-15069976D02*
X14281881Y-15060452D01*
X9229500Y-15360500D02*
X9229500Y-15560500D01*
X9129500Y-15460500D02*
X9329500Y-15460500D01*
X9567595Y-15372071D02*
X9577119Y-15362548D01*
X9577119Y-15362548D02*
X9596167Y-15353024D01*
X9596167Y-15353024D02*
X9643786Y-15353024D01*
X9643786Y-15353024D02*
X9662833Y-15362548D01*
X9662833Y-15362548D02*
X9672357Y-15372071D01*
X9672357Y-15372071D02*
X9681881Y-15391119D01*
X9681881Y-15391119D02*
X9681881Y-15410167D01*
X9681881Y-15410167D02*
X9672357Y-15438738D01*
X9672357Y-15438738D02*
X9558071Y-15553024D01*
X9558071Y-15553024D02*
X9681881Y-15553024D01*
X9767595Y-15533976D02*
X9777119Y-15543500D01*
X9777119Y-15543500D02*
X9767595Y-15553024D01*
X9767595Y-15553024D02*
X9758071Y-15543500D01*
X9758071Y-15543500D02*
X9767595Y-15533976D01*
X9767595Y-15533976D02*
X9767595Y-15553024D01*
X9958071Y-15353024D02*
X9862833Y-15353024D01*
X9862833Y-15353024D02*
X9853310Y-15448262D01*
X9853310Y-15448262D02*
X9862833Y-15438738D01*
X9862833Y-15438738D02*
X9881881Y-15429214D01*
X9881881Y-15429214D02*
X9929500Y-15429214D01*
X9929500Y-15429214D02*
X9948548Y-15438738D01*
X9948548Y-15438738D02*
X9958071Y-15448262D01*
X9958071Y-15448262D02*
X9967595Y-15467309D01*
X9967595Y-15467309D02*
X9967595Y-15514928D01*
X9967595Y-15514928D02*
X9958071Y-15533976D01*
X9958071Y-15533976D02*
X9948548Y-15543500D01*
X9948548Y-15543500D02*
X9929500Y-15553024D01*
X9929500Y-15553024D02*
X9881881Y-15553024D01*
X9881881Y-15553024D02*
X9862833Y-15543500D01*
X9862833Y-15543500D02*
X9853310Y-15533976D01*
X10091405Y-15353024D02*
X10110452Y-15353024D01*
X10110452Y-15353024D02*
X10129500Y-15362548D01*
X10129500Y-15362548D02*
X10139024Y-15372071D01*
X10139024Y-15372071D02*
X10148548Y-15391119D01*
X10148548Y-15391119D02*
X10158071Y-15429214D01*
X10158071Y-15429214D02*
X10158071Y-15476833D01*
X10158071Y-15476833D02*
X10148548Y-15514928D01*
X10148548Y-15514928D02*
X10139024Y-15533976D01*
X10139024Y-15533976D02*
X10129500Y-15543500D01*
X10129500Y-15543500D02*
X10110452Y-15553024D01*
X10110452Y-15553024D02*
X10091405Y-15553024D01*
X10091405Y-15553024D02*
X10072357Y-15543500D01*
X10072357Y-15543500D02*
X10062833Y-15533976D01*
X10062833Y-15533976D02*
X10053310Y-15514928D01*
X10053310Y-15514928D02*
X10043786Y-15476833D01*
X10043786Y-15476833D02*
X10043786Y-15429214D01*
X10043786Y-15429214D02*
X10053310Y-15391119D01*
X10053310Y-15391119D02*
X10062833Y-15372071D01*
X10062833Y-15372071D02*
X10072357Y-15362548D01*
X10072357Y-15362548D02*
X10091405Y-15353024D01*
X10281881Y-15353024D02*
X10300929Y-15353024D01*
X10300929Y-15353024D02*
X10319976Y-15362548D01*
X10319976Y-15362548D02*
X10329500Y-15372071D01*
X10329500Y-15372071D02*
X10339024Y-15391119D01*
X10339024Y-15391119D02*
X10348548Y-15429214D01*
X10348548Y-15429214D02*
X10348548Y-15476833D01*
X10348548Y-15476833D02*
X10339024Y-15514928D01*
X10339024Y-15514928D02*
X10329500Y-15533976D01*
X10329500Y-15533976D02*
X10319976Y-15543500D01*
X10319976Y-15543500D02*
X10300929Y-15553024D01*
X10300929Y-15553024D02*
X10281881Y-15553024D01*
X10281881Y-15553024D02*
X10262833Y-15543500D01*
X10262833Y-15543500D02*
X10253310Y-15533976D01*
X10253310Y-15533976D02*
X10243786Y-15514928D01*
X10243786Y-15514928D02*
X10234262Y-15476833D01*
X10234262Y-15476833D02*
X10234262Y-15429214D01*
X10234262Y-15429214D02*
X10243786Y-15391119D01*
X10243786Y-15391119D02*
X10253310Y-15372071D01*
X10253310Y-15372071D02*
X10262833Y-15362548D01*
X10262833Y-15362548D02*
X10281881Y-15353024D01*
X10434262Y-15553024D02*
X10434262Y-15419690D01*
X10434262Y-15438738D02*
X10443786Y-15429214D01*
X10443786Y-15429214D02*
X10462833Y-15419690D01*
X10462833Y-15419690D02*
X10491405Y-15419690D01*
X10491405Y-15419690D02*
X10510452Y-15429214D01*
X10510452Y-15429214D02*
X10519976Y-15448262D01*
X10519976Y-15448262D02*
X10519976Y-15553024D01*
X10519976Y-15448262D02*
X10529500Y-15429214D01*
X10529500Y-15429214D02*
X10548548Y-15419690D01*
X10548548Y-15419690D02*
X10577119Y-15419690D01*
X10577119Y-15419690D02*
X10596167Y-15429214D01*
X10596167Y-15429214D02*
X10605691Y-15448262D01*
X10605691Y-15448262D02*
X10605691Y-15553024D01*
X10700929Y-15553024D02*
X10700929Y-15419690D01*
X10700929Y-15438738D02*
X10710452Y-15429214D01*
X10710452Y-15429214D02*
X10729500Y-15419690D01*
X10729500Y-15419690D02*
X10758072Y-15419690D01*
X10758072Y-15419690D02*
X10777119Y-15429214D01*
X10777119Y-15429214D02*
X10786643Y-15448262D01*
X10786643Y-15448262D02*
X10786643Y-15553024D01*
X10786643Y-15448262D02*
X10796167Y-15429214D01*
X10796167Y-15429214D02*
X10815214Y-15419690D01*
X10815214Y-15419690D02*
X10843786Y-15419690D01*
X10843786Y-15419690D02*
X10862833Y-15429214D01*
X10862833Y-15429214D02*
X10872357Y-15448262D01*
X10872357Y-15448262D02*
X10872357Y-15553024D01*
X11262833Y-15343500D02*
X11091405Y-15600643D01*
X11519976Y-15353024D02*
X11539024Y-15353024D01*
X11539024Y-15353024D02*
X11558072Y-15362548D01*
X11558072Y-15362548D02*
X11567595Y-15372071D01*
X11567595Y-15372071D02*
X11577119Y-15391119D01*
X11577119Y-15391119D02*
X11586643Y-15429214D01*
X11586643Y-15429214D02*
X11586643Y-15476833D01*
X11586643Y-15476833D02*
X11577119Y-15514928D01*
X11577119Y-15514928D02*
X11567595Y-15533976D01*
X11567595Y-15533976D02*
X11558072Y-15543500D01*
X11558072Y-15543500D02*
X11539024Y-15553024D01*
X11539024Y-15553024D02*
X11519976Y-15553024D01*
X11519976Y-15553024D02*
X11500929Y-15543500D01*
X11500929Y-15543500D02*
X11491405Y-15533976D01*
X11491405Y-15533976D02*
X11481881Y-15514928D01*
X11481881Y-15514928D02*
X11472357Y-15476833D01*
X11472357Y-15476833D02*
X11472357Y-15429214D01*
X11472357Y-15429214D02*
X11481881Y-15391119D01*
X11481881Y-15391119D02*
X11491405Y-15372071D01*
X11491405Y-15372071D02*
X11500929Y-15362548D01*
X11500929Y-15362548D02*
X11519976Y-15353024D01*
X11672357Y-15533976D02*
X11681881Y-15543500D01*
X11681881Y-15543500D02*
X11672357Y-15553024D01*
X11672357Y-15553024D02*
X11662833Y-15543500D01*
X11662833Y-15543500D02*
X11672357Y-15533976D01*
X11672357Y-15533976D02*
X11672357Y-15553024D01*
X11805691Y-15353024D02*
X11824738Y-15353024D01*
X11824738Y-15353024D02*
X11843786Y-15362548D01*
X11843786Y-15362548D02*
X11853310Y-15372071D01*
X11853310Y-15372071D02*
X11862833Y-15391119D01*
X11862833Y-15391119D02*
X11872357Y-15429214D01*
X11872357Y-15429214D02*
X11872357Y-15476833D01*
X11872357Y-15476833D02*
X11862833Y-15514928D01*
X11862833Y-15514928D02*
X11853310Y-15533976D01*
X11853310Y-15533976D02*
X11843786Y-15543500D01*
X11843786Y-15543500D02*
X11824738Y-15553024D01*
X11824738Y-15553024D02*
X11805691Y-15553024D01*
X11805691Y-15553024D02*
X11786643Y-15543500D01*
X11786643Y-15543500D02*
X11777119Y-15533976D01*
X11777119Y-15533976D02*
X11767595Y-15514928D01*
X11767595Y-15514928D02*
X11758072Y-15476833D01*
X11758072Y-15476833D02*
X11758072Y-15429214D01*
X11758072Y-15429214D02*
X11767595Y-15391119D01*
X11767595Y-15391119D02*
X11777119Y-15372071D01*
X11777119Y-15372071D02*
X11786643Y-15362548D01*
X11786643Y-15362548D02*
X11805691Y-15353024D01*
X11967595Y-15553024D02*
X12005691Y-15553024D01*
X12005691Y-15553024D02*
X12024738Y-15543500D01*
X12024738Y-15543500D02*
X12034262Y-15533976D01*
X12034262Y-15533976D02*
X12053310Y-15505405D01*
X12053310Y-15505405D02*
X12062833Y-15467309D01*
X12062833Y-15467309D02*
X12062833Y-15391119D01*
X12062833Y-15391119D02*
X12053310Y-15372071D01*
X12053310Y-15372071D02*
X12043786Y-15362548D01*
X12043786Y-15362548D02*
X12024738Y-15353024D01*
X12024738Y-15353024D02*
X11986643Y-15353024D01*
X11986643Y-15353024D02*
X11967595Y-15362548D01*
X11967595Y-15362548D02*
X11958072Y-15372071D01*
X11958072Y-15372071D02*
X11948548Y-15391119D01*
X11948548Y-15391119D02*
X11948548Y-15438738D01*
X11948548Y-15438738D02*
X11958072Y-15457786D01*
X11958072Y-15457786D02*
X11967595Y-15467309D01*
X11967595Y-15467309D02*
X11986643Y-15476833D01*
X11986643Y-15476833D02*
X12024738Y-15476833D01*
X12024738Y-15476833D02*
X12043786Y-15467309D01*
X12043786Y-15467309D02*
X12053310Y-15457786D01*
X12053310Y-15457786D02*
X12062833Y-15438738D01*
X12177119Y-15438738D02*
X12158072Y-15429214D01*
X12158072Y-15429214D02*
X12148548Y-15419690D01*
X12148548Y-15419690D02*
X12139024Y-15400643D01*
X12139024Y-15400643D02*
X12139024Y-15391119D01*
X12139024Y-15391119D02*
X12148548Y-15372071D01*
X12148548Y-15372071D02*
X12158072Y-15362548D01*
X12158072Y-15362548D02*
X12177119Y-15353024D01*
X12177119Y-15353024D02*
X12215214Y-15353024D01*
X12215214Y-15353024D02*
X12234262Y-15362548D01*
X12234262Y-15362548D02*
X12243786Y-15372071D01*
X12243786Y-15372071D02*
X12253310Y-15391119D01*
X12253310Y-15391119D02*
X12253310Y-15400643D01*
X12253310Y-15400643D02*
X12243786Y-15419690D01*
X12243786Y-15419690D02*
X12234262Y-15429214D01*
X12234262Y-15429214D02*
X12215214Y-15438738D01*
X12215214Y-15438738D02*
X12177119Y-15438738D01*
X12177119Y-15438738D02*
X12158072Y-15448262D01*
X12158072Y-15448262D02*
X12148548Y-15457786D01*
X12148548Y-15457786D02*
X12139024Y-15476833D01*
X12139024Y-15476833D02*
X12139024Y-15514928D01*
X12139024Y-15514928D02*
X12148548Y-15533976D01*
X12148548Y-15533976D02*
X12158072Y-15543500D01*
X12158072Y-15543500D02*
X12177119Y-15553024D01*
X12177119Y-15553024D02*
X12215214Y-15553024D01*
X12215214Y-15553024D02*
X12234262Y-15543500D01*
X12234262Y-15543500D02*
X12243786Y-15533976D01*
X12243786Y-15533976D02*
X12253310Y-15514928D01*
X12253310Y-15514928D02*
X12253310Y-15476833D01*
X12253310Y-15476833D02*
X12243786Y-15457786D01*
X12243786Y-15457786D02*
X12234262Y-15448262D01*
X12234262Y-15448262D02*
X12215214Y-15438738D01*
X12424738Y-15419690D02*
X12424738Y-15553024D01*
X12377119Y-15343500D02*
X12329500Y-15486357D01*
X12329500Y-15486357D02*
X12453310Y-15486357D01*
X12519976Y-15353024D02*
X12519976Y-15391119D01*
X12596167Y-15353024D02*
X12596167Y-15391119D01*
X12891405Y-15629214D02*
X12881881Y-15619690D01*
X12881881Y-15619690D02*
X12862834Y-15591119D01*
X12862834Y-15591119D02*
X12853310Y-15572071D01*
X12853310Y-15572071D02*
X12843786Y-15543500D01*
X12843786Y-15543500D02*
X12834262Y-15495881D01*
X12834262Y-15495881D02*
X12834262Y-15457786D01*
X12834262Y-15457786D02*
X12843786Y-15410167D01*
X12843786Y-15410167D02*
X12853310Y-15381595D01*
X12853310Y-15381595D02*
X12862834Y-15362548D01*
X12862834Y-15362548D02*
X12881881Y-15333976D01*
X12881881Y-15333976D02*
X12891405Y-15324452D01*
X12958072Y-15372071D02*
X12967595Y-15362548D01*
X12967595Y-15362548D02*
X12986643Y-15353024D01*
X12986643Y-15353024D02*
X13034262Y-15353024D01*
X13034262Y-15353024D02*
X13053310Y-15362548D01*
X13053310Y-15362548D02*
X13062834Y-15372071D01*
X13062834Y-15372071D02*
X13072357Y-15391119D01*
X13072357Y-15391119D02*
X13072357Y-15410167D01*
X13072357Y-15410167D02*
X13062834Y-15438738D01*
X13062834Y-15438738D02*
X12948548Y-15553024D01*
X12948548Y-15553024D02*
X13072357Y-15553024D01*
X13310453Y-15553024D02*
X13310453Y-15353024D01*
X13396167Y-15553024D02*
X13396167Y-15448262D01*
X13396167Y-15448262D02*
X13386643Y-15429214D01*
X13386643Y-15429214D02*
X13367596Y-15419690D01*
X13367596Y-15419690D02*
X13339024Y-15419690D01*
X13339024Y-15419690D02*
X13319976Y-15429214D01*
X13319976Y-15429214D02*
X13310453Y-15438738D01*
X13519976Y-15553024D02*
X13500929Y-15543500D01*
X13500929Y-15543500D02*
X13491405Y-15533976D01*
X13491405Y-15533976D02*
X13481881Y-15514928D01*
X13481881Y-15514928D02*
X13481881Y-15457786D01*
X13481881Y-15457786D02*
X13491405Y-15438738D01*
X13491405Y-15438738D02*
X13500929Y-15429214D01*
X13500929Y-15429214D02*
X13519976Y-15419690D01*
X13519976Y-15419690D02*
X13548548Y-15419690D01*
X13548548Y-15419690D02*
X13567596Y-15429214D01*
X13567596Y-15429214D02*
X13577119Y-15438738D01*
X13577119Y-15438738D02*
X13586643Y-15457786D01*
X13586643Y-15457786D02*
X13586643Y-15514928D01*
X13586643Y-15514928D02*
X13577119Y-15533976D01*
X13577119Y-15533976D02*
X13567596Y-15543500D01*
X13567596Y-15543500D02*
X13548548Y-15553024D01*
X13548548Y-15553024D02*
X13519976Y-15553024D01*
X13700929Y-15553024D02*
X13681881Y-15543500D01*
X13681881Y-15543500D02*
X13672357Y-15524452D01*
X13672357Y-15524452D02*
X13672357Y-15353024D01*
X13853310Y-15543500D02*
X13834262Y-15553024D01*
X13834262Y-15553024D02*
X13796167Y-15553024D01*
X13796167Y-15553024D02*
X13777119Y-15543500D01*
X13777119Y-15543500D02*
X13767596Y-15524452D01*
X13767596Y-15524452D02*
X13767596Y-15448262D01*
X13767596Y-15448262D02*
X13777119Y-15429214D01*
X13777119Y-15429214D02*
X13796167Y-15419690D01*
X13796167Y-15419690D02*
X13834262Y-15419690D01*
X13834262Y-15419690D02*
X13853310Y-15429214D01*
X13853310Y-15429214D02*
X13862834Y-15448262D01*
X13862834Y-15448262D02*
X13862834Y-15467309D01*
X13862834Y-15467309D02*
X13767596Y-15486357D01*
X13939024Y-15543500D02*
X13958072Y-15553024D01*
X13958072Y-15553024D02*
X13996167Y-15553024D01*
X13996167Y-15553024D02*
X14015215Y-15543500D01*
X14015215Y-15543500D02*
X14024738Y-15524452D01*
X14024738Y-15524452D02*
X14024738Y-15514928D01*
X14024738Y-15514928D02*
X14015215Y-15495881D01*
X14015215Y-15495881D02*
X13996167Y-15486357D01*
X13996167Y-15486357D02*
X13967596Y-15486357D01*
X13967596Y-15486357D02*
X13948548Y-15476833D01*
X13948548Y-15476833D02*
X13939024Y-15457786D01*
X13939024Y-15457786D02*
X13939024Y-15448262D01*
X13939024Y-15448262D02*
X13948548Y-15429214D01*
X13948548Y-15429214D02*
X13967596Y-15419690D01*
X13967596Y-15419690D02*
X13996167Y-15419690D01*
X13996167Y-15419690D02*
X14015215Y-15429214D01*
X14091405Y-15629214D02*
X14100929Y-15619690D01*
X14100929Y-15619690D02*
X14119977Y-15591119D01*
X14119977Y-15591119D02*
X14129500Y-15572071D01*
X14129500Y-15572071D02*
X14139024Y-15543500D01*
X14139024Y-15543500D02*
X14148548Y-15495881D01*
X14148548Y-15495881D02*
X14148548Y-15457786D01*
X14148548Y-15457786D02*
X14139024Y-15410167D01*
X14139024Y-15410167D02*
X14129500Y-15381595D01*
X14129500Y-15381595D02*
X14119977Y-15362548D01*
X14119977Y-15362548D02*
X14100929Y-15333976D01*
X14100929Y-15333976D02*
X14091405Y-15324452D01*
X9300211Y-15851211D02*
X9300211Y-15709789D01*
X9158789Y-15709789D01*
X9158789Y-15851211D01*
X9300211Y-15851211D01*
X9558071Y-15673024D02*
X9681881Y-15673024D01*
X9681881Y-15673024D02*
X9615214Y-15749214D01*
X9615214Y-15749214D02*
X9643786Y-15749214D01*
X9643786Y-15749214D02*
X9662833Y-15758738D01*
X9662833Y-15758738D02*
X9672357Y-15768262D01*
X9672357Y-15768262D02*
X9681881Y-15787309D01*
X9681881Y-15787309D02*
X9681881Y-15834928D01*
X9681881Y-15834928D02*
X9672357Y-15853976D01*
X9672357Y-15853976D02*
X9662833Y-15863500D01*
X9662833Y-15863500D02*
X9643786Y-15873024D01*
X9643786Y-15873024D02*
X9586643Y-15873024D01*
X9586643Y-15873024D02*
X9567595Y-15863500D01*
X9567595Y-15863500D02*
X9558071Y-15853976D01*
X9767595Y-15853976D02*
X9777119Y-15863500D01*
X9777119Y-15863500D02*
X9767595Y-15873024D01*
X9767595Y-15873024D02*
X9758071Y-15863500D01*
X9758071Y-15863500D02*
X9767595Y-15853976D01*
X9767595Y-15853976D02*
X9767595Y-15873024D01*
X9900929Y-15673024D02*
X9919976Y-15673024D01*
X9919976Y-15673024D02*
X9939024Y-15682548D01*
X9939024Y-15682548D02*
X9948548Y-15692071D01*
X9948548Y-15692071D02*
X9958071Y-15711119D01*
X9958071Y-15711119D02*
X9967595Y-15749214D01*
X9967595Y-15749214D02*
X9967595Y-15796833D01*
X9967595Y-15796833D02*
X9958071Y-15834928D01*
X9958071Y-15834928D02*
X9948548Y-15853976D01*
X9948548Y-15853976D02*
X9939024Y-15863500D01*
X9939024Y-15863500D02*
X9919976Y-15873024D01*
X9919976Y-15873024D02*
X9900929Y-15873024D01*
X9900929Y-15873024D02*
X9881881Y-15863500D01*
X9881881Y-15863500D02*
X9872357Y-15853976D01*
X9872357Y-15853976D02*
X9862833Y-15834928D01*
X9862833Y-15834928D02*
X9853310Y-15796833D01*
X9853310Y-15796833D02*
X9853310Y-15749214D01*
X9853310Y-15749214D02*
X9862833Y-15711119D01*
X9862833Y-15711119D02*
X9872357Y-15692071D01*
X9872357Y-15692071D02*
X9881881Y-15682548D01*
X9881881Y-15682548D02*
X9900929Y-15673024D01*
X10091405Y-15673024D02*
X10110452Y-15673024D01*
X10110452Y-15673024D02*
X10129500Y-15682548D01*
X10129500Y-15682548D02*
X10139024Y-15692071D01*
X10139024Y-15692071D02*
X10148548Y-15711119D01*
X10148548Y-15711119D02*
X10158071Y-15749214D01*
X10158071Y-15749214D02*
X10158071Y-15796833D01*
X10158071Y-15796833D02*
X10148548Y-15834928D01*
X10148548Y-15834928D02*
X10139024Y-15853976D01*
X10139024Y-15853976D02*
X10129500Y-15863500D01*
X10129500Y-15863500D02*
X10110452Y-15873024D01*
X10110452Y-15873024D02*
X10091405Y-15873024D01*
X10091405Y-15873024D02*
X10072357Y-15863500D01*
X10072357Y-15863500D02*
X10062833Y-15853976D01*
X10062833Y-15853976D02*
X10053310Y-15834928D01*
X10053310Y-15834928D02*
X10043786Y-15796833D01*
X10043786Y-15796833D02*
X10043786Y-15749214D01*
X10043786Y-15749214D02*
X10053310Y-15711119D01*
X10053310Y-15711119D02*
X10062833Y-15692071D01*
X10062833Y-15692071D02*
X10072357Y-15682548D01*
X10072357Y-15682548D02*
X10091405Y-15673024D01*
X10281881Y-15673024D02*
X10300929Y-15673024D01*
X10300929Y-15673024D02*
X10319976Y-15682548D01*
X10319976Y-15682548D02*
X10329500Y-15692071D01*
X10329500Y-15692071D02*
X10339024Y-15711119D01*
X10339024Y-15711119D02*
X10348548Y-15749214D01*
X10348548Y-15749214D02*
X10348548Y-15796833D01*
X10348548Y-15796833D02*
X10339024Y-15834928D01*
X10339024Y-15834928D02*
X10329500Y-15853976D01*
X10329500Y-15853976D02*
X10319976Y-15863500D01*
X10319976Y-15863500D02*
X10300929Y-15873024D01*
X10300929Y-15873024D02*
X10281881Y-15873024D01*
X10281881Y-15873024D02*
X10262833Y-15863500D01*
X10262833Y-15863500D02*
X10253310Y-15853976D01*
X10253310Y-15853976D02*
X10243786Y-15834928D01*
X10243786Y-15834928D02*
X10234262Y-15796833D01*
X10234262Y-15796833D02*
X10234262Y-15749214D01*
X10234262Y-15749214D02*
X10243786Y-15711119D01*
X10243786Y-15711119D02*
X10253310Y-15692071D01*
X10253310Y-15692071D02*
X10262833Y-15682548D01*
X10262833Y-15682548D02*
X10281881Y-15673024D01*
X10434262Y-15873024D02*
X10434262Y-15739690D01*
X10434262Y-15758738D02*
X10443786Y-15749214D01*
X10443786Y-15749214D02*
X10462833Y-15739690D01*
X10462833Y-15739690D02*
X10491405Y-15739690D01*
X10491405Y-15739690D02*
X10510452Y-15749214D01*
X10510452Y-15749214D02*
X10519976Y-15768262D01*
X10519976Y-15768262D02*
X10519976Y-15873024D01*
X10519976Y-15768262D02*
X10529500Y-15749214D01*
X10529500Y-15749214D02*
X10548548Y-15739690D01*
X10548548Y-15739690D02*
X10577119Y-15739690D01*
X10577119Y-15739690D02*
X10596167Y-15749214D01*
X10596167Y-15749214D02*
X10605691Y-15768262D01*
X10605691Y-15768262D02*
X10605691Y-15873024D01*
X10700929Y-15873024D02*
X10700929Y-15739690D01*
X10700929Y-15758738D02*
X10710452Y-15749214D01*
X10710452Y-15749214D02*
X10729500Y-15739690D01*
X10729500Y-15739690D02*
X10758072Y-15739690D01*
X10758072Y-15739690D02*
X10777119Y-15749214D01*
X10777119Y-15749214D02*
X10786643Y-15768262D01*
X10786643Y-15768262D02*
X10786643Y-15873024D01*
X10786643Y-15768262D02*
X10796167Y-15749214D01*
X10796167Y-15749214D02*
X10815214Y-15739690D01*
X10815214Y-15739690D02*
X10843786Y-15739690D01*
X10843786Y-15739690D02*
X10862833Y-15749214D01*
X10862833Y-15749214D02*
X10872357Y-15768262D01*
X10872357Y-15768262D02*
X10872357Y-15873024D01*
X11262833Y-15663500D02*
X11091405Y-15920643D01*
X11519976Y-15673024D02*
X11539024Y-15673024D01*
X11539024Y-15673024D02*
X11558072Y-15682548D01*
X11558072Y-15682548D02*
X11567595Y-15692071D01*
X11567595Y-15692071D02*
X11577119Y-15711119D01*
X11577119Y-15711119D02*
X11586643Y-15749214D01*
X11586643Y-15749214D02*
X11586643Y-15796833D01*
X11586643Y-15796833D02*
X11577119Y-15834928D01*
X11577119Y-15834928D02*
X11567595Y-15853976D01*
X11567595Y-15853976D02*
X11558072Y-15863500D01*
X11558072Y-15863500D02*
X11539024Y-15873024D01*
X11539024Y-15873024D02*
X11519976Y-15873024D01*
X11519976Y-15873024D02*
X11500929Y-15863500D01*
X11500929Y-15863500D02*
X11491405Y-15853976D01*
X11491405Y-15853976D02*
X11481881Y-15834928D01*
X11481881Y-15834928D02*
X11472357Y-15796833D01*
X11472357Y-15796833D02*
X11472357Y-15749214D01*
X11472357Y-15749214D02*
X11481881Y-15711119D01*
X11481881Y-15711119D02*
X11491405Y-15692071D01*
X11491405Y-15692071D02*
X11500929Y-15682548D01*
X11500929Y-15682548D02*
X11519976Y-15673024D01*
X11672357Y-15853976D02*
X11681881Y-15863500D01*
X11681881Y-15863500D02*
X11672357Y-15873024D01*
X11672357Y-15873024D02*
X11662833Y-15863500D01*
X11662833Y-15863500D02*
X11672357Y-15853976D01*
X11672357Y-15853976D02*
X11672357Y-15873024D01*
X11872357Y-15873024D02*
X11758072Y-15873024D01*
X11815214Y-15873024D02*
X11815214Y-15673024D01*
X11815214Y-15673024D02*
X11796167Y-15701595D01*
X11796167Y-15701595D02*
X11777119Y-15720643D01*
X11777119Y-15720643D02*
X11758072Y-15730167D01*
X12062833Y-15873024D02*
X11948548Y-15873024D01*
X12005691Y-15873024D02*
X12005691Y-15673024D01*
X12005691Y-15673024D02*
X11986643Y-15701595D01*
X11986643Y-15701595D02*
X11967595Y-15720643D01*
X11967595Y-15720643D02*
X11948548Y-15730167D01*
X12177119Y-15758738D02*
X12158072Y-15749214D01*
X12158072Y-15749214D02*
X12148548Y-15739690D01*
X12148548Y-15739690D02*
X12139024Y-15720643D01*
X12139024Y-15720643D02*
X12139024Y-15711119D01*
X12139024Y-15711119D02*
X12148548Y-15692071D01*
X12148548Y-15692071D02*
X12158072Y-15682548D01*
X12158072Y-15682548D02*
X12177119Y-15673024D01*
X12177119Y-15673024D02*
X12215214Y-15673024D01*
X12215214Y-15673024D02*
X12234262Y-15682548D01*
X12234262Y-15682548D02*
X12243786Y-15692071D01*
X12243786Y-15692071D02*
X12253310Y-15711119D01*
X12253310Y-15711119D02*
X12253310Y-15720643D01*
X12253310Y-15720643D02*
X12243786Y-15739690D01*
X12243786Y-15739690D02*
X12234262Y-15749214D01*
X12234262Y-15749214D02*
X12215214Y-15758738D01*
X12215214Y-15758738D02*
X12177119Y-15758738D01*
X12177119Y-15758738D02*
X12158072Y-15768262D01*
X12158072Y-15768262D02*
X12148548Y-15777786D01*
X12148548Y-15777786D02*
X12139024Y-15796833D01*
X12139024Y-15796833D02*
X12139024Y-15834928D01*
X12139024Y-15834928D02*
X12148548Y-15853976D01*
X12148548Y-15853976D02*
X12158072Y-15863500D01*
X12158072Y-15863500D02*
X12177119Y-15873024D01*
X12177119Y-15873024D02*
X12215214Y-15873024D01*
X12215214Y-15873024D02*
X12234262Y-15863500D01*
X12234262Y-15863500D02*
X12243786Y-15853976D01*
X12243786Y-15853976D02*
X12253310Y-15834928D01*
X12253310Y-15834928D02*
X12253310Y-15796833D01*
X12253310Y-15796833D02*
X12243786Y-15777786D01*
X12243786Y-15777786D02*
X12234262Y-15768262D01*
X12234262Y-15768262D02*
X12215214Y-15758738D01*
X12443786Y-15873024D02*
X12329500Y-15873024D01*
X12386643Y-15873024D02*
X12386643Y-15673024D01*
X12386643Y-15673024D02*
X12367595Y-15701595D01*
X12367595Y-15701595D02*
X12348548Y-15720643D01*
X12348548Y-15720643D02*
X12329500Y-15730167D01*
X12519976Y-15673024D02*
X12519976Y-15711119D01*
X12596167Y-15673024D02*
X12596167Y-15711119D01*
X12891405Y-15949214D02*
X12881881Y-15939690D01*
X12881881Y-15939690D02*
X12862834Y-15911119D01*
X12862834Y-15911119D02*
X12853310Y-15892071D01*
X12853310Y-15892071D02*
X12843786Y-15863500D01*
X12843786Y-15863500D02*
X12834262Y-15815881D01*
X12834262Y-15815881D02*
X12834262Y-15777786D01*
X12834262Y-15777786D02*
X12843786Y-15730167D01*
X12843786Y-15730167D02*
X12853310Y-15701595D01*
X12853310Y-15701595D02*
X12862834Y-15682548D01*
X12862834Y-15682548D02*
X12881881Y-15653976D01*
X12881881Y-15653976D02*
X12891405Y-15644452D01*
X12958072Y-15692071D02*
X12967595Y-15682548D01*
X12967595Y-15682548D02*
X12986643Y-15673024D01*
X12986643Y-15673024D02*
X13034262Y-15673024D01*
X13034262Y-15673024D02*
X13053310Y-15682548D01*
X13053310Y-15682548D02*
X13062834Y-15692071D01*
X13062834Y-15692071D02*
X13072357Y-15711119D01*
X13072357Y-15711119D02*
X13072357Y-15730167D01*
X13072357Y-15730167D02*
X13062834Y-15758738D01*
X13062834Y-15758738D02*
X12948548Y-15873024D01*
X12948548Y-15873024D02*
X13072357Y-15873024D01*
X13310453Y-15873024D02*
X13310453Y-15673024D01*
X13396167Y-15873024D02*
X13396167Y-15768262D01*
X13396167Y-15768262D02*
X13386643Y-15749214D01*
X13386643Y-15749214D02*
X13367596Y-15739690D01*
X13367596Y-15739690D02*
X13339024Y-15739690D01*
X13339024Y-15739690D02*
X13319976Y-15749214D01*
X13319976Y-15749214D02*
X13310453Y-15758738D01*
X13519976Y-15873024D02*
X13500929Y-15863500D01*
X13500929Y-15863500D02*
X13491405Y-15853976D01*
X13491405Y-15853976D02*
X13481881Y-15834928D01*
X13481881Y-15834928D02*
X13481881Y-15777786D01*
X13481881Y-15777786D02*
X13491405Y-15758738D01*
X13491405Y-15758738D02*
X13500929Y-15749214D01*
X13500929Y-15749214D02*
X13519976Y-15739690D01*
X13519976Y-15739690D02*
X13548548Y-15739690D01*
X13548548Y-15739690D02*
X13567596Y-15749214D01*
X13567596Y-15749214D02*
X13577119Y-15758738D01*
X13577119Y-15758738D02*
X13586643Y-15777786D01*
X13586643Y-15777786D02*
X13586643Y-15834928D01*
X13586643Y-15834928D02*
X13577119Y-15853976D01*
X13577119Y-15853976D02*
X13567596Y-15863500D01*
X13567596Y-15863500D02*
X13548548Y-15873024D01*
X13548548Y-15873024D02*
X13519976Y-15873024D01*
X13700929Y-15873024D02*
X13681881Y-15863500D01*
X13681881Y-15863500D02*
X13672357Y-15844452D01*
X13672357Y-15844452D02*
X13672357Y-15673024D01*
X13853310Y-15863500D02*
X13834262Y-15873024D01*
X13834262Y-15873024D02*
X13796167Y-15873024D01*
X13796167Y-15873024D02*
X13777119Y-15863500D01*
X13777119Y-15863500D02*
X13767596Y-15844452D01*
X13767596Y-15844452D02*
X13767596Y-15768262D01*
X13767596Y-15768262D02*
X13777119Y-15749214D01*
X13777119Y-15749214D02*
X13796167Y-15739690D01*
X13796167Y-15739690D02*
X13834262Y-15739690D01*
X13834262Y-15739690D02*
X13853310Y-15749214D01*
X13853310Y-15749214D02*
X13862834Y-15768262D01*
X13862834Y-15768262D02*
X13862834Y-15787309D01*
X13862834Y-15787309D02*
X13767596Y-15806357D01*
X13939024Y-15863500D02*
X13958072Y-15873024D01*
X13958072Y-15873024D02*
X13996167Y-15873024D01*
X13996167Y-15873024D02*
X14015215Y-15863500D01*
X14015215Y-15863500D02*
X14024738Y-15844452D01*
X14024738Y-15844452D02*
X14024738Y-15834928D01*
X14024738Y-15834928D02*
X14015215Y-15815881D01*
X14015215Y-15815881D02*
X13996167Y-15806357D01*
X13996167Y-15806357D02*
X13967596Y-15806357D01*
X13967596Y-15806357D02*
X13948548Y-15796833D01*
X13948548Y-15796833D02*
X13939024Y-15777786D01*
X13939024Y-15777786D02*
X13939024Y-15768262D01*
X13939024Y-15768262D02*
X13948548Y-15749214D01*
X13948548Y-15749214D02*
X13967596Y-15739690D01*
X13967596Y-15739690D02*
X13996167Y-15739690D01*
X13996167Y-15739690D02*
X14015215Y-15749214D01*
X14091405Y-15949214D02*
X14100929Y-15939690D01*
X14100929Y-15939690D02*
X14119977Y-15911119D01*
X14119977Y-15911119D02*
X14129500Y-15892071D01*
X14129500Y-15892071D02*
X14139024Y-15863500D01*
X14139024Y-15863500D02*
X14148548Y-15815881D01*
X14148548Y-15815881D02*
X14148548Y-15777786D01*
X14148548Y-15777786D02*
X14139024Y-15730167D01*
X14139024Y-15730167D02*
X14129500Y-15701595D01*
X14129500Y-15701595D02*
X14119977Y-15682548D01*
X14119977Y-15682548D02*
X14100929Y-15653976D01*
X14100929Y-15653976D02*
X14091405Y-15644452D01*
M02*
