%TF.GenerationSoftware,KiCad,Pcbnew,(6.0.2)*%
%TF.CreationDate,2023-03-13T10:24:41-04:00*%
%TF.ProjectId,avc-computer,6176632d-636f-46d7-9075-7465722e6b69,rev?*%
%TF.SameCoordinates,Original*%
%TF.FileFunction,Copper,L2,Bot*%
%TF.FilePolarity,Positive*%
%FSLAX46Y46*%
G04 Gerber Fmt 4.6, Leading zero omitted, Abs format (unit mm)*
G04 Created by KiCad (PCBNEW (6.0.2)) date 2023-03-13 10:24:41*
%MOMM*%
%LPD*%
G01*
G04 APERTURE LIST*
G04 Aperture macros list*
%AMRoundRect*
0 Rectangle with rounded corners*
0 $1 Rounding radius*
0 $2 $3 $4 $5 $6 $7 $8 $9 X,Y pos of 4 corners*
0 Add a 4 corners polygon primitive as box body*
4,1,4,$2,$3,$4,$5,$6,$7,$8,$9,$2,$3,0*
0 Add four circle primitives for the rounded corners*
1,1,$1+$1,$2,$3*
1,1,$1+$1,$4,$5*
1,1,$1+$1,$6,$7*
1,1,$1+$1,$8,$9*
0 Add four rect primitives between the rounded corners*
20,1,$1+$1,$2,$3,$4,$5,0*
20,1,$1+$1,$4,$5,$6,$7,0*
20,1,$1+$1,$6,$7,$8,$9,0*
20,1,$1+$1,$8,$9,$2,$3,0*%
G04 Aperture macros list end*
%TA.AperFunction,ComponentPad*%
%ADD10RoundRect,0.250002X-1.699998X-1.699998X1.699998X-1.699998X1.699998X1.699998X-1.699998X1.699998X0*%
%TD*%
%TA.AperFunction,ComponentPad*%
%ADD11C,3.900000*%
%TD*%
%TA.AperFunction,ComponentPad*%
%ADD12R,1.700000X1.700000*%
%TD*%
%TA.AperFunction,ComponentPad*%
%ADD13O,1.700000X1.700000*%
%TD*%
%TA.AperFunction,ViaPad*%
%ADD14C,0.800000*%
%TD*%
%TA.AperFunction,Conductor*%
%ADD15C,4.000000*%
%TD*%
%TA.AperFunction,Conductor*%
%ADD16C,0.250000*%
%TD*%
G04 APERTURE END LIST*
D10*
%TO.P,J2,1,Pin_1*%
%TO.N,Net-(D3-Pad2)*%
X103780000Y-60960000D03*
D11*
%TO.P,J2,2,Pin_2*%
%TO.N,GND*%
X111580000Y-60960000D03*
%TD*%
D12*
%TO.P,J5,1,Pin_1*%
%TO.N,GND*%
X140335000Y-108600000D03*
D13*
%TO.P,J5,2,Pin_2*%
%TO.N,+5V*%
X140335000Y-111140000D03*
%TO.P,J5,3,Pin_3*%
%TO.N,/ESC_Cont*%
X140335000Y-113680000D03*
%TD*%
D12*
%TO.P,J6,1,Pin_1*%
%TO.N,GND*%
X106045000Y-134620000D03*
D13*
%TO.P,J6,2,Pin_2*%
%TO.N,+3V3*%
X106045000Y-132080000D03*
%TO.P,J6,3,Pin_3*%
%TO.N,/SCL*%
X106045000Y-129540000D03*
%TO.P,J6,4,Pin_4*%
%TO.N,/SDA*%
X106045000Y-127000000D03*
%TD*%
D10*
%TO.P,J4,1,Pin_1*%
%TO.N,Net-(D3-Pad2)*%
X103960000Y-68580000D03*
D11*
%TO.P,J4,2,Pin_2*%
%TO.N,GND*%
X111760000Y-68580000D03*
%TD*%
D12*
%TO.P,J3,1,Pin_1*%
%TO.N,GND*%
X133980000Y-79380000D03*
D13*
%TO.P,J3,2,Pin_2*%
%TO.N,unconnected-(J3-Pad2)*%
X133980000Y-76840000D03*
%TO.P,J3,3,Pin_3*%
%TO.N,unconnected-(J3-Pad3)*%
X136520000Y-79380000D03*
%TO.P,J3,4,Pin_4*%
%TO.N,/Microcontroller/PA2*%
X136520000Y-76840000D03*
%TO.P,J3,5,Pin_5*%
%TO.N,/Microcontroller/PA3*%
X139060000Y-79380000D03*
%TO.P,J3,6,Pin_6*%
%TO.N,+3V3*%
X139060000Y-76840000D03*
%TO.P,J3,7,Pin_7*%
%TO.N,unconnected-(J3-Pad7)*%
X141600000Y-79380000D03*
%TO.P,J3,8,Pin_8*%
%TO.N,+3V3*%
X141600000Y-76840000D03*
%TD*%
D14*
%TO.N,GND*%
X105410000Y-80645000D03*
X123825000Y-103505000D03*
X113030000Y-109855000D03*
X111125000Y-81915000D03*
X117475000Y-75565000D03*
X111760000Y-111125000D03*
X114300000Y-111125000D03*
X113030000Y-112395000D03*
X125095000Y-108585000D03*
X121285000Y-123825000D03*
%TO.N,/Microcontroller/SWDIO*%
X116840000Y-104775000D03*
X120015000Y-70485000D03*
%TO.N,+3V3*%
X121920000Y-101600000D03*
X125095000Y-76835000D03*
X119380000Y-116840000D03*
X108265000Y-116205000D03*
X125095000Y-92075000D03*
X106680000Y-113665000D03*
%TO.N,/Microcontroller/SWCLK*%
X118745000Y-69850000D03*
X110490000Y-104140000D03*
%TO.N,Net-(C10-Pad1)*%
X110490000Y-83820000D03*
X113665000Y-76200000D03*
%TO.N,+5V*%
X115570000Y-91440000D03*
X106530000Y-90320000D03*
X125095000Y-95885000D03*
X130175000Y-90805000D03*
%TO.N,/Microcontroller/PA2*%
X111760000Y-117475000D03*
X118745000Y-99060000D03*
X121285000Y-98425000D03*
%TO.N,/Microcontroller/PA3*%
X114300000Y-118110000D03*
%TO.N,/SCL*%
X120650000Y-121666000D03*
X102235000Y-116205000D03*
X129540000Y-69215000D03*
X137795000Y-60325000D03*
X107315000Y-105410000D03*
X111125000Y-125095000D03*
X104775000Y-104775000D03*
X133985000Y-113030000D03*
X137795000Y-66675000D03*
X128905000Y-66675000D03*
X128905000Y-60325000D03*
%TO.N,/SDA*%
X122428000Y-122936000D03*
X136652000Y-61468000D03*
X117475000Y-127000000D03*
X135255000Y-113030000D03*
X100965000Y-114935000D03*
X129540000Y-67945000D03*
X111882693Y-126877307D03*
X118745000Y-123825000D03*
X102235000Y-104775000D03*
X107315000Y-106680000D03*
X129794000Y-61468000D03*
%TO.N,/ESC_Cont*%
X132715000Y-118745000D03*
X111760000Y-120015000D03*
%TD*%
D15*
%TO.N,GND*%
X111580000Y-68400000D02*
X111760000Y-68580000D01*
X111580000Y-60960000D02*
X111580000Y-68400000D01*
D16*
%TO.N,/Microcontroller/SWDIO*%
X120104511Y-70574511D02*
X120104511Y-101510489D01*
X120104511Y-101510489D02*
X116840000Y-104775000D01*
X120015000Y-70485000D02*
X120104511Y-70574511D01*
%TO.N,+3V3*%
X125095000Y-76835000D02*
X125095000Y-92075000D01*
X121920000Y-101600000D02*
X119380000Y-104140000D01*
X106680000Y-114620000D02*
X108265000Y-116205000D01*
X119380000Y-104140000D02*
X119380000Y-116840000D01*
X106680000Y-113665000D02*
X106680000Y-114620000D01*
%TO.N,/Microcontroller/SWCLK*%
X118745000Y-69850000D02*
X118655489Y-69939511D01*
X118655489Y-95974511D02*
X110490000Y-104140000D01*
X118655489Y-69939511D02*
X118655489Y-95974511D01*
%TO.N,Net-(C10-Pad1)*%
X113665000Y-80645000D02*
X110490000Y-83820000D01*
X113665000Y-76200000D02*
X113665000Y-80645000D01*
%TO.N,+5V*%
X107650000Y-91440000D02*
X106530000Y-90320000D01*
X115570000Y-91440000D02*
X107650000Y-91440000D01*
X125095000Y-95885000D02*
X130175000Y-90805000D01*
%TO.N,/Microcontroller/PA2*%
X111760000Y-117475000D02*
X116115489Y-113119511D01*
X137885489Y-78205489D02*
X136520000Y-76840000D01*
X116115489Y-113119511D02*
X116115489Y-101689511D01*
X116115489Y-101689511D02*
X118745000Y-99060000D01*
X121285000Y-98425000D02*
X137885489Y-81824511D01*
X137885489Y-81824511D02*
X137885489Y-78205489D01*
%TO.N,/Microcontroller/PA3*%
X118930480Y-113479520D02*
X118930480Y-103564906D01*
X118930480Y-103564906D02*
X139060000Y-83435386D01*
X114300000Y-118110000D02*
X118930480Y-113479520D01*
X139060000Y-83435386D02*
X139060000Y-79380000D01*
%TO.N,/SCL*%
X116205000Y-125095000D02*
X119634000Y-121666000D01*
X128905000Y-66675000D02*
X128905000Y-60325000D01*
X111125000Y-125095000D02*
X116205000Y-125095000D01*
X104775000Y-82304614D02*
X104775000Y-104775000D01*
X129540000Y-69215000D02*
X129450489Y-69125489D01*
X133985000Y-121285000D02*
X133985000Y-113030000D01*
X137795000Y-66675000D02*
X137795000Y-60325000D01*
X129450489Y-69125489D02*
X117954125Y-69125489D01*
X137795000Y-60325000D02*
X128905000Y-60325000D01*
X117954125Y-69125489D02*
X104775000Y-82304614D01*
X119634000Y-121666000D02*
X120650000Y-121666000D01*
X105410000Y-105410000D02*
X104775000Y-104775000D01*
X107315000Y-105410000D02*
X105410000Y-105410000D01*
X116205000Y-125095000D02*
X130175000Y-125095000D01*
X102235000Y-116205000D02*
X111125000Y-125095000D01*
X130175000Y-125095000D02*
X133985000Y-121285000D01*
%TO.N,/SDA*%
X128905718Y-127000000D02*
X135255000Y-120650718D01*
X116840000Y-67945000D02*
X129540000Y-67945000D01*
X118745000Y-123825000D02*
X119634000Y-122936000D01*
X104140000Y-106680000D02*
X102235000Y-104775000D01*
X117475000Y-127000000D02*
X128905718Y-127000000D01*
X107315000Y-106680000D02*
X104140000Y-106680000D01*
X102235000Y-104775000D02*
X102235000Y-82550000D01*
X111882693Y-126877307D02*
X112005386Y-127000000D01*
X100965000Y-115959614D02*
X111882693Y-126877307D01*
X129794000Y-61468000D02*
X136652000Y-61468000D01*
X102235000Y-82550000D02*
X116840000Y-67945000D01*
X112005386Y-127000000D02*
X117475000Y-127000000D01*
X100965000Y-114935000D02*
X100965000Y-115959614D01*
X119634000Y-122936000D02*
X122428000Y-122936000D01*
X135255000Y-120650718D02*
X135255000Y-113030000D01*
D15*
%TO.N,Net-(D3-Pad2)*%
X103780000Y-68400000D02*
X103960000Y-68580000D01*
X103780000Y-60960000D02*
X103780000Y-68400000D01*
D16*
%TO.N,/ESC_Cont*%
X111760000Y-120015000D02*
X131445000Y-120015000D01*
X131445000Y-120015000D02*
X132715000Y-118745000D01*
%TD*%
%TA.AperFunction,Conductor*%
%TO.N,GND*%
G36*
X150437121Y-56154002D02*
G01*
X150483614Y-56207658D01*
X150495000Y-56260000D01*
X150495000Y-142241000D01*
X150474998Y-142309121D01*
X150421342Y-142355614D01*
X150369000Y-142367000D01*
X94106000Y-142367000D01*
X94037879Y-142346998D01*
X93991386Y-142293342D01*
X93980000Y-142241000D01*
X93980000Y-139250500D01*
X95127262Y-139250500D01*
X95146192Y-139539320D01*
X95146996Y-139543360D01*
X95146996Y-139543363D01*
X95185181Y-139735330D01*
X95202659Y-139823199D01*
X95203985Y-139827105D01*
X95203986Y-139827109D01*
X95237439Y-139925656D01*
X95295697Y-140097278D01*
X95297518Y-140100971D01*
X95297519Y-140100973D01*
X95394707Y-140298050D01*
X95423713Y-140356869D01*
X95584517Y-140597530D01*
X95587231Y-140600624D01*
X95587235Y-140600630D01*
X95772649Y-140812053D01*
X95775358Y-140815142D01*
X95778447Y-140817851D01*
X95989870Y-141003265D01*
X95989876Y-141003269D01*
X95992970Y-141005983D01*
X96233631Y-141166787D01*
X96237330Y-141168611D01*
X96237335Y-141168614D01*
X96489527Y-141292981D01*
X96493222Y-141294803D01*
X96497120Y-141296126D01*
X96497122Y-141296127D01*
X96763391Y-141386514D01*
X96763395Y-141386515D01*
X96767301Y-141387841D01*
X96771345Y-141388645D01*
X96771351Y-141388647D01*
X97047137Y-141443504D01*
X97047140Y-141443504D01*
X97051180Y-141444308D01*
X97055291Y-141444577D01*
X97055295Y-141444578D01*
X97335881Y-141462968D01*
X97340000Y-141463238D01*
X97344119Y-141462968D01*
X97624705Y-141444578D01*
X97624709Y-141444577D01*
X97628820Y-141444308D01*
X97632860Y-141443504D01*
X97632863Y-141443504D01*
X97908649Y-141388647D01*
X97908655Y-141388645D01*
X97912699Y-141387841D01*
X97916605Y-141386515D01*
X97916609Y-141386514D01*
X98182878Y-141296127D01*
X98182880Y-141296126D01*
X98186778Y-141294803D01*
X98190473Y-141292981D01*
X98442665Y-141168614D01*
X98442670Y-141168611D01*
X98446369Y-141166787D01*
X98687030Y-141005983D01*
X98690124Y-141003269D01*
X98690130Y-141003265D01*
X98901553Y-140817851D01*
X98904642Y-140815142D01*
X98907351Y-140812053D01*
X99092765Y-140600630D01*
X99092769Y-140600624D01*
X99095483Y-140597530D01*
X99256287Y-140356869D01*
X99285294Y-140298050D01*
X99382481Y-140100973D01*
X99382482Y-140100971D01*
X99384303Y-140097278D01*
X99442561Y-139925656D01*
X99476014Y-139827109D01*
X99476015Y-139827105D01*
X99477341Y-139823199D01*
X99494820Y-139735330D01*
X99533004Y-139543363D01*
X99533004Y-139543360D01*
X99533808Y-139539320D01*
X99552738Y-139250500D01*
X145127262Y-139250500D01*
X145146192Y-139539320D01*
X145146996Y-139543360D01*
X145146996Y-139543363D01*
X145185181Y-139735330D01*
X145202659Y-139823199D01*
X145203985Y-139827105D01*
X145203986Y-139827109D01*
X145237439Y-139925656D01*
X145295697Y-140097278D01*
X145297518Y-140100971D01*
X145297519Y-140100973D01*
X145394707Y-140298050D01*
X145423713Y-140356869D01*
X145584517Y-140597530D01*
X145587231Y-140600624D01*
X145587235Y-140600630D01*
X145772649Y-140812053D01*
X145775358Y-140815142D01*
X145778447Y-140817851D01*
X145989870Y-141003265D01*
X145989876Y-141003269D01*
X145992970Y-141005983D01*
X146233631Y-141166787D01*
X146237330Y-141168611D01*
X146237335Y-141168614D01*
X146489527Y-141292981D01*
X146493222Y-141294803D01*
X146497120Y-141296126D01*
X146497122Y-141296127D01*
X146763391Y-141386514D01*
X146763395Y-141386515D01*
X146767301Y-141387841D01*
X146771345Y-141388645D01*
X146771351Y-141388647D01*
X147047137Y-141443504D01*
X147047140Y-141443504D01*
X147051180Y-141444308D01*
X147055291Y-141444577D01*
X147055295Y-141444578D01*
X147335881Y-141462968D01*
X147340000Y-141463238D01*
X147344119Y-141462968D01*
X147624705Y-141444578D01*
X147624709Y-141444577D01*
X147628820Y-141444308D01*
X147632860Y-141443504D01*
X147632863Y-141443504D01*
X147908649Y-141388647D01*
X147908655Y-141388645D01*
X147912699Y-141387841D01*
X147916605Y-141386515D01*
X147916609Y-141386514D01*
X148182878Y-141296127D01*
X148182880Y-141296126D01*
X148186778Y-141294803D01*
X148190473Y-141292981D01*
X148442665Y-141168614D01*
X148442670Y-141168611D01*
X148446369Y-141166787D01*
X148687030Y-141005983D01*
X148690124Y-141003269D01*
X148690130Y-141003265D01*
X148901553Y-140817851D01*
X148904642Y-140815142D01*
X148907351Y-140812053D01*
X149092765Y-140600630D01*
X149092769Y-140600624D01*
X149095483Y-140597530D01*
X149256287Y-140356869D01*
X149285294Y-140298050D01*
X149382481Y-140100973D01*
X149382482Y-140100971D01*
X149384303Y-140097278D01*
X149442561Y-139925656D01*
X149476014Y-139827109D01*
X149476015Y-139827105D01*
X149477341Y-139823199D01*
X149494820Y-139735330D01*
X149533004Y-139543363D01*
X149533004Y-139543360D01*
X149533808Y-139539320D01*
X149552738Y-139250500D01*
X149533808Y-138961680D01*
X149506288Y-138823325D01*
X149478147Y-138681851D01*
X149478145Y-138681845D01*
X149477341Y-138677801D01*
X149400996Y-138452896D01*
X149385627Y-138407622D01*
X149385626Y-138407620D01*
X149384303Y-138403722D01*
X149382481Y-138400027D01*
X149258114Y-138147835D01*
X149258111Y-138147830D01*
X149256287Y-138144131D01*
X149095483Y-137903470D01*
X149092769Y-137900376D01*
X149092765Y-137900370D01*
X148907351Y-137688947D01*
X148904642Y-137685858D01*
X148901553Y-137683149D01*
X148690130Y-137497735D01*
X148690124Y-137497731D01*
X148687030Y-137495017D01*
X148446369Y-137334213D01*
X148442670Y-137332389D01*
X148442665Y-137332386D01*
X148190473Y-137208019D01*
X148190471Y-137208018D01*
X148186778Y-137206197D01*
X148182878Y-137204873D01*
X147916609Y-137114486D01*
X147916605Y-137114485D01*
X147912699Y-137113159D01*
X147908655Y-137112355D01*
X147908649Y-137112353D01*
X147632863Y-137057496D01*
X147632860Y-137057496D01*
X147628820Y-137056692D01*
X147624709Y-137056423D01*
X147624705Y-137056422D01*
X147344119Y-137038032D01*
X147340000Y-137037762D01*
X147335881Y-137038032D01*
X147055295Y-137056422D01*
X147055291Y-137056423D01*
X147051180Y-137056692D01*
X147047140Y-137057496D01*
X147047137Y-137057496D01*
X146771351Y-137112353D01*
X146771345Y-137112355D01*
X146767301Y-137113159D01*
X146763395Y-137114485D01*
X146763391Y-137114486D01*
X146497122Y-137204873D01*
X146493222Y-137206197D01*
X146489529Y-137208018D01*
X146489527Y-137208019D01*
X146237335Y-137332386D01*
X146237330Y-137332389D01*
X146233631Y-137334213D01*
X145992970Y-137495017D01*
X145989876Y-137497731D01*
X145989870Y-137497735D01*
X145778447Y-137683149D01*
X145775358Y-137685858D01*
X145772649Y-137688947D01*
X145587235Y-137900370D01*
X145587231Y-137900376D01*
X145584517Y-137903470D01*
X145423713Y-138144131D01*
X145421889Y-138147830D01*
X145421886Y-138147835D01*
X145297519Y-138400027D01*
X145295697Y-138403722D01*
X145294374Y-138407620D01*
X145294373Y-138407622D01*
X145279005Y-138452896D01*
X145202659Y-138677801D01*
X145201855Y-138681845D01*
X145201853Y-138681851D01*
X145173712Y-138823325D01*
X145146192Y-138961680D01*
X145129307Y-139219297D01*
X145127262Y-139250500D01*
X99552738Y-139250500D01*
X99533808Y-138961680D01*
X99506288Y-138823325D01*
X99478147Y-138681851D01*
X99478145Y-138681845D01*
X99477341Y-138677801D01*
X99400996Y-138452896D01*
X99385627Y-138407622D01*
X99385626Y-138407620D01*
X99384303Y-138403722D01*
X99382481Y-138400027D01*
X99258114Y-138147835D01*
X99258111Y-138147830D01*
X99256287Y-138144131D01*
X99095483Y-137903470D01*
X99092769Y-137900376D01*
X99092765Y-137900370D01*
X98907351Y-137688947D01*
X98904642Y-137685858D01*
X98901553Y-137683149D01*
X98690130Y-137497735D01*
X98690124Y-137497731D01*
X98687030Y-137495017D01*
X98446369Y-137334213D01*
X98442670Y-137332389D01*
X98442665Y-137332386D01*
X98190473Y-137208019D01*
X98190471Y-137208018D01*
X98186778Y-137206197D01*
X98182878Y-137204873D01*
X97916609Y-137114486D01*
X97916605Y-137114485D01*
X97912699Y-137113159D01*
X97908655Y-137112355D01*
X97908649Y-137112353D01*
X97632863Y-137057496D01*
X97632860Y-137057496D01*
X97628820Y-137056692D01*
X97624709Y-137056423D01*
X97624705Y-137056422D01*
X97344119Y-137038032D01*
X97340000Y-137037762D01*
X97335881Y-137038032D01*
X97055295Y-137056422D01*
X97055291Y-137056423D01*
X97051180Y-137056692D01*
X97047140Y-137057496D01*
X97047137Y-137057496D01*
X96771351Y-137112353D01*
X96771345Y-137112355D01*
X96767301Y-137113159D01*
X96763395Y-137114485D01*
X96763391Y-137114486D01*
X96497122Y-137204873D01*
X96493222Y-137206197D01*
X96489529Y-137208018D01*
X96489527Y-137208019D01*
X96237335Y-137332386D01*
X96237330Y-137332389D01*
X96233631Y-137334213D01*
X95992970Y-137495017D01*
X95989876Y-137497731D01*
X95989870Y-137497735D01*
X95778447Y-137683149D01*
X95775358Y-137685858D01*
X95772649Y-137688947D01*
X95587235Y-137900370D01*
X95587231Y-137900376D01*
X95584517Y-137903470D01*
X95423713Y-138144131D01*
X95421889Y-138147830D01*
X95421886Y-138147835D01*
X95297519Y-138400027D01*
X95295697Y-138403722D01*
X95294374Y-138407620D01*
X95294373Y-138407622D01*
X95279005Y-138452896D01*
X95202659Y-138677801D01*
X95201855Y-138681845D01*
X95201853Y-138681851D01*
X95173712Y-138823325D01*
X95146192Y-138961680D01*
X95129307Y-139219297D01*
X95127262Y-139250500D01*
X93980000Y-139250500D01*
X93980000Y-135514669D01*
X104687001Y-135514669D01*
X104687371Y-135521490D01*
X104692895Y-135572352D01*
X104696521Y-135587604D01*
X104741676Y-135708054D01*
X104750214Y-135723649D01*
X104826715Y-135825724D01*
X104839276Y-135838285D01*
X104941351Y-135914786D01*
X104956946Y-135923324D01*
X105077394Y-135968478D01*
X105092649Y-135972105D01*
X105143514Y-135977631D01*
X105150328Y-135978000D01*
X105772885Y-135978000D01*
X105788124Y-135973525D01*
X105789329Y-135972135D01*
X105791000Y-135964452D01*
X105791000Y-135959884D01*
X106299000Y-135959884D01*
X106303475Y-135975123D01*
X106304865Y-135976328D01*
X106312548Y-135977999D01*
X106939669Y-135977999D01*
X106946490Y-135977629D01*
X106997352Y-135972105D01*
X107012604Y-135968479D01*
X107133054Y-135923324D01*
X107148649Y-135914786D01*
X107250724Y-135838285D01*
X107263285Y-135825724D01*
X107339786Y-135723649D01*
X107348324Y-135708054D01*
X107393478Y-135587606D01*
X107397105Y-135572351D01*
X107402631Y-135521486D01*
X107403000Y-135514672D01*
X107403000Y-134892115D01*
X107398525Y-134876876D01*
X107397135Y-134875671D01*
X107389452Y-134874000D01*
X106317115Y-134874000D01*
X106301876Y-134878475D01*
X106300671Y-134879865D01*
X106299000Y-134887548D01*
X106299000Y-135959884D01*
X105791000Y-135959884D01*
X105791000Y-134892115D01*
X105786525Y-134876876D01*
X105785135Y-134875671D01*
X105777452Y-134874000D01*
X104705116Y-134874000D01*
X104689877Y-134878475D01*
X104688672Y-134879865D01*
X104687001Y-134887548D01*
X104687001Y-135514669D01*
X93980000Y-135514669D01*
X93980000Y-132046695D01*
X104682251Y-132046695D01*
X104682548Y-132051848D01*
X104682548Y-132051851D01*
X104688011Y-132146590D01*
X104695110Y-132269715D01*
X104696247Y-132274761D01*
X104696248Y-132274767D01*
X104716119Y-132362939D01*
X104744222Y-132487639D01*
X104828266Y-132694616D01*
X104944987Y-132885088D01*
X105091250Y-133053938D01*
X105095225Y-133057238D01*
X105095231Y-133057244D01*
X105100425Y-133061556D01*
X105140059Y-133120460D01*
X105141555Y-133191441D01*
X105104439Y-133251962D01*
X105064168Y-133276480D01*
X104956946Y-133316676D01*
X104941351Y-133325214D01*
X104839276Y-133401715D01*
X104826715Y-133414276D01*
X104750214Y-133516351D01*
X104741676Y-133531946D01*
X104696522Y-133652394D01*
X104692895Y-133667649D01*
X104687369Y-133718514D01*
X104687000Y-133725328D01*
X104687000Y-134347885D01*
X104691475Y-134363124D01*
X104692865Y-134364329D01*
X104700548Y-134366000D01*
X107384884Y-134366000D01*
X107400123Y-134361525D01*
X107401328Y-134360135D01*
X107402999Y-134352452D01*
X107402999Y-133725331D01*
X107402629Y-133718510D01*
X107397105Y-133667648D01*
X107393479Y-133652396D01*
X107348324Y-133531946D01*
X107339786Y-133516351D01*
X107263285Y-133414276D01*
X107250724Y-133401715D01*
X107148649Y-133325214D01*
X107133054Y-133316676D01*
X107022813Y-133275348D01*
X106966049Y-133232706D01*
X106941349Y-133166145D01*
X106956557Y-133096796D01*
X106978104Y-133068115D01*
X107079430Y-132967144D01*
X107079440Y-132967132D01*
X107083096Y-132963489D01*
X107142594Y-132880689D01*
X107210435Y-132786277D01*
X107213453Y-132782077D01*
X107312430Y-132581811D01*
X107377370Y-132368069D01*
X107406529Y-132146590D01*
X107408156Y-132080000D01*
X107389852Y-131857361D01*
X107335431Y-131640702D01*
X107246354Y-131435840D01*
X107125014Y-131248277D01*
X106974670Y-131083051D01*
X106970619Y-131079852D01*
X106970615Y-131079848D01*
X106803414Y-130947800D01*
X106803410Y-130947798D01*
X106799359Y-130944598D01*
X106758053Y-130921796D01*
X106708084Y-130871364D01*
X106693312Y-130801921D01*
X106718428Y-130735516D01*
X106745780Y-130708909D01*
X106789603Y-130677650D01*
X106924860Y-130581173D01*
X107083096Y-130423489D01*
X107142594Y-130340689D01*
X107210435Y-130246277D01*
X107213453Y-130242077D01*
X107312430Y-130041811D01*
X107377370Y-129828069D01*
X107406529Y-129606590D01*
X107408156Y-129540000D01*
X107389852Y-129317361D01*
X107335431Y-129100702D01*
X107246354Y-128895840D01*
X107125014Y-128708277D01*
X106974670Y-128543051D01*
X106970619Y-128539852D01*
X106970615Y-128539848D01*
X106803414Y-128407800D01*
X106803410Y-128407798D01*
X106799359Y-128404598D01*
X106758053Y-128381796D01*
X106708084Y-128331364D01*
X106693312Y-128261921D01*
X106718428Y-128195516D01*
X106745780Y-128168909D01*
X106789603Y-128137650D01*
X106924860Y-128041173D01*
X107083096Y-127883489D01*
X107092670Y-127870166D01*
X107210435Y-127706277D01*
X107213453Y-127702077D01*
X107223008Y-127682745D01*
X107310136Y-127506453D01*
X107310137Y-127506451D01*
X107312430Y-127501811D01*
X107377370Y-127288069D01*
X107406529Y-127066590D01*
X107408156Y-127000000D01*
X107389852Y-126777361D01*
X107335431Y-126560702D01*
X107246354Y-126355840D01*
X107206906Y-126294862D01*
X107127822Y-126172617D01*
X107127820Y-126172614D01*
X107125014Y-126168277D01*
X106974670Y-126003051D01*
X106970619Y-125999852D01*
X106970615Y-125999848D01*
X106803414Y-125867800D01*
X106803410Y-125867798D01*
X106799359Y-125864598D01*
X106603789Y-125756638D01*
X106598920Y-125754914D01*
X106598916Y-125754912D01*
X106398087Y-125683795D01*
X106398083Y-125683794D01*
X106393212Y-125682069D01*
X106388119Y-125681162D01*
X106388116Y-125681161D01*
X106178373Y-125643800D01*
X106178367Y-125643799D01*
X106173284Y-125642894D01*
X106099452Y-125641992D01*
X105955081Y-125640228D01*
X105955079Y-125640228D01*
X105949911Y-125640165D01*
X105729091Y-125673955D01*
X105516756Y-125743357D01*
X105486443Y-125759137D01*
X105386758Y-125811030D01*
X105318607Y-125846507D01*
X105314474Y-125849610D01*
X105314471Y-125849612D01*
X105188734Y-125944018D01*
X105139965Y-125980635D01*
X104985629Y-126142138D01*
X104982715Y-126146410D01*
X104982714Y-126146411D01*
X104947222Y-126198441D01*
X104859743Y-126326680D01*
X104765688Y-126529305D01*
X104705989Y-126744570D01*
X104682251Y-126966695D01*
X104682548Y-126971848D01*
X104682548Y-126971851D01*
X104688011Y-127066590D01*
X104695110Y-127189715D01*
X104696247Y-127194761D01*
X104696248Y-127194767D01*
X104716119Y-127282939D01*
X104744222Y-127407639D01*
X104802541Y-127551262D01*
X104821662Y-127598351D01*
X104828266Y-127614616D01*
X104867638Y-127678866D01*
X104938072Y-127793803D01*
X104944987Y-127805088D01*
X105091250Y-127973938D01*
X105263126Y-128116632D01*
X105333595Y-128157811D01*
X105336445Y-128159476D01*
X105385169Y-128211114D01*
X105398240Y-128280897D01*
X105371509Y-128346669D01*
X105331055Y-128380027D01*
X105318607Y-128386507D01*
X105314474Y-128389610D01*
X105314471Y-128389612D01*
X105290247Y-128407800D01*
X105139965Y-128520635D01*
X104985629Y-128682138D01*
X104859743Y-128866680D01*
X104765688Y-129069305D01*
X104705989Y-129284570D01*
X104682251Y-129506695D01*
X104682548Y-129511848D01*
X104682548Y-129511851D01*
X104688011Y-129606590D01*
X104695110Y-129729715D01*
X104696247Y-129734761D01*
X104696248Y-129734767D01*
X104716119Y-129822939D01*
X104744222Y-129947639D01*
X104828266Y-130154616D01*
X104944987Y-130345088D01*
X105091250Y-130513938D01*
X105263126Y-130656632D01*
X105333595Y-130697811D01*
X105336445Y-130699476D01*
X105385169Y-130751114D01*
X105398240Y-130820897D01*
X105371509Y-130886669D01*
X105331055Y-130920027D01*
X105318607Y-130926507D01*
X105314474Y-130929610D01*
X105314471Y-130929612D01*
X105290247Y-130947800D01*
X105139965Y-131060635D01*
X104985629Y-131222138D01*
X104859743Y-131406680D01*
X104765688Y-131609305D01*
X104705989Y-131824570D01*
X104682251Y-132046695D01*
X93980000Y-132046695D01*
X93980000Y-114935000D01*
X100051496Y-114935000D01*
X100052186Y-114941565D01*
X100068133Y-115093288D01*
X100071458Y-115124928D01*
X100130473Y-115306556D01*
X100225960Y-115471944D01*
X100299137Y-115553215D01*
X100329853Y-115617221D01*
X100331500Y-115637524D01*
X100331500Y-115880847D01*
X100330973Y-115892030D01*
X100329298Y-115899523D01*
X100329547Y-115907449D01*
X100329547Y-115907450D01*
X100331438Y-115967600D01*
X100331500Y-115971559D01*
X100331500Y-115999470D01*
X100331997Y-116003404D01*
X100331997Y-116003405D01*
X100332005Y-116003470D01*
X100332938Y-116015307D01*
X100334327Y-116059503D01*
X100339978Y-116078953D01*
X100343987Y-116098314D01*
X100346526Y-116118411D01*
X100349445Y-116125782D01*
X100349445Y-116125784D01*
X100362804Y-116159526D01*
X100366649Y-116170756D01*
X100371032Y-116185842D01*
X100378982Y-116213207D01*
X100383015Y-116220026D01*
X100383017Y-116220031D01*
X100389293Y-116230642D01*
X100397988Y-116248390D01*
X100405448Y-116267231D01*
X100410110Y-116273647D01*
X100410110Y-116273648D01*
X100431436Y-116303001D01*
X100437952Y-116312921D01*
X100460458Y-116350976D01*
X100474779Y-116365297D01*
X100487619Y-116380330D01*
X100499528Y-116396721D01*
X100505634Y-116401772D01*
X100533605Y-116424912D01*
X100542384Y-116432902D01*
X110935571Y-126826089D01*
X110969597Y-126888401D01*
X110971785Y-126902010D01*
X110989151Y-127067235D01*
X111048166Y-127248863D01*
X111143653Y-127414251D01*
X111148071Y-127419158D01*
X111148072Y-127419159D01*
X111218032Y-127496857D01*
X111271440Y-127556173D01*
X111312518Y-127586018D01*
X111383995Y-127637949D01*
X111425941Y-127668425D01*
X111431969Y-127671109D01*
X111431971Y-127671110D01*
X111510958Y-127706277D01*
X111600405Y-127746101D01*
X111693805Y-127765954D01*
X111780749Y-127784435D01*
X111780754Y-127784435D01*
X111787206Y-127785807D01*
X111978180Y-127785807D01*
X111984632Y-127784435D01*
X111984637Y-127784435D01*
X112071581Y-127765954D01*
X112164981Y-127746101D01*
X112254428Y-127706277D01*
X112333415Y-127671110D01*
X112333417Y-127671109D01*
X112339445Y-127668425D01*
X112354394Y-127657564D01*
X112428455Y-127633500D01*
X116766800Y-127633500D01*
X116834921Y-127653502D01*
X116854147Y-127669843D01*
X116854420Y-127669540D01*
X116859332Y-127673963D01*
X116863747Y-127678866D01*
X116869086Y-127682745D01*
X117009050Y-127784435D01*
X117018248Y-127791118D01*
X117024276Y-127793802D01*
X117024278Y-127793803D01*
X117049625Y-127805088D01*
X117192712Y-127868794D01*
X117279009Y-127887137D01*
X117373056Y-127907128D01*
X117373061Y-127907128D01*
X117379513Y-127908500D01*
X117570487Y-127908500D01*
X117576939Y-127907128D01*
X117576944Y-127907128D01*
X117670991Y-127887137D01*
X117757288Y-127868794D01*
X117900375Y-127805088D01*
X117925722Y-127793803D01*
X117925724Y-127793802D01*
X117931752Y-127791118D01*
X117940951Y-127784435D01*
X118080914Y-127682745D01*
X118086253Y-127678866D01*
X118090668Y-127673963D01*
X118095580Y-127669540D01*
X118096705Y-127670789D01*
X118150014Y-127637949D01*
X118183200Y-127633500D01*
X128826951Y-127633500D01*
X128838134Y-127634027D01*
X128845627Y-127635702D01*
X128853553Y-127635453D01*
X128853554Y-127635453D01*
X128913704Y-127633562D01*
X128917663Y-127633500D01*
X128945574Y-127633500D01*
X128949509Y-127633003D01*
X128949574Y-127632995D01*
X128961411Y-127632062D01*
X128993669Y-127631048D01*
X128997688Y-127630922D01*
X129005607Y-127630673D01*
X129025061Y-127625021D01*
X129044418Y-127621013D01*
X129056648Y-127619468D01*
X129056649Y-127619468D01*
X129064515Y-127618474D01*
X129071886Y-127615555D01*
X129071888Y-127615555D01*
X129105630Y-127602196D01*
X129116860Y-127598351D01*
X129151701Y-127588229D01*
X129151702Y-127588229D01*
X129159311Y-127586018D01*
X129166130Y-127581985D01*
X129166135Y-127581983D01*
X129176746Y-127575707D01*
X129194494Y-127567012D01*
X129213335Y-127559552D01*
X129224746Y-127551262D01*
X129249105Y-127533564D01*
X129259025Y-127527048D01*
X129290253Y-127508580D01*
X129290256Y-127508578D01*
X129297080Y-127504542D01*
X129311401Y-127490221D01*
X129326435Y-127477380D01*
X129336412Y-127470131D01*
X129342825Y-127465472D01*
X129371016Y-127431395D01*
X129379006Y-127422616D01*
X135647247Y-121154375D01*
X135655537Y-121146831D01*
X135662018Y-121142718D01*
X135708659Y-121093050D01*
X135711413Y-121090209D01*
X135731135Y-121070487D01*
X135733619Y-121067285D01*
X135741317Y-121058273D01*
X135766161Y-121031816D01*
X135771586Y-121026039D01*
X135781347Y-121008284D01*
X135792198Y-120991765D01*
X135804614Y-120975759D01*
X135822174Y-120935181D01*
X135827391Y-120924531D01*
X135848695Y-120885778D01*
X135853733Y-120866155D01*
X135860137Y-120847452D01*
X135865033Y-120836138D01*
X135865033Y-120836137D01*
X135868181Y-120828863D01*
X135869420Y-120821040D01*
X135869423Y-120821030D01*
X135875099Y-120785194D01*
X135877505Y-120773574D01*
X135886528Y-120738429D01*
X135886528Y-120738428D01*
X135888500Y-120730748D01*
X135888500Y-120710494D01*
X135890051Y-120690783D01*
X135891980Y-120678604D01*
X135893220Y-120670775D01*
X135889059Y-120626756D01*
X135888500Y-120614899D01*
X135888500Y-113732524D01*
X135908502Y-113664403D01*
X135920858Y-113648221D01*
X135922232Y-113646695D01*
X138972251Y-113646695D01*
X138972548Y-113651848D01*
X138972548Y-113651851D01*
X138978011Y-113746590D01*
X138985110Y-113869715D01*
X138986247Y-113874761D01*
X138986248Y-113874767D01*
X139006119Y-113962939D01*
X139034222Y-114087639D01*
X139118266Y-114294616D01*
X139234987Y-114485088D01*
X139381250Y-114653938D01*
X139553126Y-114796632D01*
X139746000Y-114909338D01*
X139954692Y-114989030D01*
X139959760Y-114990061D01*
X139959763Y-114990062D01*
X140030901Y-115004535D01*
X140173597Y-115033567D01*
X140178772Y-115033757D01*
X140178774Y-115033757D01*
X140391673Y-115041564D01*
X140391677Y-115041564D01*
X140396837Y-115041753D01*
X140401957Y-115041097D01*
X140401959Y-115041097D01*
X140613288Y-115014025D01*
X140613289Y-115014025D01*
X140618416Y-115013368D01*
X140623366Y-115011883D01*
X140827429Y-114950661D01*
X140827434Y-114950659D01*
X140832384Y-114949174D01*
X141032994Y-114850896D01*
X141214860Y-114721173D01*
X141373096Y-114563489D01*
X141389089Y-114541233D01*
X141500435Y-114386277D01*
X141503453Y-114382077D01*
X141510646Y-114367524D01*
X141600136Y-114186453D01*
X141600137Y-114186451D01*
X141602430Y-114181811D01*
X141667370Y-113968069D01*
X141696529Y-113746590D01*
X141697369Y-113712221D01*
X141698074Y-113683365D01*
X141698074Y-113683361D01*
X141698156Y-113680000D01*
X141679852Y-113457361D01*
X141625431Y-113240702D01*
X141536354Y-113035840D01*
X141496906Y-112974862D01*
X141417822Y-112852617D01*
X141417820Y-112852614D01*
X141415014Y-112848277D01*
X141264670Y-112683051D01*
X141260619Y-112679852D01*
X141260615Y-112679848D01*
X141093414Y-112547800D01*
X141093410Y-112547798D01*
X141089359Y-112544598D01*
X141048053Y-112521796D01*
X140998084Y-112471364D01*
X140983312Y-112401921D01*
X141008428Y-112335516D01*
X141035780Y-112308909D01*
X141079603Y-112277650D01*
X141214860Y-112181173D01*
X141232203Y-112163891D01*
X141369435Y-112027137D01*
X141373096Y-112023489D01*
X141432594Y-111940689D01*
X141500435Y-111846277D01*
X141503453Y-111842077D01*
X141602430Y-111641811D01*
X141667370Y-111428069D01*
X141696529Y-111206590D01*
X141698156Y-111140000D01*
X141679852Y-110917361D01*
X141625431Y-110700702D01*
X141536354Y-110495840D01*
X141415014Y-110308277D01*
X141411540Y-110304459D01*
X141411533Y-110304450D01*
X141267435Y-110146088D01*
X141236383Y-110082242D01*
X141244779Y-110011744D01*
X141289956Y-109956976D01*
X141316400Y-109943307D01*
X141423052Y-109903325D01*
X141438649Y-109894786D01*
X141540724Y-109818285D01*
X141553285Y-109805724D01*
X141629786Y-109703649D01*
X141638324Y-109688054D01*
X141683478Y-109567606D01*
X141687105Y-109552351D01*
X141692631Y-109501486D01*
X141693000Y-109494672D01*
X141693000Y-108872115D01*
X141688525Y-108856876D01*
X141687135Y-108855671D01*
X141679452Y-108854000D01*
X138995116Y-108854000D01*
X138979877Y-108858475D01*
X138978672Y-108859865D01*
X138977001Y-108867548D01*
X138977001Y-109494669D01*
X138977371Y-109501490D01*
X138982895Y-109552352D01*
X138986521Y-109567604D01*
X139031676Y-109688054D01*
X139040214Y-109703649D01*
X139116715Y-109805724D01*
X139129276Y-109818285D01*
X139231351Y-109894786D01*
X139246946Y-109903324D01*
X139355827Y-109944142D01*
X139412591Y-109986784D01*
X139437291Y-110053345D01*
X139422083Y-110122694D01*
X139402691Y-110149175D01*
X139279200Y-110278401D01*
X139275629Y-110282138D01*
X139149743Y-110466680D01*
X139055688Y-110669305D01*
X138995989Y-110884570D01*
X138972251Y-111106695D01*
X138972548Y-111111848D01*
X138972548Y-111111851D01*
X138978011Y-111206590D01*
X138985110Y-111329715D01*
X138986247Y-111334761D01*
X138986248Y-111334767D01*
X139006119Y-111422939D01*
X139034222Y-111547639D01*
X139118266Y-111754616D01*
X139234987Y-111945088D01*
X139381250Y-112113938D01*
X139553126Y-112256632D01*
X139623595Y-112297811D01*
X139626445Y-112299476D01*
X139675169Y-112351114D01*
X139688240Y-112420897D01*
X139661509Y-112486669D01*
X139621055Y-112520027D01*
X139608607Y-112526507D01*
X139604474Y-112529610D01*
X139604471Y-112529612D01*
X139580247Y-112547800D01*
X139429965Y-112660635D01*
X139275629Y-112822138D01*
X139149743Y-113006680D01*
X139135871Y-113036565D01*
X139063901Y-113191612D01*
X139055688Y-113209305D01*
X138995989Y-113424570D01*
X138972251Y-113646695D01*
X135922232Y-113646695D01*
X135994040Y-113566944D01*
X136089527Y-113401556D01*
X136148542Y-113219928D01*
X136149878Y-113207222D01*
X136167814Y-113036565D01*
X136168504Y-113030000D01*
X136154211Y-112894012D01*
X136149232Y-112846635D01*
X136149232Y-112846633D01*
X136148542Y-112840072D01*
X136089527Y-112658444D01*
X135994040Y-112493056D01*
X135974509Y-112471364D01*
X135870675Y-112356045D01*
X135870674Y-112356044D01*
X135866253Y-112351134D01*
X135711752Y-112238882D01*
X135705724Y-112236198D01*
X135705722Y-112236197D01*
X135543319Y-112163891D01*
X135543318Y-112163891D01*
X135537288Y-112161206D01*
X135443888Y-112141353D01*
X135356944Y-112122872D01*
X135356939Y-112122872D01*
X135350487Y-112121500D01*
X135159513Y-112121500D01*
X135153061Y-112122872D01*
X135153056Y-112122872D01*
X135066112Y-112141353D01*
X134972712Y-112161206D01*
X134966682Y-112163891D01*
X134966681Y-112163891D01*
X134804278Y-112236197D01*
X134804276Y-112236198D01*
X134798248Y-112238882D01*
X134694060Y-112314579D01*
X134627194Y-112338437D01*
X134558042Y-112322357D01*
X134545944Y-112314582D01*
X134441752Y-112238882D01*
X134435724Y-112236198D01*
X134435722Y-112236197D01*
X134273319Y-112163891D01*
X134273318Y-112163891D01*
X134267288Y-112161206D01*
X134173888Y-112141353D01*
X134086944Y-112122872D01*
X134086939Y-112122872D01*
X134080487Y-112121500D01*
X133889513Y-112121500D01*
X133883061Y-112122872D01*
X133883056Y-112122872D01*
X133796112Y-112141353D01*
X133702712Y-112161206D01*
X133696682Y-112163891D01*
X133696681Y-112163891D01*
X133534278Y-112236197D01*
X133534276Y-112236198D01*
X133528248Y-112238882D01*
X133373747Y-112351134D01*
X133369326Y-112356044D01*
X133369325Y-112356045D01*
X133265492Y-112471364D01*
X133245960Y-112493056D01*
X133150473Y-112658444D01*
X133091458Y-112840072D01*
X133090768Y-112846633D01*
X133090768Y-112846635D01*
X133085789Y-112894012D01*
X133071496Y-113030000D01*
X133072186Y-113036565D01*
X133090123Y-113207222D01*
X133091458Y-113219928D01*
X133150473Y-113401556D01*
X133245960Y-113566944D01*
X133319137Y-113648215D01*
X133349853Y-113712221D01*
X133351500Y-113732524D01*
X133351500Y-117840218D01*
X133331498Y-117908339D01*
X133277842Y-117954832D01*
X133207568Y-117964936D01*
X133172270Y-117952718D01*
X133171752Y-117953882D01*
X133003319Y-117878891D01*
X133003318Y-117878891D01*
X132997288Y-117876206D01*
X132884721Y-117852279D01*
X132816944Y-117837872D01*
X132816939Y-117837872D01*
X132810487Y-117836500D01*
X132619513Y-117836500D01*
X132613061Y-117837872D01*
X132613056Y-117837872D01*
X132545279Y-117852279D01*
X132432712Y-117876206D01*
X132426682Y-117878891D01*
X132426681Y-117878891D01*
X132264278Y-117951197D01*
X132264276Y-117951198D01*
X132258248Y-117953882D01*
X132252907Y-117957762D01*
X132252906Y-117957763D01*
X132202843Y-117994136D01*
X132103747Y-118066134D01*
X132099326Y-118071044D01*
X132099325Y-118071045D01*
X132021257Y-118157749D01*
X131975960Y-118208056D01*
X131880473Y-118373444D01*
X131821458Y-118555072D01*
X131820768Y-118561633D01*
X131820768Y-118561635D01*
X131804093Y-118720292D01*
X131777080Y-118785949D01*
X131767878Y-118796217D01*
X131219500Y-119344595D01*
X131157188Y-119378621D01*
X131130405Y-119381500D01*
X112468200Y-119381500D01*
X112400079Y-119361498D01*
X112380853Y-119345157D01*
X112380580Y-119345460D01*
X112375668Y-119341037D01*
X112371253Y-119336134D01*
X112216752Y-119223882D01*
X112210724Y-119221198D01*
X112210722Y-119221197D01*
X112048319Y-119148891D01*
X112048318Y-119148891D01*
X112042288Y-119146206D01*
X111948887Y-119126353D01*
X111861944Y-119107872D01*
X111861939Y-119107872D01*
X111855487Y-119106500D01*
X111664513Y-119106500D01*
X111658061Y-119107872D01*
X111658056Y-119107872D01*
X111571113Y-119126353D01*
X111477712Y-119146206D01*
X111471682Y-119148891D01*
X111471681Y-119148891D01*
X111309278Y-119221197D01*
X111309276Y-119221198D01*
X111303248Y-119223882D01*
X111148747Y-119336134D01*
X111144326Y-119341044D01*
X111144325Y-119341045D01*
X111110492Y-119378621D01*
X111020960Y-119478056D01*
X110925473Y-119643444D01*
X110866458Y-119825072D01*
X110846496Y-120015000D01*
X110866458Y-120204928D01*
X110925473Y-120386556D01*
X111020960Y-120551944D01*
X111025378Y-120556851D01*
X111025379Y-120556852D01*
X111107452Y-120648003D01*
X111148747Y-120693866D01*
X111225289Y-120749477D01*
X111290982Y-120797206D01*
X111303248Y-120806118D01*
X111309276Y-120808802D01*
X111309278Y-120808803D01*
X111464927Y-120878102D01*
X111477712Y-120883794D01*
X111571112Y-120903647D01*
X111658056Y-120922128D01*
X111658061Y-120922128D01*
X111664513Y-120923500D01*
X111855487Y-120923500D01*
X111861939Y-120922128D01*
X111861944Y-120922128D01*
X111948888Y-120903647D01*
X112042288Y-120883794D01*
X112055073Y-120878102D01*
X112210722Y-120808803D01*
X112210724Y-120808802D01*
X112216752Y-120806118D01*
X112229019Y-120797206D01*
X112349671Y-120709546D01*
X112371253Y-120693866D01*
X112375668Y-120688963D01*
X112380580Y-120684540D01*
X112381705Y-120685789D01*
X112435014Y-120652949D01*
X112468200Y-120648500D01*
X120117048Y-120648500D01*
X120185169Y-120668502D01*
X120231662Y-120722158D01*
X120241766Y-120792432D01*
X120212272Y-120857012D01*
X120191109Y-120876436D01*
X120128220Y-120922128D01*
X120038747Y-120987134D01*
X120034332Y-120992037D01*
X120029420Y-120996460D01*
X120028295Y-120995211D01*
X119974986Y-121028051D01*
X119941800Y-121032500D01*
X119712767Y-121032500D01*
X119701584Y-121031973D01*
X119694091Y-121030298D01*
X119686165Y-121030547D01*
X119686164Y-121030547D01*
X119626014Y-121032438D01*
X119622055Y-121032500D01*
X119594144Y-121032500D01*
X119590210Y-121032997D01*
X119590209Y-121032997D01*
X119590144Y-121033005D01*
X119578307Y-121033938D01*
X119546490Y-121034938D01*
X119542029Y-121035078D01*
X119534110Y-121035327D01*
X119523095Y-121038527D01*
X119514658Y-121040978D01*
X119495306Y-121044986D01*
X119488235Y-121045880D01*
X119475203Y-121047526D01*
X119467834Y-121050443D01*
X119467832Y-121050444D01*
X119434097Y-121063800D01*
X119422869Y-121067645D01*
X119380407Y-121079982D01*
X119373585Y-121084016D01*
X119373579Y-121084019D01*
X119362968Y-121090294D01*
X119345218Y-121098990D01*
X119333756Y-121103528D01*
X119333751Y-121103531D01*
X119326383Y-121106448D01*
X119319968Y-121111109D01*
X119290625Y-121132427D01*
X119280707Y-121138943D01*
X119262019Y-121149995D01*
X119242637Y-121161458D01*
X119228313Y-121175782D01*
X119213281Y-121188621D01*
X119196893Y-121200528D01*
X119168712Y-121234593D01*
X119160722Y-121243373D01*
X115979500Y-124424595D01*
X115917188Y-124458621D01*
X115890405Y-124461500D01*
X111833200Y-124461500D01*
X111765079Y-124441498D01*
X111745853Y-124425157D01*
X111745580Y-124425460D01*
X111740668Y-124421037D01*
X111736253Y-124416134D01*
X111581752Y-124303882D01*
X111575724Y-124301198D01*
X111575722Y-124301197D01*
X111413319Y-124228891D01*
X111413318Y-124228891D01*
X111407288Y-124226206D01*
X111294721Y-124202279D01*
X111226944Y-124187872D01*
X111226939Y-124187872D01*
X111220487Y-124186500D01*
X111164594Y-124186500D01*
X111096473Y-124166498D01*
X111075499Y-124149595D01*
X103182122Y-116256217D01*
X103148096Y-116193905D01*
X103145907Y-116180292D01*
X103143725Y-116159526D01*
X103135256Y-116078953D01*
X103129232Y-116021635D01*
X103129232Y-116021633D01*
X103128542Y-116015072D01*
X103069527Y-115833444D01*
X102974040Y-115668056D01*
X102846253Y-115526134D01*
X102691752Y-115413882D01*
X102685724Y-115411198D01*
X102685722Y-115411197D01*
X102523319Y-115338891D01*
X102523318Y-115338891D01*
X102517288Y-115336206D01*
X102404721Y-115312279D01*
X102336944Y-115297872D01*
X102336939Y-115297872D01*
X102330487Y-115296500D01*
X102139513Y-115296500D01*
X102133061Y-115297872D01*
X102133056Y-115297872D01*
X101991284Y-115328007D01*
X101920493Y-115322605D01*
X101863861Y-115279788D01*
X101839367Y-115213150D01*
X101845254Y-115165824D01*
X101856502Y-115131206D01*
X101858542Y-115124928D01*
X101861868Y-115093288D01*
X101877814Y-114941565D01*
X101878504Y-114935000D01*
X101875533Y-114906731D01*
X101859232Y-114751635D01*
X101859232Y-114751633D01*
X101858542Y-114745072D01*
X101799527Y-114563444D01*
X101786704Y-114541233D01*
X101751748Y-114480689D01*
X101704040Y-114398056D01*
X101689653Y-114382077D01*
X101580675Y-114261045D01*
X101580674Y-114261044D01*
X101576253Y-114256134D01*
X101421752Y-114143882D01*
X101415724Y-114141198D01*
X101415722Y-114141197D01*
X101253319Y-114068891D01*
X101253318Y-114068891D01*
X101247288Y-114066206D01*
X101134721Y-114042279D01*
X101066944Y-114027872D01*
X101066939Y-114027872D01*
X101060487Y-114026500D01*
X100869513Y-114026500D01*
X100863061Y-114027872D01*
X100863056Y-114027872D01*
X100795279Y-114042279D01*
X100682712Y-114066206D01*
X100676682Y-114068891D01*
X100676681Y-114068891D01*
X100514278Y-114141197D01*
X100514276Y-114141198D01*
X100508248Y-114143882D01*
X100353747Y-114256134D01*
X100349326Y-114261044D01*
X100349325Y-114261045D01*
X100240348Y-114382077D01*
X100225960Y-114398056D01*
X100178252Y-114480689D01*
X100143297Y-114541233D01*
X100130473Y-114563444D01*
X100071458Y-114745072D01*
X100070768Y-114751633D01*
X100070768Y-114751635D01*
X100054467Y-114906731D01*
X100051496Y-114935000D01*
X93980000Y-114935000D01*
X93980000Y-113665000D01*
X105766496Y-113665000D01*
X105786458Y-113854928D01*
X105845473Y-114036556D01*
X105940960Y-114201944D01*
X106014137Y-114283215D01*
X106044853Y-114347221D01*
X106046500Y-114367524D01*
X106046500Y-114541233D01*
X106045973Y-114552416D01*
X106044298Y-114559909D01*
X106044547Y-114567835D01*
X106044547Y-114567836D01*
X106046438Y-114627986D01*
X106046500Y-114631945D01*
X106046500Y-114659856D01*
X106046997Y-114663790D01*
X106046997Y-114663791D01*
X106047005Y-114663856D01*
X106047938Y-114675693D01*
X106049327Y-114719889D01*
X106054978Y-114739339D01*
X106058987Y-114758700D01*
X106061526Y-114778797D01*
X106064445Y-114786168D01*
X106064445Y-114786170D01*
X106077804Y-114819912D01*
X106081649Y-114831142D01*
X106091077Y-114863594D01*
X106093982Y-114873593D01*
X106098015Y-114880412D01*
X106098017Y-114880417D01*
X106104293Y-114891028D01*
X106112988Y-114908776D01*
X106120448Y-114927617D01*
X106125110Y-114934033D01*
X106125110Y-114934034D01*
X106146436Y-114963387D01*
X106152952Y-114973307D01*
X106162251Y-114989030D01*
X106175458Y-115011362D01*
X106189779Y-115025683D01*
X106202619Y-115040716D01*
X106214528Y-115057107D01*
X106220634Y-115062158D01*
X106248605Y-115085298D01*
X106257384Y-115093288D01*
X107317878Y-116153782D01*
X107351904Y-116216094D01*
X107354093Y-116229707D01*
X107366839Y-116350976D01*
X107371458Y-116394928D01*
X107430473Y-116576556D01*
X107525960Y-116741944D01*
X107530378Y-116746851D01*
X107530379Y-116746852D01*
X107574753Y-116796134D01*
X107653747Y-116883866D01*
X107808248Y-116996118D01*
X107814276Y-116998802D01*
X107814278Y-116998803D01*
X107976681Y-117071109D01*
X107982712Y-117073794D01*
X108076113Y-117093647D01*
X108163056Y-117112128D01*
X108163061Y-117112128D01*
X108169513Y-117113500D01*
X108360487Y-117113500D01*
X108366939Y-117112128D01*
X108366944Y-117112128D01*
X108453887Y-117093647D01*
X108547288Y-117073794D01*
X108553319Y-117071109D01*
X108715722Y-116998803D01*
X108715724Y-116998802D01*
X108721752Y-116996118D01*
X108876253Y-116883866D01*
X108955247Y-116796134D01*
X108999621Y-116746852D01*
X108999622Y-116746851D01*
X109004040Y-116741944D01*
X109099527Y-116576556D01*
X109158542Y-116394928D01*
X109163162Y-116350976D01*
X109177814Y-116211565D01*
X109178504Y-116205000D01*
X109165256Y-116078953D01*
X109159232Y-116021635D01*
X109159232Y-116021633D01*
X109158542Y-116015072D01*
X109099527Y-115833444D01*
X109004040Y-115668056D01*
X108876253Y-115526134D01*
X108721752Y-115413882D01*
X108715724Y-115411198D01*
X108715722Y-115411197D01*
X108553319Y-115338891D01*
X108553318Y-115338891D01*
X108547288Y-115336206D01*
X108434721Y-115312279D01*
X108366944Y-115297872D01*
X108366939Y-115297872D01*
X108360487Y-115296500D01*
X108304595Y-115296500D01*
X108236474Y-115276498D01*
X108215500Y-115259595D01*
X107379837Y-114423932D01*
X107345811Y-114361620D01*
X107350876Y-114290805D01*
X107375294Y-114250529D01*
X107419040Y-114201944D01*
X107514527Y-114036556D01*
X107573542Y-113854928D01*
X107593504Y-113665000D01*
X107580585Y-113542083D01*
X107574232Y-113481635D01*
X107574232Y-113481633D01*
X107573542Y-113475072D01*
X107514527Y-113293444D01*
X107491747Y-113253987D01*
X107464747Y-113207222D01*
X107419040Y-113128056D01*
X107389772Y-113095550D01*
X107295675Y-112991045D01*
X107295674Y-112991044D01*
X107291253Y-112986134D01*
X107192157Y-112914136D01*
X107142094Y-112877763D01*
X107142093Y-112877762D01*
X107136752Y-112873882D01*
X107130724Y-112871198D01*
X107130722Y-112871197D01*
X106968319Y-112798891D01*
X106968318Y-112798891D01*
X106962288Y-112796206D01*
X106868888Y-112776353D01*
X106781944Y-112757872D01*
X106781939Y-112757872D01*
X106775487Y-112756500D01*
X106584513Y-112756500D01*
X106578061Y-112757872D01*
X106578056Y-112757872D01*
X106491112Y-112776353D01*
X106397712Y-112796206D01*
X106391682Y-112798891D01*
X106391681Y-112798891D01*
X106229278Y-112871197D01*
X106229276Y-112871198D01*
X106223248Y-112873882D01*
X106217907Y-112877762D01*
X106217906Y-112877763D01*
X106167843Y-112914136D01*
X106068747Y-112986134D01*
X106064326Y-112991044D01*
X106064325Y-112991045D01*
X105970229Y-113095550D01*
X105940960Y-113128056D01*
X105895253Y-113207222D01*
X105868254Y-113253987D01*
X105845473Y-113293444D01*
X105786458Y-113475072D01*
X105785768Y-113481633D01*
X105785768Y-113481635D01*
X105779415Y-113542083D01*
X105766496Y-113665000D01*
X93980000Y-113665000D01*
X93980000Y-104775000D01*
X101321496Y-104775000D01*
X101322186Y-104781565D01*
X101338187Y-104933803D01*
X101341458Y-104964928D01*
X101400473Y-105146556D01*
X101495960Y-105311944D01*
X101623747Y-105453866D01*
X101778248Y-105566118D01*
X101784276Y-105568802D01*
X101784278Y-105568803D01*
X101946681Y-105641109D01*
X101952712Y-105643794D01*
X102046113Y-105663647D01*
X102133056Y-105682128D01*
X102133061Y-105682128D01*
X102139513Y-105683500D01*
X102195406Y-105683500D01*
X102263527Y-105703502D01*
X102284501Y-105720405D01*
X103636348Y-107072253D01*
X103643888Y-107080539D01*
X103648000Y-107087018D01*
X103653777Y-107092443D01*
X103697651Y-107133643D01*
X103700493Y-107136398D01*
X103720230Y-107156135D01*
X103723427Y-107158615D01*
X103732447Y-107166318D01*
X103764679Y-107196586D01*
X103771625Y-107200405D01*
X103771628Y-107200407D01*
X103782434Y-107206348D01*
X103798953Y-107217199D01*
X103814959Y-107229614D01*
X103822228Y-107232759D01*
X103822232Y-107232762D01*
X103855537Y-107247174D01*
X103866187Y-107252391D01*
X103904940Y-107273695D01*
X103912615Y-107275666D01*
X103912616Y-107275666D01*
X103924562Y-107278733D01*
X103943267Y-107285137D01*
X103961855Y-107293181D01*
X103969678Y-107294420D01*
X103969688Y-107294423D01*
X104005524Y-107300099D01*
X104017144Y-107302505D01*
X104052289Y-107311528D01*
X104059970Y-107313500D01*
X104080224Y-107313500D01*
X104099934Y-107315051D01*
X104119943Y-107318220D01*
X104127835Y-107317474D01*
X104163961Y-107314059D01*
X104175819Y-107313500D01*
X106606800Y-107313500D01*
X106674921Y-107333502D01*
X106694147Y-107349843D01*
X106694420Y-107349540D01*
X106699332Y-107353963D01*
X106703747Y-107358866D01*
X106858248Y-107471118D01*
X106864276Y-107473802D01*
X106864278Y-107473803D01*
X107026681Y-107546109D01*
X107032712Y-107548794D01*
X107126113Y-107568647D01*
X107213056Y-107587128D01*
X107213061Y-107587128D01*
X107219513Y-107588500D01*
X107410487Y-107588500D01*
X107416939Y-107587128D01*
X107416944Y-107587128D01*
X107503888Y-107568647D01*
X107597288Y-107548794D01*
X107603319Y-107546109D01*
X107765722Y-107473803D01*
X107765724Y-107473802D01*
X107771752Y-107471118D01*
X107926253Y-107358866D01*
X107962851Y-107318220D01*
X108049621Y-107221852D01*
X108049622Y-107221851D01*
X108054040Y-107216944D01*
X108149527Y-107051556D01*
X108208542Y-106869928D01*
X108228504Y-106680000D01*
X108208542Y-106490072D01*
X108149527Y-106308444D01*
X108054040Y-106143056D01*
X108041662Y-106129309D01*
X108010946Y-106065303D01*
X108019710Y-105994850D01*
X108041661Y-105960693D01*
X108054040Y-105946944D01*
X108129053Y-105817018D01*
X108146223Y-105787279D01*
X108146224Y-105787278D01*
X108149527Y-105781556D01*
X108208542Y-105599928D01*
X108211814Y-105568803D01*
X108227814Y-105416565D01*
X108228504Y-105410000D01*
X108208542Y-105220072D01*
X108149527Y-105038444D01*
X108054040Y-104873056D01*
X108008744Y-104822749D01*
X107930675Y-104736045D01*
X107930674Y-104736044D01*
X107926253Y-104731134D01*
X107771752Y-104618882D01*
X107765724Y-104616198D01*
X107765722Y-104616197D01*
X107603319Y-104543891D01*
X107603318Y-104543891D01*
X107597288Y-104541206D01*
X107503887Y-104521353D01*
X107416944Y-104502872D01*
X107416939Y-104502872D01*
X107410487Y-104501500D01*
X107219513Y-104501500D01*
X107213061Y-104502872D01*
X107213056Y-104502872D01*
X107126112Y-104521353D01*
X107032712Y-104541206D01*
X107026682Y-104543891D01*
X107026681Y-104543891D01*
X106864278Y-104616197D01*
X106864276Y-104616198D01*
X106858248Y-104618882D01*
X106852907Y-104622762D01*
X106852906Y-104622763D01*
X106742687Y-104702842D01*
X106703747Y-104731134D01*
X106699332Y-104736037D01*
X106694420Y-104740460D01*
X106693295Y-104739211D01*
X106639986Y-104772051D01*
X106606800Y-104776500D01*
X105802113Y-104776500D01*
X105733992Y-104756498D01*
X105687499Y-104702842D01*
X105676803Y-104663671D01*
X105669232Y-104591634D01*
X105669231Y-104591631D01*
X105668542Y-104585072D01*
X105609527Y-104403444D01*
X105514040Y-104238056D01*
X105440863Y-104156785D01*
X105410147Y-104092779D01*
X105408500Y-104072476D01*
X105408500Y-90603877D01*
X105428502Y-90535756D01*
X105482158Y-90489263D01*
X105552432Y-90479159D01*
X105617012Y-90508653D01*
X105654333Y-90564941D01*
X105695473Y-90691556D01*
X105790960Y-90856944D01*
X105918747Y-90998866D01*
X106073248Y-91111118D01*
X106079276Y-91113802D01*
X106079278Y-91113803D01*
X106241681Y-91186109D01*
X106247712Y-91188794D01*
X106341113Y-91208647D01*
X106428056Y-91227128D01*
X106428061Y-91227128D01*
X106434513Y-91228500D01*
X106490406Y-91228500D01*
X106558527Y-91248502D01*
X106579501Y-91265405D01*
X107146343Y-91832247D01*
X107153887Y-91840537D01*
X107158000Y-91847018D01*
X107163777Y-91852443D01*
X107207667Y-91893658D01*
X107210509Y-91896413D01*
X107230230Y-91916134D01*
X107233425Y-91918612D01*
X107242447Y-91926318D01*
X107274679Y-91956586D01*
X107281628Y-91960406D01*
X107292432Y-91966346D01*
X107308956Y-91977199D01*
X107324959Y-91989613D01*
X107365543Y-92007176D01*
X107376173Y-92012383D01*
X107414940Y-92033695D01*
X107422617Y-92035666D01*
X107422622Y-92035668D01*
X107434558Y-92038732D01*
X107453266Y-92045137D01*
X107471855Y-92053181D01*
X107479683Y-92054421D01*
X107479690Y-92054423D01*
X107515524Y-92060099D01*
X107527144Y-92062505D01*
X107550242Y-92068435D01*
X107569970Y-92073500D01*
X107590224Y-92073500D01*
X107609934Y-92075051D01*
X107629943Y-92078220D01*
X107637835Y-92077474D01*
X107673961Y-92074059D01*
X107685819Y-92073500D01*
X114861800Y-92073500D01*
X114929921Y-92093502D01*
X114949147Y-92109843D01*
X114949420Y-92109540D01*
X114954332Y-92113963D01*
X114958747Y-92118866D01*
X115113248Y-92231118D01*
X115119276Y-92233802D01*
X115119278Y-92233803D01*
X115281681Y-92306109D01*
X115287712Y-92308794D01*
X115381112Y-92328647D01*
X115468056Y-92347128D01*
X115468061Y-92347128D01*
X115474513Y-92348500D01*
X115665487Y-92348500D01*
X115671939Y-92347128D01*
X115671944Y-92347128D01*
X115758888Y-92328647D01*
X115852288Y-92308794D01*
X115858319Y-92306109D01*
X116020722Y-92233803D01*
X116020724Y-92233802D01*
X116026752Y-92231118D01*
X116181253Y-92118866D01*
X116217851Y-92078220D01*
X116304621Y-91981852D01*
X116304622Y-91981851D01*
X116309040Y-91976944D01*
X116384053Y-91847018D01*
X116401223Y-91817279D01*
X116401224Y-91817278D01*
X116404527Y-91811556D01*
X116463542Y-91629928D01*
X116483504Y-91440000D01*
X116463542Y-91250072D01*
X116404527Y-91068444D01*
X116309040Y-90903056D01*
X116181253Y-90761134D01*
X116026752Y-90648882D01*
X116020724Y-90646198D01*
X116020722Y-90646197D01*
X115858319Y-90573891D01*
X115858318Y-90573891D01*
X115852288Y-90571206D01*
X115758887Y-90551353D01*
X115671944Y-90532872D01*
X115671939Y-90532872D01*
X115665487Y-90531500D01*
X115474513Y-90531500D01*
X115468061Y-90532872D01*
X115468056Y-90532872D01*
X115381113Y-90551353D01*
X115287712Y-90571206D01*
X115281682Y-90573891D01*
X115281681Y-90573891D01*
X115119278Y-90646197D01*
X115119276Y-90646198D01*
X115113248Y-90648882D01*
X115107907Y-90652762D01*
X115107906Y-90652763D01*
X114980329Y-90745454D01*
X114958747Y-90761134D01*
X114954332Y-90766037D01*
X114949420Y-90770460D01*
X114948295Y-90769211D01*
X114894986Y-90802051D01*
X114861800Y-90806500D01*
X107964595Y-90806500D01*
X107896474Y-90786498D01*
X107875500Y-90769595D01*
X107477122Y-90371217D01*
X107443096Y-90308905D01*
X107440907Y-90295292D01*
X107438646Y-90273774D01*
X107434977Y-90238866D01*
X107424232Y-90136635D01*
X107424232Y-90136633D01*
X107423542Y-90130072D01*
X107364527Y-89948444D01*
X107269040Y-89783056D01*
X107141253Y-89641134D01*
X106986752Y-89528882D01*
X106980724Y-89526198D01*
X106980722Y-89526197D01*
X106818319Y-89453891D01*
X106818318Y-89453891D01*
X106812288Y-89451206D01*
X106718888Y-89431353D01*
X106631944Y-89412872D01*
X106631939Y-89412872D01*
X106625487Y-89411500D01*
X106434513Y-89411500D01*
X106428061Y-89412872D01*
X106428056Y-89412872D01*
X106341112Y-89431353D01*
X106247712Y-89451206D01*
X106241682Y-89453891D01*
X106241681Y-89453891D01*
X106079278Y-89526197D01*
X106079276Y-89526198D01*
X106073248Y-89528882D01*
X105918747Y-89641134D01*
X105790960Y-89783056D01*
X105695473Y-89948444D01*
X105674211Y-90013882D01*
X105654333Y-90075059D01*
X105614259Y-90133665D01*
X105548863Y-90161302D01*
X105478906Y-90149195D01*
X105426600Y-90101189D01*
X105408500Y-90036123D01*
X105408500Y-83820000D01*
X109576496Y-83820000D01*
X109577186Y-83826565D01*
X109587783Y-83927386D01*
X109596458Y-84009928D01*
X109655473Y-84191556D01*
X109750960Y-84356944D01*
X109878747Y-84498866D01*
X110033248Y-84611118D01*
X110039276Y-84613802D01*
X110039278Y-84613803D01*
X110201681Y-84686109D01*
X110207712Y-84688794D01*
X110301113Y-84708647D01*
X110388056Y-84727128D01*
X110388061Y-84727128D01*
X110394513Y-84728500D01*
X110585487Y-84728500D01*
X110591939Y-84727128D01*
X110591944Y-84727128D01*
X110678887Y-84708647D01*
X110772288Y-84688794D01*
X110778319Y-84686109D01*
X110940722Y-84613803D01*
X110940724Y-84613802D01*
X110946752Y-84611118D01*
X111101253Y-84498866D01*
X111229040Y-84356944D01*
X111324527Y-84191556D01*
X111383542Y-84009928D01*
X111400907Y-83844706D01*
X111427920Y-83779050D01*
X111437122Y-83768782D01*
X112735935Y-82469970D01*
X114057253Y-81148652D01*
X114065539Y-81141112D01*
X114072018Y-81137000D01*
X114118644Y-81087348D01*
X114121398Y-81084507D01*
X114141135Y-81064770D01*
X114143615Y-81061573D01*
X114151320Y-81052551D01*
X114176159Y-81026100D01*
X114181586Y-81020321D01*
X114185405Y-81013375D01*
X114185407Y-81013372D01*
X114191348Y-81002566D01*
X114202199Y-80986047D01*
X114209758Y-80976301D01*
X114214614Y-80970041D01*
X114217759Y-80962772D01*
X114217762Y-80962768D01*
X114232174Y-80929463D01*
X114237391Y-80918813D01*
X114258695Y-80880060D01*
X114263733Y-80860437D01*
X114270137Y-80841734D01*
X114275033Y-80830420D01*
X114275033Y-80830419D01*
X114278181Y-80823145D01*
X114279420Y-80815322D01*
X114279423Y-80815312D01*
X114285099Y-80779476D01*
X114287505Y-80767856D01*
X114296528Y-80732711D01*
X114296528Y-80732710D01*
X114298500Y-80725030D01*
X114298500Y-80704776D01*
X114300051Y-80685065D01*
X114301980Y-80672886D01*
X114303220Y-80665057D01*
X114299059Y-80621038D01*
X114298500Y-80609181D01*
X114298500Y-76902524D01*
X114318502Y-76834403D01*
X114330858Y-76818221D01*
X114404040Y-76736944D01*
X114475979Y-76612342D01*
X114496223Y-76577279D01*
X114496224Y-76577278D01*
X114499527Y-76571556D01*
X114558542Y-76389928D01*
X114578504Y-76200000D01*
X114571888Y-76137054D01*
X114559232Y-76016635D01*
X114559232Y-76016633D01*
X114558542Y-76010072D01*
X114499527Y-75828444D01*
X114495019Y-75820635D01*
X114428024Y-75704598D01*
X114404040Y-75663056D01*
X114276253Y-75521134D01*
X114121752Y-75408882D01*
X114115724Y-75406198D01*
X114115722Y-75406197D01*
X113953319Y-75333891D01*
X113953318Y-75333891D01*
X113947288Y-75331206D01*
X113853887Y-75311353D01*
X113766944Y-75292872D01*
X113766939Y-75292872D01*
X113760487Y-75291500D01*
X113569513Y-75291500D01*
X113563061Y-75292872D01*
X113563056Y-75292872D01*
X113476113Y-75311353D01*
X113382712Y-75331206D01*
X113376682Y-75333891D01*
X113376681Y-75333891D01*
X113214278Y-75406197D01*
X113214276Y-75406198D01*
X113208248Y-75408882D01*
X113053747Y-75521134D01*
X112925960Y-75663056D01*
X112901976Y-75704598D01*
X112834982Y-75820635D01*
X112830473Y-75828444D01*
X112771458Y-76010072D01*
X112770768Y-76016633D01*
X112770768Y-76016635D01*
X112758112Y-76137054D01*
X112751496Y-76200000D01*
X112771458Y-76389928D01*
X112830473Y-76571556D01*
X112833776Y-76577278D01*
X112833777Y-76577279D01*
X112854021Y-76612342D01*
X112925960Y-76736944D01*
X112999137Y-76818215D01*
X113029853Y-76882221D01*
X113031500Y-76902524D01*
X113031500Y-80330406D01*
X113011498Y-80398527D01*
X112994595Y-80419501D01*
X110539500Y-82874595D01*
X110477188Y-82908621D01*
X110450405Y-82911500D01*
X110394513Y-82911500D01*
X110388061Y-82912872D01*
X110388056Y-82912872D01*
X110301112Y-82931353D01*
X110207712Y-82951206D01*
X110201682Y-82953891D01*
X110201681Y-82953891D01*
X110039278Y-83026197D01*
X110039276Y-83026198D01*
X110033248Y-83028882D01*
X109878747Y-83141134D01*
X109874326Y-83146044D01*
X109874325Y-83146045D01*
X109835728Y-83188912D01*
X109750960Y-83283056D01*
X109655473Y-83448444D01*
X109596458Y-83630072D01*
X109595768Y-83636633D01*
X109595768Y-83636635D01*
X109587021Y-83719859D01*
X109576496Y-83820000D01*
X105408500Y-83820000D01*
X105408500Y-82619208D01*
X105428502Y-82551087D01*
X105445405Y-82530113D01*
X117737075Y-70238443D01*
X117799387Y-70204417D01*
X117870202Y-70209482D01*
X117927038Y-70252029D01*
X117935287Y-70264535D01*
X117973313Y-70330398D01*
X118005108Y-70385468D01*
X118021989Y-70448468D01*
X118021989Y-95659916D01*
X118001987Y-95728037D01*
X117985084Y-95749011D01*
X110539500Y-103194595D01*
X110477188Y-103228621D01*
X110450405Y-103231500D01*
X110394513Y-103231500D01*
X110388061Y-103232872D01*
X110388056Y-103232872D01*
X110301113Y-103251353D01*
X110207712Y-103271206D01*
X110201682Y-103273891D01*
X110201681Y-103273891D01*
X110039278Y-103346197D01*
X110039276Y-103346198D01*
X110033248Y-103348882D01*
X109878747Y-103461134D01*
X109750960Y-103603056D01*
X109747659Y-103608774D01*
X109663229Y-103755011D01*
X109655473Y-103768444D01*
X109596458Y-103950072D01*
X109576496Y-104140000D01*
X109596458Y-104329928D01*
X109655473Y-104511556D01*
X109750960Y-104676944D01*
X109755378Y-104681851D01*
X109755379Y-104681852D01*
X109845161Y-104781565D01*
X109878747Y-104818866D01*
X110033248Y-104931118D01*
X110039276Y-104933802D01*
X110039278Y-104933803D01*
X110201681Y-105006109D01*
X110207712Y-105008794D01*
X110301113Y-105028647D01*
X110388056Y-105047128D01*
X110388061Y-105047128D01*
X110394513Y-105048500D01*
X110585487Y-105048500D01*
X110591939Y-105047128D01*
X110591944Y-105047128D01*
X110678888Y-105028647D01*
X110772288Y-105008794D01*
X110778319Y-105006109D01*
X110940722Y-104933803D01*
X110940724Y-104933802D01*
X110946752Y-104931118D01*
X111101253Y-104818866D01*
X111134839Y-104781565D01*
X111224621Y-104681852D01*
X111224622Y-104681851D01*
X111229040Y-104676944D01*
X111324527Y-104511556D01*
X111383542Y-104329928D01*
X111400907Y-104164706D01*
X111427920Y-104099050D01*
X111437122Y-104088782D01*
X119047736Y-96478168D01*
X119056026Y-96470624D01*
X119062507Y-96466511D01*
X119109148Y-96416843D01*
X119111902Y-96414002D01*
X119131623Y-96394281D01*
X119134101Y-96391086D01*
X119141807Y-96382064D01*
X119166647Y-96355612D01*
X119172075Y-96349832D01*
X119181835Y-96332079D01*
X119192688Y-96315556D01*
X119200242Y-96305817D01*
X119205102Y-96299552D01*
X119222665Y-96258968D01*
X119227880Y-96248323D01*
X119234597Y-96236105D01*
X119284942Y-96186047D01*
X119354359Y-96171154D01*
X119420808Y-96196155D01*
X119463192Y-96253113D01*
X119471011Y-96296807D01*
X119471011Y-98217221D01*
X119451009Y-98285342D01*
X119397353Y-98331835D01*
X119327079Y-98341939D01*
X119270950Y-98319157D01*
X119207094Y-98272763D01*
X119207093Y-98272762D01*
X119201752Y-98268882D01*
X119195724Y-98266198D01*
X119195722Y-98266197D01*
X119033319Y-98193891D01*
X119033318Y-98193891D01*
X119027288Y-98191206D01*
X118933888Y-98171353D01*
X118846944Y-98152872D01*
X118846939Y-98152872D01*
X118840487Y-98151500D01*
X118649513Y-98151500D01*
X118643061Y-98152872D01*
X118643056Y-98152872D01*
X118556112Y-98171353D01*
X118462712Y-98191206D01*
X118456682Y-98193891D01*
X118456681Y-98193891D01*
X118294278Y-98266197D01*
X118294276Y-98266198D01*
X118288248Y-98268882D01*
X118133747Y-98381134D01*
X118005960Y-98523056D01*
X117910473Y-98688444D01*
X117851458Y-98870072D01*
X117850768Y-98876633D01*
X117850768Y-98876635D01*
X117834093Y-99035293D01*
X117807080Y-99100950D01*
X117797878Y-99111218D01*
X115723236Y-101185859D01*
X115714950Y-101193399D01*
X115708471Y-101197511D01*
X115703046Y-101203288D01*
X115661846Y-101247162D01*
X115659091Y-101250004D01*
X115639354Y-101269741D01*
X115636874Y-101272938D01*
X115629171Y-101281958D01*
X115598903Y-101314190D01*
X115595084Y-101321136D01*
X115595082Y-101321139D01*
X115589141Y-101331945D01*
X115578290Y-101348464D01*
X115565875Y-101364470D01*
X115562730Y-101371739D01*
X115562727Y-101371743D01*
X115548315Y-101405048D01*
X115543098Y-101415698D01*
X115521794Y-101454451D01*
X115519823Y-101462126D01*
X115519823Y-101462127D01*
X115516756Y-101474073D01*
X115510352Y-101492777D01*
X115502308Y-101511366D01*
X115501069Y-101519189D01*
X115501066Y-101519199D01*
X115495390Y-101555035D01*
X115492984Y-101566655D01*
X115481989Y-101609481D01*
X115481989Y-101629735D01*
X115480438Y-101649445D01*
X115477269Y-101669454D01*
X115478015Y-101677346D01*
X115481430Y-101713472D01*
X115481989Y-101725330D01*
X115481989Y-112804917D01*
X115461987Y-112873038D01*
X115445084Y-112894012D01*
X111809500Y-116529595D01*
X111747188Y-116563621D01*
X111720405Y-116566500D01*
X111664513Y-116566500D01*
X111658061Y-116567872D01*
X111658056Y-116567872D01*
X111590279Y-116582279D01*
X111477712Y-116606206D01*
X111471682Y-116608891D01*
X111471681Y-116608891D01*
X111309278Y-116681197D01*
X111309276Y-116681198D01*
X111303248Y-116683882D01*
X111148747Y-116796134D01*
X111144326Y-116801044D01*
X111144325Y-116801045D01*
X111066257Y-116887749D01*
X111020960Y-116938056D01*
X110925473Y-117103444D01*
X110866458Y-117285072D01*
X110865768Y-117291633D01*
X110865768Y-117291635D01*
X110857403Y-117371226D01*
X110846496Y-117475000D01*
X110847186Y-117481565D01*
X110863187Y-117633803D01*
X110866458Y-117664928D01*
X110925473Y-117846556D01*
X110928776Y-117852278D01*
X110928777Y-117852279D01*
X110962686Y-117911010D01*
X111020960Y-118011944D01*
X111025378Y-118016851D01*
X111025379Y-118016852D01*
X111069753Y-118066134D01*
X111148747Y-118153866D01*
X111303248Y-118266118D01*
X111309276Y-118268802D01*
X111309278Y-118268803D01*
X111471681Y-118341109D01*
X111477712Y-118343794D01*
X111571112Y-118363647D01*
X111658056Y-118382128D01*
X111658061Y-118382128D01*
X111664513Y-118383500D01*
X111855487Y-118383500D01*
X111861939Y-118382128D01*
X111861944Y-118382128D01*
X111948888Y-118363647D01*
X112042288Y-118343794D01*
X112048319Y-118341109D01*
X112210722Y-118268803D01*
X112210724Y-118268802D01*
X112216752Y-118266118D01*
X112371253Y-118153866D01*
X112450247Y-118066134D01*
X112494621Y-118016852D01*
X112494622Y-118016851D01*
X112499040Y-118011944D01*
X112557314Y-117911010D01*
X112591223Y-117852279D01*
X112591224Y-117852278D01*
X112594527Y-117846556D01*
X112653542Y-117664928D01*
X112657504Y-117627237D01*
X112668485Y-117522749D01*
X112670907Y-117499706D01*
X112697920Y-117434050D01*
X112707122Y-117423782D01*
X116507736Y-113623168D01*
X116516026Y-113615624D01*
X116522507Y-113611511D01*
X116569148Y-113561843D01*
X116571902Y-113559002D01*
X116591624Y-113539280D01*
X116594101Y-113536087D01*
X116601806Y-113527066D01*
X116626648Y-113500611D01*
X116632075Y-113494832D01*
X116639330Y-113481635D01*
X116641835Y-113477079D01*
X116652691Y-113460552D01*
X116660246Y-113450813D01*
X116660247Y-113450811D01*
X116665103Y-113444551D01*
X116682663Y-113403971D01*
X116687880Y-113393323D01*
X116705364Y-113361520D01*
X116705365Y-113361518D01*
X116709184Y-113354571D01*
X116714222Y-113334948D01*
X116720626Y-113316245D01*
X116725522Y-113304931D01*
X116725522Y-113304930D01*
X116728670Y-113297656D01*
X116729909Y-113289833D01*
X116729912Y-113289823D01*
X116735588Y-113253987D01*
X116737994Y-113242367D01*
X116747017Y-113207222D01*
X116747017Y-113207221D01*
X116748989Y-113199541D01*
X116748989Y-113179287D01*
X116750540Y-113159576D01*
X116752469Y-113147397D01*
X116753709Y-113139568D01*
X116749548Y-113095549D01*
X116748989Y-113083692D01*
X116748989Y-105809500D01*
X116768991Y-105741379D01*
X116822647Y-105694886D01*
X116874989Y-105683500D01*
X116935487Y-105683500D01*
X116941939Y-105682128D01*
X116941944Y-105682128D01*
X117028887Y-105663647D01*
X117122288Y-105643794D01*
X117128319Y-105641109D01*
X117290722Y-105568803D01*
X117290724Y-105568802D01*
X117296752Y-105566118D01*
X117451253Y-105453866D01*
X117579040Y-105311944D01*
X117674527Y-105146556D01*
X117733542Y-104964928D01*
X117737504Y-104927237D01*
X117748485Y-104822749D01*
X117750907Y-104799706D01*
X117777920Y-104734050D01*
X117787122Y-104723782D01*
X118081885Y-104429019D01*
X118144197Y-104394993D01*
X118215012Y-104400058D01*
X118271848Y-104442605D01*
X118296659Y-104509125D01*
X118296980Y-104518114D01*
X118296980Y-113164926D01*
X118276978Y-113233047D01*
X118260075Y-113254021D01*
X114349500Y-117164595D01*
X114287188Y-117198621D01*
X114260405Y-117201500D01*
X114204513Y-117201500D01*
X114198061Y-117202872D01*
X114198056Y-117202872D01*
X114130279Y-117217279D01*
X114017712Y-117241206D01*
X114011682Y-117243891D01*
X114011681Y-117243891D01*
X113849278Y-117316197D01*
X113849276Y-117316198D01*
X113843248Y-117318882D01*
X113688747Y-117431134D01*
X113684326Y-117436044D01*
X113684325Y-117436045D01*
X113606257Y-117522749D01*
X113560960Y-117573056D01*
X113465473Y-117738444D01*
X113406458Y-117920072D01*
X113405768Y-117926633D01*
X113405768Y-117926635D01*
X113397403Y-118006226D01*
X113386496Y-118110000D01*
X113387186Y-118116565D01*
X113403187Y-118268803D01*
X113406458Y-118299928D01*
X113465473Y-118481556D01*
X113560960Y-118646944D01*
X113688747Y-118788866D01*
X113843248Y-118901118D01*
X113849276Y-118903802D01*
X113849278Y-118903803D01*
X114011681Y-118976109D01*
X114017712Y-118978794D01*
X114111112Y-118998647D01*
X114198056Y-119017128D01*
X114198061Y-119017128D01*
X114204513Y-119018500D01*
X114395487Y-119018500D01*
X114401939Y-119017128D01*
X114401944Y-119017128D01*
X114488888Y-118998647D01*
X114582288Y-118978794D01*
X114588319Y-118976109D01*
X114750722Y-118903803D01*
X114750724Y-118903802D01*
X114756752Y-118901118D01*
X114911253Y-118788866D01*
X115039040Y-118646944D01*
X115134527Y-118481556D01*
X115193542Y-118299928D01*
X115197504Y-118262237D01*
X115208485Y-118157749D01*
X115210907Y-118134706D01*
X115237920Y-118069050D01*
X115247122Y-118058782D01*
X118531405Y-114774499D01*
X118593717Y-114740473D01*
X118664532Y-114745538D01*
X118721368Y-114788085D01*
X118746179Y-114854605D01*
X118746500Y-114863594D01*
X118746500Y-116137476D01*
X118726498Y-116205597D01*
X118714142Y-116221779D01*
X118640960Y-116303056D01*
X118545473Y-116468444D01*
X118486458Y-116650072D01*
X118485768Y-116656633D01*
X118485768Y-116656635D01*
X118477403Y-116736226D01*
X118466496Y-116840000D01*
X118467186Y-116846565D01*
X118483187Y-116998803D01*
X118486458Y-117029928D01*
X118545473Y-117211556D01*
X118640960Y-117376944D01*
X118645378Y-117381851D01*
X118645379Y-117381852D01*
X118689753Y-117431134D01*
X118768747Y-117518866D01*
X118923248Y-117631118D01*
X118929276Y-117633802D01*
X118929278Y-117633803D01*
X119091681Y-117706109D01*
X119097712Y-117708794D01*
X119191113Y-117728647D01*
X119278056Y-117747128D01*
X119278061Y-117747128D01*
X119284513Y-117748500D01*
X119475487Y-117748500D01*
X119481939Y-117747128D01*
X119481944Y-117747128D01*
X119568887Y-117728647D01*
X119662288Y-117708794D01*
X119668319Y-117706109D01*
X119830722Y-117633803D01*
X119830724Y-117633802D01*
X119836752Y-117631118D01*
X119991253Y-117518866D01*
X120070247Y-117431134D01*
X120114621Y-117381852D01*
X120114622Y-117381851D01*
X120119040Y-117376944D01*
X120214527Y-117211556D01*
X120273542Y-117029928D01*
X120276814Y-116998803D01*
X120292814Y-116846565D01*
X120293504Y-116840000D01*
X120282597Y-116736226D01*
X120274232Y-116656635D01*
X120274232Y-116656633D01*
X120273542Y-116650072D01*
X120214527Y-116468444D01*
X120119040Y-116303056D01*
X120045863Y-116221785D01*
X120015147Y-116157779D01*
X120013500Y-116137476D01*
X120013500Y-108327885D01*
X138977000Y-108327885D01*
X138981475Y-108343124D01*
X138982865Y-108344329D01*
X138990548Y-108346000D01*
X140062885Y-108346000D01*
X140078124Y-108341525D01*
X140079329Y-108340135D01*
X140081000Y-108332452D01*
X140081000Y-108327885D01*
X140589000Y-108327885D01*
X140593475Y-108343124D01*
X140594865Y-108344329D01*
X140602548Y-108346000D01*
X141674884Y-108346000D01*
X141690123Y-108341525D01*
X141691328Y-108340135D01*
X141692999Y-108332452D01*
X141692999Y-107705331D01*
X141692629Y-107698510D01*
X141687105Y-107647648D01*
X141683479Y-107632396D01*
X141638324Y-107511946D01*
X141629786Y-107496351D01*
X141553285Y-107394276D01*
X141540724Y-107381715D01*
X141438649Y-107305214D01*
X141423054Y-107296676D01*
X141302606Y-107251522D01*
X141287351Y-107247895D01*
X141236486Y-107242369D01*
X141229672Y-107242000D01*
X140607115Y-107242000D01*
X140591876Y-107246475D01*
X140590671Y-107247865D01*
X140589000Y-107255548D01*
X140589000Y-108327885D01*
X140081000Y-108327885D01*
X140081000Y-107260116D01*
X140076525Y-107244877D01*
X140075135Y-107243672D01*
X140067452Y-107242001D01*
X139440331Y-107242001D01*
X139433510Y-107242371D01*
X139382648Y-107247895D01*
X139367396Y-107251521D01*
X139246946Y-107296676D01*
X139231351Y-107305214D01*
X139129276Y-107381715D01*
X139116715Y-107394276D01*
X139040214Y-107496351D01*
X139031676Y-107511946D01*
X138986522Y-107632394D01*
X138982895Y-107647649D01*
X138977369Y-107698514D01*
X138977000Y-107705328D01*
X138977000Y-108327885D01*
X120013500Y-108327885D01*
X120013500Y-104454594D01*
X120033502Y-104386473D01*
X120050405Y-104365499D01*
X121870499Y-102545405D01*
X121932811Y-102511379D01*
X121959594Y-102508500D01*
X122015487Y-102508500D01*
X122021939Y-102507128D01*
X122021944Y-102507128D01*
X122108888Y-102488647D01*
X122202288Y-102468794D01*
X122208319Y-102466109D01*
X122370722Y-102393803D01*
X122370724Y-102393802D01*
X122376752Y-102391118D01*
X122531253Y-102278866D01*
X122659040Y-102136944D01*
X122754527Y-101971556D01*
X122813542Y-101789928D01*
X122820332Y-101725330D01*
X122832814Y-101606565D01*
X122833504Y-101600000D01*
X122829999Y-101566655D01*
X122814232Y-101416635D01*
X122814232Y-101416633D01*
X122813542Y-101410072D01*
X122754527Y-101228444D01*
X122729941Y-101185859D01*
X122662341Y-101068774D01*
X122659040Y-101063056D01*
X122582312Y-100977841D01*
X122551595Y-100913833D01*
X122560360Y-100843380D01*
X122586854Y-100804436D01*
X139452247Y-83939043D01*
X139460537Y-83931499D01*
X139467018Y-83927386D01*
X139513659Y-83877718D01*
X139516413Y-83874877D01*
X139536134Y-83855156D01*
X139538612Y-83851961D01*
X139546318Y-83842939D01*
X139571158Y-83816487D01*
X139576586Y-83810707D01*
X139586346Y-83792954D01*
X139597199Y-83776431D01*
X139604753Y-83766692D01*
X139609613Y-83760427D01*
X139627176Y-83719843D01*
X139632383Y-83709213D01*
X139653695Y-83670446D01*
X139655666Y-83662769D01*
X139655668Y-83662764D01*
X139658732Y-83650828D01*
X139665138Y-83632116D01*
X139668740Y-83623794D01*
X139673181Y-83613531D01*
X139674421Y-83605703D01*
X139674423Y-83605696D01*
X139680099Y-83569862D01*
X139682505Y-83558242D01*
X139691528Y-83523097D01*
X139691528Y-83523096D01*
X139693500Y-83515416D01*
X139693500Y-83495162D01*
X139695051Y-83475451D01*
X139696980Y-83463272D01*
X139698220Y-83455443D01*
X139694059Y-83411424D01*
X139693500Y-83399567D01*
X139693500Y-80660427D01*
X139713502Y-80592306D01*
X139754618Y-80552550D01*
X139757994Y-80550896D01*
X139939860Y-80421173D01*
X140098096Y-80263489D01*
X140228453Y-80082077D01*
X140229776Y-80083028D01*
X140276645Y-80039857D01*
X140346580Y-80027625D01*
X140412026Y-80055144D01*
X140439875Y-80086994D01*
X140499987Y-80185088D01*
X140646250Y-80353938D01*
X140818126Y-80496632D01*
X141011000Y-80609338D01*
X141015825Y-80611180D01*
X141015826Y-80611181D01*
X141041642Y-80621039D01*
X141219692Y-80689030D01*
X141224760Y-80690061D01*
X141224763Y-80690062D01*
X141332017Y-80711883D01*
X141438597Y-80733567D01*
X141443772Y-80733757D01*
X141443774Y-80733757D01*
X141656673Y-80741564D01*
X141656677Y-80741564D01*
X141661837Y-80741753D01*
X141666957Y-80741097D01*
X141666959Y-80741097D01*
X141878288Y-80714025D01*
X141878289Y-80714025D01*
X141883416Y-80713368D01*
X141888366Y-80711883D01*
X142092429Y-80650661D01*
X142092434Y-80650659D01*
X142097384Y-80649174D01*
X142297994Y-80550896D01*
X142479860Y-80421173D01*
X142638096Y-80263489D01*
X142768453Y-80082077D01*
X142789320Y-80039857D01*
X142865136Y-79886453D01*
X142865137Y-79886451D01*
X142867430Y-79881811D01*
X142932370Y-79668069D01*
X142961529Y-79446590D01*
X142963156Y-79380000D01*
X142944852Y-79157361D01*
X142890431Y-78940702D01*
X142801354Y-78735840D01*
X142680014Y-78548277D01*
X142529670Y-78383051D01*
X142525619Y-78379852D01*
X142525615Y-78379848D01*
X142358414Y-78247800D01*
X142358410Y-78247798D01*
X142354359Y-78244598D01*
X142313053Y-78221796D01*
X142263084Y-78171364D01*
X142248312Y-78101921D01*
X142273428Y-78035516D01*
X142300780Y-78008909D01*
X142344603Y-77977650D01*
X142479860Y-77881173D01*
X142504323Y-77856796D01*
X142634435Y-77727137D01*
X142638096Y-77723489D01*
X142697594Y-77640689D01*
X142765435Y-77546277D01*
X142768453Y-77542077D01*
X142789320Y-77499857D01*
X142865136Y-77346453D01*
X142865137Y-77346451D01*
X142867430Y-77341811D01*
X142932370Y-77128069D01*
X142961529Y-76906590D01*
X142961628Y-76902524D01*
X142963074Y-76843365D01*
X142963074Y-76843361D01*
X142963156Y-76840000D01*
X142944852Y-76617361D01*
X142890431Y-76400702D01*
X142801354Y-76195840D01*
X142680014Y-76008277D01*
X142529670Y-75843051D01*
X142525619Y-75839852D01*
X142525615Y-75839848D01*
X142358414Y-75707800D01*
X142358410Y-75707798D01*
X142354359Y-75704598D01*
X142158789Y-75596638D01*
X142153920Y-75594914D01*
X142153916Y-75594912D01*
X141953087Y-75523795D01*
X141953083Y-75523794D01*
X141948212Y-75522069D01*
X141943119Y-75521162D01*
X141943116Y-75521161D01*
X141733373Y-75483800D01*
X141733367Y-75483799D01*
X141728284Y-75482894D01*
X141654452Y-75481992D01*
X141510081Y-75480228D01*
X141510079Y-75480228D01*
X141504911Y-75480165D01*
X141284091Y-75513955D01*
X141071756Y-75583357D01*
X140873607Y-75686507D01*
X140869474Y-75689610D01*
X140869471Y-75689612D01*
X140845247Y-75707800D01*
X140694965Y-75820635D01*
X140540629Y-75982138D01*
X140433201Y-76139621D01*
X140378293Y-76184621D01*
X140307768Y-76192792D01*
X140244021Y-76161538D01*
X140223324Y-76137054D01*
X140142822Y-76012617D01*
X140142820Y-76012614D01*
X140140014Y-76008277D01*
X139989670Y-75843051D01*
X139985619Y-75839852D01*
X139985615Y-75839848D01*
X139818414Y-75707800D01*
X139818410Y-75707798D01*
X139814359Y-75704598D01*
X139618789Y-75596638D01*
X139613920Y-75594914D01*
X139613916Y-75594912D01*
X139413087Y-75523795D01*
X139413083Y-75523794D01*
X139408212Y-75522069D01*
X139403119Y-75521162D01*
X139403116Y-75521161D01*
X139193373Y-75483800D01*
X139193367Y-75483799D01*
X139188284Y-75482894D01*
X139114452Y-75481992D01*
X138970081Y-75480228D01*
X138970079Y-75480228D01*
X138964911Y-75480165D01*
X138744091Y-75513955D01*
X138531756Y-75583357D01*
X138333607Y-75686507D01*
X138329474Y-75689610D01*
X138329471Y-75689612D01*
X138305247Y-75707800D01*
X138154965Y-75820635D01*
X138000629Y-75982138D01*
X137893201Y-76139621D01*
X137838293Y-76184621D01*
X137767768Y-76192792D01*
X137704021Y-76161538D01*
X137683324Y-76137054D01*
X137602822Y-76012617D01*
X137602820Y-76012614D01*
X137600014Y-76008277D01*
X137449670Y-75843051D01*
X137445619Y-75839852D01*
X137445615Y-75839848D01*
X137278414Y-75707800D01*
X137278410Y-75707798D01*
X137274359Y-75704598D01*
X137078789Y-75596638D01*
X137073920Y-75594914D01*
X137073916Y-75594912D01*
X136873087Y-75523795D01*
X136873083Y-75523794D01*
X136868212Y-75522069D01*
X136863119Y-75521162D01*
X136863116Y-75521161D01*
X136653373Y-75483800D01*
X136653367Y-75483799D01*
X136648284Y-75482894D01*
X136574452Y-75481992D01*
X136430081Y-75480228D01*
X136430079Y-75480228D01*
X136424911Y-75480165D01*
X136204091Y-75513955D01*
X135991756Y-75583357D01*
X135793607Y-75686507D01*
X135789474Y-75689610D01*
X135789471Y-75689612D01*
X135765247Y-75707800D01*
X135614965Y-75820635D01*
X135460629Y-75982138D01*
X135353201Y-76139621D01*
X135298293Y-76184621D01*
X135227768Y-76192792D01*
X135164021Y-76161538D01*
X135143324Y-76137054D01*
X135062822Y-76012617D01*
X135062820Y-76012614D01*
X135060014Y-76008277D01*
X134909670Y-75843051D01*
X134905619Y-75839852D01*
X134905615Y-75839848D01*
X134738414Y-75707800D01*
X134738410Y-75707798D01*
X134734359Y-75704598D01*
X134538789Y-75596638D01*
X134533920Y-75594914D01*
X134533916Y-75594912D01*
X134333087Y-75523795D01*
X134333083Y-75523794D01*
X134328212Y-75522069D01*
X134323119Y-75521162D01*
X134323116Y-75521161D01*
X134113373Y-75483800D01*
X134113367Y-75483799D01*
X134108284Y-75482894D01*
X134034452Y-75481992D01*
X133890081Y-75480228D01*
X133890079Y-75480228D01*
X133884911Y-75480165D01*
X133664091Y-75513955D01*
X133451756Y-75583357D01*
X133253607Y-75686507D01*
X133249474Y-75689610D01*
X133249471Y-75689612D01*
X133225247Y-75707800D01*
X133074965Y-75820635D01*
X132920629Y-75982138D01*
X132794743Y-76166680D01*
X132779003Y-76200590D01*
X132733761Y-76298056D01*
X132700688Y-76369305D01*
X132640989Y-76584570D01*
X132617251Y-76806695D01*
X132617548Y-76811848D01*
X132617548Y-76811851D01*
X132623011Y-76906590D01*
X132630110Y-77029715D01*
X132631247Y-77034761D01*
X132631248Y-77034767D01*
X132651119Y-77122939D01*
X132679222Y-77247639D01*
X132763266Y-77454616D01*
X132801630Y-77517221D01*
X132877291Y-77640688D01*
X132879987Y-77645088D01*
X133026250Y-77813938D01*
X133030225Y-77817238D01*
X133030231Y-77817244D01*
X133035425Y-77821556D01*
X133075059Y-77880460D01*
X133076555Y-77951441D01*
X133039439Y-78011962D01*
X132999168Y-78036480D01*
X132891946Y-78076676D01*
X132876351Y-78085214D01*
X132774276Y-78161715D01*
X132761715Y-78174276D01*
X132685214Y-78276351D01*
X132676676Y-78291946D01*
X132631522Y-78412394D01*
X132627895Y-78427649D01*
X132622369Y-78478514D01*
X132622000Y-78485328D01*
X132622000Y-79107885D01*
X132626475Y-79123124D01*
X132627865Y-79124329D01*
X132635548Y-79126000D01*
X134108000Y-79126000D01*
X134176121Y-79146002D01*
X134222614Y-79199658D01*
X134234000Y-79252000D01*
X134234000Y-80719884D01*
X134238475Y-80735123D01*
X134239865Y-80736328D01*
X134247548Y-80737999D01*
X134874669Y-80737999D01*
X134881490Y-80737629D01*
X134932352Y-80732105D01*
X134947604Y-80728479D01*
X135068054Y-80683324D01*
X135083649Y-80674786D01*
X135185724Y-80598285D01*
X135198285Y-80585724D01*
X135274786Y-80483649D01*
X135283324Y-80468054D01*
X135324225Y-80358952D01*
X135366867Y-80302188D01*
X135433428Y-80277488D01*
X135502777Y-80292696D01*
X135537444Y-80320684D01*
X135562865Y-80350031D01*
X135562869Y-80350035D01*
X135566250Y-80353938D01*
X135738126Y-80496632D01*
X135931000Y-80609338D01*
X135935825Y-80611180D01*
X135935826Y-80611181D01*
X135961642Y-80621039D01*
X136139692Y-80689030D01*
X136144760Y-80690061D01*
X136144763Y-80690062D01*
X136252017Y-80711883D01*
X136358597Y-80733567D01*
X136363772Y-80733757D01*
X136363774Y-80733757D01*
X136576673Y-80741564D01*
X136576677Y-80741564D01*
X136581837Y-80741753D01*
X136586957Y-80741097D01*
X136586959Y-80741097D01*
X136798288Y-80714025D01*
X136798289Y-80714025D01*
X136803416Y-80713368D01*
X136808366Y-80711883D01*
X137012429Y-80650661D01*
X137012434Y-80650659D01*
X137017384Y-80649174D01*
X137070559Y-80623124D01*
X137140531Y-80611118D01*
X137205888Y-80638848D01*
X137245878Y-80697511D01*
X137251989Y-80736276D01*
X137251989Y-81509917D01*
X137231987Y-81578038D01*
X137215084Y-81599012D01*
X125908509Y-92905586D01*
X125885148Y-92918343D01*
X125879323Y-92933303D01*
X125868638Y-92945457D01*
X121334500Y-97479595D01*
X121272188Y-97513621D01*
X121245405Y-97516500D01*
X121189513Y-97516500D01*
X121183061Y-97517872D01*
X121183056Y-97517872D01*
X121096112Y-97536353D01*
X121002712Y-97556206D01*
X120996682Y-97558891D01*
X120996681Y-97558891D01*
X120915260Y-97595142D01*
X120844893Y-97604576D01*
X120780596Y-97574470D01*
X120742782Y-97514381D01*
X120738011Y-97480035D01*
X120738011Y-92075000D01*
X124181496Y-92075000D01*
X124182186Y-92081565D01*
X124198187Y-92233803D01*
X124201458Y-92264928D01*
X124260473Y-92446556D01*
X124355960Y-92611944D01*
X124483747Y-92753866D01*
X124638248Y-92866118D01*
X124644276Y-92868802D01*
X124644278Y-92868803D01*
X124806681Y-92941109D01*
X124812712Y-92943794D01*
X124906113Y-92963647D01*
X124993056Y-92982128D01*
X124993061Y-92982128D01*
X124999513Y-92983500D01*
X125190487Y-92983500D01*
X125196939Y-92982128D01*
X125196944Y-92982128D01*
X125283888Y-92963647D01*
X125377288Y-92943794D01*
X125383319Y-92941109D01*
X125545722Y-92868803D01*
X125545724Y-92868802D01*
X125551752Y-92866118D01*
X125705482Y-92754426D01*
X125711550Y-92752261D01*
X125725774Y-92732186D01*
X125834040Y-92611944D01*
X125929527Y-92446556D01*
X125988542Y-92264928D01*
X125991814Y-92233803D01*
X126007814Y-92081565D01*
X126008504Y-92075000D01*
X126001375Y-92007168D01*
X125989232Y-91891635D01*
X125989232Y-91891633D01*
X125988542Y-91885072D01*
X125929527Y-91703444D01*
X125834040Y-91538056D01*
X125760863Y-91456785D01*
X125730147Y-91392779D01*
X125728500Y-91372476D01*
X125728500Y-80274669D01*
X132622001Y-80274669D01*
X132622371Y-80281490D01*
X132627895Y-80332352D01*
X132631521Y-80347604D01*
X132676676Y-80468054D01*
X132685214Y-80483649D01*
X132761715Y-80585724D01*
X132774276Y-80598285D01*
X132876351Y-80674786D01*
X132891946Y-80683324D01*
X133012394Y-80728478D01*
X133027649Y-80732105D01*
X133078514Y-80737631D01*
X133085328Y-80738000D01*
X133707885Y-80738000D01*
X133723124Y-80733525D01*
X133724329Y-80732135D01*
X133726000Y-80724452D01*
X133726000Y-79652115D01*
X133721525Y-79636876D01*
X133720135Y-79635671D01*
X133712452Y-79634000D01*
X132640116Y-79634000D01*
X132624877Y-79638475D01*
X132623672Y-79639865D01*
X132622001Y-79647548D01*
X132622001Y-80274669D01*
X125728500Y-80274669D01*
X125728500Y-77537524D01*
X125748502Y-77469403D01*
X125760858Y-77453221D01*
X125834040Y-77371944D01*
X125892314Y-77271010D01*
X125926223Y-77212279D01*
X125926224Y-77212278D01*
X125929527Y-77206556D01*
X125988542Y-77024928D01*
X126008504Y-76835000D01*
X125988542Y-76645072D01*
X125929527Y-76463444D01*
X125834040Y-76298056D01*
X125742005Y-76195840D01*
X125710675Y-76161045D01*
X125710674Y-76161044D01*
X125706253Y-76156134D01*
X125551752Y-76043882D01*
X125545724Y-76041198D01*
X125545722Y-76041197D01*
X125383319Y-75968891D01*
X125383318Y-75968891D01*
X125377288Y-75966206D01*
X125283888Y-75946353D01*
X125196944Y-75927872D01*
X125196939Y-75927872D01*
X125190487Y-75926500D01*
X124999513Y-75926500D01*
X124993061Y-75927872D01*
X124993056Y-75927872D01*
X124906112Y-75946353D01*
X124812712Y-75966206D01*
X124806682Y-75968891D01*
X124806681Y-75968891D01*
X124644278Y-76041197D01*
X124644276Y-76041198D01*
X124638248Y-76043882D01*
X124483747Y-76156134D01*
X124479326Y-76161044D01*
X124479325Y-76161045D01*
X124447996Y-76195840D01*
X124355960Y-76298056D01*
X124260473Y-76463444D01*
X124201458Y-76645072D01*
X124181496Y-76835000D01*
X124201458Y-77024928D01*
X124260473Y-77206556D01*
X124263776Y-77212278D01*
X124263777Y-77212279D01*
X124297686Y-77271010D01*
X124355960Y-77371944D01*
X124429137Y-77453215D01*
X124459853Y-77517221D01*
X124461500Y-77537524D01*
X124461500Y-91372476D01*
X124441498Y-91440597D01*
X124429142Y-91456779D01*
X124355960Y-91538056D01*
X124260473Y-91703444D01*
X124201458Y-91885072D01*
X124200768Y-91891633D01*
X124200768Y-91891635D01*
X124188625Y-92007168D01*
X124181496Y-92075000D01*
X120738011Y-92075000D01*
X120738011Y-71083468D01*
X120754892Y-71020468D01*
X120766864Y-70999733D01*
X120849527Y-70856556D01*
X120908542Y-70674928D01*
X120915475Y-70608969D01*
X120927814Y-70491565D01*
X120928504Y-70485000D01*
X120911917Y-70327182D01*
X120909232Y-70301635D01*
X120909232Y-70301633D01*
X120908542Y-70295072D01*
X120849527Y-70113444D01*
X120785322Y-70002237D01*
X120754040Y-69948056D01*
X120756764Y-69946483D01*
X120737339Y-69892577D01*
X120753202Y-69823375D01*
X120803961Y-69773735D01*
X120863110Y-69758989D01*
X128751204Y-69758989D01*
X128819325Y-69778991D01*
X128844840Y-69800678D01*
X128865277Y-69823375D01*
X128928747Y-69893866D01*
X129083248Y-70006118D01*
X129089276Y-70008802D01*
X129089278Y-70008803D01*
X129251681Y-70081109D01*
X129257712Y-70083794D01*
X129350082Y-70103428D01*
X129438056Y-70122128D01*
X129438061Y-70122128D01*
X129444513Y-70123500D01*
X129635487Y-70123500D01*
X129641939Y-70122128D01*
X129641944Y-70122128D01*
X129729918Y-70103428D01*
X129822288Y-70083794D01*
X129828319Y-70081109D01*
X129990722Y-70008803D01*
X129990724Y-70008802D01*
X129996752Y-70006118D01*
X130151253Y-69893866D01*
X130279040Y-69751944D01*
X130374527Y-69586556D01*
X130433542Y-69404928D01*
X130434248Y-69398216D01*
X130452814Y-69221565D01*
X130453504Y-69215000D01*
X130441938Y-69104957D01*
X130434232Y-69031635D01*
X130434232Y-69031633D01*
X130433542Y-69025072D01*
X130374527Y-68843444D01*
X130279040Y-68678056D01*
X130266662Y-68664309D01*
X130235946Y-68600303D01*
X130244710Y-68529850D01*
X130266661Y-68495693D01*
X130279040Y-68481944D01*
X130374527Y-68316556D01*
X130433542Y-68134928D01*
X130437955Y-68092946D01*
X130452814Y-67951565D01*
X130453504Y-67945000D01*
X130433542Y-67755072D01*
X130374527Y-67573444D01*
X130279040Y-67408056D01*
X130262882Y-67390110D01*
X130155675Y-67271045D01*
X130155674Y-67271044D01*
X130151253Y-67266134D01*
X129996752Y-67153882D01*
X129990726Y-67151199D01*
X129990719Y-67151195D01*
X129845214Y-67086413D01*
X129791118Y-67040433D01*
X129770468Y-66972506D01*
X129776629Y-66932370D01*
X129796502Y-66871206D01*
X129798542Y-66864928D01*
X129801912Y-66832869D01*
X129817814Y-66681565D01*
X129818504Y-66675000D01*
X129798542Y-66485072D01*
X129739527Y-66303444D01*
X129644040Y-66138056D01*
X129570863Y-66056785D01*
X129540147Y-65992779D01*
X129538500Y-65972476D01*
X129538500Y-62498086D01*
X129558502Y-62429965D01*
X129612158Y-62383472D01*
X129682432Y-62373368D01*
X129690692Y-62374838D01*
X129692053Y-62375127D01*
X129692054Y-62375127D01*
X129698513Y-62376500D01*
X129889487Y-62376500D01*
X129895939Y-62375128D01*
X129895944Y-62375128D01*
X129982887Y-62356647D01*
X130076288Y-62336794D01*
X130082319Y-62334109D01*
X130244722Y-62261803D01*
X130244724Y-62261802D01*
X130250752Y-62259118D01*
X130405253Y-62146866D01*
X130409668Y-62141963D01*
X130414580Y-62137540D01*
X130415705Y-62138789D01*
X130469014Y-62105949D01*
X130502200Y-62101500D01*
X135943800Y-62101500D01*
X136011921Y-62121502D01*
X136031147Y-62137843D01*
X136031420Y-62137540D01*
X136036332Y-62141963D01*
X136040747Y-62146866D01*
X136195248Y-62259118D01*
X136201276Y-62261802D01*
X136201278Y-62261803D01*
X136363681Y-62334109D01*
X136369712Y-62336794D01*
X136463113Y-62356647D01*
X136550056Y-62375128D01*
X136550061Y-62375128D01*
X136556513Y-62376500D01*
X136747487Y-62376500D01*
X136753939Y-62375128D01*
X136753944Y-62375128D01*
X136840887Y-62356647D01*
X136934288Y-62336794D01*
X136984251Y-62314549D01*
X137054618Y-62305115D01*
X137118915Y-62335221D01*
X137156729Y-62395310D01*
X137161500Y-62429656D01*
X137161500Y-65972476D01*
X137141498Y-66040597D01*
X137129142Y-66056779D01*
X137055960Y-66138056D01*
X136960473Y-66303444D01*
X136901458Y-66485072D01*
X136881496Y-66675000D01*
X136882186Y-66681565D01*
X136898089Y-66832869D01*
X136901458Y-66864928D01*
X136960473Y-67046556D01*
X137055960Y-67211944D01*
X137060378Y-67216851D01*
X137060379Y-67216852D01*
X137146048Y-67311997D01*
X137183747Y-67353866D01*
X137338248Y-67466118D01*
X137344276Y-67468802D01*
X137344278Y-67468803D01*
X137444906Y-67513605D01*
X137512712Y-67543794D01*
X137606112Y-67563647D01*
X137693056Y-67582128D01*
X137693061Y-67582128D01*
X137699513Y-67583500D01*
X137890487Y-67583500D01*
X137896939Y-67582128D01*
X137896944Y-67582128D01*
X137983888Y-67563647D01*
X138077288Y-67543794D01*
X138145094Y-67513605D01*
X138245722Y-67468803D01*
X138245724Y-67468802D01*
X138251752Y-67466118D01*
X138406253Y-67353866D01*
X138443952Y-67311997D01*
X138529621Y-67216852D01*
X138529622Y-67216851D01*
X138534040Y-67211944D01*
X138629527Y-67046556D01*
X138688542Y-66864928D01*
X138691912Y-66832869D01*
X138707814Y-66681565D01*
X138708504Y-66675000D01*
X138688542Y-66485072D01*
X138629527Y-66303444D01*
X138534040Y-66138056D01*
X138460863Y-66056785D01*
X138430147Y-65992779D01*
X138428500Y-65972476D01*
X138428500Y-61027524D01*
X138448502Y-60959403D01*
X138460858Y-60943221D01*
X138534040Y-60861944D01*
X138629527Y-60696556D01*
X138688542Y-60514928D01*
X138695487Y-60448855D01*
X138707814Y-60331565D01*
X138708504Y-60325000D01*
X138688542Y-60135072D01*
X138629527Y-59953444D01*
X138534040Y-59788056D01*
X138486566Y-59735330D01*
X138410675Y-59651045D01*
X138410674Y-59651044D01*
X138406253Y-59646134D01*
X138307157Y-59574136D01*
X138257094Y-59537763D01*
X138257093Y-59537762D01*
X138251752Y-59533882D01*
X138245724Y-59531198D01*
X138245722Y-59531197D01*
X138083319Y-59458891D01*
X138083318Y-59458891D01*
X138077288Y-59456206D01*
X137983887Y-59436353D01*
X137896944Y-59417872D01*
X137896939Y-59417872D01*
X137890487Y-59416500D01*
X137699513Y-59416500D01*
X137693061Y-59417872D01*
X137693056Y-59417872D01*
X137606113Y-59436353D01*
X137512712Y-59456206D01*
X137506682Y-59458891D01*
X137506681Y-59458891D01*
X137344278Y-59531197D01*
X137344276Y-59531198D01*
X137338248Y-59533882D01*
X137332907Y-59537762D01*
X137332906Y-59537763D01*
X137205329Y-59630454D01*
X137183747Y-59646134D01*
X137179332Y-59651037D01*
X137174420Y-59655460D01*
X137173295Y-59654211D01*
X137119986Y-59687051D01*
X137086800Y-59691500D01*
X129613200Y-59691500D01*
X129545079Y-59671498D01*
X129525853Y-59655157D01*
X129525580Y-59655460D01*
X129520668Y-59651037D01*
X129516253Y-59646134D01*
X129494671Y-59630454D01*
X129367094Y-59537763D01*
X129367093Y-59537762D01*
X129361752Y-59533882D01*
X129355724Y-59531198D01*
X129355722Y-59531197D01*
X129193319Y-59458891D01*
X129193318Y-59458891D01*
X129187288Y-59456206D01*
X129093887Y-59436353D01*
X129006944Y-59417872D01*
X129006939Y-59417872D01*
X129000487Y-59416500D01*
X128809513Y-59416500D01*
X128803061Y-59417872D01*
X128803056Y-59417872D01*
X128716113Y-59436353D01*
X128622712Y-59456206D01*
X128616682Y-59458891D01*
X128616681Y-59458891D01*
X128454278Y-59531197D01*
X128454276Y-59531198D01*
X128448248Y-59533882D01*
X128442907Y-59537762D01*
X128442906Y-59537763D01*
X128392843Y-59574136D01*
X128293747Y-59646134D01*
X128289326Y-59651044D01*
X128289325Y-59651045D01*
X128213435Y-59735330D01*
X128165960Y-59788056D01*
X128070473Y-59953444D01*
X128011458Y-60135072D01*
X127991496Y-60325000D01*
X127992186Y-60331565D01*
X128004514Y-60448855D01*
X128011458Y-60514928D01*
X128070473Y-60696556D01*
X128165960Y-60861944D01*
X128239137Y-60943215D01*
X128269853Y-61007221D01*
X128271500Y-61027524D01*
X128271500Y-65972476D01*
X128251498Y-66040597D01*
X128239142Y-66056779D01*
X128165960Y-66138056D01*
X128070473Y-66303444D01*
X128011458Y-66485072D01*
X127991496Y-66675000D01*
X127992186Y-66681565D01*
X128008089Y-66832869D01*
X128011458Y-66864928D01*
X128070473Y-67046556D01*
X128073776Y-67052278D01*
X128073777Y-67052279D01*
X128114319Y-67122500D01*
X128131057Y-67191496D01*
X128107836Y-67258587D01*
X128052029Y-67302474D01*
X128005200Y-67311500D01*
X116918767Y-67311500D01*
X116907584Y-67310973D01*
X116900091Y-67309298D01*
X116892165Y-67309547D01*
X116892164Y-67309547D01*
X116832014Y-67311438D01*
X116828055Y-67311500D01*
X116800144Y-67311500D01*
X116796210Y-67311997D01*
X116796209Y-67311997D01*
X116796144Y-67312005D01*
X116784307Y-67312938D01*
X116752049Y-67313952D01*
X116748030Y-67314078D01*
X116740111Y-67314327D01*
X116720657Y-67319979D01*
X116701300Y-67323987D01*
X116689070Y-67325532D01*
X116689069Y-67325532D01*
X116681203Y-67326526D01*
X116673832Y-67329445D01*
X116673830Y-67329445D01*
X116640088Y-67342804D01*
X116628858Y-67346649D01*
X116594017Y-67356771D01*
X116594016Y-67356771D01*
X116586407Y-67358982D01*
X116579588Y-67363015D01*
X116579583Y-67363017D01*
X116568972Y-67369293D01*
X116551224Y-67377988D01*
X116532383Y-67385448D01*
X116525967Y-67390110D01*
X116525966Y-67390110D01*
X116496613Y-67411436D01*
X116486693Y-67417952D01*
X116455465Y-67436420D01*
X116455462Y-67436422D01*
X116448638Y-67440458D01*
X116434317Y-67454779D01*
X116419284Y-67467619D01*
X116402893Y-67479528D01*
X116397842Y-67485634D01*
X116374702Y-67513605D01*
X116366712Y-67522384D01*
X114247055Y-69642040D01*
X114184743Y-69676066D01*
X114113927Y-69671001D01*
X114057092Y-69628454D01*
X114032281Y-69561934D01*
X114043954Y-69499292D01*
X114048222Y-69490222D01*
X114051135Y-69482866D01*
X114144258Y-69196264D01*
X114146229Y-69188587D01*
X114202696Y-68892576D01*
X114203689Y-68884715D01*
X114222611Y-68583958D01*
X114222611Y-68576042D01*
X114203689Y-68275285D01*
X114202696Y-68267424D01*
X114146229Y-67971413D01*
X114144258Y-67963736D01*
X114051135Y-67677134D01*
X114048220Y-67669771D01*
X113919908Y-67397094D01*
X113916097Y-67390161D01*
X113754622Y-67135718D01*
X113749971Y-67129315D01*
X113679990Y-67044722D01*
X113667473Y-67036268D01*
X113656735Y-67042475D01*
X110221130Y-70478080D01*
X110214517Y-70490191D01*
X110223344Y-70501809D01*
X110437125Y-70657130D01*
X110443807Y-70661370D01*
X110707903Y-70806559D01*
X110715038Y-70809916D01*
X110995251Y-70920861D01*
X111002776Y-70923306D01*
X111294667Y-70998250D01*
X111302438Y-70999733D01*
X111601425Y-71037503D01*
X111609315Y-71038000D01*
X111910685Y-71038000D01*
X111918575Y-71037503D01*
X112217562Y-70999733D01*
X112225333Y-70998250D01*
X112517224Y-70923306D01*
X112524749Y-70920861D01*
X112693206Y-70854164D01*
X112763907Y-70847685D01*
X112826887Y-70880457D01*
X112862150Y-70942077D01*
X112858502Y-71012980D01*
X112828685Y-71060410D01*
X101842747Y-82046348D01*
X101834461Y-82053888D01*
X101827982Y-82058000D01*
X101822557Y-82063777D01*
X101781357Y-82107651D01*
X101778602Y-82110493D01*
X101758865Y-82130230D01*
X101756385Y-82133427D01*
X101748682Y-82142447D01*
X101718414Y-82174679D01*
X101714595Y-82181625D01*
X101714593Y-82181628D01*
X101708652Y-82192434D01*
X101697801Y-82208953D01*
X101685386Y-82224959D01*
X101682241Y-82232228D01*
X101682238Y-82232232D01*
X101667826Y-82265537D01*
X101662609Y-82276187D01*
X101641305Y-82314940D01*
X101639334Y-82322615D01*
X101639334Y-82322616D01*
X101636267Y-82334562D01*
X101629863Y-82353266D01*
X101621819Y-82371855D01*
X101620580Y-82379678D01*
X101620577Y-82379688D01*
X101614901Y-82415524D01*
X101612495Y-82427144D01*
X101601500Y-82469970D01*
X101601500Y-82490224D01*
X101599949Y-82509934D01*
X101596780Y-82529943D01*
X101597526Y-82537835D01*
X101600941Y-82573961D01*
X101601500Y-82585819D01*
X101601500Y-104072476D01*
X101581498Y-104140597D01*
X101569142Y-104156779D01*
X101495960Y-104238056D01*
X101400473Y-104403444D01*
X101341458Y-104585072D01*
X101340768Y-104591633D01*
X101340768Y-104591635D01*
X101325126Y-104740460D01*
X101321496Y-104775000D01*
X93980000Y-104775000D01*
X93980000Y-68478949D01*
X101267780Y-68478949D01*
X101278743Y-68594915D01*
X101279048Y-68598807D01*
X101286359Y-68715020D01*
X101287101Y-68718909D01*
X101287102Y-68718918D01*
X101292652Y-68748010D01*
X101294325Y-68759762D01*
X101297485Y-68793192D01*
X101322894Y-68906864D01*
X101323685Y-68910688D01*
X101345505Y-69025072D01*
X101346729Y-69028839D01*
X101346730Y-69028843D01*
X101355881Y-69057007D01*
X101359014Y-69068456D01*
X101366340Y-69101233D01*
X101405803Y-69210845D01*
X101407056Y-69214507D01*
X101443044Y-69325266D01*
X101444726Y-69328841D01*
X101444729Y-69328848D01*
X101457344Y-69355657D01*
X101461885Y-69366621D01*
X101471920Y-69394493D01*
X101471924Y-69394501D01*
X101473261Y-69398216D01*
X101475050Y-69401727D01*
X101475056Y-69401741D01*
X101487768Y-69426689D01*
X101501501Y-69483891D01*
X101501501Y-70330398D01*
X101512474Y-70436165D01*
X101514654Y-70442698D01*
X101514654Y-70442700D01*
X101558706Y-70574739D01*
X101568450Y-70603945D01*
X101661522Y-70754347D01*
X101786698Y-70879305D01*
X101937263Y-70972114D01*
X102105140Y-71027797D01*
X102111973Y-71028497D01*
X102111977Y-71028498D01*
X102167853Y-71034222D01*
X102209601Y-71038500D01*
X103445457Y-71038500D01*
X103472942Y-71041534D01*
X103566808Y-71062515D01*
X103881051Y-71092219D01*
X103885003Y-71092095D01*
X103885009Y-71092095D01*
X104052727Y-71086824D01*
X104196537Y-71082305D01*
X104200444Y-71081686D01*
X104200446Y-71081686D01*
X104463320Y-71040050D01*
X104483031Y-71038499D01*
X105710398Y-71038499D01*
X105816165Y-71027526D01*
X105822698Y-71025346D01*
X105822700Y-71025346D01*
X105954739Y-70981294D01*
X105983945Y-70971550D01*
X106134347Y-70878478D01*
X106259305Y-70753302D01*
X106352114Y-70602737D01*
X106407797Y-70434860D01*
X106410883Y-70404746D01*
X106414222Y-70372147D01*
X106418500Y-70330399D01*
X106418500Y-69103028D01*
X106420051Y-69083317D01*
X106461686Y-68820446D01*
X106461686Y-68820444D01*
X106462305Y-68816537D01*
X106468451Y-68620947D01*
X106469614Y-68583958D01*
X109297389Y-68583958D01*
X109316311Y-68884715D01*
X109317304Y-68892576D01*
X109373771Y-69188587D01*
X109375742Y-69196264D01*
X109468865Y-69482866D01*
X109471780Y-69490229D01*
X109600092Y-69762906D01*
X109603903Y-69769839D01*
X109765378Y-70024282D01*
X109770029Y-70030685D01*
X109840010Y-70115278D01*
X109852527Y-70123732D01*
X109863265Y-70117525D01*
X111387978Y-68592812D01*
X111395592Y-68578868D01*
X111395461Y-68577035D01*
X111391210Y-68570420D01*
X109864368Y-67043578D01*
X109851105Y-67036336D01*
X109841003Y-67043522D01*
X109770029Y-67129315D01*
X109765378Y-67135718D01*
X109603903Y-67390161D01*
X109600092Y-67397094D01*
X109471780Y-67669771D01*
X109468865Y-67677134D01*
X109375742Y-67963736D01*
X109373771Y-67971413D01*
X109317304Y-68267424D01*
X109316311Y-68275285D01*
X109297389Y-68576042D01*
X109297389Y-68583958D01*
X106469614Y-68583958D01*
X106472095Y-68505009D01*
X106472095Y-68505003D01*
X106472219Y-68501051D01*
X106457367Y-68343929D01*
X106442888Y-68190750D01*
X106442887Y-68190744D01*
X106442515Y-68186808D01*
X106421534Y-68092945D01*
X106418499Y-68065460D01*
X106418499Y-66829602D01*
X106407526Y-66723835D01*
X106389502Y-66669809D01*
X106389360Y-66669383D01*
X110214550Y-66669383D01*
X110221454Y-66682244D01*
X111747188Y-68207978D01*
X111761132Y-68215592D01*
X111762965Y-68215461D01*
X111769580Y-68211210D01*
X113298870Y-66681920D01*
X113305483Y-66669809D01*
X113296656Y-66658191D01*
X113082875Y-66502870D01*
X113076193Y-66498630D01*
X112812097Y-66353441D01*
X112804962Y-66350084D01*
X112524749Y-66239139D01*
X112517224Y-66236694D01*
X112225333Y-66161750D01*
X112217562Y-66160267D01*
X111918575Y-66122497D01*
X111910685Y-66122000D01*
X111609315Y-66122000D01*
X111601425Y-66122497D01*
X111302438Y-66160267D01*
X111294667Y-66161750D01*
X111002776Y-66236694D01*
X110995251Y-66239139D01*
X110715038Y-66350084D01*
X110707903Y-66353441D01*
X110443807Y-66498630D01*
X110437125Y-66502870D01*
X110222973Y-66658460D01*
X110214550Y-66669383D01*
X106389360Y-66669383D01*
X106353868Y-66563003D01*
X106351550Y-66556055D01*
X106307356Y-66484639D01*
X106288500Y-66418336D01*
X106288500Y-62870191D01*
X110034517Y-62870191D01*
X110043344Y-62881809D01*
X110257125Y-63037130D01*
X110263807Y-63041370D01*
X110527903Y-63186559D01*
X110535038Y-63189916D01*
X110815251Y-63300861D01*
X110822776Y-63303306D01*
X111114667Y-63378250D01*
X111122438Y-63379733D01*
X111421425Y-63417503D01*
X111429315Y-63418000D01*
X111730685Y-63418000D01*
X111738575Y-63417503D01*
X112037562Y-63379733D01*
X112045333Y-63378250D01*
X112337224Y-63303306D01*
X112344749Y-63300861D01*
X112624962Y-63189916D01*
X112632097Y-63186559D01*
X112896193Y-63041370D01*
X112902875Y-63037130D01*
X113117027Y-62881540D01*
X113125450Y-62870617D01*
X113118546Y-62857756D01*
X111592812Y-61332022D01*
X111578868Y-61324408D01*
X111577035Y-61324539D01*
X111570420Y-61328790D01*
X110041130Y-62858080D01*
X110034517Y-62870191D01*
X106288500Y-62870191D01*
X106288500Y-60963958D01*
X109117389Y-60963958D01*
X109136311Y-61264715D01*
X109137304Y-61272576D01*
X109193771Y-61568587D01*
X109195742Y-61576264D01*
X109288865Y-61862866D01*
X109291780Y-61870229D01*
X109420092Y-62142906D01*
X109423903Y-62149839D01*
X109585378Y-62404282D01*
X109590029Y-62410685D01*
X109660010Y-62495278D01*
X109672527Y-62503732D01*
X109683265Y-62497525D01*
X111207978Y-60972812D01*
X111214356Y-60961132D01*
X111944408Y-60961132D01*
X111944539Y-60962965D01*
X111948790Y-60969580D01*
X113475632Y-62496422D01*
X113488895Y-62503664D01*
X113498997Y-62496478D01*
X113569971Y-62410685D01*
X113574622Y-62404282D01*
X113736097Y-62149839D01*
X113739908Y-62142906D01*
X113868220Y-61870229D01*
X113871135Y-61862866D01*
X113964258Y-61576264D01*
X113966229Y-61568587D01*
X114022696Y-61272576D01*
X114023689Y-61264715D01*
X114042611Y-60963958D01*
X114042611Y-60956042D01*
X114023689Y-60655285D01*
X114022696Y-60647424D01*
X113966229Y-60351413D01*
X113964258Y-60343736D01*
X113871135Y-60057134D01*
X113868220Y-60049771D01*
X113739908Y-59777094D01*
X113736097Y-59770161D01*
X113574622Y-59515718D01*
X113569971Y-59509315D01*
X113499990Y-59424722D01*
X113487473Y-59416268D01*
X113476735Y-59422475D01*
X111952022Y-60947188D01*
X111944408Y-60961132D01*
X111214356Y-60961132D01*
X111215592Y-60958868D01*
X111215461Y-60957035D01*
X111211210Y-60950420D01*
X109684368Y-59423578D01*
X109671105Y-59416336D01*
X109661003Y-59423522D01*
X109590029Y-59509315D01*
X109585378Y-59515718D01*
X109423903Y-59770161D01*
X109420092Y-59777094D01*
X109291780Y-60049771D01*
X109288865Y-60057134D01*
X109195742Y-60343736D01*
X109193771Y-60351413D01*
X109137304Y-60647424D01*
X109136311Y-60655285D01*
X109117389Y-60956042D01*
X109117389Y-60963958D01*
X106288500Y-60963958D01*
X106288500Y-60881162D01*
X106273641Y-60644980D01*
X106240731Y-60472462D01*
X106238499Y-60448852D01*
X106238499Y-59209602D01*
X106227526Y-59103835D01*
X106209502Y-59049809D01*
X106209360Y-59049383D01*
X110034550Y-59049383D01*
X110041454Y-59062244D01*
X111567188Y-60587978D01*
X111581132Y-60595592D01*
X111582965Y-60595461D01*
X111589580Y-60591210D01*
X112930290Y-59250500D01*
X145127262Y-59250500D01*
X145127532Y-59254619D01*
X145145836Y-59533882D01*
X145146192Y-59539320D01*
X145146996Y-59543360D01*
X145146996Y-59543363D01*
X145195669Y-59788056D01*
X145202659Y-59823199D01*
X145203985Y-59827105D01*
X145203986Y-59827109D01*
X145249005Y-59959729D01*
X145295697Y-60097278D01*
X145297518Y-60100971D01*
X145297519Y-60100973D01*
X145417237Y-60343736D01*
X145423713Y-60356869D01*
X145584517Y-60597530D01*
X145587231Y-60600624D01*
X145587235Y-60600630D01*
X145772649Y-60812053D01*
X145775358Y-60815142D01*
X145778447Y-60817851D01*
X145989870Y-61003265D01*
X145989876Y-61003269D01*
X145992970Y-61005983D01*
X146233631Y-61166787D01*
X146237330Y-61168611D01*
X146237335Y-61168614D01*
X146448150Y-61272576D01*
X146493222Y-61294803D01*
X146497120Y-61296126D01*
X146497122Y-61296127D01*
X146763391Y-61386514D01*
X146763395Y-61386515D01*
X146767301Y-61387841D01*
X146771345Y-61388645D01*
X146771351Y-61388647D01*
X147047137Y-61443504D01*
X147047140Y-61443504D01*
X147051180Y-61444308D01*
X147055291Y-61444577D01*
X147055295Y-61444578D01*
X147335881Y-61462968D01*
X147340000Y-61463238D01*
X147344119Y-61462968D01*
X147624705Y-61444578D01*
X147624709Y-61444577D01*
X147628820Y-61444308D01*
X147632860Y-61443504D01*
X147632863Y-61443504D01*
X147908649Y-61388647D01*
X147908655Y-61388645D01*
X147912699Y-61387841D01*
X147916605Y-61386515D01*
X147916609Y-61386514D01*
X148182878Y-61296127D01*
X148182880Y-61296126D01*
X148186778Y-61294803D01*
X148231850Y-61272576D01*
X148442665Y-61168614D01*
X148442670Y-61168611D01*
X148446369Y-61166787D01*
X148687030Y-61005983D01*
X148690124Y-61003269D01*
X148690130Y-61003265D01*
X148901553Y-60817851D01*
X148904642Y-60815142D01*
X148907351Y-60812053D01*
X149092765Y-60600630D01*
X149092769Y-60600624D01*
X149095483Y-60597530D01*
X149256287Y-60356869D01*
X149262764Y-60343736D01*
X149382481Y-60100973D01*
X149382482Y-60100971D01*
X149384303Y-60097278D01*
X149430995Y-59959729D01*
X149476014Y-59827109D01*
X149476015Y-59827105D01*
X149477341Y-59823199D01*
X149484332Y-59788056D01*
X149533004Y-59543363D01*
X149533004Y-59543360D01*
X149533808Y-59539320D01*
X149534165Y-59533882D01*
X149552468Y-59254619D01*
X149552738Y-59250500D01*
X149539556Y-59049383D01*
X149534078Y-58965795D01*
X149534077Y-58965791D01*
X149533808Y-58961680D01*
X149533004Y-58957637D01*
X149478147Y-58681851D01*
X149478145Y-58681845D01*
X149477341Y-58677801D01*
X149471535Y-58660695D01*
X149385627Y-58407622D01*
X149385626Y-58407620D01*
X149384303Y-58403722D01*
X149382481Y-58400027D01*
X149258114Y-58147835D01*
X149258111Y-58147830D01*
X149256287Y-58144131D01*
X149095483Y-57903470D01*
X149092769Y-57900376D01*
X149092765Y-57900370D01*
X148907351Y-57688947D01*
X148904642Y-57685858D01*
X148901553Y-57683149D01*
X148690130Y-57497735D01*
X148690124Y-57497731D01*
X148687030Y-57495017D01*
X148446369Y-57334213D01*
X148442670Y-57332389D01*
X148442665Y-57332386D01*
X148190473Y-57208019D01*
X148190471Y-57208018D01*
X148186778Y-57206197D01*
X148182878Y-57204873D01*
X147916609Y-57114486D01*
X147916605Y-57114485D01*
X147912699Y-57113159D01*
X147908655Y-57112355D01*
X147908649Y-57112353D01*
X147632863Y-57057496D01*
X147632860Y-57057496D01*
X147628820Y-57056692D01*
X147624709Y-57056423D01*
X147624705Y-57056422D01*
X147344119Y-57038032D01*
X147340000Y-57037762D01*
X147335881Y-57038032D01*
X147055295Y-57056422D01*
X147055291Y-57056423D01*
X147051180Y-57056692D01*
X147047140Y-57057496D01*
X147047137Y-57057496D01*
X146771351Y-57112353D01*
X146771345Y-57112355D01*
X146767301Y-57113159D01*
X146763395Y-57114485D01*
X146763391Y-57114486D01*
X146497122Y-57204873D01*
X146493222Y-57206197D01*
X146489529Y-57208018D01*
X146489527Y-57208019D01*
X146237335Y-57332386D01*
X146237330Y-57332389D01*
X146233631Y-57334213D01*
X145992970Y-57495017D01*
X145989876Y-57497731D01*
X145989870Y-57497735D01*
X145778447Y-57683149D01*
X145775358Y-57685858D01*
X145772649Y-57688947D01*
X145587235Y-57900370D01*
X145587231Y-57900376D01*
X145584517Y-57903470D01*
X145423713Y-58144131D01*
X145421889Y-58147830D01*
X145421886Y-58147835D01*
X145297519Y-58400027D01*
X145295697Y-58403722D01*
X145294374Y-58407620D01*
X145294373Y-58407622D01*
X145208466Y-58660695D01*
X145202659Y-58677801D01*
X145201855Y-58681845D01*
X145201853Y-58681851D01*
X145146996Y-58957637D01*
X145146192Y-58961680D01*
X145145923Y-58965791D01*
X145145922Y-58965795D01*
X145129942Y-59209602D01*
X145129307Y-59219297D01*
X145127262Y-59250500D01*
X112930290Y-59250500D01*
X113118870Y-59061920D01*
X113125483Y-59049809D01*
X113116656Y-59038191D01*
X112902875Y-58882870D01*
X112896193Y-58878630D01*
X112632097Y-58733441D01*
X112624962Y-58730084D01*
X112344749Y-58619139D01*
X112337224Y-58616694D01*
X112045333Y-58541750D01*
X112037562Y-58540267D01*
X111738575Y-58502497D01*
X111730685Y-58502000D01*
X111429315Y-58502000D01*
X111421425Y-58502497D01*
X111122438Y-58540267D01*
X111114667Y-58541750D01*
X110822776Y-58616694D01*
X110815251Y-58619139D01*
X110535038Y-58730084D01*
X110527903Y-58733441D01*
X110263807Y-58878630D01*
X110257125Y-58882870D01*
X110042973Y-59038460D01*
X110034550Y-59049383D01*
X106209360Y-59049383D01*
X106173868Y-58943003D01*
X106171550Y-58936055D01*
X106078478Y-58785653D01*
X105953302Y-58660695D01*
X105802737Y-58567886D01*
X105634860Y-58512203D01*
X105628027Y-58511503D01*
X105628023Y-58511502D01*
X105572147Y-58505778D01*
X105530399Y-58501500D01*
X104307556Y-58501500D01*
X104276223Y-58497542D01*
X104262373Y-58493986D01*
X104250975Y-58491060D01*
X103937821Y-58451500D01*
X103622179Y-58451500D01*
X103309025Y-58491060D01*
X103305197Y-58492043D01*
X103305191Y-58492044D01*
X103283780Y-58497542D01*
X103252444Y-58501501D01*
X102029602Y-58501501D01*
X101923835Y-58512474D01*
X101917302Y-58514654D01*
X101917300Y-58514654D01*
X101840529Y-58540267D01*
X101756055Y-58568450D01*
X101605653Y-58661522D01*
X101480695Y-58786698D01*
X101387886Y-58937263D01*
X101385581Y-58944211D01*
X101385581Y-58944212D01*
X101356040Y-59033275D01*
X101332203Y-59105140D01*
X101321500Y-59209601D01*
X101321500Y-60448855D01*
X101319268Y-60472462D01*
X101286359Y-60644980D01*
X101271500Y-60881162D01*
X101271500Y-68358597D01*
X101271438Y-68362555D01*
X101267780Y-68478949D01*
X93980000Y-68478949D01*
X93980000Y-59250500D01*
X95127262Y-59250500D01*
X95127532Y-59254619D01*
X95145836Y-59533882D01*
X95146192Y-59539320D01*
X95146996Y-59543360D01*
X95146996Y-59543363D01*
X95195669Y-59788056D01*
X95202659Y-59823199D01*
X95203985Y-59827105D01*
X95203986Y-59827109D01*
X95249005Y-59959729D01*
X95295697Y-60097278D01*
X95297518Y-60100971D01*
X95297519Y-60100973D01*
X95417237Y-60343736D01*
X95423713Y-60356869D01*
X95584517Y-60597530D01*
X95587231Y-60600624D01*
X95587235Y-60600630D01*
X95772649Y-60812053D01*
X95775358Y-60815142D01*
X95778447Y-60817851D01*
X95989870Y-61003265D01*
X95989876Y-61003269D01*
X95992970Y-61005983D01*
X96233631Y-61166787D01*
X96237330Y-61168611D01*
X96237335Y-61168614D01*
X96448150Y-61272576D01*
X96493222Y-61294803D01*
X96497120Y-61296126D01*
X96497122Y-61296127D01*
X96763391Y-61386514D01*
X96763395Y-61386515D01*
X96767301Y-61387841D01*
X96771345Y-61388645D01*
X96771351Y-61388647D01*
X97047137Y-61443504D01*
X97047140Y-61443504D01*
X97051180Y-61444308D01*
X97055291Y-61444577D01*
X97055295Y-61444578D01*
X97335881Y-61462968D01*
X97340000Y-61463238D01*
X97344119Y-61462968D01*
X97624705Y-61444578D01*
X97624709Y-61444577D01*
X97628820Y-61444308D01*
X97632860Y-61443504D01*
X97632863Y-61443504D01*
X97908649Y-61388647D01*
X97908655Y-61388645D01*
X97912699Y-61387841D01*
X97916605Y-61386515D01*
X97916609Y-61386514D01*
X98182878Y-61296127D01*
X98182880Y-61296126D01*
X98186778Y-61294803D01*
X98231850Y-61272576D01*
X98442665Y-61168614D01*
X98442670Y-61168611D01*
X98446369Y-61166787D01*
X98687030Y-61005983D01*
X98690124Y-61003269D01*
X98690130Y-61003265D01*
X98901553Y-60817851D01*
X98904642Y-60815142D01*
X98907351Y-60812053D01*
X99092765Y-60600630D01*
X99092769Y-60600624D01*
X99095483Y-60597530D01*
X99256287Y-60356869D01*
X99262764Y-60343736D01*
X99382481Y-60100973D01*
X99382482Y-60100971D01*
X99384303Y-60097278D01*
X99430995Y-59959729D01*
X99476014Y-59827109D01*
X99476015Y-59827105D01*
X99477341Y-59823199D01*
X99484332Y-59788056D01*
X99533004Y-59543363D01*
X99533004Y-59543360D01*
X99533808Y-59539320D01*
X99534165Y-59533882D01*
X99552468Y-59254619D01*
X99552738Y-59250500D01*
X99539556Y-59049383D01*
X99534078Y-58965795D01*
X99534077Y-58965791D01*
X99533808Y-58961680D01*
X99533004Y-58957637D01*
X99478147Y-58681851D01*
X99478145Y-58681845D01*
X99477341Y-58677801D01*
X99471535Y-58660695D01*
X99385627Y-58407622D01*
X99385626Y-58407620D01*
X99384303Y-58403722D01*
X99382481Y-58400027D01*
X99258114Y-58147835D01*
X99258111Y-58147830D01*
X99256287Y-58144131D01*
X99095483Y-57903470D01*
X99092769Y-57900376D01*
X99092765Y-57900370D01*
X98907351Y-57688947D01*
X98904642Y-57685858D01*
X98901553Y-57683149D01*
X98690130Y-57497735D01*
X98690124Y-57497731D01*
X98687030Y-57495017D01*
X98446369Y-57334213D01*
X98442670Y-57332389D01*
X98442665Y-57332386D01*
X98190473Y-57208019D01*
X98190471Y-57208018D01*
X98186778Y-57206197D01*
X98182878Y-57204873D01*
X97916609Y-57114486D01*
X97916605Y-57114485D01*
X97912699Y-57113159D01*
X97908655Y-57112355D01*
X97908649Y-57112353D01*
X97632863Y-57057496D01*
X97632860Y-57057496D01*
X97628820Y-57056692D01*
X97624709Y-57056423D01*
X97624705Y-57056422D01*
X97344119Y-57038032D01*
X97340000Y-57037762D01*
X97335881Y-57038032D01*
X97055295Y-57056422D01*
X97055291Y-57056423D01*
X97051180Y-57056692D01*
X97047140Y-57057496D01*
X97047137Y-57057496D01*
X96771351Y-57112353D01*
X96771345Y-57112355D01*
X96767301Y-57113159D01*
X96763395Y-57114485D01*
X96763391Y-57114486D01*
X96497122Y-57204873D01*
X96493222Y-57206197D01*
X96489529Y-57208018D01*
X96489527Y-57208019D01*
X96237335Y-57332386D01*
X96237330Y-57332389D01*
X96233631Y-57334213D01*
X95992970Y-57495017D01*
X95989876Y-57497731D01*
X95989870Y-57497735D01*
X95778447Y-57683149D01*
X95775358Y-57685858D01*
X95772649Y-57688947D01*
X95587235Y-57900370D01*
X95587231Y-57900376D01*
X95584517Y-57903470D01*
X95423713Y-58144131D01*
X95421889Y-58147830D01*
X95421886Y-58147835D01*
X95297519Y-58400027D01*
X95295697Y-58403722D01*
X95294374Y-58407620D01*
X95294373Y-58407622D01*
X95208466Y-58660695D01*
X95202659Y-58677801D01*
X95201855Y-58681845D01*
X95201853Y-58681851D01*
X95146996Y-58957637D01*
X95146192Y-58961680D01*
X95145923Y-58965791D01*
X95145922Y-58965795D01*
X95129942Y-59209602D01*
X95129307Y-59219297D01*
X95127262Y-59250500D01*
X93980000Y-59250500D01*
X93980000Y-56260000D01*
X94000002Y-56191879D01*
X94053658Y-56145386D01*
X94106000Y-56134000D01*
X150369000Y-56134000D01*
X150437121Y-56154002D01*
G37*
%TD.AperFunction*%
%TA.AperFunction,Conductor*%
G36*
X133298581Y-119547141D02*
G01*
X133342472Y-119602945D01*
X133351500Y-119649782D01*
X133351500Y-120970406D01*
X133331498Y-121038527D01*
X133314595Y-121059501D01*
X129949500Y-124424595D01*
X129887188Y-124458621D01*
X129860405Y-124461500D01*
X119644800Y-124461500D01*
X119576679Y-124441498D01*
X119530186Y-124387842D01*
X119520082Y-124317568D01*
X119535681Y-124272500D01*
X119576223Y-124202279D01*
X119576224Y-124202278D01*
X119579527Y-124196556D01*
X119638542Y-124014928D01*
X119655907Y-123849708D01*
X119682920Y-123784051D01*
X119692122Y-123773782D01*
X119859501Y-123606404D01*
X119921813Y-123572379D01*
X119948596Y-123569500D01*
X121719800Y-123569500D01*
X121787921Y-123589502D01*
X121807147Y-123605843D01*
X121807420Y-123605540D01*
X121812332Y-123609963D01*
X121816747Y-123614866D01*
X121971248Y-123727118D01*
X121977276Y-123729802D01*
X121977278Y-123729803D01*
X122099122Y-123784051D01*
X122145712Y-123804794D01*
X122239113Y-123824647D01*
X122326056Y-123843128D01*
X122326061Y-123843128D01*
X122332513Y-123844500D01*
X122523487Y-123844500D01*
X122529939Y-123843128D01*
X122529944Y-123843128D01*
X122616887Y-123824647D01*
X122710288Y-123804794D01*
X122756878Y-123784051D01*
X122878722Y-123729803D01*
X122878724Y-123729802D01*
X122884752Y-123727118D01*
X123039253Y-123614866D01*
X123062091Y-123589502D01*
X123162621Y-123477852D01*
X123162622Y-123477851D01*
X123167040Y-123472944D01*
X123262527Y-123307556D01*
X123321542Y-123125928D01*
X123341504Y-122936000D01*
X123321542Y-122746072D01*
X123262527Y-122564444D01*
X123167040Y-122399056D01*
X123077400Y-122299500D01*
X123043675Y-122262045D01*
X123043674Y-122262044D01*
X123039253Y-122257134D01*
X122884752Y-122144882D01*
X122878724Y-122142198D01*
X122878722Y-122142197D01*
X122716319Y-122069891D01*
X122716318Y-122069891D01*
X122710288Y-122067206D01*
X122597721Y-122043279D01*
X122529944Y-122028872D01*
X122529939Y-122028872D01*
X122523487Y-122027500D01*
X122332513Y-122027500D01*
X122326061Y-122028872D01*
X122326056Y-122028872D01*
X122258279Y-122043279D01*
X122145712Y-122067206D01*
X122139682Y-122069891D01*
X122139681Y-122069891D01*
X121977278Y-122142197D01*
X121977276Y-122142198D01*
X121971248Y-122144882D01*
X121816747Y-122257134D01*
X121812332Y-122262037D01*
X121807420Y-122266460D01*
X121806295Y-122265211D01*
X121752986Y-122298051D01*
X121719800Y-122302500D01*
X121549800Y-122302500D01*
X121481679Y-122282498D01*
X121435186Y-122228842D01*
X121425082Y-122158568D01*
X121440681Y-122113500D01*
X121481223Y-122043279D01*
X121481224Y-122043278D01*
X121484527Y-122037556D01*
X121543542Y-121855928D01*
X121563504Y-121666000D01*
X121543542Y-121476072D01*
X121484527Y-121294444D01*
X121389040Y-121129056D01*
X121372881Y-121111109D01*
X121265675Y-120992045D01*
X121265674Y-120992044D01*
X121261253Y-120987134D01*
X121108891Y-120876436D01*
X121065537Y-120820214D01*
X121059462Y-120749477D01*
X121092594Y-120686686D01*
X121154414Y-120651774D01*
X121182952Y-120648500D01*
X131366233Y-120648500D01*
X131377416Y-120649027D01*
X131384909Y-120650702D01*
X131392835Y-120650453D01*
X131392836Y-120650453D01*
X131452986Y-120648562D01*
X131456945Y-120648500D01*
X131484856Y-120648500D01*
X131488791Y-120648003D01*
X131488856Y-120647995D01*
X131500693Y-120647062D01*
X131532951Y-120646048D01*
X131536970Y-120645922D01*
X131544889Y-120645673D01*
X131564343Y-120640021D01*
X131583700Y-120636013D01*
X131595930Y-120634468D01*
X131595931Y-120634468D01*
X131603797Y-120633474D01*
X131611168Y-120630555D01*
X131611170Y-120630555D01*
X131644912Y-120617196D01*
X131656142Y-120613351D01*
X131690983Y-120603229D01*
X131690984Y-120603229D01*
X131698593Y-120601018D01*
X131705412Y-120596985D01*
X131705417Y-120596983D01*
X131716028Y-120590707D01*
X131733776Y-120582012D01*
X131752617Y-120574552D01*
X131788387Y-120548564D01*
X131798307Y-120542048D01*
X131829535Y-120523580D01*
X131829538Y-120523578D01*
X131836362Y-120519542D01*
X131850683Y-120505221D01*
X131865717Y-120492380D01*
X131875694Y-120485131D01*
X131882107Y-120480472D01*
X131910298Y-120446395D01*
X131918288Y-120437616D01*
X132665499Y-119690405D01*
X132727811Y-119656379D01*
X132754594Y-119653500D01*
X132810487Y-119653500D01*
X132816939Y-119652128D01*
X132816944Y-119652128D01*
X132903888Y-119633647D01*
X132997288Y-119613794D01*
X133021656Y-119602945D01*
X133171752Y-119536118D01*
X133172677Y-119538196D01*
X133231488Y-119523924D01*
X133298581Y-119547141D01*
G37*
%TD.AperFunction*%
%TA.AperFunction,Conductor*%
G36*
X117369140Y-68598502D02*
G01*
X117415633Y-68652158D01*
X117425737Y-68722432D01*
X117396243Y-68787012D01*
X117390114Y-68793595D01*
X104382747Y-81800962D01*
X104374461Y-81808502D01*
X104367982Y-81812614D01*
X104362557Y-81818391D01*
X104321357Y-81862265D01*
X104318602Y-81865107D01*
X104298865Y-81884844D01*
X104296385Y-81888041D01*
X104288682Y-81897061D01*
X104258414Y-81929293D01*
X104254595Y-81936239D01*
X104254593Y-81936242D01*
X104248652Y-81947048D01*
X104237801Y-81963567D01*
X104225386Y-81979573D01*
X104222241Y-81986842D01*
X104222238Y-81986846D01*
X104207826Y-82020151D01*
X104202609Y-82030801D01*
X104181305Y-82069554D01*
X104179334Y-82077229D01*
X104179334Y-82077230D01*
X104176267Y-82089176D01*
X104169863Y-82107880D01*
X104161819Y-82126469D01*
X104160580Y-82134292D01*
X104160577Y-82134302D01*
X104154901Y-82170138D01*
X104152495Y-82181758D01*
X104141500Y-82224584D01*
X104141500Y-82244838D01*
X104139949Y-82264548D01*
X104136780Y-82284557D01*
X104137526Y-82292449D01*
X104140941Y-82328575D01*
X104141500Y-82340433D01*
X104141500Y-104072476D01*
X104121498Y-104140597D01*
X104109142Y-104156779D01*
X104035960Y-104238056D01*
X103940473Y-104403444D01*
X103881458Y-104585072D01*
X103880768Y-104591633D01*
X103880768Y-104591635D01*
X103865126Y-104740460D01*
X103861496Y-104775000D01*
X103862186Y-104781565D01*
X103878187Y-104933803D01*
X103881458Y-104964928D01*
X103940473Y-105146556D01*
X104035960Y-105311944D01*
X104040378Y-105316851D01*
X104040379Y-105316852D01*
X104144225Y-105432185D01*
X104150735Y-105445750D01*
X104150840Y-105445773D01*
X104164516Y-105454425D01*
X104318248Y-105566118D01*
X104324276Y-105568802D01*
X104324278Y-105568803D01*
X104486681Y-105641109D01*
X104492712Y-105643794D01*
X104586113Y-105663647D01*
X104673056Y-105682128D01*
X104673061Y-105682128D01*
X104679513Y-105683500D01*
X104735406Y-105683500D01*
X104803527Y-105703502D01*
X104824501Y-105720405D01*
X104906343Y-105802247D01*
X104913887Y-105810537D01*
X104918000Y-105817018D01*
X104923777Y-105822443D01*
X104930386Y-105828649D01*
X104966352Y-105889862D01*
X104963515Y-105960802D01*
X104922775Y-106018946D01*
X104857067Y-106045835D01*
X104844134Y-106046500D01*
X104454594Y-106046500D01*
X104386473Y-106026498D01*
X104365499Y-106009595D01*
X104001360Y-105645456D01*
X103990398Y-105625382D01*
X103984498Y-105623771D01*
X103961499Y-105605595D01*
X103182120Y-104826215D01*
X103148096Y-104763905D01*
X103145907Y-104750292D01*
X103143894Y-104731134D01*
X103136803Y-104663671D01*
X103129232Y-104591635D01*
X103129232Y-104591633D01*
X103128542Y-104585072D01*
X103069527Y-104403444D01*
X102974040Y-104238056D01*
X102900863Y-104156785D01*
X102870147Y-104092779D01*
X102868500Y-104072476D01*
X102868500Y-82864594D01*
X102888502Y-82796473D01*
X102905405Y-82775499D01*
X117065500Y-68615405D01*
X117127812Y-68581379D01*
X117154595Y-68578500D01*
X117301019Y-68578500D01*
X117369140Y-68598502D01*
G37*
%TD.AperFunction*%
%TD*%
M02*
