%FSLAX45Y45*%
G04 Gerber Fmt 4.5, Leading zero omitted, Abs format (unit mm)*
G04 Created by KiCad (PCBNEW (6.0.2)) date 2023-03-13 10:25:25*
%MOMM*%
%LPD*%
G01*
G04 APERTURE LIST*
%TA.AperFunction,Profile*%
%ADD10C,0.100000*%
%TD*%
%ADD11C,0.200000*%
%ADD12C,0.040000*%
%ADD13C,0.100000*%
%ADD14C,0.250000*%
G04 APERTURE END LIST*
D10*
X9904000Y-13925050D02*
G75*
G03*
X9904000Y-13925050I-170000J0D01*
G01*
X9334500Y-5562600D02*
X15113000Y-5562600D01*
X15113000Y-5562600D02*
X15113000Y-14287500D01*
X15113000Y-14287500D02*
X9334500Y-14287500D01*
X9334500Y-14287500D02*
X9334500Y-5562600D01*
X9904000Y-5925050D02*
G75*
G03*
X9904000Y-5925050I-170000J0D01*
G01*
X14904000Y-5925050D02*
G75*
G03*
X14904000Y-5925050I-170000J0D01*
G01*
X14904000Y-13925050D02*
G75*
G03*
X14904000Y-13925050I-170000J0D01*
G01*
D11*
D12*
X10076500Y-11473500D02*
X10116500Y-11513500D01*
X10116500Y-11473500D02*
X10076500Y-11513500D01*
X10203500Y-10457500D02*
X10243500Y-10497500D01*
X10243500Y-10457500D02*
X10203500Y-10497500D01*
X10203500Y-11600500D02*
X10243500Y-11640500D01*
X10243500Y-11600500D02*
X10203500Y-11640500D01*
X10457500Y-10457500D02*
X10497500Y-10497500D01*
X10497500Y-10457500D02*
X10457500Y-10497500D01*
X10521000Y-8044500D02*
X10561000Y-8084500D01*
X10561000Y-8044500D02*
X10521000Y-8084500D01*
X10633000Y-9012000D02*
X10673000Y-9052000D01*
X10673000Y-9012000D02*
X10633000Y-9052000D01*
X10648000Y-11346500D02*
X10688000Y-11386500D01*
X10688000Y-11346500D02*
X10648000Y-11386500D01*
X10711500Y-10521000D02*
X10751500Y-10561000D01*
X10751500Y-10521000D02*
X10711500Y-10561000D01*
X10711500Y-10648000D02*
X10751500Y-10688000D01*
X10751500Y-10648000D02*
X10711500Y-10688000D01*
X10806500Y-11600500D02*
X10846500Y-11640500D01*
X10846500Y-11600500D02*
X10806500Y-11640500D01*
X11029000Y-8362000D02*
X11069000Y-8402000D01*
X11069000Y-8362000D02*
X11029000Y-8402000D01*
X11029000Y-10394000D02*
X11069000Y-10434000D01*
X11069000Y-10394000D02*
X11029000Y-10434000D01*
X11092500Y-8171500D02*
X11132500Y-8211500D01*
X11132500Y-8171500D02*
X11092500Y-8211500D01*
X11092500Y-12489500D02*
X11132500Y-12529500D01*
X11132500Y-12489500D02*
X11092500Y-12529500D01*
X11156000Y-11092500D02*
X11196000Y-11132500D01*
X11196000Y-11092500D02*
X11156000Y-11132500D01*
X11156000Y-11727500D02*
X11196000Y-11767500D01*
X11196000Y-11727500D02*
X11156000Y-11767500D01*
X11156000Y-11981500D02*
X11196000Y-12021500D01*
X11196000Y-11981500D02*
X11156000Y-12021500D01*
X11168269Y-12667731D02*
X11208269Y-12707731D01*
X11208269Y-12667731D02*
X11168269Y-12707731D01*
X11283000Y-10965500D02*
X11323000Y-11005500D01*
X11323000Y-10965500D02*
X11283000Y-11005500D01*
X11283000Y-11219500D02*
X11323000Y-11259500D01*
X11323000Y-11219500D02*
X11283000Y-11259500D01*
X11346500Y-7600000D02*
X11386500Y-7640000D01*
X11386500Y-7600000D02*
X11346500Y-7640000D01*
X11410000Y-11092500D02*
X11450000Y-11132500D01*
X11450000Y-11092500D02*
X11410000Y-11132500D01*
X11410000Y-11791000D02*
X11450000Y-11831000D01*
X11450000Y-11791000D02*
X11410000Y-11831000D01*
X11537000Y-9124000D02*
X11577000Y-9164000D01*
X11577000Y-9124000D02*
X11537000Y-9164000D01*
X11664000Y-10457500D02*
X11704000Y-10497500D01*
X11704000Y-10457500D02*
X11664000Y-10497500D01*
X11727500Y-7536500D02*
X11767500Y-7576500D01*
X11767500Y-7536500D02*
X11727500Y-7576500D01*
X11727500Y-12680000D02*
X11767500Y-12720000D01*
X11767500Y-12680000D02*
X11727500Y-12720000D01*
X11854500Y-6965000D02*
X11894500Y-7005000D01*
X11894500Y-6965000D02*
X11854500Y-7005000D01*
X11854500Y-9886000D02*
X11894500Y-9926000D01*
X11894500Y-9886000D02*
X11854500Y-9926000D01*
X11854500Y-12362500D02*
X11894500Y-12402500D01*
X11894500Y-12362500D02*
X11854500Y-12402500D01*
X11918000Y-11664000D02*
X11958000Y-11704000D01*
X11958000Y-11664000D02*
X11918000Y-11704000D01*
X11981500Y-7028500D02*
X12021500Y-7068500D01*
X12021500Y-7028500D02*
X11981500Y-7068500D01*
X12045000Y-12146600D02*
X12085000Y-12186600D01*
X12085000Y-12146600D02*
X12045000Y-12186600D01*
X12108500Y-9822500D02*
X12148500Y-9862500D01*
X12148500Y-9822500D02*
X12108500Y-9862500D01*
X12108500Y-12362500D02*
X12148500Y-12402500D01*
X12148500Y-12362500D02*
X12108500Y-12402500D01*
X12172000Y-10140000D02*
X12212000Y-10180000D01*
X12212000Y-10140000D02*
X12172000Y-10180000D01*
X12222800Y-12273600D02*
X12262800Y-12313600D01*
X12262800Y-12273600D02*
X12222800Y-12313600D01*
X12362500Y-10330500D02*
X12402500Y-10370500D01*
X12402500Y-10330500D02*
X12362500Y-10370500D01*
X12489500Y-7663500D02*
X12529500Y-7703500D01*
X12529500Y-7663500D02*
X12489500Y-7703500D01*
X12489500Y-9187500D02*
X12529500Y-9227500D01*
X12529500Y-9187500D02*
X12489500Y-9227500D01*
X12489500Y-9568500D02*
X12529500Y-9608500D01*
X12529500Y-9568500D02*
X12489500Y-9608500D01*
X12489500Y-10838500D02*
X12529500Y-10878500D01*
X12529500Y-10838500D02*
X12489500Y-10878500D01*
X12870500Y-6012500D02*
X12910500Y-6052500D01*
X12910500Y-6012500D02*
X12870500Y-6052500D01*
X12870500Y-6647500D02*
X12910500Y-6687500D01*
X12910500Y-6647500D02*
X12870500Y-6687500D01*
X12934000Y-6774500D02*
X12974000Y-6814500D01*
X12974000Y-6774500D02*
X12934000Y-6814500D01*
X12934000Y-6901500D02*
X12974000Y-6941500D01*
X12974000Y-6901500D02*
X12934000Y-6941500D01*
X12959400Y-6126800D02*
X12999400Y-6166800D01*
X12999400Y-6126800D02*
X12959400Y-6166800D01*
X12997500Y-9060500D02*
X13037500Y-9100500D01*
X13037500Y-9060500D02*
X12997500Y-9100500D01*
X13251500Y-11854500D02*
X13291500Y-11894500D01*
X13291500Y-11854500D02*
X13251500Y-11894500D01*
X13378500Y-11283000D02*
X13418500Y-11323000D01*
X13418500Y-11283000D02*
X13378500Y-11323000D01*
X13505500Y-11283000D02*
X13545500Y-11323000D01*
X13545500Y-11283000D02*
X13505500Y-11323000D01*
X13645200Y-6126800D02*
X13685200Y-6166800D01*
X13685200Y-6126800D02*
X13645200Y-6166800D01*
X13759500Y-6012500D02*
X13799500Y-6052500D01*
X13799500Y-6012500D02*
X13759500Y-6052500D01*
X13759500Y-6647500D02*
X13799500Y-6687500D01*
X13799500Y-6647500D02*
X13759500Y-6687500D01*
D13*
X10654500Y-12700000D02*
G75*
G03*
X10654500Y-12700000I-50000J0D01*
G01*
X10654500Y-12954000D02*
G75*
G03*
X10654500Y-12954000I-50000J0D01*
G01*
X10654500Y-13208000D02*
G75*
G03*
X10654500Y-13208000I-50000J0D01*
G01*
X10654500Y-13462000D02*
G75*
G03*
X10654500Y-13462000I-50000J0D01*
G01*
X13448000Y-7684000D02*
G75*
G03*
X13448000Y-7684000I-50000J0D01*
G01*
X13448000Y-7938000D02*
G75*
G03*
X13448000Y-7938000I-50000J0D01*
G01*
X13702000Y-7684000D02*
G75*
G03*
X13702000Y-7684000I-50000J0D01*
G01*
X13702000Y-7938000D02*
G75*
G03*
X13702000Y-7938000I-50000J0D01*
G01*
X13956000Y-7684000D02*
G75*
G03*
X13956000Y-7684000I-50000J0D01*
G01*
X13956000Y-7938000D02*
G75*
G03*
X13956000Y-7938000I-50000J0D01*
G01*
X14083500Y-10860000D02*
G75*
G03*
X14083500Y-10860000I-50000J0D01*
G01*
X14083500Y-11114000D02*
G75*
G03*
X14083500Y-11114000I-50000J0D01*
G01*
X14083500Y-11368000D02*
G75*
G03*
X14083500Y-11368000I-50000J0D01*
G01*
X14210000Y-7684000D02*
G75*
G03*
X14210000Y-7684000I-50000J0D01*
G01*
X14210000Y-7938000D02*
G75*
G03*
X14210000Y-7938000I-50000J0D01*
G01*
D14*
X10378000Y-5971000D02*
X10378000Y-6221000D01*
X10253000Y-6096000D02*
X10503000Y-6096000D01*
X10396000Y-6733000D02*
X10396000Y-6983000D01*
X10271000Y-6858000D02*
X10521000Y-6858000D01*
X11158000Y-5971000D02*
X11158000Y-6221000D01*
X11033000Y-6096000D02*
X11283000Y-6096000D01*
X11176000Y-6733000D02*
X11176000Y-6983000D01*
X11051000Y-6858000D02*
X11301000Y-6858000D01*
D11*
X9587119Y-14602976D02*
X9587119Y-14402976D01*
X9634738Y-14402976D01*
X9663310Y-14412500D01*
X9682357Y-14431548D01*
X9691881Y-14450595D01*
X9701405Y-14488690D01*
X9701405Y-14517262D01*
X9691881Y-14555357D01*
X9682357Y-14574405D01*
X9663310Y-14593452D01*
X9634738Y-14602976D01*
X9587119Y-14602976D01*
X9787119Y-14602976D02*
X9787119Y-14469643D01*
X9787119Y-14507738D02*
X9796643Y-14488690D01*
X9806167Y-14479167D01*
X9825214Y-14469643D01*
X9844262Y-14469643D01*
X9910929Y-14602976D02*
X9910929Y-14469643D01*
X9910929Y-14402976D02*
X9901405Y-14412500D01*
X9910929Y-14422024D01*
X9920452Y-14412500D01*
X9910929Y-14402976D01*
X9910929Y-14422024D01*
X10034738Y-14602976D02*
X10015690Y-14593452D01*
X10006167Y-14574405D01*
X10006167Y-14402976D01*
X10139500Y-14602976D02*
X10120452Y-14593452D01*
X10110929Y-14574405D01*
X10110929Y-14402976D01*
X10368071Y-14602976D02*
X10368071Y-14402976D01*
X10434738Y-14545833D01*
X10501405Y-14402976D01*
X10501405Y-14602976D01*
X10682357Y-14602976D02*
X10682357Y-14498214D01*
X10672833Y-14479167D01*
X10653786Y-14469643D01*
X10615690Y-14469643D01*
X10596643Y-14479167D01*
X10682357Y-14593452D02*
X10663310Y-14602976D01*
X10615690Y-14602976D01*
X10596643Y-14593452D01*
X10587119Y-14574405D01*
X10587119Y-14555357D01*
X10596643Y-14536309D01*
X10615690Y-14526786D01*
X10663310Y-14526786D01*
X10682357Y-14517262D01*
X10777595Y-14469643D02*
X10777595Y-14669643D01*
X10777595Y-14479167D02*
X10796643Y-14469643D01*
X10834738Y-14469643D01*
X10853786Y-14479167D01*
X10863310Y-14488690D01*
X10872833Y-14507738D01*
X10872833Y-14564881D01*
X10863310Y-14583928D01*
X10853786Y-14593452D01*
X10834738Y-14602976D01*
X10796643Y-14602976D01*
X10777595Y-14593452D01*
X10958548Y-14583928D02*
X10968071Y-14593452D01*
X10958548Y-14602976D01*
X10949024Y-14593452D01*
X10958548Y-14583928D01*
X10958548Y-14602976D01*
X10958548Y-14479167D02*
X10968071Y-14488690D01*
X10958548Y-14498214D01*
X10949024Y-14488690D01*
X10958548Y-14479167D01*
X10958548Y-14498214D01*
D12*
X9289500Y-14912500D02*
X9329500Y-14952500D01*
X9329500Y-14912500D02*
X9289500Y-14952500D01*
D11*
X9625214Y-14822976D02*
X9644262Y-14822976D01*
X9663310Y-14832500D01*
X9672833Y-14842024D01*
X9682357Y-14861071D01*
X9691881Y-14899167D01*
X9691881Y-14946786D01*
X9682357Y-14984881D01*
X9672833Y-15003928D01*
X9663310Y-15013452D01*
X9644262Y-15022976D01*
X9625214Y-15022976D01*
X9606167Y-15013452D01*
X9596643Y-15003928D01*
X9587119Y-14984881D01*
X9577595Y-14946786D01*
X9577595Y-14899167D01*
X9587119Y-14861071D01*
X9596643Y-14842024D01*
X9606167Y-14832500D01*
X9625214Y-14822976D01*
X9777595Y-15003928D02*
X9787119Y-15013452D01*
X9777595Y-15022976D01*
X9768071Y-15013452D01*
X9777595Y-15003928D01*
X9777595Y-15022976D01*
X9958548Y-14889643D02*
X9958548Y-15022976D01*
X9910929Y-14813452D02*
X9863310Y-14956309D01*
X9987119Y-14956309D01*
X10101405Y-14822976D02*
X10120452Y-14822976D01*
X10139500Y-14832500D01*
X10149024Y-14842024D01*
X10158548Y-14861071D01*
X10168071Y-14899167D01*
X10168071Y-14946786D01*
X10158548Y-14984881D01*
X10149024Y-15003928D01*
X10139500Y-15013452D01*
X10120452Y-15022976D01*
X10101405Y-15022976D01*
X10082357Y-15013452D01*
X10072833Y-15003928D01*
X10063310Y-14984881D01*
X10053786Y-14946786D01*
X10053786Y-14899167D01*
X10063310Y-14861071D01*
X10072833Y-14842024D01*
X10082357Y-14832500D01*
X10101405Y-14822976D01*
X10291881Y-14822976D02*
X10310929Y-14822976D01*
X10329976Y-14832500D01*
X10339500Y-14842024D01*
X10349024Y-14861071D01*
X10358548Y-14899167D01*
X10358548Y-14946786D01*
X10349024Y-14984881D01*
X10339500Y-15003928D01*
X10329976Y-15013452D01*
X10310929Y-15022976D01*
X10291881Y-15022976D01*
X10272833Y-15013452D01*
X10263310Y-15003928D01*
X10253786Y-14984881D01*
X10244262Y-14946786D01*
X10244262Y-14899167D01*
X10253786Y-14861071D01*
X10263310Y-14842024D01*
X10272833Y-14832500D01*
X10291881Y-14822976D01*
X10444262Y-15022976D02*
X10444262Y-14889643D01*
X10444262Y-14908690D02*
X10453786Y-14899167D01*
X10472833Y-14889643D01*
X10501405Y-14889643D01*
X10520452Y-14899167D01*
X10529976Y-14918214D01*
X10529976Y-15022976D01*
X10529976Y-14918214D02*
X10539500Y-14899167D01*
X10558548Y-14889643D01*
X10587119Y-14889643D01*
X10606167Y-14899167D01*
X10615690Y-14918214D01*
X10615690Y-15022976D01*
X10710929Y-15022976D02*
X10710929Y-14889643D01*
X10710929Y-14908690D02*
X10720452Y-14899167D01*
X10739500Y-14889643D01*
X10768071Y-14889643D01*
X10787119Y-14899167D01*
X10796643Y-14918214D01*
X10796643Y-15022976D01*
X10796643Y-14918214D02*
X10806167Y-14899167D01*
X10825214Y-14889643D01*
X10853786Y-14889643D01*
X10872833Y-14899167D01*
X10882357Y-14918214D01*
X10882357Y-15022976D01*
X11272833Y-14813452D02*
X11101405Y-15070595D01*
X11529976Y-14822976D02*
X11549024Y-14822976D01*
X11568071Y-14832500D01*
X11577595Y-14842024D01*
X11587119Y-14861071D01*
X11596643Y-14899167D01*
X11596643Y-14946786D01*
X11587119Y-14984881D01*
X11577595Y-15003928D01*
X11568071Y-15013452D01*
X11549024Y-15022976D01*
X11529976Y-15022976D01*
X11510928Y-15013452D01*
X11501405Y-15003928D01*
X11491881Y-14984881D01*
X11482357Y-14946786D01*
X11482357Y-14899167D01*
X11491881Y-14861071D01*
X11501405Y-14842024D01*
X11510928Y-14832500D01*
X11529976Y-14822976D01*
X11682357Y-15003928D02*
X11691881Y-15013452D01*
X11682357Y-15022976D01*
X11672833Y-15013452D01*
X11682357Y-15003928D01*
X11682357Y-15022976D01*
X11815690Y-14822976D02*
X11834738Y-14822976D01*
X11853786Y-14832500D01*
X11863309Y-14842024D01*
X11872833Y-14861071D01*
X11882357Y-14899167D01*
X11882357Y-14946786D01*
X11872833Y-14984881D01*
X11863309Y-15003928D01*
X11853786Y-15013452D01*
X11834738Y-15022976D01*
X11815690Y-15022976D01*
X11796643Y-15013452D01*
X11787119Y-15003928D01*
X11777595Y-14984881D01*
X11768071Y-14946786D01*
X11768071Y-14899167D01*
X11777595Y-14861071D01*
X11787119Y-14842024D01*
X11796643Y-14832500D01*
X11815690Y-14822976D01*
X12072833Y-15022976D02*
X11958548Y-15022976D01*
X12015690Y-15022976D02*
X12015690Y-14822976D01*
X11996643Y-14851548D01*
X11977595Y-14870595D01*
X11958548Y-14880119D01*
X12253786Y-14822976D02*
X12158548Y-14822976D01*
X12149024Y-14918214D01*
X12158548Y-14908690D01*
X12177595Y-14899167D01*
X12225214Y-14899167D01*
X12244262Y-14908690D01*
X12253786Y-14918214D01*
X12263309Y-14937262D01*
X12263309Y-14984881D01*
X12253786Y-15003928D01*
X12244262Y-15013452D01*
X12225214Y-15022976D01*
X12177595Y-15022976D01*
X12158548Y-15013452D01*
X12149024Y-15003928D01*
X12329976Y-14822976D02*
X12463309Y-14822976D01*
X12377595Y-15022976D01*
X12529976Y-14822976D02*
X12529976Y-14861071D01*
X12606167Y-14822976D02*
X12606167Y-14861071D01*
X12901405Y-15099167D02*
X12891881Y-15089643D01*
X12872833Y-15061071D01*
X12863309Y-15042024D01*
X12853786Y-15013452D01*
X12844262Y-14965833D01*
X12844262Y-14927738D01*
X12853786Y-14880119D01*
X12863309Y-14851548D01*
X12872833Y-14832500D01*
X12891881Y-14803928D01*
X12901405Y-14794405D01*
X13072833Y-14822976D02*
X12977595Y-14822976D01*
X12968071Y-14918214D01*
X12977595Y-14908690D01*
X12996643Y-14899167D01*
X13044262Y-14899167D01*
X13063309Y-14908690D01*
X13072833Y-14918214D01*
X13082357Y-14937262D01*
X13082357Y-14984881D01*
X13072833Y-15003928D01*
X13063309Y-15013452D01*
X13044262Y-15022976D01*
X12996643Y-15022976D01*
X12977595Y-15013452D01*
X12968071Y-15003928D01*
X13253786Y-14889643D02*
X13253786Y-15022976D01*
X13206167Y-14813452D02*
X13158548Y-14956309D01*
X13282357Y-14956309D01*
X13510928Y-15022976D02*
X13510928Y-14822976D01*
X13596643Y-15022976D02*
X13596643Y-14918214D01*
X13587119Y-14899167D01*
X13568071Y-14889643D01*
X13539500Y-14889643D01*
X13520452Y-14899167D01*
X13510928Y-14908690D01*
X13720452Y-15022976D02*
X13701405Y-15013452D01*
X13691881Y-15003928D01*
X13682357Y-14984881D01*
X13682357Y-14927738D01*
X13691881Y-14908690D01*
X13701405Y-14899167D01*
X13720452Y-14889643D01*
X13749024Y-14889643D01*
X13768071Y-14899167D01*
X13777595Y-14908690D01*
X13787119Y-14927738D01*
X13787119Y-14984881D01*
X13777595Y-15003928D01*
X13768071Y-15013452D01*
X13749024Y-15022976D01*
X13720452Y-15022976D01*
X13901405Y-15022976D02*
X13882357Y-15013452D01*
X13872833Y-14994405D01*
X13872833Y-14822976D01*
X14053786Y-15013452D02*
X14034738Y-15022976D01*
X13996643Y-15022976D01*
X13977595Y-15013452D01*
X13968071Y-14994405D01*
X13968071Y-14918214D01*
X13977595Y-14899167D01*
X13996643Y-14889643D01*
X14034738Y-14889643D01*
X14053786Y-14899167D01*
X14063309Y-14918214D01*
X14063309Y-14937262D01*
X13968071Y-14956309D01*
X14139500Y-15013452D02*
X14158548Y-15022976D01*
X14196643Y-15022976D01*
X14215690Y-15013452D01*
X14225214Y-14994405D01*
X14225214Y-14984881D01*
X14215690Y-14965833D01*
X14196643Y-14956309D01*
X14168071Y-14956309D01*
X14149024Y-14946786D01*
X14139500Y-14927738D01*
X14139500Y-14918214D01*
X14149024Y-14899167D01*
X14168071Y-14889643D01*
X14196643Y-14889643D01*
X14215690Y-14899167D01*
X14291881Y-15099167D02*
X14301405Y-15089643D01*
X14320452Y-15061071D01*
X14329976Y-15042024D01*
X14339500Y-15013452D01*
X14349024Y-14965833D01*
X14349024Y-14927738D01*
X14339500Y-14880119D01*
X14329976Y-14851548D01*
X14320452Y-14832500D01*
X14301405Y-14803928D01*
X14291881Y-14794405D01*
D13*
X9329500Y-15196500D02*
G75*
G03*
X9329500Y-15196500I-50000J0D01*
G01*
D11*
X9691881Y-15286976D02*
X9577595Y-15286976D01*
X9634738Y-15286976D02*
X9634738Y-15086976D01*
X9615690Y-15115548D01*
X9596643Y-15134595D01*
X9577595Y-15144119D01*
X9777595Y-15267928D02*
X9787119Y-15277452D01*
X9777595Y-15286976D01*
X9768071Y-15277452D01*
X9777595Y-15267928D01*
X9777595Y-15286976D01*
X9910929Y-15086976D02*
X9929976Y-15086976D01*
X9949024Y-15096500D01*
X9958548Y-15106024D01*
X9968071Y-15125071D01*
X9977595Y-15163167D01*
X9977595Y-15210786D01*
X9968071Y-15248881D01*
X9958548Y-15267928D01*
X9949024Y-15277452D01*
X9929976Y-15286976D01*
X9910929Y-15286976D01*
X9891881Y-15277452D01*
X9882357Y-15267928D01*
X9872833Y-15248881D01*
X9863310Y-15210786D01*
X9863310Y-15163167D01*
X9872833Y-15125071D01*
X9882357Y-15106024D01*
X9891881Y-15096500D01*
X9910929Y-15086976D01*
X10101405Y-15086976D02*
X10120452Y-15086976D01*
X10139500Y-15096500D01*
X10149024Y-15106024D01*
X10158548Y-15125071D01*
X10168071Y-15163167D01*
X10168071Y-15210786D01*
X10158548Y-15248881D01*
X10149024Y-15267928D01*
X10139500Y-15277452D01*
X10120452Y-15286976D01*
X10101405Y-15286976D01*
X10082357Y-15277452D01*
X10072833Y-15267928D01*
X10063310Y-15248881D01*
X10053786Y-15210786D01*
X10053786Y-15163167D01*
X10063310Y-15125071D01*
X10072833Y-15106024D01*
X10082357Y-15096500D01*
X10101405Y-15086976D01*
X10291881Y-15086976D02*
X10310929Y-15086976D01*
X10329976Y-15096500D01*
X10339500Y-15106024D01*
X10349024Y-15125071D01*
X10358548Y-15163167D01*
X10358548Y-15210786D01*
X10349024Y-15248881D01*
X10339500Y-15267928D01*
X10329976Y-15277452D01*
X10310929Y-15286976D01*
X10291881Y-15286976D01*
X10272833Y-15277452D01*
X10263310Y-15267928D01*
X10253786Y-15248881D01*
X10244262Y-15210786D01*
X10244262Y-15163167D01*
X10253786Y-15125071D01*
X10263310Y-15106024D01*
X10272833Y-15096500D01*
X10291881Y-15086976D01*
X10444262Y-15286976D02*
X10444262Y-15153643D01*
X10444262Y-15172690D02*
X10453786Y-15163167D01*
X10472833Y-15153643D01*
X10501405Y-15153643D01*
X10520452Y-15163167D01*
X10529976Y-15182214D01*
X10529976Y-15286976D01*
X10529976Y-15182214D02*
X10539500Y-15163167D01*
X10558548Y-15153643D01*
X10587119Y-15153643D01*
X10606167Y-15163167D01*
X10615690Y-15182214D01*
X10615690Y-15286976D01*
X10710929Y-15286976D02*
X10710929Y-15153643D01*
X10710929Y-15172690D02*
X10720452Y-15163167D01*
X10739500Y-15153643D01*
X10768071Y-15153643D01*
X10787119Y-15163167D01*
X10796643Y-15182214D01*
X10796643Y-15286976D01*
X10796643Y-15182214D02*
X10806167Y-15163167D01*
X10825214Y-15153643D01*
X10853786Y-15153643D01*
X10872833Y-15163167D01*
X10882357Y-15182214D01*
X10882357Y-15286976D01*
X11272833Y-15077452D02*
X11101405Y-15334595D01*
X11529976Y-15086976D02*
X11549024Y-15086976D01*
X11568071Y-15096500D01*
X11577595Y-15106024D01*
X11587119Y-15125071D01*
X11596643Y-15163167D01*
X11596643Y-15210786D01*
X11587119Y-15248881D01*
X11577595Y-15267928D01*
X11568071Y-15277452D01*
X11549024Y-15286976D01*
X11529976Y-15286976D01*
X11510928Y-15277452D01*
X11501405Y-15267928D01*
X11491881Y-15248881D01*
X11482357Y-15210786D01*
X11482357Y-15163167D01*
X11491881Y-15125071D01*
X11501405Y-15106024D01*
X11510928Y-15096500D01*
X11529976Y-15086976D01*
X11682357Y-15267928D02*
X11691881Y-15277452D01*
X11682357Y-15286976D01*
X11672833Y-15277452D01*
X11682357Y-15267928D01*
X11682357Y-15286976D01*
X11815690Y-15086976D02*
X11834738Y-15086976D01*
X11853786Y-15096500D01*
X11863309Y-15106024D01*
X11872833Y-15125071D01*
X11882357Y-15163167D01*
X11882357Y-15210786D01*
X11872833Y-15248881D01*
X11863309Y-15267928D01*
X11853786Y-15277452D01*
X11834738Y-15286976D01*
X11815690Y-15286976D01*
X11796643Y-15277452D01*
X11787119Y-15267928D01*
X11777595Y-15248881D01*
X11768071Y-15210786D01*
X11768071Y-15163167D01*
X11777595Y-15125071D01*
X11787119Y-15106024D01*
X11796643Y-15096500D01*
X11815690Y-15086976D01*
X11949024Y-15086976D02*
X12072833Y-15086976D01*
X12006167Y-15163167D01*
X12034738Y-15163167D01*
X12053786Y-15172690D01*
X12063309Y-15182214D01*
X12072833Y-15201262D01*
X12072833Y-15248881D01*
X12063309Y-15267928D01*
X12053786Y-15277452D01*
X12034738Y-15286976D01*
X11977595Y-15286976D01*
X11958548Y-15277452D01*
X11949024Y-15267928D01*
X12168071Y-15286976D02*
X12206167Y-15286976D01*
X12225214Y-15277452D01*
X12234738Y-15267928D01*
X12253786Y-15239357D01*
X12263309Y-15201262D01*
X12263309Y-15125071D01*
X12253786Y-15106024D01*
X12244262Y-15096500D01*
X12225214Y-15086976D01*
X12187119Y-15086976D01*
X12168071Y-15096500D01*
X12158548Y-15106024D01*
X12149024Y-15125071D01*
X12149024Y-15172690D01*
X12158548Y-15191738D01*
X12168071Y-15201262D01*
X12187119Y-15210786D01*
X12225214Y-15210786D01*
X12244262Y-15201262D01*
X12253786Y-15191738D01*
X12263309Y-15172690D01*
X12434738Y-15153643D02*
X12434738Y-15286976D01*
X12387119Y-15077452D02*
X12339500Y-15220309D01*
X12463309Y-15220309D01*
X12529976Y-15086976D02*
X12529976Y-15125071D01*
X12606167Y-15086976D02*
X12606167Y-15125071D01*
X12901405Y-15363167D02*
X12891881Y-15353643D01*
X12872833Y-15325071D01*
X12863309Y-15306024D01*
X12853786Y-15277452D01*
X12844262Y-15229833D01*
X12844262Y-15191738D01*
X12853786Y-15144119D01*
X12863309Y-15115548D01*
X12872833Y-15096500D01*
X12891881Y-15067928D01*
X12901405Y-15058405D01*
X13082357Y-15286976D02*
X12968071Y-15286976D01*
X13025214Y-15286976D02*
X13025214Y-15086976D01*
X13006167Y-15115548D01*
X12987119Y-15134595D01*
X12968071Y-15144119D01*
X13263309Y-15086976D02*
X13168071Y-15086976D01*
X13158548Y-15182214D01*
X13168071Y-15172690D01*
X13187119Y-15163167D01*
X13234738Y-15163167D01*
X13253786Y-15172690D01*
X13263309Y-15182214D01*
X13272833Y-15201262D01*
X13272833Y-15248881D01*
X13263309Y-15267928D01*
X13253786Y-15277452D01*
X13234738Y-15286976D01*
X13187119Y-15286976D01*
X13168071Y-15277452D01*
X13158548Y-15267928D01*
X13510928Y-15286976D02*
X13510928Y-15086976D01*
X13596643Y-15286976D02*
X13596643Y-15182214D01*
X13587119Y-15163167D01*
X13568071Y-15153643D01*
X13539500Y-15153643D01*
X13520452Y-15163167D01*
X13510928Y-15172690D01*
X13720452Y-15286976D02*
X13701405Y-15277452D01*
X13691881Y-15267928D01*
X13682357Y-15248881D01*
X13682357Y-15191738D01*
X13691881Y-15172690D01*
X13701405Y-15163167D01*
X13720452Y-15153643D01*
X13749024Y-15153643D01*
X13768071Y-15163167D01*
X13777595Y-15172690D01*
X13787119Y-15191738D01*
X13787119Y-15248881D01*
X13777595Y-15267928D01*
X13768071Y-15277452D01*
X13749024Y-15286976D01*
X13720452Y-15286976D01*
X13901405Y-15286976D02*
X13882357Y-15277452D01*
X13872833Y-15258405D01*
X13872833Y-15086976D01*
X14053786Y-15277452D02*
X14034738Y-15286976D01*
X13996643Y-15286976D01*
X13977595Y-15277452D01*
X13968071Y-15258405D01*
X13968071Y-15182214D01*
X13977595Y-15163167D01*
X13996643Y-15153643D01*
X14034738Y-15153643D01*
X14053786Y-15163167D01*
X14063309Y-15182214D01*
X14063309Y-15201262D01*
X13968071Y-15220309D01*
X14139500Y-15277452D02*
X14158548Y-15286976D01*
X14196643Y-15286976D01*
X14215690Y-15277452D01*
X14225214Y-15258405D01*
X14225214Y-15248881D01*
X14215690Y-15229833D01*
X14196643Y-15220309D01*
X14168071Y-15220309D01*
X14149024Y-15210786D01*
X14139500Y-15191738D01*
X14139500Y-15182214D01*
X14149024Y-15163167D01*
X14168071Y-15153643D01*
X14196643Y-15153643D01*
X14215690Y-15163167D01*
X14291881Y-15363167D02*
X14301405Y-15353643D01*
X14320452Y-15325071D01*
X14329976Y-15306024D01*
X14339500Y-15277452D01*
X14349024Y-15229833D01*
X14349024Y-15191738D01*
X14339500Y-15144119D01*
X14329976Y-15115548D01*
X14320452Y-15096500D01*
X14301405Y-15067928D01*
X14291881Y-15058405D01*
X9229500Y-15360500D02*
X9229500Y-15560500D01*
X9129500Y-15460500D02*
X9329500Y-15460500D01*
X9577595Y-15370024D02*
X9587119Y-15360500D01*
X9606167Y-15350976D01*
X9653786Y-15350976D01*
X9672833Y-15360500D01*
X9682357Y-15370024D01*
X9691881Y-15389071D01*
X9691881Y-15408119D01*
X9682357Y-15436690D01*
X9568071Y-15550976D01*
X9691881Y-15550976D01*
X9777595Y-15531928D02*
X9787119Y-15541452D01*
X9777595Y-15550976D01*
X9768071Y-15541452D01*
X9777595Y-15531928D01*
X9777595Y-15550976D01*
X9968071Y-15350976D02*
X9872833Y-15350976D01*
X9863310Y-15446214D01*
X9872833Y-15436690D01*
X9891881Y-15427167D01*
X9939500Y-15427167D01*
X9958548Y-15436690D01*
X9968071Y-15446214D01*
X9977595Y-15465262D01*
X9977595Y-15512881D01*
X9968071Y-15531928D01*
X9958548Y-15541452D01*
X9939500Y-15550976D01*
X9891881Y-15550976D01*
X9872833Y-15541452D01*
X9863310Y-15531928D01*
X10101405Y-15350976D02*
X10120452Y-15350976D01*
X10139500Y-15360500D01*
X10149024Y-15370024D01*
X10158548Y-15389071D01*
X10168071Y-15427167D01*
X10168071Y-15474786D01*
X10158548Y-15512881D01*
X10149024Y-15531928D01*
X10139500Y-15541452D01*
X10120452Y-15550976D01*
X10101405Y-15550976D01*
X10082357Y-15541452D01*
X10072833Y-15531928D01*
X10063310Y-15512881D01*
X10053786Y-15474786D01*
X10053786Y-15427167D01*
X10063310Y-15389071D01*
X10072833Y-15370024D01*
X10082357Y-15360500D01*
X10101405Y-15350976D01*
X10291881Y-15350976D02*
X10310929Y-15350976D01*
X10329976Y-15360500D01*
X10339500Y-15370024D01*
X10349024Y-15389071D01*
X10358548Y-15427167D01*
X10358548Y-15474786D01*
X10349024Y-15512881D01*
X10339500Y-15531928D01*
X10329976Y-15541452D01*
X10310929Y-15550976D01*
X10291881Y-15550976D01*
X10272833Y-15541452D01*
X10263310Y-15531928D01*
X10253786Y-15512881D01*
X10244262Y-15474786D01*
X10244262Y-15427167D01*
X10253786Y-15389071D01*
X10263310Y-15370024D01*
X10272833Y-15360500D01*
X10291881Y-15350976D01*
X10444262Y-15550976D02*
X10444262Y-15417643D01*
X10444262Y-15436690D02*
X10453786Y-15427167D01*
X10472833Y-15417643D01*
X10501405Y-15417643D01*
X10520452Y-15427167D01*
X10529976Y-15446214D01*
X10529976Y-15550976D01*
X10529976Y-15446214D02*
X10539500Y-15427167D01*
X10558548Y-15417643D01*
X10587119Y-15417643D01*
X10606167Y-15427167D01*
X10615690Y-15446214D01*
X10615690Y-15550976D01*
X10710929Y-15550976D02*
X10710929Y-15417643D01*
X10710929Y-15436690D02*
X10720452Y-15427167D01*
X10739500Y-15417643D01*
X10768071Y-15417643D01*
X10787119Y-15427167D01*
X10796643Y-15446214D01*
X10796643Y-15550976D01*
X10796643Y-15446214D02*
X10806167Y-15427167D01*
X10825214Y-15417643D01*
X10853786Y-15417643D01*
X10872833Y-15427167D01*
X10882357Y-15446214D01*
X10882357Y-15550976D01*
X11272833Y-15341452D02*
X11101405Y-15598595D01*
X11529976Y-15350976D02*
X11549024Y-15350976D01*
X11568071Y-15360500D01*
X11577595Y-15370024D01*
X11587119Y-15389071D01*
X11596643Y-15427167D01*
X11596643Y-15474786D01*
X11587119Y-15512881D01*
X11577595Y-15531928D01*
X11568071Y-15541452D01*
X11549024Y-15550976D01*
X11529976Y-15550976D01*
X11510928Y-15541452D01*
X11501405Y-15531928D01*
X11491881Y-15512881D01*
X11482357Y-15474786D01*
X11482357Y-15427167D01*
X11491881Y-15389071D01*
X11501405Y-15370024D01*
X11510928Y-15360500D01*
X11529976Y-15350976D01*
X11682357Y-15531928D02*
X11691881Y-15541452D01*
X11682357Y-15550976D01*
X11672833Y-15541452D01*
X11682357Y-15531928D01*
X11682357Y-15550976D01*
X11815690Y-15350976D02*
X11834738Y-15350976D01*
X11853786Y-15360500D01*
X11863309Y-15370024D01*
X11872833Y-15389071D01*
X11882357Y-15427167D01*
X11882357Y-15474786D01*
X11872833Y-15512881D01*
X11863309Y-15531928D01*
X11853786Y-15541452D01*
X11834738Y-15550976D01*
X11815690Y-15550976D01*
X11796643Y-15541452D01*
X11787119Y-15531928D01*
X11777595Y-15512881D01*
X11768071Y-15474786D01*
X11768071Y-15427167D01*
X11777595Y-15389071D01*
X11787119Y-15370024D01*
X11796643Y-15360500D01*
X11815690Y-15350976D01*
X11977595Y-15550976D02*
X12015690Y-15550976D01*
X12034738Y-15541452D01*
X12044262Y-15531928D01*
X12063309Y-15503357D01*
X12072833Y-15465262D01*
X12072833Y-15389071D01*
X12063309Y-15370024D01*
X12053786Y-15360500D01*
X12034738Y-15350976D01*
X11996643Y-15350976D01*
X11977595Y-15360500D01*
X11968071Y-15370024D01*
X11958548Y-15389071D01*
X11958548Y-15436690D01*
X11968071Y-15455738D01*
X11977595Y-15465262D01*
X11996643Y-15474786D01*
X12034738Y-15474786D01*
X12053786Y-15465262D01*
X12063309Y-15455738D01*
X12072833Y-15436690D01*
X12187119Y-15436690D02*
X12168071Y-15427167D01*
X12158548Y-15417643D01*
X12149024Y-15398595D01*
X12149024Y-15389071D01*
X12158548Y-15370024D01*
X12168071Y-15360500D01*
X12187119Y-15350976D01*
X12225214Y-15350976D01*
X12244262Y-15360500D01*
X12253786Y-15370024D01*
X12263309Y-15389071D01*
X12263309Y-15398595D01*
X12253786Y-15417643D01*
X12244262Y-15427167D01*
X12225214Y-15436690D01*
X12187119Y-15436690D01*
X12168071Y-15446214D01*
X12158548Y-15455738D01*
X12149024Y-15474786D01*
X12149024Y-15512881D01*
X12158548Y-15531928D01*
X12168071Y-15541452D01*
X12187119Y-15550976D01*
X12225214Y-15550976D01*
X12244262Y-15541452D01*
X12253786Y-15531928D01*
X12263309Y-15512881D01*
X12263309Y-15474786D01*
X12253786Y-15455738D01*
X12244262Y-15446214D01*
X12225214Y-15436690D01*
X12434738Y-15417643D02*
X12434738Y-15550976D01*
X12387119Y-15341452D02*
X12339500Y-15484309D01*
X12463309Y-15484309D01*
X12529976Y-15350976D02*
X12529976Y-15389071D01*
X12606167Y-15350976D02*
X12606167Y-15389071D01*
X12901405Y-15627167D02*
X12891881Y-15617643D01*
X12872833Y-15589071D01*
X12863309Y-15570024D01*
X12853786Y-15541452D01*
X12844262Y-15493833D01*
X12844262Y-15455738D01*
X12853786Y-15408119D01*
X12863309Y-15379548D01*
X12872833Y-15360500D01*
X12891881Y-15331928D01*
X12901405Y-15322405D01*
X13063309Y-15417643D02*
X13063309Y-15550976D01*
X13015690Y-15341452D02*
X12968071Y-15484309D01*
X13091881Y-15484309D01*
X13320452Y-15550976D02*
X13320452Y-15350976D01*
X13406167Y-15550976D02*
X13406167Y-15446214D01*
X13396643Y-15427167D01*
X13377595Y-15417643D01*
X13349024Y-15417643D01*
X13329976Y-15427167D01*
X13320452Y-15436690D01*
X13529976Y-15550976D02*
X13510928Y-15541452D01*
X13501405Y-15531928D01*
X13491881Y-15512881D01*
X13491881Y-15455738D01*
X13501405Y-15436690D01*
X13510928Y-15427167D01*
X13529976Y-15417643D01*
X13558548Y-15417643D01*
X13577595Y-15427167D01*
X13587119Y-15436690D01*
X13596643Y-15455738D01*
X13596643Y-15512881D01*
X13587119Y-15531928D01*
X13577595Y-15541452D01*
X13558548Y-15550976D01*
X13529976Y-15550976D01*
X13710928Y-15550976D02*
X13691881Y-15541452D01*
X13682357Y-15522405D01*
X13682357Y-15350976D01*
X13863309Y-15541452D02*
X13844262Y-15550976D01*
X13806167Y-15550976D01*
X13787119Y-15541452D01*
X13777595Y-15522405D01*
X13777595Y-15446214D01*
X13787119Y-15427167D01*
X13806167Y-15417643D01*
X13844262Y-15417643D01*
X13863309Y-15427167D01*
X13872833Y-15446214D01*
X13872833Y-15465262D01*
X13777595Y-15484309D01*
X13949024Y-15541452D02*
X13968071Y-15550976D01*
X14006167Y-15550976D01*
X14025214Y-15541452D01*
X14034738Y-15522405D01*
X14034738Y-15512881D01*
X14025214Y-15493833D01*
X14006167Y-15484309D01*
X13977595Y-15484309D01*
X13958548Y-15474786D01*
X13949024Y-15455738D01*
X13949024Y-15446214D01*
X13958548Y-15427167D01*
X13977595Y-15417643D01*
X14006167Y-15417643D01*
X14025214Y-15427167D01*
X14101405Y-15627167D02*
X14110928Y-15617643D01*
X14129976Y-15589071D01*
X14139500Y-15570024D01*
X14149024Y-15541452D01*
X14158548Y-15493833D01*
X14158548Y-15455738D01*
X14149024Y-15408119D01*
X14139500Y-15379548D01*
X14129976Y-15360500D01*
X14110928Y-15331928D01*
X14101405Y-15322405D01*
M02*
