M48
; DRILL file {KiCad 7.0.2} date Wed Jul 26 12:22:05 2023
; FORMAT={-:-/ absolute / metric / decimal}
; #@! TF.CreationDate,2023-07-26T12:22:05-04:00
; #@! TF.GenerationSoftware,Kicad,Pcbnew,7.0.2
; #@! TF.FileFunction,Plated,1,2,PTH
FMAT,2
METRIC
; #@! TA.AperFunction,Plated,PTH,ViaDrill
T1C0.400
; #@! TA.AperFunction,Plated,PTH,ComponentDrill
T2C1.000
; #@! TA.AperFunction,Plated,PTH,ComponentDrill
T3C2.500
; #@! TA.AperFunction,Plated,PTH,ComponentDrill
T4C3.000
%
G90
G05
T1
X100.965Y-114.935
X102.235Y-104.775
X102.235Y-116.205
X103.505Y-79.375
X104.14Y-110.49
X104.14Y-115.57
X104.775Y-104.775
X105.41Y-80.645
X106.53Y-90.32
X106.68Y-113.665
X107.315Y-105.41
X107.315Y-106.68
X108.265Y-116.205
X109.22Y-88.542
X110.49Y-83.82
X110.49Y-104.14
X111.125Y-81.915
X111.125Y-125.095
X111.76Y-111.125
X111.76Y-117.475
X111.76Y-120.015
X111.883Y-126.877
X113.03Y-109.855
X113.03Y-112.395
X113.665Y-76.2
X114.3Y-111.125
X114.3Y-118.11
X115.57Y-91.44
X116.84Y-103.505
X116.84Y-104.775
X117.475Y-75.565
X117.475Y-127.0
X118.745Y-69.85
X118.745Y-99.06
X118.745Y-100.33
X118.745Y-123.825
X119.38Y-116.84
X120.015Y-70.485
X120.65Y-121.666
X121.285Y-98.425
X121.285Y-123.825
X121.92Y-101.6
X122.428Y-122.936
X122.555Y-107.95
X123.825Y-103.505
X125.095Y-76.835
X125.095Y-92.075
X125.095Y-95.885
X125.095Y-108.585
X127.0Y-121.285
X127.635Y-105.41
X128.905Y-60.325
X128.905Y-66.675
X129.54Y-67.945
X129.54Y-69.215
X129.794Y-61.468
X130.175Y-90.805
X132.715Y-118.745
X133.985Y-108.585
X133.985Y-113.03
X135.255Y-113.03
X136.652Y-61.468
X137.795Y-60.325
X137.795Y-66.675
T2
X106.045Y-127.0
X106.045Y-129.54
X106.045Y-132.08
X106.045Y-134.62
X133.985Y-76.835
X133.985Y-79.375
X136.525Y-76.835
X136.525Y-79.375
X139.065Y-76.835
X139.065Y-79.375
X140.335Y-108.6
X140.335Y-111.14
X140.335Y-113.68
X141.605Y-76.835
X141.605Y-79.375
T3
X103.78Y-60.96
X111.58Y-60.96
T4
X103.96Y-68.58
X111.76Y-68.58
T0
M30
