%TF.GenerationSoftware,KiCad,Pcbnew,7.0.2*%
%TF.CreationDate,2023-07-26T19:57:58-04:00*%
%TF.ProjectId,avc-computer,6176632d-636f-46d7-9075-7465722e6b69,rev?*%
%TF.SameCoordinates,Original*%
%TF.FileFunction,Legend,Bot*%
%TF.FilePolarity,Positive*%
%FSLAX46Y46*%
G04 Gerber Fmt 4.6, Leading zero omitted, Abs format (unit mm)*
G04 Created by KiCad (PCBNEW 7.0.2) date 2023-07-26 19:57:58*
%MOMM*%
%LPD*%
G01*
G04 APERTURE LIST*
G04 Aperture macros list*
%AMRoundRect*
0 Rectangle with rounded corners*
0 $1 Rounding radius*
0 $2 $3 $4 $5 $6 $7 $8 $9 X,Y pos of 4 corners*
0 Add a 4 corners polygon primitive as box body*
4,1,4,$2,$3,$4,$5,$6,$7,$8,$9,$2,$3,0*
0 Add four circle primitives for the rounded corners*
1,1,$1+$1,$2,$3*
1,1,$1+$1,$4,$5*
1,1,$1+$1,$6,$7*
1,1,$1+$1,$8,$9*
0 Add four rect primitives between the rounded corners*
20,1,$1+$1,$2,$3,$4,$5,0*
20,1,$1+$1,$4,$5,$6,$7,0*
20,1,$1+$1,$6,$7,$8,$9,0*
20,1,$1+$1,$8,$9,$2,$3,0*%
G04 Aperture macros list end*
%ADD10R,1.700000X1.700000*%
%ADD11O,1.700000X1.700000*%
%ADD12RoundRect,0.250002X-1.699998X-1.699998X1.699998X-1.699998X1.699998X1.699998X-1.699998X1.699998X0*%
%ADD13C,3.900000*%
%ADD14RoundRect,0.288464X-1.961536X-1.961536X1.961536X-1.961536X1.961536X1.961536X-1.961536X1.961536X0*%
%ADD15C,5.000000*%
G04 APERTURE END LIST*
%TO.C,G\u002A\u002A\u002A*%
G36*
X152633947Y-73325790D02*
G01*
X152132631Y-73325790D01*
X151962636Y-73319829D01*
X151698559Y-73224807D01*
X151631316Y-72960786D01*
X151631287Y-72954171D01*
X151522184Y-72439000D01*
X151252235Y-71833178D01*
X150896348Y-71276271D01*
X150529435Y-70907845D01*
X150044099Y-70696162D01*
X149330866Y-70550262D01*
X148590563Y-70518324D01*
X147980396Y-70618213D01*
X147645500Y-70712810D01*
X147469790Y-70638436D01*
X147371372Y-70323542D01*
X147280211Y-70009152D01*
X146860606Y-69197142D01*
X146249862Y-68482113D01*
X145540722Y-67982656D01*
X144843660Y-67748053D01*
X143974136Y-67665195D01*
X143145589Y-67779190D01*
X142475372Y-68086080D01*
X142207023Y-68322421D01*
X141719660Y-69013156D01*
X141391199Y-69865890D01*
X141270789Y-70771066D01*
X141270789Y-71654737D01*
X139432631Y-71654737D01*
X139435339Y-63383027D01*
X140406061Y-63361343D01*
X140785203Y-63337119D01*
X141765300Y-63096246D01*
X142540686Y-62618292D01*
X143084407Y-61924409D01*
X143369510Y-61035748D01*
X143352807Y-60134048D01*
X143057961Y-59232264D01*
X142531536Y-58426497D01*
X141823251Y-57792371D01*
X140982824Y-57405512D01*
X140678864Y-57320724D01*
X140401610Y-57192456D01*
X140329521Y-56991832D01*
X140389303Y-56622109D01*
X140485205Y-55699136D01*
X140347246Y-54771174D01*
X139962763Y-54013355D01*
X139350382Y-53460465D01*
X138528728Y-53147290D01*
X137845131Y-53012275D01*
X137799112Y-50385480D01*
X137753092Y-47758685D01*
X152633947Y-47758685D01*
X152633947Y-73325790D01*
G37*
G36*
X151540915Y-74035987D02*
G01*
X151370641Y-74646500D01*
X150987184Y-75368925D01*
X150426735Y-75840203D01*
X149652840Y-76086604D01*
X148629049Y-76134396D01*
X147381388Y-76088444D01*
X147229312Y-76731486D01*
X147215329Y-76786266D01*
X146889283Y-77475140D01*
X146341474Y-78138282D01*
X145667329Y-78680008D01*
X144962274Y-79004636D01*
X144198408Y-79124654D01*
X143281248Y-79018885D01*
X142503520Y-78637876D01*
X141900867Y-78010115D01*
X141508934Y-77164090D01*
X141363362Y-76128287D01*
X141354342Y-75165878D01*
X140393487Y-75164913D01*
X139432631Y-75163948D01*
X139433005Y-79299803D01*
X139433378Y-83435658D01*
X140396556Y-83452934D01*
X141393602Y-83582592D01*
X142245709Y-83963762D01*
X142876331Y-84594711D01*
X143284171Y-85474531D01*
X143355563Y-85810979D01*
X143324218Y-86676437D01*
X143030932Y-87532583D01*
X142518101Y-88307773D01*
X141828125Y-88930358D01*
X141003401Y-89328692D01*
X140318249Y-89533408D01*
X140387264Y-90745717D01*
X140390765Y-90811665D01*
X140361438Y-91751413D01*
X140148121Y-92455116D01*
X139721732Y-92980294D01*
X139053192Y-93384467D01*
X138817022Y-93499557D01*
X138585999Y-93618018D01*
X138391080Y-93701593D01*
X138229226Y-93727258D01*
X138097395Y-93671989D01*
X137992549Y-93512764D01*
X137911645Y-93226557D01*
X137851646Y-92790346D01*
X137809510Y-92181107D01*
X137782197Y-91375816D01*
X137766668Y-90351450D01*
X137759881Y-89084985D01*
X137758797Y-87553398D01*
X137760377Y-85733666D01*
X137761579Y-83602763D01*
X137761579Y-73492895D01*
X151657870Y-73492895D01*
X151540915Y-74035987D01*
G37*
G36*
X137397131Y-53110592D02*
G01*
X137440405Y-53207638D01*
X137477306Y-53452437D01*
X137508263Y-53865706D01*
X137533704Y-54468161D01*
X137554056Y-55280519D01*
X137569748Y-56323496D01*
X137581207Y-57617808D01*
X137588863Y-59184172D01*
X137593142Y-61043304D01*
X137594474Y-63215921D01*
X137594474Y-73325790D01*
X130659605Y-73325790D01*
X129591131Y-73324937D01*
X127925957Y-73318941D01*
X126566707Y-73306787D01*
X125495250Y-73287978D01*
X124693454Y-73262020D01*
X124143191Y-73228417D01*
X123826329Y-73186674D01*
X123724737Y-73136296D01*
X123732510Y-72994081D01*
X123906633Y-72333850D01*
X124254143Y-71660230D01*
X124701066Y-71125571D01*
X124899992Y-70955324D01*
X125178525Y-70766128D01*
X125479892Y-70674514D01*
X125907589Y-70656106D01*
X126565107Y-70686529D01*
X127844738Y-70760605D01*
X128124160Y-69973872D01*
X128582386Y-69105818D01*
X129253888Y-68408550D01*
X130070775Y-67930868D01*
X130969269Y-67709922D01*
X131885592Y-67782863D01*
X132069315Y-67835602D01*
X132879856Y-68249382D01*
X133457433Y-68900835D01*
X133803162Y-69791684D01*
X133918158Y-70923652D01*
X133918158Y-71654737D01*
X135923421Y-71654737D01*
X135923421Y-63299474D01*
X134959959Y-63299474D01*
X134168867Y-63219410D01*
X133283700Y-62891049D01*
X132601305Y-62344463D01*
X132152939Y-61617913D01*
X131969856Y-60749660D01*
X132083311Y-59777967D01*
X132083825Y-59776062D01*
X132416120Y-59052646D01*
X132966608Y-58362284D01*
X133639445Y-57802938D01*
X134338793Y-57472571D01*
X135004342Y-57293413D01*
X135004342Y-55879566D01*
X135007519Y-55356458D01*
X135034434Y-54834876D01*
X135109027Y-54488926D01*
X135255026Y-54225612D01*
X135496159Y-53951934D01*
X136006588Y-53555678D01*
X136707437Y-53233246D01*
X137385592Y-53106985D01*
X137397131Y-53110592D01*
G37*
G36*
X107386073Y-104764814D02*
G01*
X107390569Y-105165714D01*
X107393978Y-105838662D01*
X107396353Y-106748559D01*
X107397748Y-107860304D01*
X107398216Y-109138798D01*
X107397813Y-110548939D01*
X107396590Y-112055629D01*
X107394603Y-113623767D01*
X107391904Y-115218253D01*
X107388547Y-116803986D01*
X107384587Y-118345868D01*
X107380076Y-119808797D01*
X107375069Y-121157674D01*
X107369619Y-122357399D01*
X107363780Y-123372871D01*
X107357606Y-124168991D01*
X107351151Y-124710658D01*
X107297199Y-124737673D01*
X106944261Y-124779749D01*
X106268466Y-124814567D01*
X105277015Y-124841953D01*
X103977104Y-124861731D01*
X102375935Y-124873726D01*
X100480706Y-124877763D01*
X93612991Y-124877763D01*
X93700705Y-124223810D01*
X93758614Y-123922184D01*
X94110443Y-123143703D01*
X94697191Y-122570637D01*
X95475754Y-122235719D01*
X96403026Y-122171684D01*
X96687973Y-122198009D01*
X97170883Y-122255056D01*
X97458183Y-122306267D01*
X97541108Y-122294799D01*
X97756953Y-122052791D01*
X97995044Y-121551307D01*
X98504535Y-120590568D01*
X99210585Y-119867929D01*
X100087695Y-119428185D01*
X101124292Y-119279737D01*
X101801912Y-119355878D01*
X102597955Y-119701849D01*
X103206778Y-120305395D01*
X103606522Y-121142527D01*
X103775331Y-122189257D01*
X103816309Y-123206711D01*
X104830391Y-123256461D01*
X105844474Y-123306211D01*
X105844445Y-119078829D01*
X105844416Y-114851448D01*
X104764926Y-114828946D01*
X104239827Y-114792682D01*
X103282511Y-114546144D01*
X102567484Y-114071109D01*
X102096945Y-113369391D01*
X101873091Y-112442804D01*
X101868425Y-111737457D01*
X102107971Y-110836410D01*
X102654347Y-110031867D01*
X102976810Y-109730378D01*
X103566808Y-109324506D01*
X104177402Y-109031729D01*
X104685958Y-108919211D01*
X104932252Y-108864883D01*
X104943062Y-108654335D01*
X104902914Y-108512526D01*
X104821159Y-108075430D01*
X104748376Y-107526375D01*
X104733991Y-107348954D01*
X104831001Y-106430232D01*
X105211853Y-105667728D01*
X105851862Y-105096092D01*
X106726343Y-104749971D01*
X106825576Y-104728411D01*
X107203313Y-104663941D01*
X107381831Y-104663588D01*
X107386073Y-104764814D01*
G37*
G36*
X93089956Y-124966432D02*
G01*
X93324057Y-125045683D01*
X93478694Y-125286758D01*
X93623566Y-125773142D01*
X93846012Y-126371024D01*
X94416862Y-127151760D01*
X94652000Y-127372038D01*
X94923218Y-127567140D01*
X95231233Y-127670593D01*
X95675172Y-127711396D01*
X96354162Y-127718553D01*
X97706232Y-127718553D01*
X97919886Y-128335672D01*
X98042113Y-128650713D01*
X98592024Y-129553323D01*
X99336888Y-130188400D01*
X100259363Y-130544419D01*
X101342107Y-130609855D01*
X101430936Y-130603076D01*
X102040647Y-130518251D01*
X102470372Y-130349989D01*
X102857330Y-130047351D01*
X103414160Y-129370779D01*
X103738047Y-128557429D01*
X103839210Y-127548476D01*
X103839210Y-126615690D01*
X104800066Y-126665806D01*
X105760921Y-126715921D01*
X105805576Y-130833367D01*
X105850232Y-134950812D01*
X104635102Y-135012173D01*
X104000310Y-135074013D01*
X103150251Y-135310052D01*
X102517703Y-135736018D01*
X102050657Y-136379425D01*
X101878544Y-136869482D01*
X101788677Y-137644551D01*
X101845426Y-138439328D01*
X102048893Y-139096204D01*
X102171452Y-139310551D01*
X102721912Y-139995590D01*
X103399454Y-140547660D01*
X104095328Y-140872373D01*
X104769210Y-141053312D01*
X104763750Y-142436870D01*
X104764639Y-142928685D01*
X104789081Y-143451517D01*
X104863239Y-143799143D01*
X105011839Y-144066982D01*
X105259605Y-144350452D01*
X105390261Y-144484896D01*
X105819316Y-144845067D01*
X106299670Y-145077415D01*
X106972434Y-145256593D01*
X107515526Y-145374713D01*
X107515526Y-124961316D01*
X121385263Y-124961316D01*
X121385263Y-125385736D01*
X121327745Y-125781170D01*
X121062602Y-126426338D01*
X120655136Y-127011254D01*
X120186698Y-127399250D01*
X119807355Y-127553392D01*
X118891907Y-127692025D01*
X117853613Y-127588373D01*
X117724200Y-127561557D01*
X117386741Y-127527664D01*
X117230159Y-127659868D01*
X117139545Y-128029091D01*
X117042400Y-128404391D01*
X116621803Y-129219158D01*
X115990172Y-129873822D01*
X115210920Y-130337013D01*
X114347457Y-130577363D01*
X113463196Y-130563504D01*
X112621549Y-130264066D01*
X112326538Y-130074726D01*
X111762453Y-129499414D01*
X111406982Y-128728298D01*
X111232658Y-127710890D01*
X111146085Y-126632369D01*
X109186579Y-126632369D01*
X109186579Y-134987632D01*
X110070250Y-134987632D01*
X110502257Y-135016169D01*
X111392032Y-135240553D01*
X112178329Y-135647134D01*
X112751117Y-136186697D01*
X112847728Y-136349922D01*
X113042807Y-136876836D01*
X113157095Y-137470811D01*
X113103114Y-138352365D01*
X112772395Y-139239624D01*
X112209922Y-140007526D01*
X111466721Y-140587584D01*
X110593817Y-140911312D01*
X110570599Y-140915759D01*
X110160961Y-141053876D01*
X110078248Y-141242907D01*
X110104502Y-141327719D01*
X110188808Y-141710100D01*
X110275470Y-142216515D01*
X110309296Y-142683199D01*
X110152158Y-143557359D01*
X109713282Y-144288810D01*
X109020187Y-144840133D01*
X108100395Y-145173910D01*
X107599079Y-145277961D01*
X107553059Y-147903191D01*
X107507040Y-150528421D01*
X92476053Y-150528421D01*
X92476053Y-124961316D01*
X92945777Y-124961316D01*
X93089956Y-124966432D01*
G37*
G36*
X95422812Y-47796605D02*
G01*
X98369572Y-47842237D01*
X100783154Y-52061645D01*
X102995980Y-55930094D01*
X103196735Y-56281053D01*
X122555000Y-56281053D01*
X122555000Y-64970527D01*
X107988078Y-64970527D01*
X108573300Y-66014935D01*
X108609940Y-66080054D01*
X108902463Y-66591531D01*
X109322372Y-67316768D01*
X109833297Y-68193341D01*
X110398873Y-69158823D01*
X110982732Y-70150790D01*
X112782757Y-73201253D01*
X112806941Y-73242237D01*
X117710659Y-73320279D01*
X118056957Y-73325790D01*
X118695434Y-73336923D01*
X119948815Y-73364669D01*
X121078278Y-73397404D01*
X122041768Y-73433443D01*
X122555000Y-73459026D01*
X122797232Y-73471101D01*
X123302612Y-73508693D01*
X123515855Y-73544533D01*
X123629060Y-73670987D01*
X123724737Y-74010730D01*
X123802847Y-74427946D01*
X124083805Y-75026172D01*
X124490136Y-75575356D01*
X124937889Y-75941861D01*
X125130677Y-76026366D01*
X125839793Y-76187505D01*
X126064274Y-76196073D01*
X126660439Y-76218828D01*
X127442829Y-76110265D01*
X127583725Y-76078158D01*
X127837113Y-76086798D01*
X127902368Y-76277742D01*
X127919504Y-76400158D01*
X128047225Y-76805679D01*
X128258755Y-77298573D01*
X128309392Y-77398578D01*
X128870064Y-78157944D01*
X129603293Y-78714688D01*
X130442265Y-79050816D01*
X131320170Y-79148331D01*
X132170196Y-78989239D01*
X132925531Y-78555544D01*
X133497590Y-77930922D01*
X133859692Y-77126645D01*
X133984884Y-76124803D01*
X133998471Y-75163948D01*
X135923421Y-75163948D01*
X135923421Y-83352106D01*
X135039750Y-83352106D01*
X134397069Y-83401886D01*
X133455076Y-83692876D01*
X132712206Y-84207519D01*
X132195422Y-84903838D01*
X131931684Y-85739850D01*
X131947952Y-86673576D01*
X132271187Y-87663036D01*
X132472251Y-87997528D01*
X133064166Y-88633207D01*
X133810020Y-89148903D01*
X134590044Y-89452209D01*
X134890891Y-89544815D01*
X134984870Y-89718442D01*
X134906233Y-90087070D01*
X134822938Y-90446086D01*
X134788539Y-91377498D01*
X135009776Y-92218621D01*
X135463524Y-92907054D01*
X136126659Y-93380395D01*
X136328070Y-93465919D01*
X136838624Y-93638575D01*
X137218487Y-93708962D01*
X137345966Y-93716614D01*
X137450163Y-93768824D01*
X137520204Y-93913725D01*
X137562872Y-94199621D01*
X137584951Y-94674816D01*
X137593223Y-95387613D01*
X137594474Y-96386316D01*
X137594474Y-99060000D01*
X133207960Y-99079799D01*
X132112814Y-99083862D01*
X131023235Y-99086006D01*
X130081941Y-99085866D01*
X129335411Y-99083514D01*
X128830126Y-99079025D01*
X128612566Y-99072474D01*
X128533188Y-99072218D01*
X128408094Y-99178004D01*
X128411444Y-99190263D01*
X128522718Y-99415774D01*
X128776066Y-99885566D01*
X129150446Y-100561869D01*
X129624813Y-101406914D01*
X130178127Y-102382931D01*
X130789344Y-103452150D01*
X133166184Y-107593642D01*
X142900066Y-107585430D01*
X152633947Y-107577217D01*
X152633947Y-116271842D01*
X145364868Y-116271842D01*
X145042532Y-116271954D01*
X143329756Y-116276692D01*
X141820931Y-116288066D01*
X140537764Y-116305612D01*
X139501959Y-116328861D01*
X138735225Y-116357347D01*
X138259266Y-116390603D01*
X138095789Y-116428162D01*
X138114043Y-116477032D01*
X138265295Y-116771010D01*
X138547850Y-117285966D01*
X138935419Y-117976428D01*
X139401713Y-118796923D01*
X139920445Y-119701978D01*
X140465325Y-120646120D01*
X141010066Y-121583877D01*
X141528377Y-122469775D01*
X141993972Y-123258342D01*
X142380562Y-123904105D01*
X142661857Y-124361592D01*
X142811570Y-124585329D01*
X142879085Y-124627636D01*
X143123557Y-124683442D01*
X143561292Y-124726460D01*
X144220463Y-124757867D01*
X145129247Y-124778843D01*
X146315820Y-124790565D01*
X147808356Y-124794211D01*
X152633947Y-124794211D01*
X152633947Y-133483685D01*
X150816678Y-133483685D01*
X150241850Y-133488404D01*
X149485596Y-133508924D01*
X148873500Y-133541970D01*
X148500574Y-133583451D01*
X148001740Y-133683218D01*
X150079251Y-137301543D01*
X150513122Y-138056222D01*
X151067157Y-139016961D01*
X151558151Y-139865054D01*
X151960351Y-140556153D01*
X152248003Y-141045910D01*
X152395354Y-141289976D01*
X152553124Y-141556597D01*
X152633947Y-141747135D01*
X152599525Y-141757476D01*
X152299473Y-141780744D01*
X151723903Y-141804126D01*
X150913064Y-141826600D01*
X149907208Y-141847143D01*
X148746583Y-141864732D01*
X147471440Y-141878343D01*
X142308933Y-141922500D01*
X144628700Y-146100132D01*
X144749798Y-146318381D01*
X145336424Y-147380490D01*
X145862420Y-148340691D01*
X146307302Y-149161017D01*
X146650586Y-149803503D01*
X146871786Y-150230183D01*
X146950418Y-150403092D01*
X146810469Y-150422047D01*
X146361496Y-150441503D01*
X145628770Y-150459678D01*
X144638472Y-150476302D01*
X143416781Y-150491106D01*
X141989875Y-150503822D01*
X140383933Y-150514181D01*
X138625135Y-150521913D01*
X136739659Y-150526749D01*
X134753684Y-150528421D01*
X122555000Y-150528421D01*
X122555000Y-141838948D01*
X132330658Y-141838948D01*
X133907614Y-141838148D01*
X135590307Y-141835434D01*
X137143543Y-141830977D01*
X138538069Y-141824959D01*
X139744637Y-141817563D01*
X140733996Y-141808972D01*
X141476896Y-141799368D01*
X141944086Y-141788934D01*
X142106316Y-141777853D01*
X142102884Y-141768987D01*
X141987401Y-141563615D01*
X141724056Y-141116655D01*
X141334683Y-140464560D01*
X140841122Y-139643783D01*
X140265208Y-138690778D01*
X139628779Y-137641998D01*
X137151242Y-133567237D01*
X129894897Y-133533743D01*
X122638553Y-133500250D01*
X122593955Y-129230783D01*
X122549358Y-124961316D01*
X123763692Y-124940142D01*
X123852762Y-124938498D01*
X124453923Y-124925304D01*
X125302030Y-124904480D01*
X125862371Y-124889915D01*
X132414210Y-124889915D01*
X132419652Y-124906098D01*
X132537485Y-125140018D01*
X132793765Y-125618267D01*
X133168097Y-126303664D01*
X133640088Y-127159029D01*
X134189341Y-128147181D01*
X134795460Y-129230941D01*
X137176710Y-133476262D01*
X142482303Y-133479973D01*
X143202081Y-133480091D01*
X144437652Y-133478384D01*
X145537335Y-133474434D01*
X146461465Y-133468527D01*
X147170378Y-133460947D01*
X147624410Y-133451979D01*
X147783896Y-133441908D01*
X147775128Y-133423707D01*
X147645410Y-133188538D01*
X147376513Y-132711120D01*
X146988934Y-132027552D01*
X146503172Y-131173937D01*
X145939726Y-130186375D01*
X145319093Y-129100967D01*
X142858289Y-124801803D01*
X137636250Y-124798007D01*
X136989213Y-124798273D01*
X135758045Y-124803080D01*
X134660985Y-124813013D01*
X133738051Y-124827367D01*
X133029264Y-124845438D01*
X132574644Y-124866522D01*
X132414210Y-124889915D01*
X125862371Y-124889915D01*
X126325224Y-124877884D01*
X127451651Y-124847376D01*
X128609453Y-124814813D01*
X132240880Y-124710658D01*
X130977063Y-122454737D01*
X130923318Y-122358807D01*
X130351644Y-121339015D01*
X129727460Y-120226404D01*
X129122680Y-119149125D01*
X128609221Y-118235329D01*
X127505194Y-116271842D01*
X122555000Y-116271842D01*
X122555000Y-120533027D01*
X122555404Y-121203445D01*
X122556228Y-122362329D01*
X122551211Y-123243053D01*
X122533314Y-123883393D01*
X122495496Y-124321126D01*
X122430720Y-124594029D01*
X122331947Y-124739878D01*
X122192137Y-124796450D01*
X122004251Y-124801521D01*
X121761250Y-124792868D01*
X121713975Y-124761775D01*
X121560812Y-124508092D01*
X121385263Y-124082671D01*
X121030352Y-123233632D01*
X120616675Y-122641339D01*
X120089228Y-122295197D01*
X119381623Y-122152265D01*
X118427469Y-122169603D01*
X118062887Y-122196143D01*
X117582408Y-122216395D01*
X117326952Y-122182912D01*
X117225650Y-122079434D01*
X117207631Y-121889698D01*
X117176021Y-121707502D01*
X117001949Y-121260671D01*
X116726583Y-120759003D01*
X116159069Y-120054025D01*
X115405247Y-119498517D01*
X114589821Y-119202307D01*
X113762631Y-119152751D01*
X112973517Y-119337208D01*
X112272316Y-119743034D01*
X111708869Y-120357587D01*
X111333014Y-121168224D01*
X111194591Y-122162303D01*
X111191842Y-123123158D01*
X109353684Y-123123158D01*
X109353684Y-114935000D01*
X110194578Y-114935000D01*
X111043180Y-114855265D01*
X111893911Y-114532533D01*
X112573868Y-113947493D01*
X112596308Y-113920551D01*
X113095137Y-113085161D01*
X113287438Y-112203574D01*
X113186439Y-111323704D01*
X112805368Y-110493466D01*
X112157452Y-109760776D01*
X111255919Y-109173548D01*
X110233812Y-108675911D01*
X110301329Y-107834799D01*
X122722105Y-107834799D01*
X122726845Y-107848538D01*
X122845084Y-108073446D01*
X123106423Y-108540897D01*
X123489763Y-109214002D01*
X123974004Y-110055873D01*
X124538048Y-111029623D01*
X125160796Y-112098364D01*
X127599486Y-116271842D01*
X132680532Y-116271842D01*
X133207593Y-116271168D01*
X134429710Y-116264140D01*
X135520100Y-116250279D01*
X136438265Y-116230585D01*
X137143712Y-116206060D01*
X137595944Y-116177702D01*
X137636250Y-116169772D01*
X137754466Y-116146513D01*
X137752446Y-116138539D01*
X137649258Y-115926730D01*
X137405132Y-115467988D01*
X137041020Y-114800482D01*
X136577877Y-113962386D01*
X136036655Y-112991870D01*
X135438309Y-111927106D01*
X133129264Y-107833027D01*
X127925685Y-107788870D01*
X127294306Y-107784176D01*
X126064274Y-107779066D01*
X124967992Y-107779847D01*
X124045547Y-107786164D01*
X123337026Y-107797664D01*
X122882517Y-107813994D01*
X122722105Y-107834799D01*
X110301329Y-107834799D01*
X110314617Y-107669254D01*
X110328072Y-107096024D01*
X110159216Y-106153962D01*
X109736611Y-105426908D01*
X109063261Y-104919059D01*
X108142171Y-104634612D01*
X107515526Y-104531759D01*
X107515526Y-99227106D01*
X92476053Y-99227106D01*
X92476053Y-90509992D01*
X112361579Y-90509992D01*
X112400025Y-90605797D01*
X112577811Y-90959486D01*
X112877565Y-91527205D01*
X113274193Y-92263626D01*
X113742606Y-93123420D01*
X114257712Y-94061259D01*
X114794420Y-95031814D01*
X115327639Y-95989756D01*
X115832278Y-96889758D01*
X116283246Y-97686490D01*
X116655451Y-98334623D01*
X116923803Y-98788830D01*
X117063211Y-99003782D01*
X117196097Y-99084078D01*
X117512123Y-99151390D01*
X118041649Y-99195560D01*
X118824819Y-99219745D01*
X119901777Y-99227106D01*
X122555000Y-99227106D01*
X122555000Y-94910220D01*
X122551972Y-93865698D01*
X122541969Y-92794863D01*
X122525995Y-91876567D01*
X122505099Y-91156227D01*
X122480334Y-90679260D01*
X122452749Y-90491083D01*
X122419982Y-90478538D01*
X122123598Y-90446873D01*
X121565616Y-90421230D01*
X120795683Y-90401516D01*
X119863448Y-90387637D01*
X118818557Y-90379502D01*
X117710659Y-90377016D01*
X116589402Y-90380086D01*
X115504433Y-90388621D01*
X114505399Y-90402526D01*
X113641949Y-90421709D01*
X112963731Y-90446076D01*
X112520391Y-90475535D01*
X112361579Y-90509992D01*
X92476053Y-90509992D01*
X92476053Y-90370527D01*
X102251710Y-90370527D01*
X103828668Y-90369626D01*
X105511361Y-90366573D01*
X107064596Y-90361558D01*
X108459123Y-90354786D01*
X109665690Y-90346463D01*
X110655049Y-90336795D01*
X111397948Y-90325987D01*
X111865138Y-90314246D01*
X112027368Y-90301777D01*
X112025230Y-90295360D01*
X111916732Y-90098683D01*
X111659990Y-89659062D01*
X111276937Y-89013326D01*
X110789505Y-88198301D01*
X110219624Y-87250816D01*
X109589228Y-86207698D01*
X107204485Y-82270528D01*
X118043158Y-82270528D01*
X118106349Y-82402581D01*
X118311995Y-82782866D01*
X118634151Y-83363036D01*
X119045854Y-84095828D01*
X119520141Y-84933980D01*
X120030052Y-85830230D01*
X120548623Y-86737314D01*
X121048893Y-87607971D01*
X121503899Y-88394936D01*
X121886680Y-89050949D01*
X122170273Y-89528746D01*
X122327717Y-89781064D01*
X122341787Y-89800396D01*
X122410916Y-89845722D01*
X122463665Y-89757747D01*
X122502129Y-89502992D01*
X122528401Y-89047973D01*
X122544574Y-88359210D01*
X122552742Y-87403221D01*
X122555000Y-86146524D01*
X122555000Y-82182369D01*
X120299079Y-82182369D01*
X120067291Y-82182834D01*
X119273062Y-82192076D01*
X118630372Y-82211359D01*
X118200109Y-82238302D01*
X118043158Y-82270528D01*
X107204485Y-82270528D01*
X107151087Y-82182369D01*
X92476053Y-82182369D01*
X92476053Y-77915940D01*
X92476536Y-77381255D01*
X92483378Y-76115552D01*
X92499445Y-75143102D01*
X92526185Y-74433868D01*
X92565048Y-73957813D01*
X92617481Y-73684901D01*
X92684934Y-73585093D01*
X92688267Y-73584191D01*
X92920548Y-73563686D01*
X93439304Y-73538895D01*
X94199165Y-73511319D01*
X95154757Y-73482456D01*
X96260708Y-73453807D01*
X97471646Y-73426871D01*
X97562767Y-73424993D01*
X98743960Y-73398575D01*
X102335263Y-73398575D01*
X102344895Y-73422218D01*
X102475442Y-73672789D01*
X102742887Y-74165596D01*
X103127137Y-74864208D01*
X103608097Y-75732195D01*
X104165673Y-76733124D01*
X104779772Y-77830566D01*
X107224281Y-82189771D01*
X112466614Y-82177585D01*
X113131122Y-82175089D01*
X114363474Y-82165130D01*
X115461330Y-82149310D01*
X116384748Y-82128624D01*
X117093786Y-82104062D01*
X117548500Y-82076619D01*
X117708947Y-82047286D01*
X117700847Y-82023551D01*
X117572763Y-81770805D01*
X117304843Y-81276913D01*
X116917640Y-80578756D01*
X116431705Y-79713212D01*
X115867592Y-78717161D01*
X115245852Y-77627482D01*
X112782757Y-73325790D01*
X107559010Y-73325790D01*
X106910527Y-73326352D01*
X105679254Y-73330691D01*
X104582121Y-73338853D01*
X103659141Y-73350280D01*
X102950329Y-73364414D01*
X102495699Y-73380699D01*
X102335263Y-73398575D01*
X98743960Y-73398575D01*
X98757195Y-73398279D01*
X99834701Y-73370431D01*
X100751838Y-73342863D01*
X101465159Y-73316989D01*
X101931216Y-73294224D01*
X102106562Y-73275982D01*
X102106790Y-73269109D01*
X102017519Y-73068130D01*
X101788054Y-72619489D01*
X101438393Y-71960536D01*
X100988533Y-71128620D01*
X100458471Y-70161091D01*
X99868205Y-69095300D01*
X97572763Y-64971703D01*
X92476053Y-64970527D01*
X92476053Y-56422579D01*
X92671009Y-56422579D01*
X92676578Y-56434383D01*
X92800696Y-56659167D01*
X93067496Y-57127780D01*
X93455183Y-57802383D01*
X93941959Y-58645139D01*
X94506031Y-59618211D01*
X95125602Y-60683763D01*
X97524493Y-64803421D01*
X102603562Y-64803421D01*
X103128620Y-64802752D01*
X104350802Y-64795731D01*
X105441398Y-64781874D01*
X106359883Y-64762180D01*
X107065734Y-64737651D01*
X107518427Y-64709288D01*
X107677438Y-64678092D01*
X107677330Y-64677067D01*
X107593937Y-64500848D01*
X107373024Y-64080982D01*
X107040205Y-63463720D01*
X106621095Y-62695314D01*
X106141307Y-61822015D01*
X105626456Y-60890075D01*
X105102154Y-59945744D01*
X104594017Y-59035275D01*
X104127658Y-58204918D01*
X103728691Y-57500926D01*
X103422731Y-56969549D01*
X103235390Y-56657040D01*
X102995980Y-56281053D01*
X97805643Y-56281053D01*
X97177142Y-56282094D01*
X95953326Y-56290460D01*
X94865868Y-56306299D01*
X93954339Y-56328521D01*
X93258306Y-56356036D01*
X92817340Y-56387752D01*
X92671009Y-56422579D01*
X92476053Y-56422579D01*
X92476053Y-47750974D01*
X95422812Y-47796605D01*
G37*
%TD*%
%LPC*%
D10*
%TO.C,J8*%
X147955000Y-108585000D03*
D11*
X147955000Y-111125000D03*
X147955000Y-113665000D03*
%TD*%
D10*
%TO.C,J3*%
X144145000Y-108585000D03*
D11*
X144145000Y-111125000D03*
X144145000Y-113665000D03*
%TD*%
D12*
%TO.C,J2*%
X103780000Y-60960000D03*
D13*
X111580000Y-60960000D03*
%TD*%
D10*
%TO.C,J5*%
X140335000Y-108600000D03*
D11*
X140335000Y-111140000D03*
X140335000Y-113680000D03*
%TD*%
D10*
%TO.C,J6*%
X106045000Y-134620000D03*
D11*
X106045000Y-132080000D03*
X106045000Y-129540000D03*
X106045000Y-127000000D03*
%TD*%
D10*
%TO.C,J7*%
X141605000Y-76835000D03*
D11*
X141605000Y-79375000D03*
X139065000Y-76835000D03*
X139065000Y-79375000D03*
X136525000Y-76835000D03*
X136525000Y-79375000D03*
X133985000Y-76835000D03*
X133985000Y-79375000D03*
%TD*%
D14*
%TO.C,J4*%
X103960000Y-68580000D03*
D15*
X111760000Y-68580000D03*
%TD*%
%LPD*%
M02*
