%TF.GenerationSoftware,KiCad,Pcbnew,7.0.2*%
%TF.CreationDate,2023-11-12T14:51:11-05:00*%
%TF.ProjectId,avc-computer,6176632d-636f-46d7-9075-7465722e6b69,rev?*%
%TF.SameCoordinates,Original*%
%TF.FileFunction,Copper,L2,Bot*%
%TF.FilePolarity,Positive*%
%FSLAX46Y46*%
G04 Gerber Fmt 4.6, Leading zero omitted, Abs format (unit mm)*
G04 Created by KiCad (PCBNEW 7.0.2) date 2023-11-12 14:51:11*
%MOMM*%
%LPD*%
G01*
G04 APERTURE LIST*
G04 Aperture macros list*
%AMRoundRect*
0 Rectangle with rounded corners*
0 $1 Rounding radius*
0 $2 $3 $4 $5 $6 $7 $8 $9 X,Y pos of 4 corners*
0 Add a 4 corners polygon primitive as box body*
4,1,4,$2,$3,$4,$5,$6,$7,$8,$9,$2,$3,0*
0 Add four circle primitives for the rounded corners*
1,1,$1+$1,$2,$3*
1,1,$1+$1,$4,$5*
1,1,$1+$1,$6,$7*
1,1,$1+$1,$8,$9*
0 Add four rect primitives between the rounded corners*
20,1,$1+$1,$2,$3,$4,$5,0*
20,1,$1+$1,$4,$5,$6,$7,0*
20,1,$1+$1,$6,$7,$8,$9,0*
20,1,$1+$1,$8,$9,$2,$3,0*%
G04 Aperture macros list end*
%TA.AperFunction,ComponentPad*%
%ADD10RoundRect,0.250002X-1.699998X-1.699998X1.699998X-1.699998X1.699998X1.699998X-1.699998X1.699998X0*%
%TD*%
%TA.AperFunction,ComponentPad*%
%ADD11C,3.900000*%
%TD*%
%TA.AperFunction,ComponentPad*%
%ADD12R,1.700000X1.700000*%
%TD*%
%TA.AperFunction,ComponentPad*%
%ADD13O,1.700000X1.700000*%
%TD*%
%TA.AperFunction,ComponentPad*%
%ADD14RoundRect,0.288464X-1.961536X-1.961536X1.961536X-1.961536X1.961536X1.961536X-1.961536X1.961536X0*%
%TD*%
%TA.AperFunction,ComponentPad*%
%ADD15C,5.000000*%
%TD*%
%TA.AperFunction,ViaPad*%
%ADD16C,0.800000*%
%TD*%
%TA.AperFunction,Conductor*%
%ADD17C,0.250000*%
%TD*%
%TA.AperFunction,Conductor*%
%ADD18C,4.000000*%
%TD*%
%TA.AperFunction,Conductor*%
%ADD19C,0.200000*%
%TD*%
G04 APERTURE END LIST*
D10*
%TO.P,J2,1,Pin_1*%
%TO.N,Net-(D3-A)*%
X103780000Y-60960000D03*
D11*
%TO.P,J2,2,Pin_2*%
%TO.N,GND*%
X111580000Y-60960000D03*
%TD*%
D12*
%TO.P,J5,1,Pin_1*%
%TO.N,GND*%
X140335000Y-108600000D03*
D13*
%TO.P,J5,2,Pin_2*%
%TO.N,+5V*%
X140335000Y-111140000D03*
%TO.P,J5,3,Pin_3*%
%TO.N,/ESC_Cont*%
X140335000Y-113680000D03*
%TD*%
D12*
%TO.P,J6,1,Pin_1*%
%TO.N,GND*%
X106045000Y-134620000D03*
D13*
%TO.P,J6,2,Pin_2*%
%TO.N,+3V3*%
X106045000Y-132080000D03*
%TO.P,J6,3,Pin_3*%
%TO.N,/SCL*%
X106045000Y-129540000D03*
%TO.P,J6,4,Pin_4*%
%TO.N,/SDA*%
X106045000Y-127000000D03*
%TD*%
D12*
%TO.P,J3,1,Pin_1*%
%TO.N,GND*%
X144145000Y-108585000D03*
D13*
%TO.P,J3,2,Pin_2*%
%TO.N,+5V*%
X144145000Y-111125000D03*
%TO.P,J3,3,Pin_3*%
%TO.N,/Brake_Cont*%
X144145000Y-113665000D03*
%TD*%
D12*
%TO.P,J7,1,Pin_1*%
%TO.N,/Microcontroller/PA3*%
X141605000Y-76835000D03*
D13*
%TO.P,J7,2,Pin_2*%
%TO.N,GND*%
X141605000Y-79375000D03*
%TO.P,J7,3,Pin_3*%
%TO.N,+3V3*%
X139065000Y-76835000D03*
%TO.P,J7,4,Pin_4*%
%TO.N,unconnected-(J7-Pin_4-Pad4)*%
X139065000Y-79375000D03*
%TO.P,J7,5,Pin_5*%
%TO.N,unconnected-(J7-Pin_5-Pad5)*%
X136525000Y-76835000D03*
%TO.P,J7,6,Pin_6*%
%TO.N,unconnected-(J7-Pin_6-Pad6)*%
X136525000Y-79375000D03*
%TO.P,J7,7,Pin_7*%
%TO.N,+3V3*%
X133985000Y-76835000D03*
%TO.P,J7,8,Pin_8*%
%TO.N,/Microcontroller/PA2*%
X133985000Y-79375000D03*
%TD*%
D14*
%TO.P,J4,1,Pin_1*%
%TO.N,Net-(D3-A)*%
X103960000Y-68580000D03*
D15*
%TO.P,J4,2,Pin_2*%
%TO.N,GND*%
X111760000Y-68580000D03*
%TD*%
D12*
%TO.P,J8,1,Pin_1*%
%TO.N,GND*%
X147955000Y-108585000D03*
D13*
%TO.P,J8,2,Pin_2*%
%TO.N,+3V3*%
X147955000Y-111125000D03*
%TO.P,J8,3,Pin_3*%
%TO.N,/HALL_OUTPUT*%
X147955000Y-113665000D03*
%TD*%
D16*
%TO.N,GND*%
X122174000Y-109220000D03*
X131064000Y-114808000D03*
X123825000Y-103505000D03*
X131826000Y-116078000D03*
X125476000Y-121158000D03*
X113030000Y-109855000D03*
X104140000Y-110490000D03*
X111760000Y-111125000D03*
X118745000Y-100330000D03*
X116840000Y-103505000D03*
X114300000Y-111125000D03*
X113030000Y-112395000D03*
X129921000Y-97282000D03*
X104140000Y-115570000D03*
X121285000Y-123825000D03*
%TO.N,/Microcontroller/SWDIO*%
X116840000Y-104775000D03*
X120015000Y-70485000D03*
%TO.N,+3V3*%
X121920000Y-101600000D03*
X128524000Y-99822000D03*
X125095000Y-76835000D03*
X119380000Y-116840000D03*
X108265000Y-116205000D03*
X126365000Y-99949000D03*
X109728000Y-80518000D03*
X125095000Y-92075000D03*
X106680000Y-113665000D03*
X113792000Y-77978000D03*
%TO.N,/Microcontroller/SWCLK*%
X118745000Y-69850000D03*
X110490000Y-104140000D03*
%TO.N,/Microcontroller/PA2*%
X111760000Y-117475000D03*
X118745000Y-99060000D03*
X121285000Y-98425000D03*
%TO.N,/Microcontroller/PA3*%
X113665000Y-117475000D03*
%TO.N,/SCL*%
X120650000Y-121666000D03*
X102235000Y-116205000D03*
X129540000Y-69215000D03*
X137795000Y-60325000D03*
X107315000Y-105410000D03*
X111125000Y-125095000D03*
X104775000Y-104775000D03*
X130102844Y-112585962D03*
X137795000Y-66675000D03*
X128905000Y-66675000D03*
X128905000Y-60325000D03*
%TO.N,/SDA*%
X122428000Y-122936000D03*
X136652000Y-61468000D03*
X117475000Y-127000000D03*
X129540000Y-111760000D03*
X100965000Y-114935000D03*
X129540000Y-67945000D03*
X111882693Y-126877307D03*
X118745000Y-123825000D03*
X102235000Y-104775000D03*
X107315000Y-106680000D03*
X129794000Y-61468000D03*
%TO.N,/ESC_Cont*%
X132715000Y-118745000D03*
X111760000Y-120015000D03*
%TO.N,/1V9*%
X127000000Y-114808000D03*
X129286000Y-114300000D03*
%TD*%
D17*
%TO.N,GND*%
X116840000Y-103505000D02*
X116840000Y-102235000D01*
D18*
X111580000Y-68400000D02*
X111760000Y-68580000D01*
X111580000Y-60960000D02*
X111580000Y-68400000D01*
D17*
X116840000Y-102235000D02*
X118745000Y-100330000D01*
%TO.N,/Microcontroller/SWDIO*%
X120104511Y-70574511D02*
X120104511Y-101510489D01*
X120104511Y-101510489D02*
X116840000Y-104775000D01*
X120015000Y-70485000D02*
X120104511Y-70574511D01*
%TO.N,+3V3*%
X125095000Y-76835000D02*
X125095000Y-92075000D01*
X146780000Y-105060000D02*
X146780000Y-109950000D01*
X141669000Y-99949000D02*
X146780000Y-105060000D01*
X128651000Y-99949000D02*
X141669000Y-99949000D01*
X113792000Y-77978000D02*
X111252000Y-80518000D01*
X126365000Y-99949000D02*
X128397000Y-99949000D01*
X121920000Y-101600000D02*
X119380000Y-104140000D01*
X128524000Y-99822000D02*
X128651000Y-99949000D01*
X106680000Y-114620000D02*
X108265000Y-116205000D01*
X146780000Y-109950000D02*
X147955000Y-111125000D01*
X119380000Y-104140000D02*
X119380000Y-116840000D01*
X128397000Y-99949000D02*
X128524000Y-99822000D01*
X111252000Y-80518000D02*
X109728000Y-80518000D01*
X106680000Y-113665000D02*
X106680000Y-114620000D01*
%TO.N,/Microcontroller/SWCLK*%
X118745000Y-69850000D02*
X118655489Y-69939511D01*
X118655489Y-95974511D02*
X110490000Y-104140000D01*
X118655489Y-69939511D02*
X118655489Y-95974511D01*
%TO.N,/Microcontroller/PA2*%
X121285000Y-98425000D02*
X121285000Y-94615000D01*
X111760000Y-117475000D02*
X116115489Y-113119511D01*
X116115489Y-113119511D02*
X116115489Y-101689511D01*
X116115489Y-101689511D02*
X118745000Y-99060000D01*
X121285000Y-94615000D02*
X123580305Y-94615000D01*
X123580305Y-94615000D02*
X133985000Y-84210305D01*
X133985000Y-84210305D02*
X133985000Y-79375000D01*
%TO.N,/Microcontroller/PA3*%
X118930480Y-113479520D02*
X118930480Y-103564906D01*
X118930480Y-103564906D02*
X141605000Y-80890386D01*
X142780000Y-78010000D02*
X141605000Y-76835000D01*
X141605000Y-80890386D02*
X141994614Y-80890386D01*
X113665000Y-117475000D02*
X114935000Y-117475000D01*
X142780000Y-80105000D02*
X142780000Y-78010000D01*
X141994614Y-80890386D02*
X142780000Y-80105000D01*
X114935000Y-117475000D02*
X118930480Y-113479520D01*
%TO.N,/SCL*%
X116205000Y-125095000D02*
X119634000Y-121666000D01*
X128905000Y-66675000D02*
X128905000Y-60325000D01*
X111125000Y-125095000D02*
X116205000Y-125095000D01*
X104775000Y-82304614D02*
X104775000Y-104775000D01*
X129540000Y-69215000D02*
X129450489Y-69125489D01*
X133985000Y-116079396D02*
X133985000Y-121285000D01*
X130175000Y-125095000D02*
X116205000Y-125095000D01*
X133985000Y-121285000D02*
X130175000Y-125095000D01*
X137795000Y-66675000D02*
X137795000Y-60325000D01*
X129450489Y-69125489D02*
X117954125Y-69125489D01*
X137795000Y-60325000D02*
X128905000Y-60325000D01*
X117954125Y-69125489D02*
X104775000Y-82304614D01*
X119634000Y-121666000D02*
X120650000Y-121666000D01*
X105410000Y-105410000D02*
X104775000Y-104775000D01*
X130102844Y-112585962D02*
X130491566Y-112585962D01*
X130491566Y-112585962D02*
X133985000Y-116079396D01*
X107315000Y-105410000D02*
X105410000Y-105410000D01*
X102235000Y-116205000D02*
X111125000Y-125095000D01*
%TO.N,/SDA*%
X102235000Y-104775000D02*
X102235000Y-82794695D01*
X118110000Y-67945000D02*
X129540000Y-67945000D01*
X118745000Y-123825000D02*
X119634000Y-122936000D01*
X104140000Y-106680000D02*
X102235000Y-104775000D01*
X130302000Y-111760000D02*
X135255000Y-116713000D01*
X107315000Y-106680000D02*
X104140000Y-106680000D01*
X129540000Y-111760000D02*
X130302000Y-111760000D01*
X111882693Y-126877307D02*
X112005386Y-127000000D01*
X100965000Y-115959614D02*
X111882693Y-126877307D01*
X102235000Y-82794695D02*
X105109695Y-79920000D01*
X128905718Y-127000000D02*
X117475000Y-127000000D01*
X135255000Y-116713000D02*
X135255000Y-120650718D01*
X129794000Y-61468000D02*
X136652000Y-61468000D01*
X106135000Y-79920000D02*
X118110000Y-67945000D01*
X135255000Y-120650718D02*
X128905718Y-127000000D01*
X105109695Y-79920000D02*
X106135000Y-79920000D01*
X112005386Y-127000000D02*
X117475000Y-127000000D01*
X100965000Y-114935000D02*
X100965000Y-115959614D01*
X119634000Y-122936000D02*
X122428000Y-122936000D01*
%TO.N,/ESC_Cont*%
X111760000Y-120015000D02*
X131445000Y-120015000D01*
X131445000Y-120015000D02*
X132715000Y-118745000D01*
D18*
%TO.N,Net-(D3-A)*%
X103780000Y-68400000D02*
X103960000Y-68580000D01*
X103780000Y-60960000D02*
X103780000Y-68400000D01*
D19*
%TO.N,/1V9*%
X128778000Y-114808000D02*
X129286000Y-114300000D01*
X127000000Y-114808000D02*
X128778000Y-114808000D01*
%TD*%
%TA.AperFunction,Conductor*%
%TO.N,GND*%
G36*
X119406969Y-99793064D02*
G01*
X119456449Y-99843977D01*
X119471011Y-99902778D01*
X119471011Y-101195894D01*
X119451009Y-101264015D01*
X119434106Y-101284989D01*
X116964084Y-103755011D01*
X116901772Y-103789037D01*
X116830957Y-103783972D01*
X116774121Y-103741425D01*
X116749310Y-103674905D01*
X116748989Y-103665916D01*
X116748989Y-102004105D01*
X116768991Y-101935984D01*
X116785894Y-101915010D01*
X118695500Y-100005405D01*
X118757812Y-99971379D01*
X118784595Y-99968500D01*
X118840485Y-99968500D01*
X118840487Y-99968500D01*
X119027288Y-99928794D01*
X119201752Y-99851118D01*
X119270951Y-99800841D01*
X119337817Y-99776984D01*
X119406969Y-99793064D01*
G37*
%TD.AperFunction*%
%TA.AperFunction,Conductor*%
G36*
X133308914Y-119555676D02*
G01*
X133346727Y-119615765D01*
X133351499Y-119650111D01*
X133351500Y-120970405D01*
X133331498Y-121038526D01*
X133314595Y-121059500D01*
X129949500Y-124424595D01*
X129887188Y-124458621D01*
X129860405Y-124461500D01*
X119644800Y-124461500D01*
X119576679Y-124441498D01*
X119530186Y-124387842D01*
X119520082Y-124317568D01*
X119535681Y-124272500D01*
X119579527Y-124196556D01*
X119582794Y-124186500D01*
X119638542Y-124014928D01*
X119655907Y-123849704D01*
X119682919Y-123784051D01*
X119692111Y-123773793D01*
X119859500Y-123606404D01*
X119921814Y-123572379D01*
X119948596Y-123569500D01*
X121719800Y-123569500D01*
X121787921Y-123589502D01*
X121813435Y-123611188D01*
X121816746Y-123614866D01*
X121904893Y-123678908D01*
X121971248Y-123727118D01*
X122145712Y-123804794D01*
X122332513Y-123844500D01*
X122332515Y-123844500D01*
X122523485Y-123844500D01*
X122523487Y-123844500D01*
X122710288Y-123804794D01*
X122884752Y-123727118D01*
X123039253Y-123614866D01*
X123167040Y-123472944D01*
X123262527Y-123307556D01*
X123321542Y-123125928D01*
X123341504Y-122936000D01*
X123321542Y-122746072D01*
X123262527Y-122564444D01*
X123262527Y-122564443D01*
X123167041Y-122399057D01*
X123039252Y-122257133D01*
X122884753Y-122144883D01*
X122884752Y-122144882D01*
X122710288Y-122067206D01*
X122523487Y-122027500D01*
X122332513Y-122027500D01*
X122207979Y-122053970D01*
X122145711Y-122067206D01*
X121971246Y-122144883D01*
X121816746Y-122257133D01*
X121813435Y-122260812D01*
X121752988Y-122298051D01*
X121719800Y-122302500D01*
X121549800Y-122302500D01*
X121481679Y-122282498D01*
X121435186Y-122228842D01*
X121425082Y-122158568D01*
X121440681Y-122113500D01*
X121484527Y-122037556D01*
X121487794Y-122027500D01*
X121543542Y-121855928D01*
X121563504Y-121666000D01*
X121543542Y-121476072D01*
X121484527Y-121294444D01*
X121484527Y-121294443D01*
X121389041Y-121129057D01*
X121309734Y-121040978D01*
X121261253Y-120987134D01*
X121245595Y-120975758D01*
X121108891Y-120876436D01*
X121065537Y-120820214D01*
X121059462Y-120749477D01*
X121092594Y-120686686D01*
X121154414Y-120651774D01*
X121182952Y-120648500D01*
X131361147Y-120648500D01*
X131381935Y-120650795D01*
X131384907Y-120650701D01*
X131384909Y-120650702D01*
X131452985Y-120648562D01*
X131456945Y-120648500D01*
X131480894Y-120648500D01*
X131484856Y-120648500D01*
X131488856Y-120647994D01*
X131500699Y-120647061D01*
X131544889Y-120645673D01*
X131564338Y-120640021D01*
X131583698Y-120636012D01*
X131603797Y-120633474D01*
X131644915Y-120617193D01*
X131656117Y-120613357D01*
X131698593Y-120601018D01*
X131716039Y-120590699D01*
X131733780Y-120582009D01*
X131752617Y-120574552D01*
X131788392Y-120548558D01*
X131798303Y-120542048D01*
X131836362Y-120519542D01*
X131850691Y-120505212D01*
X131865719Y-120492377D01*
X131882107Y-120480472D01*
X131910298Y-120446393D01*
X131918268Y-120437634D01*
X132665499Y-119690404D01*
X132727812Y-119656379D01*
X132754595Y-119653500D01*
X132810485Y-119653500D01*
X132810487Y-119653500D01*
X132997288Y-119613794D01*
X133171752Y-119536118D01*
X133171754Y-119536115D01*
X133174250Y-119535005D01*
X133244617Y-119525570D01*
X133308914Y-119555676D01*
G37*
%TD.AperFunction*%
%TA.AperFunction,Conductor*%
G36*
X150437121Y-55900002D02*
G01*
X150483614Y-55953658D01*
X150495000Y-56006000D01*
X150495000Y-142748500D01*
X150474998Y-142816621D01*
X150421342Y-142863114D01*
X150369000Y-142874500D01*
X94106000Y-142874500D01*
X94037879Y-142854498D01*
X93991386Y-142800842D01*
X93980000Y-142748500D01*
X93980000Y-139250499D01*
X95634732Y-139250499D01*
X95640440Y-139326674D01*
X95638240Y-139336953D01*
X95643254Y-139369413D01*
X95644378Y-139379221D01*
X95644635Y-139382647D01*
X95644988Y-139392072D01*
X95644988Y-139419666D01*
X95648306Y-139431637D01*
X95653778Y-139504659D01*
X95671482Y-139582227D01*
X95670773Y-139593788D01*
X95681221Y-139626802D01*
X95683932Y-139636770D01*
X95684846Y-139640773D01*
X95686530Y-139649587D01*
X95690430Y-139674839D01*
X95694898Y-139684817D01*
X95710492Y-139753139D01*
X95740724Y-139830168D01*
X95741839Y-139842752D01*
X95757888Y-139875166D01*
X95762261Y-139885041D01*
X95764243Y-139890091D01*
X95767081Y-139898107D01*
X95774057Y-139920151D01*
X95779147Y-139928068D01*
X95803606Y-139990387D01*
X95846586Y-140064830D01*
X95849807Y-140078110D01*
X95871375Y-140108773D01*
X95877430Y-140118255D01*
X95881151Y-140124699D01*
X95884953Y-140131798D01*
X95893931Y-140149930D01*
X95899119Y-140155822D01*
X95931041Y-140211112D01*
X95986637Y-140280827D01*
X95992181Y-140294407D01*
X96018960Y-140322232D01*
X96026683Y-140331043D01*
X96033063Y-140339043D01*
X96037614Y-140345115D01*
X96047272Y-140358846D01*
X96052061Y-140362866D01*
X96089950Y-140410377D01*
X96124372Y-140442316D01*
X96157675Y-140473217D01*
X96165680Y-140486657D01*
X96197154Y-140510649D01*
X96206472Y-140518493D01*
X96216651Y-140527938D01*
X96221734Y-140532929D01*
X96230535Y-140542074D01*
X96234477Y-140544478D01*
X96276782Y-140583732D01*
X96355791Y-140637599D01*
X96366322Y-140650442D01*
X96401803Y-140669736D01*
X96412582Y-140676318D01*
X96427896Y-140686759D01*
X96433283Y-140690645D01*
X96439457Y-140695352D01*
X96442163Y-140696486D01*
X96487366Y-140727305D01*
X96553968Y-140759379D01*
X96576436Y-140770199D01*
X96589460Y-140781958D01*
X96628116Y-140795842D01*
X96640192Y-140800902D01*
X96662089Y-140811447D01*
X96667600Y-140814271D01*
X96669196Y-140815139D01*
X96670364Y-140815432D01*
X96705847Y-140832520D01*
X96716998Y-140837890D01*
X96814565Y-140867985D01*
X96829959Y-140878176D01*
X96870829Y-140886103D01*
X96883971Y-140889394D01*
X96960542Y-140913013D01*
X97064724Y-140928716D01*
X97082277Y-140936877D01*
X97124340Y-140938489D01*
X97138286Y-140939804D01*
X97174404Y-140945248D01*
X97212562Y-140951000D01*
X97321178Y-140951000D01*
X97340596Y-140956701D01*
X97382783Y-140951831D01*
X97397234Y-140951000D01*
X97467432Y-140951000D01*
X97467435Y-140951000D01*
X97578055Y-140934326D01*
X97598955Y-140937186D01*
X97640184Y-140925856D01*
X97654773Y-140922762D01*
X97719458Y-140913013D01*
X97829475Y-140879076D01*
X97851409Y-140878778D01*
X97890621Y-140861200D01*
X97905022Y-140855773D01*
X97963004Y-140837889D01*
X98069684Y-140786514D01*
X98092135Y-140782817D01*
X98128328Y-140759379D01*
X98142145Y-140751619D01*
X98192634Y-140727305D01*
X98293163Y-140658765D01*
X98315580Y-140651515D01*
X98347843Y-140622763D01*
X98360690Y-140612725D01*
X98403217Y-140583732D01*
X98494809Y-140498746D01*
X98516598Y-140487885D01*
X98544117Y-140454517D01*
X98555613Y-140442329D01*
X98590050Y-140410377D01*
X98669997Y-140310126D01*
X98690552Y-140295698D01*
X98712650Y-140258529D01*
X98722437Y-140244369D01*
X98748959Y-140211112D01*
X98814708Y-140097229D01*
X98833431Y-140079377D01*
X98849579Y-140039311D01*
X98857319Y-140023425D01*
X98876393Y-139990388D01*
X98969508Y-139753137D01*
X99026222Y-139504657D01*
X99045268Y-139250500D01*
X99045268Y-139250499D01*
X145634732Y-139250499D01*
X145640440Y-139326674D01*
X145638240Y-139336953D01*
X145643254Y-139369413D01*
X145644378Y-139379221D01*
X145644635Y-139382647D01*
X145644988Y-139392072D01*
X145644988Y-139419666D01*
X145648306Y-139431637D01*
X145653778Y-139504659D01*
X145671482Y-139582227D01*
X145670773Y-139593788D01*
X145681221Y-139626802D01*
X145683932Y-139636770D01*
X145684846Y-139640773D01*
X145686530Y-139649587D01*
X145690430Y-139674839D01*
X145694898Y-139684817D01*
X145710492Y-139753139D01*
X145740724Y-139830168D01*
X145741839Y-139842752D01*
X145757888Y-139875166D01*
X145762261Y-139885041D01*
X145764243Y-139890091D01*
X145767081Y-139898107D01*
X145774057Y-139920151D01*
X145779147Y-139928068D01*
X145803606Y-139990387D01*
X145846586Y-140064830D01*
X145849807Y-140078110D01*
X145871375Y-140108773D01*
X145877430Y-140118255D01*
X145881151Y-140124699D01*
X145884953Y-140131798D01*
X145893931Y-140149930D01*
X145899119Y-140155822D01*
X145931041Y-140211112D01*
X145986637Y-140280827D01*
X145992181Y-140294407D01*
X146018960Y-140322232D01*
X146026683Y-140331043D01*
X146033063Y-140339043D01*
X146037614Y-140345115D01*
X146047272Y-140358846D01*
X146052061Y-140362866D01*
X146089950Y-140410377D01*
X146124372Y-140442316D01*
X146157675Y-140473217D01*
X146165680Y-140486657D01*
X146197154Y-140510649D01*
X146206472Y-140518493D01*
X146216651Y-140527938D01*
X146221734Y-140532929D01*
X146230535Y-140542074D01*
X146234477Y-140544478D01*
X146276782Y-140583732D01*
X146355791Y-140637599D01*
X146366322Y-140650442D01*
X146401803Y-140669736D01*
X146412582Y-140676318D01*
X146427896Y-140686759D01*
X146433283Y-140690645D01*
X146439457Y-140695352D01*
X146442163Y-140696486D01*
X146487366Y-140727305D01*
X146553968Y-140759379D01*
X146576436Y-140770199D01*
X146589460Y-140781958D01*
X146628116Y-140795842D01*
X146640192Y-140800902D01*
X146662089Y-140811447D01*
X146667600Y-140814271D01*
X146669196Y-140815139D01*
X146670364Y-140815432D01*
X146705847Y-140832520D01*
X146716998Y-140837890D01*
X146814565Y-140867985D01*
X146829959Y-140878176D01*
X146870829Y-140886103D01*
X146883971Y-140889394D01*
X146960542Y-140913013D01*
X147064724Y-140928716D01*
X147082277Y-140936877D01*
X147124340Y-140938489D01*
X147138286Y-140939804D01*
X147174404Y-140945248D01*
X147212562Y-140951000D01*
X147321178Y-140951000D01*
X147340596Y-140956701D01*
X147382783Y-140951831D01*
X147397234Y-140951000D01*
X147467432Y-140951000D01*
X147467435Y-140951000D01*
X147578055Y-140934326D01*
X147598955Y-140937186D01*
X147640184Y-140925856D01*
X147654773Y-140922762D01*
X147719458Y-140913013D01*
X147829475Y-140879076D01*
X147851409Y-140878778D01*
X147890621Y-140861200D01*
X147905022Y-140855773D01*
X147963004Y-140837889D01*
X148069684Y-140786514D01*
X148092135Y-140782817D01*
X148128328Y-140759379D01*
X148142145Y-140751619D01*
X148192634Y-140727305D01*
X148293163Y-140658765D01*
X148315580Y-140651515D01*
X148347843Y-140622763D01*
X148360690Y-140612725D01*
X148403217Y-140583732D01*
X148494809Y-140498746D01*
X148516598Y-140487885D01*
X148544117Y-140454517D01*
X148555613Y-140442329D01*
X148590050Y-140410377D01*
X148669997Y-140310126D01*
X148690552Y-140295698D01*
X148712650Y-140258529D01*
X148722437Y-140244369D01*
X148748959Y-140211112D01*
X148814708Y-140097229D01*
X148833431Y-140079377D01*
X148849579Y-140039311D01*
X148857319Y-140023425D01*
X148876393Y-139990388D01*
X148969508Y-139753137D01*
X149026222Y-139504657D01*
X149045268Y-139250500D01*
X149026222Y-138996343D01*
X148969508Y-138747863D01*
X148876393Y-138510612D01*
X148876392Y-138510611D01*
X148876391Y-138510607D01*
X148857328Y-138477589D01*
X148849582Y-138461691D01*
X148836707Y-138429747D01*
X148814710Y-138403773D01*
X148748958Y-138289886D01*
X148722447Y-138256643D01*
X148712652Y-138242472D01*
X148694897Y-138212607D01*
X148669999Y-138190876D01*
X148590050Y-138090623D01*
X148555630Y-138058686D01*
X148544124Y-138046489D01*
X148521843Y-138019472D01*
X148494809Y-138002253D01*
X148473521Y-137982501D01*
X148403217Y-137917268D01*
X148360694Y-137888276D01*
X148347846Y-137878239D01*
X148321533Y-137854789D01*
X148293163Y-137842234D01*
X148192636Y-137773696D01*
X148142160Y-137749388D01*
X148128341Y-137741626D01*
X148098600Y-137722366D01*
X148069684Y-137714485D01*
X147963004Y-137663110D01*
X147905029Y-137645228D01*
X147890625Y-137639801D01*
X147858180Y-137625256D01*
X147829476Y-137621923D01*
X147719461Y-137587988D01*
X147719458Y-137587987D01*
X147654787Y-137578239D01*
X147640192Y-137575145D01*
X147605834Y-137565703D01*
X147578057Y-137566673D01*
X147467435Y-137550000D01*
X147397230Y-137550000D01*
X147382780Y-137549169D01*
X147347386Y-137545082D01*
X147321177Y-137550000D01*
X147212565Y-137550000D01*
X147174404Y-137555752D01*
X147138305Y-137561193D01*
X147124352Y-137562508D01*
X147088821Y-137563869D01*
X147064726Y-137572283D01*
X146960541Y-137587987D01*
X146960542Y-137587987D01*
X146883990Y-137611600D01*
X146870843Y-137614892D01*
X146836088Y-137621632D01*
X146814567Y-137633014D01*
X146716995Y-137663110D01*
X146670367Y-137685566D01*
X146669462Y-137685714D01*
X146667577Y-137686740D01*
X146662057Y-137689568D01*
X146640196Y-137700095D01*
X146628122Y-137705154D01*
X146595043Y-137717034D01*
X146576439Y-137730799D01*
X146487364Y-137773696D01*
X146442164Y-137804512D01*
X146440048Y-137805196D01*
X146433264Y-137810367D01*
X146427868Y-137814258D01*
X146412602Y-137824667D01*
X146401813Y-137831256D01*
X146371252Y-137847874D01*
X146355794Y-137863399D01*
X146276780Y-137917270D01*
X146234477Y-137956521D01*
X146231347Y-137958081D01*
X146221724Y-137968080D01*
X146216641Y-137973071D01*
X146206478Y-137982501D01*
X146197161Y-137990343D01*
X146169884Y-138011135D01*
X146157677Y-138027781D01*
X146089952Y-138090621D01*
X146052062Y-138138133D01*
X146048185Y-138140853D01*
X146037606Y-138155894D01*
X146033060Y-138161960D01*
X146026690Y-138169948D01*
X146018965Y-138178762D01*
X145995613Y-138203025D01*
X145986638Y-138220171D01*
X145931043Y-138289885D01*
X145899121Y-138345175D01*
X145894817Y-138349278D01*
X145884948Y-138369210D01*
X145881156Y-138376290D01*
X145877442Y-138382724D01*
X145871378Y-138392222D01*
X145852459Y-138419118D01*
X145846588Y-138436166D01*
X145803607Y-138510611D01*
X145779149Y-138572930D01*
X145774779Y-138578565D01*
X145767078Y-138602898D01*
X145764240Y-138610915D01*
X145762261Y-138615957D01*
X145757890Y-138625827D01*
X145743729Y-138654428D01*
X145740725Y-138670830D01*
X145710492Y-138747861D01*
X145694899Y-138816180D01*
X145690855Y-138823408D01*
X145686529Y-138851416D01*
X145684849Y-138860209D01*
X145683937Y-138864206D01*
X145681222Y-138874193D01*
X145671951Y-138903488D01*
X145671483Y-138918771D01*
X145653778Y-138996340D01*
X145648306Y-139069362D01*
X145644988Y-139078165D01*
X145644988Y-139108927D01*
X145644635Y-139118343D01*
X145644378Y-139121782D01*
X145643255Y-139131584D01*
X145638781Y-139160547D01*
X145640440Y-139174323D01*
X145634732Y-139250499D01*
X99045268Y-139250499D01*
X99026222Y-138996343D01*
X98969508Y-138747863D01*
X98876393Y-138510612D01*
X98876392Y-138510611D01*
X98876391Y-138510607D01*
X98857328Y-138477589D01*
X98849582Y-138461691D01*
X98836707Y-138429747D01*
X98814710Y-138403773D01*
X98748958Y-138289886D01*
X98722447Y-138256643D01*
X98712652Y-138242472D01*
X98694897Y-138212607D01*
X98669999Y-138190876D01*
X98590050Y-138090623D01*
X98555630Y-138058686D01*
X98544124Y-138046489D01*
X98521843Y-138019472D01*
X98494809Y-138002253D01*
X98473521Y-137982501D01*
X98403217Y-137917268D01*
X98360694Y-137888276D01*
X98347846Y-137878239D01*
X98321533Y-137854789D01*
X98293163Y-137842234D01*
X98192636Y-137773696D01*
X98142160Y-137749388D01*
X98128341Y-137741626D01*
X98098600Y-137722366D01*
X98069684Y-137714485D01*
X97963004Y-137663110D01*
X97905029Y-137645228D01*
X97890625Y-137639801D01*
X97858180Y-137625256D01*
X97829476Y-137621923D01*
X97719461Y-137587988D01*
X97719458Y-137587987D01*
X97654787Y-137578239D01*
X97640192Y-137575145D01*
X97605834Y-137565703D01*
X97578057Y-137566673D01*
X97467435Y-137550000D01*
X97397230Y-137550000D01*
X97382780Y-137549169D01*
X97347386Y-137545082D01*
X97321177Y-137550000D01*
X97212565Y-137550000D01*
X97174404Y-137555752D01*
X97138305Y-137561193D01*
X97124352Y-137562508D01*
X97088821Y-137563869D01*
X97064726Y-137572283D01*
X96960541Y-137587987D01*
X96960542Y-137587987D01*
X96883990Y-137611600D01*
X96870843Y-137614892D01*
X96836088Y-137621632D01*
X96814567Y-137633014D01*
X96716995Y-137663110D01*
X96670367Y-137685566D01*
X96669462Y-137685714D01*
X96667577Y-137686740D01*
X96662057Y-137689568D01*
X96640196Y-137700095D01*
X96628122Y-137705154D01*
X96595043Y-137717034D01*
X96576439Y-137730799D01*
X96487364Y-137773696D01*
X96442164Y-137804512D01*
X96440048Y-137805196D01*
X96433264Y-137810367D01*
X96427868Y-137814258D01*
X96412602Y-137824667D01*
X96401813Y-137831256D01*
X96371252Y-137847874D01*
X96355794Y-137863399D01*
X96276780Y-137917270D01*
X96234477Y-137956521D01*
X96231347Y-137958081D01*
X96221724Y-137968080D01*
X96216641Y-137973071D01*
X96206478Y-137982501D01*
X96197161Y-137990343D01*
X96169884Y-138011135D01*
X96157677Y-138027781D01*
X96089952Y-138090621D01*
X96052062Y-138138133D01*
X96048185Y-138140853D01*
X96037606Y-138155894D01*
X96033060Y-138161960D01*
X96026690Y-138169948D01*
X96018965Y-138178762D01*
X95995613Y-138203025D01*
X95986638Y-138220171D01*
X95931043Y-138289885D01*
X95899121Y-138345175D01*
X95894817Y-138349278D01*
X95884948Y-138369210D01*
X95881156Y-138376290D01*
X95877442Y-138382724D01*
X95871378Y-138392222D01*
X95852459Y-138419118D01*
X95846588Y-138436166D01*
X95803607Y-138510611D01*
X95779149Y-138572930D01*
X95774779Y-138578565D01*
X95767078Y-138602898D01*
X95764240Y-138610915D01*
X95762261Y-138615957D01*
X95757890Y-138625827D01*
X95743729Y-138654428D01*
X95740725Y-138670830D01*
X95710492Y-138747861D01*
X95694899Y-138816180D01*
X95690855Y-138823408D01*
X95686529Y-138851416D01*
X95684849Y-138860209D01*
X95683937Y-138864206D01*
X95681222Y-138874193D01*
X95671951Y-138903488D01*
X95671483Y-138918771D01*
X95653778Y-138996340D01*
X95648306Y-139069362D01*
X95644988Y-139078165D01*
X95644988Y-139108927D01*
X95644635Y-139118343D01*
X95644378Y-139121782D01*
X95643255Y-139131584D01*
X95638781Y-139160547D01*
X95640440Y-139174323D01*
X95634732Y-139250499D01*
X93980000Y-139250499D01*
X93980000Y-132080000D01*
X104681844Y-132080000D01*
X104700436Y-132304368D01*
X104700436Y-132304371D01*
X104700437Y-132304372D01*
X104755702Y-132522611D01*
X104846139Y-132728790D01*
X104969278Y-132917268D01*
X105112841Y-133073217D01*
X105144262Y-133136882D01*
X105136275Y-133207428D01*
X105091416Y-133262457D01*
X105064173Y-133276611D01*
X104949036Y-133319554D01*
X104832095Y-133407095D01*
X104744554Y-133524037D01*
X104693505Y-133660906D01*
X104687359Y-133718063D01*
X104687000Y-133724777D01*
X104687000Y-134366000D01*
X105613884Y-134366000D01*
X105585507Y-134410156D01*
X105545000Y-134548111D01*
X105545000Y-134691889D01*
X105585507Y-134829844D01*
X105613884Y-134874000D01*
X104687000Y-134874000D01*
X104687000Y-135515222D01*
X104687359Y-135521936D01*
X104693505Y-135579093D01*
X104744554Y-135715962D01*
X104832095Y-135832904D01*
X104949037Y-135920445D01*
X105085906Y-135971494D01*
X105143063Y-135977640D01*
X105149777Y-135978000D01*
X105791000Y-135978000D01*
X105791000Y-135053674D01*
X105902685Y-135104680D01*
X106009237Y-135120000D01*
X106080763Y-135120000D01*
X106187315Y-135104680D01*
X106299000Y-135053674D01*
X106299000Y-135978000D01*
X106940223Y-135978000D01*
X106946936Y-135977640D01*
X107004093Y-135971494D01*
X107140962Y-135920445D01*
X107257904Y-135832904D01*
X107345445Y-135715962D01*
X107396494Y-135579093D01*
X107402640Y-135521936D01*
X107403000Y-135515222D01*
X107403000Y-134874000D01*
X106476116Y-134874000D01*
X106504493Y-134829844D01*
X106545000Y-134691889D01*
X106545000Y-134548111D01*
X106504493Y-134410156D01*
X106476116Y-134366000D01*
X107403000Y-134366000D01*
X107403000Y-133724777D01*
X107402640Y-133718063D01*
X107396494Y-133660906D01*
X107345445Y-133524037D01*
X107257904Y-133407095D01*
X107140962Y-133319554D01*
X107025827Y-133276611D01*
X106968991Y-133234064D01*
X106944180Y-133167544D01*
X106959271Y-133098170D01*
X106977152Y-133073224D01*
X107120722Y-132917268D01*
X107243860Y-132728791D01*
X107334296Y-132522616D01*
X107389564Y-132304368D01*
X107408156Y-132080000D01*
X107389564Y-131855632D01*
X107334296Y-131637384D01*
X107243860Y-131431209D01*
X107120722Y-131242732D01*
X106968240Y-131077094D01*
X106968239Y-131077093D01*
X106968237Y-131077091D01*
X106790579Y-130938813D01*
X106790577Y-130938812D01*
X106790576Y-130938811D01*
X106757317Y-130920812D01*
X106706929Y-130870801D01*
X106691576Y-130801484D01*
X106716136Y-130734871D01*
X106757316Y-130699187D01*
X106790576Y-130681189D01*
X106968240Y-130542906D01*
X107120722Y-130377268D01*
X107243860Y-130188791D01*
X107334296Y-129982616D01*
X107389564Y-129764368D01*
X107408156Y-129540000D01*
X107389564Y-129315632D01*
X107334296Y-129097384D01*
X107243860Y-128891209D01*
X107120722Y-128702732D01*
X106968240Y-128537094D01*
X106968239Y-128537093D01*
X106968237Y-128537091D01*
X106790579Y-128398813D01*
X106790577Y-128398812D01*
X106790576Y-128398811D01*
X106757317Y-128380812D01*
X106706929Y-128330801D01*
X106691576Y-128261484D01*
X106716136Y-128194871D01*
X106757316Y-128159187D01*
X106790576Y-128141189D01*
X106968240Y-128002906D01*
X107120722Y-127837268D01*
X107243860Y-127648791D01*
X107334296Y-127442616D01*
X107389564Y-127224368D01*
X107408156Y-127000000D01*
X107389564Y-126775632D01*
X107334296Y-126557384D01*
X107243860Y-126351209D01*
X107120722Y-126162732D01*
X106968240Y-125997094D01*
X106968239Y-125997093D01*
X106968237Y-125997091D01*
X106790578Y-125858812D01*
X106592573Y-125751657D01*
X106448427Y-125702172D01*
X106379635Y-125678556D01*
X106157569Y-125641500D01*
X105932431Y-125641500D01*
X105710365Y-125678556D01*
X105710362Y-125678556D01*
X105710362Y-125678557D01*
X105497426Y-125751657D01*
X105299421Y-125858812D01*
X105121762Y-125997091D01*
X104969278Y-126162731D01*
X104846139Y-126351209D01*
X104755702Y-126557388D01*
X104700437Y-126775627D01*
X104700436Y-126775632D01*
X104681844Y-127000000D01*
X104700436Y-127224368D01*
X104700436Y-127224371D01*
X104700437Y-127224372D01*
X104755702Y-127442611D01*
X104755703Y-127442614D01*
X104755704Y-127442616D01*
X104770949Y-127477372D01*
X104846139Y-127648790D01*
X104969278Y-127837268D01*
X105121762Y-128002908D01*
X105299418Y-128141185D01*
X105299420Y-128141186D01*
X105299424Y-128141189D01*
X105332682Y-128159187D01*
X105383071Y-128209200D01*
X105398423Y-128278517D01*
X105373862Y-128345130D01*
X105332683Y-128380812D01*
X105307794Y-128394281D01*
X105299418Y-128398814D01*
X105121762Y-128537091D01*
X104969278Y-128702731D01*
X104846139Y-128891209D01*
X104755702Y-129097388D01*
X104700437Y-129315627D01*
X104700436Y-129315632D01*
X104681844Y-129540000D01*
X104700436Y-129764368D01*
X104700436Y-129764371D01*
X104700437Y-129764372D01*
X104755702Y-129982611D01*
X104846139Y-130188790D01*
X104969278Y-130377268D01*
X105121762Y-130542908D01*
X105223611Y-130622181D01*
X105299424Y-130681189D01*
X105332682Y-130699187D01*
X105383070Y-130749197D01*
X105398423Y-130818513D01*
X105373863Y-130885127D01*
X105332683Y-130920811D01*
X105299423Y-130938810D01*
X105121762Y-131077091D01*
X104969278Y-131242731D01*
X104846139Y-131431209D01*
X104755702Y-131637388D01*
X104700437Y-131855627D01*
X104700436Y-131855632D01*
X104681844Y-132080000D01*
X93980000Y-132080000D01*
X93980000Y-114935000D01*
X100051496Y-114935000D01*
X100071458Y-115124929D01*
X100130472Y-115306556D01*
X100225958Y-115471942D01*
X100225960Y-115471944D01*
X100299137Y-115553215D01*
X100329853Y-115617220D01*
X100331500Y-115637524D01*
X100331500Y-115875761D01*
X100329204Y-115896551D01*
X100331437Y-115967600D01*
X100331499Y-115971552D01*
X100331499Y-115995520D01*
X100331499Y-115995533D01*
X100331500Y-115999470D01*
X100331992Y-116003372D01*
X100331995Y-116003405D01*
X100332008Y-116003502D01*
X100332937Y-116015311D01*
X100334326Y-116059506D01*
X100339977Y-116078955D01*
X100343986Y-116098310D01*
X100346525Y-116118408D01*
X100362801Y-116159517D01*
X100366644Y-116170744D01*
X100378980Y-116213204D01*
X100378982Y-116213207D01*
X100388738Y-116229705D01*
X100389294Y-116230644D01*
X100397987Y-116248388D01*
X100401087Y-116256216D01*
X100405449Y-116267233D01*
X100431431Y-116302994D01*
X100437948Y-116312915D01*
X100460458Y-116350977D01*
X100474778Y-116365297D01*
X100487618Y-116380330D01*
X100499526Y-116396719D01*
X100499527Y-116396720D01*
X100499528Y-116396721D01*
X100509999Y-116405383D01*
X100533598Y-116424906D01*
X100542378Y-116432896D01*
X110935570Y-126826088D01*
X110969596Y-126888400D01*
X110971785Y-126902012D01*
X110989151Y-127067236D01*
X111048165Y-127248863D01*
X111143651Y-127414249D01*
X111200487Y-127477372D01*
X111271440Y-127556173D01*
X111425941Y-127668425D01*
X111600405Y-127746101D01*
X111787206Y-127785807D01*
X111787208Y-127785807D01*
X111978178Y-127785807D01*
X111978180Y-127785807D01*
X112164981Y-127746101D01*
X112339445Y-127668425D01*
X112354395Y-127657562D01*
X112421263Y-127633705D01*
X112428455Y-127633500D01*
X116766800Y-127633500D01*
X116834921Y-127653502D01*
X116860435Y-127675188D01*
X116863746Y-127678866D01*
X116951893Y-127742908D01*
X117018248Y-127791118D01*
X117192712Y-127868794D01*
X117379513Y-127908500D01*
X117379515Y-127908500D01*
X117570485Y-127908500D01*
X117570487Y-127908500D01*
X117757288Y-127868794D01*
X117931752Y-127791118D01*
X118086253Y-127678866D01*
X118089564Y-127675188D01*
X118150012Y-127637949D01*
X118183200Y-127633500D01*
X128821865Y-127633500D01*
X128842653Y-127635795D01*
X128845625Y-127635701D01*
X128845627Y-127635702D01*
X128913703Y-127633562D01*
X128917663Y-127633500D01*
X128941612Y-127633500D01*
X128945574Y-127633500D01*
X128949574Y-127632994D01*
X128961417Y-127632061D01*
X129005607Y-127630673D01*
X129025056Y-127625021D01*
X129044416Y-127621012D01*
X129064515Y-127618474D01*
X129105633Y-127602193D01*
X129116835Y-127598357D01*
X129159311Y-127586018D01*
X129176757Y-127575699D01*
X129194498Y-127567009D01*
X129213335Y-127559552D01*
X129249110Y-127533558D01*
X129259021Y-127527048D01*
X129297080Y-127504542D01*
X129311409Y-127490212D01*
X129326437Y-127477377D01*
X129342825Y-127465472D01*
X129371021Y-127431386D01*
X129378990Y-127422630D01*
X135643658Y-121157962D01*
X135659979Y-121144888D01*
X135662014Y-121142720D01*
X135662018Y-121142718D01*
X135708676Y-121093030D01*
X135711368Y-121090252D01*
X135731135Y-121070487D01*
X135733600Y-121067308D01*
X135741318Y-121058269D01*
X135771586Y-121026039D01*
X135781344Y-121008286D01*
X135792195Y-120991766D01*
X135804614Y-120975759D01*
X135822179Y-120935164D01*
X135827384Y-120924540D01*
X135848695Y-120885778D01*
X135853733Y-120866152D01*
X135860137Y-120847450D01*
X135868181Y-120828862D01*
X135871784Y-120806116D01*
X135875096Y-120785199D01*
X135877504Y-120773571D01*
X135888500Y-120730747D01*
X135888500Y-120710493D01*
X135890051Y-120690781D01*
X135890145Y-120690188D01*
X135893220Y-120670775D01*
X135889059Y-120626754D01*
X135888500Y-120614897D01*
X135888500Y-116796853D01*
X135890795Y-116776062D01*
X135888562Y-116705000D01*
X135888500Y-116701042D01*
X135888500Y-116677108D01*
X135888500Y-116673144D01*
X135887995Y-116669152D01*
X135887062Y-116657306D01*
X135886835Y-116650070D01*
X135885674Y-116613111D01*
X135880020Y-116593652D01*
X135876013Y-116574306D01*
X135873474Y-116554203D01*
X135857194Y-116513086D01*
X135853353Y-116501866D01*
X135841017Y-116459405D01*
X135830706Y-116441970D01*
X135822008Y-116424215D01*
X135814552Y-116405383D01*
X135788565Y-116369616D01*
X135782047Y-116359693D01*
X135759542Y-116321638D01*
X135745212Y-116307308D01*
X135732378Y-116292281D01*
X135720472Y-116275893D01*
X135710004Y-116267233D01*
X135686394Y-116247700D01*
X135677616Y-116239712D01*
X133117905Y-113680000D01*
X138971844Y-113680000D01*
X138990436Y-113904368D01*
X138990436Y-113904371D01*
X138990437Y-113904372D01*
X139045702Y-114122611D01*
X139045703Y-114122614D01*
X139045704Y-114122616D01*
X139061142Y-114157811D01*
X139136139Y-114328790D01*
X139206472Y-114436443D01*
X139259278Y-114517268D01*
X139401311Y-114671556D01*
X139411762Y-114682908D01*
X139589421Y-114821187D01*
X139589424Y-114821189D01*
X139787426Y-114928342D01*
X140000365Y-115001444D01*
X140222431Y-115038500D01*
X140222434Y-115038500D01*
X140447566Y-115038500D01*
X140447569Y-115038500D01*
X140669635Y-115001444D01*
X140882574Y-114928342D01*
X141080576Y-114821189D01*
X141258240Y-114682906D01*
X141410722Y-114517268D01*
X141533860Y-114328791D01*
X141624296Y-114122616D01*
X141679564Y-113904368D01*
X141698156Y-113680000D01*
X141696913Y-113665000D01*
X142781844Y-113665000D01*
X142800436Y-113889368D01*
X142800436Y-113889371D01*
X142800437Y-113889372D01*
X142855702Y-114107611D01*
X142855703Y-114107614D01*
X142855704Y-114107616D01*
X142862284Y-114122616D01*
X142946139Y-114313790D01*
X143026272Y-114436443D01*
X143069278Y-114502268D01*
X143214349Y-114659856D01*
X143221762Y-114667908D01*
X143364227Y-114778794D01*
X143399424Y-114806189D01*
X143597426Y-114913342D01*
X143810365Y-114986444D01*
X144032431Y-115023500D01*
X144032434Y-115023500D01*
X144257566Y-115023500D01*
X144257569Y-115023500D01*
X144479635Y-114986444D01*
X144692574Y-114913342D01*
X144890576Y-114806189D01*
X145068240Y-114667906D01*
X145220722Y-114502268D01*
X145343860Y-114313791D01*
X145434296Y-114107616D01*
X145489564Y-113889368D01*
X145508156Y-113665000D01*
X145489564Y-113440632D01*
X145434296Y-113222384D01*
X145343860Y-113016209D01*
X145220722Y-112827732D01*
X145068240Y-112662094D01*
X145068239Y-112662093D01*
X145068237Y-112662091D01*
X144890579Y-112523813D01*
X144890577Y-112523812D01*
X144890576Y-112523811D01*
X144857317Y-112505812D01*
X144806929Y-112455801D01*
X144791576Y-112386484D01*
X144816136Y-112319871D01*
X144857316Y-112284187D01*
X144890576Y-112266189D01*
X145068240Y-112127906D01*
X145220722Y-111962268D01*
X145343860Y-111773791D01*
X145434296Y-111567616D01*
X145489564Y-111349368D01*
X145508156Y-111125000D01*
X145489564Y-110900632D01*
X145434296Y-110682384D01*
X145343860Y-110476209D01*
X145220722Y-110287732D01*
X145077157Y-110131780D01*
X145045737Y-110068117D01*
X145053724Y-109997571D01*
X145098583Y-109942542D01*
X145125827Y-109928388D01*
X145240963Y-109885445D01*
X145357904Y-109797904D01*
X145445445Y-109680962D01*
X145496494Y-109544093D01*
X145502640Y-109486936D01*
X145503000Y-109480222D01*
X145503000Y-108839000D01*
X144576116Y-108839000D01*
X144604493Y-108794844D01*
X144645000Y-108656889D01*
X144645000Y-108513111D01*
X144604493Y-108375156D01*
X144576116Y-108331000D01*
X145503000Y-108331000D01*
X145503000Y-107689777D01*
X145502640Y-107683063D01*
X145496494Y-107625906D01*
X145445445Y-107489037D01*
X145357904Y-107372095D01*
X145240962Y-107284554D01*
X145104093Y-107233505D01*
X145046936Y-107227359D01*
X145040223Y-107227000D01*
X144399000Y-107227000D01*
X144399000Y-108151325D01*
X144287315Y-108100320D01*
X144180763Y-108085000D01*
X144109237Y-108085000D01*
X144002685Y-108100320D01*
X143891000Y-108151325D01*
X143891000Y-107227000D01*
X143249777Y-107227000D01*
X143243063Y-107227359D01*
X143185906Y-107233505D01*
X143049037Y-107284554D01*
X142932095Y-107372095D01*
X142844554Y-107489037D01*
X142793505Y-107625906D01*
X142787359Y-107683063D01*
X142787000Y-107689777D01*
X142787000Y-108331000D01*
X143713884Y-108331000D01*
X143685507Y-108375156D01*
X143645000Y-108513111D01*
X143645000Y-108656889D01*
X143685507Y-108794844D01*
X143713884Y-108839000D01*
X142787000Y-108839000D01*
X142787000Y-109480222D01*
X142787359Y-109486936D01*
X142793505Y-109544093D01*
X142844554Y-109680962D01*
X142932095Y-109797904D01*
X143049037Y-109885445D01*
X143164172Y-109928388D01*
X143221008Y-109970935D01*
X143245819Y-110037455D01*
X143230728Y-110106829D01*
X143212841Y-110131782D01*
X143069278Y-110287731D01*
X142946139Y-110476209D01*
X142855702Y-110682388D01*
X142828183Y-110791060D01*
X142800436Y-110900632D01*
X142781844Y-111125000D01*
X142800436Y-111349368D01*
X142800436Y-111349371D01*
X142800437Y-111349372D01*
X142855702Y-111567611D01*
X142855703Y-111567614D01*
X142855704Y-111567616D01*
X142862284Y-111582616D01*
X142946139Y-111773790D01*
X143069278Y-111962268D01*
X143221762Y-112127908D01*
X143399418Y-112266185D01*
X143399420Y-112266186D01*
X143399424Y-112266189D01*
X143432682Y-112284187D01*
X143483071Y-112334200D01*
X143498423Y-112403517D01*
X143473862Y-112470130D01*
X143432683Y-112505812D01*
X143407794Y-112519281D01*
X143399418Y-112523814D01*
X143221762Y-112662091D01*
X143069278Y-112827731D01*
X142946139Y-113016209D01*
X142855702Y-113222388D01*
X142812878Y-113391500D01*
X142800436Y-113440632D01*
X142781844Y-113665000D01*
X141696913Y-113665000D01*
X141679564Y-113455632D01*
X141624296Y-113237384D01*
X141533860Y-113031209D01*
X141410722Y-112842732D01*
X141258240Y-112677094D01*
X141258239Y-112677093D01*
X141258237Y-112677091D01*
X141080578Y-112538812D01*
X141047317Y-112520812D01*
X140996927Y-112470798D01*
X140981576Y-112401481D01*
X141006138Y-112334868D01*
X141047315Y-112299188D01*
X141080576Y-112281189D01*
X141258240Y-112142906D01*
X141410722Y-111977268D01*
X141533860Y-111788791D01*
X141624296Y-111582616D01*
X141679564Y-111364368D01*
X141698156Y-111140000D01*
X141679564Y-110915632D01*
X141624296Y-110697384D01*
X141533860Y-110491209D01*
X141410722Y-110302732D01*
X141267157Y-110146780D01*
X141235737Y-110083117D01*
X141243724Y-110012571D01*
X141288583Y-109957542D01*
X141315827Y-109943388D01*
X141430963Y-109900445D01*
X141547904Y-109812904D01*
X141635445Y-109695962D01*
X141686494Y-109559093D01*
X141692640Y-109501936D01*
X141693000Y-109495222D01*
X141693000Y-108854000D01*
X140766116Y-108854000D01*
X140794493Y-108809844D01*
X140835000Y-108671889D01*
X140835000Y-108528111D01*
X140794493Y-108390156D01*
X140766116Y-108346000D01*
X141693000Y-108346000D01*
X141693000Y-107704777D01*
X141692640Y-107698063D01*
X141686494Y-107640906D01*
X141635445Y-107504037D01*
X141547904Y-107387095D01*
X141430962Y-107299554D01*
X141294093Y-107248505D01*
X141236936Y-107242359D01*
X141230223Y-107242000D01*
X140589000Y-107242000D01*
X140589000Y-108166325D01*
X140477315Y-108115320D01*
X140370763Y-108100000D01*
X140299237Y-108100000D01*
X140192685Y-108115320D01*
X140081000Y-108166325D01*
X140081000Y-107242000D01*
X139439777Y-107242000D01*
X139433063Y-107242359D01*
X139375906Y-107248505D01*
X139239037Y-107299554D01*
X139122095Y-107387095D01*
X139034554Y-107504037D01*
X138983505Y-107640906D01*
X138977359Y-107698063D01*
X138977000Y-107704777D01*
X138977000Y-108346000D01*
X139903884Y-108346000D01*
X139875507Y-108390156D01*
X139835000Y-108528111D01*
X139835000Y-108671889D01*
X139875507Y-108809844D01*
X139903884Y-108854000D01*
X138977000Y-108854000D01*
X138977000Y-109495222D01*
X138977359Y-109501936D01*
X138983505Y-109559093D01*
X139034554Y-109695962D01*
X139122095Y-109812904D01*
X139239037Y-109900445D01*
X139354172Y-109943388D01*
X139411008Y-109985935D01*
X139435819Y-110052455D01*
X139420728Y-110121829D01*
X139402841Y-110146782D01*
X139259278Y-110302731D01*
X139136139Y-110491209D01*
X139045702Y-110697388D01*
X138990437Y-110915627D01*
X138990436Y-110915632D01*
X138971844Y-111140000D01*
X138990436Y-111364368D01*
X138990436Y-111364371D01*
X138990437Y-111364372D01*
X139045702Y-111582611D01*
X139136139Y-111788790D01*
X139136140Y-111788791D01*
X139259278Y-111977268D01*
X139401311Y-112131556D01*
X139411762Y-112142908D01*
X139589418Y-112281185D01*
X139589420Y-112281186D01*
X139589424Y-112281189D01*
X139622682Y-112299187D01*
X139673071Y-112349200D01*
X139688423Y-112418517D01*
X139663862Y-112485130D01*
X139622683Y-112520812D01*
X139597794Y-112534281D01*
X139589418Y-112538814D01*
X139411762Y-112677091D01*
X139259278Y-112842731D01*
X139136139Y-113031209D01*
X139045702Y-113237388D01*
X138993243Y-113444548D01*
X138990436Y-113455632D01*
X138971844Y-113680000D01*
X133117905Y-113680000D01*
X130809244Y-111371339D01*
X130796171Y-111355021D01*
X130790155Y-111349372D01*
X130744348Y-111306356D01*
X130741506Y-111303601D01*
X130724574Y-111286669D01*
X130721770Y-111283865D01*
X130718575Y-111281386D01*
X130709554Y-111273682D01*
X130677320Y-111243413D01*
X130659567Y-111233653D01*
X130643041Y-111222797D01*
X130627041Y-111210386D01*
X130586466Y-111192828D01*
X130575804Y-111187604D01*
X130537063Y-111166305D01*
X130523313Y-111162775D01*
X130517437Y-111161266D01*
X130498731Y-111154862D01*
X130480145Y-111146819D01*
X130437094Y-111140000D01*
X130436474Y-111139901D01*
X130424853Y-111137495D01*
X130382030Y-111126500D01*
X130382029Y-111126500D01*
X130361776Y-111126500D01*
X130342066Y-111124949D01*
X130322057Y-111121779D01*
X130278039Y-111125941D01*
X130266181Y-111126500D01*
X130248200Y-111126500D01*
X130180079Y-111106498D01*
X130154565Y-111084812D01*
X130151253Y-111081133D01*
X129996753Y-110968883D01*
X129996752Y-110968882D01*
X129822288Y-110891206D01*
X129635487Y-110851500D01*
X129444513Y-110851500D01*
X129319978Y-110877970D01*
X129257711Y-110891206D01*
X129083246Y-110968883D01*
X128928747Y-111081133D01*
X128800958Y-111223057D01*
X128705472Y-111388443D01*
X128646458Y-111570070D01*
X128626496Y-111760000D01*
X128646458Y-111949929D01*
X128705472Y-112131556D01*
X128800958Y-112296942D01*
X128834503Y-112334197D01*
X128928747Y-112438866D01*
X129083248Y-112551118D01*
X129124248Y-112569372D01*
X129178344Y-112615352D01*
X129198310Y-112671308D01*
X129209302Y-112775891D01*
X129268316Y-112957518D01*
X129363804Y-113122907D01*
X129416282Y-113181190D01*
X129447000Y-113245197D01*
X129438235Y-113315651D01*
X129392772Y-113370182D01*
X129325045Y-113391477D01*
X129322646Y-113391500D01*
X129190513Y-113391500D01*
X129065979Y-113417970D01*
X129003711Y-113431206D01*
X128829246Y-113508883D01*
X128674747Y-113621133D01*
X128546958Y-113763057D01*
X128451473Y-113928442D01*
X128391689Y-114112437D01*
X128351615Y-114171042D01*
X128286218Y-114198679D01*
X128271856Y-114199500D01*
X127730710Y-114199500D01*
X127662589Y-114179498D01*
X127637074Y-114157811D01*
X127611252Y-114129133D01*
X127456753Y-114016883D01*
X127456752Y-114016882D01*
X127282288Y-113939206D01*
X127095487Y-113899500D01*
X126904513Y-113899500D01*
X126779978Y-113925970D01*
X126717711Y-113939206D01*
X126543246Y-114016883D01*
X126388747Y-114129133D01*
X126260958Y-114271057D01*
X126165472Y-114436443D01*
X126106458Y-114618070D01*
X126086496Y-114807999D01*
X126106458Y-114997929D01*
X126165472Y-115179556D01*
X126260958Y-115344942D01*
X126260960Y-115344944D01*
X126388747Y-115486866D01*
X126543248Y-115599118D01*
X126717712Y-115676794D01*
X126904513Y-115716500D01*
X126904515Y-115716500D01*
X127095485Y-115716500D01*
X127095487Y-115716500D01*
X127282288Y-115676794D01*
X127456752Y-115599118D01*
X127611253Y-115486866D01*
X127637073Y-115458189D01*
X127697520Y-115420950D01*
X127730710Y-115416500D01*
X128729864Y-115416500D01*
X128746307Y-115417577D01*
X128778000Y-115421750D01*
X128817880Y-115416500D01*
X128817885Y-115416500D01*
X128917456Y-115403391D01*
X128936851Y-115400838D01*
X129084876Y-115339524D01*
X129180072Y-115266477D01*
X129180072Y-115266476D01*
X129196629Y-115253772D01*
X129196632Y-115253769D01*
X129221698Y-115234536D01*
X129287919Y-115208937D01*
X129298400Y-115208500D01*
X129381485Y-115208500D01*
X129381487Y-115208500D01*
X129568288Y-115168794D01*
X129742752Y-115091118D01*
X129897253Y-114978866D01*
X130025040Y-114836944D01*
X130120527Y-114671556D01*
X130179542Y-114489928D01*
X130199504Y-114300000D01*
X130179542Y-114110072D01*
X130120527Y-113928444D01*
X130120527Y-113928443D01*
X130025039Y-113763054D01*
X129972562Y-113704772D01*
X129941844Y-113640765D01*
X129950609Y-113570311D01*
X129996072Y-113515780D01*
X130063799Y-113494485D01*
X130066198Y-113494462D01*
X130198329Y-113494462D01*
X130198331Y-113494462D01*
X130383635Y-113455074D01*
X130454425Y-113460476D01*
X130498925Y-113489225D01*
X131909262Y-114899563D01*
X133314594Y-116304895D01*
X133348620Y-116367207D01*
X133351499Y-116393990D01*
X133351499Y-117839888D01*
X133331497Y-117908009D01*
X133277841Y-117954502D01*
X133207567Y-117964606D01*
X133174250Y-117954995D01*
X133171754Y-117953884D01*
X133171752Y-117953882D01*
X132997288Y-117876206D01*
X132810487Y-117836500D01*
X132619513Y-117836500D01*
X132494979Y-117862970D01*
X132432711Y-117876206D01*
X132292696Y-117938544D01*
X132288368Y-117940472D01*
X132258246Y-117953883D01*
X132103747Y-118066133D01*
X131975958Y-118208057D01*
X131880472Y-118373443D01*
X131821458Y-118555070D01*
X131804093Y-118720290D01*
X131777079Y-118785947D01*
X131767879Y-118796214D01*
X131219500Y-119344595D01*
X131157187Y-119378620D01*
X131130404Y-119381500D01*
X112468200Y-119381500D01*
X112400079Y-119361498D01*
X112374565Y-119339812D01*
X112371253Y-119336133D01*
X112216753Y-119223883D01*
X112216752Y-119223882D01*
X112042288Y-119146206D01*
X111855487Y-119106500D01*
X111664513Y-119106500D01*
X111539978Y-119132970D01*
X111477711Y-119146206D01*
X111303246Y-119223883D01*
X111148747Y-119336133D01*
X111020958Y-119478057D01*
X110925472Y-119643443D01*
X110866458Y-119825070D01*
X110846496Y-120014999D01*
X110866458Y-120204929D01*
X110925472Y-120386556D01*
X111020958Y-120551942D01*
X111020960Y-120551944D01*
X111148747Y-120693866D01*
X111303248Y-120806118D01*
X111477712Y-120883794D01*
X111664513Y-120923500D01*
X111664515Y-120923500D01*
X111855485Y-120923500D01*
X111855487Y-120923500D01*
X112042288Y-120883794D01*
X112216752Y-120806118D01*
X112371253Y-120693866D01*
X112374564Y-120690188D01*
X112435012Y-120652949D01*
X112468200Y-120648500D01*
X120117048Y-120648500D01*
X120185169Y-120668502D01*
X120231662Y-120722158D01*
X120241766Y-120792432D01*
X120212272Y-120857012D01*
X120191109Y-120876436D01*
X120038746Y-120987133D01*
X120035435Y-120990812D01*
X119974988Y-121028051D01*
X119941800Y-121032500D01*
X119717853Y-121032500D01*
X119697064Y-121030204D01*
X119626014Y-121032438D01*
X119622055Y-121032500D01*
X119594144Y-121032500D01*
X119590218Y-121032995D01*
X119590200Y-121032997D01*
X119590108Y-121033009D01*
X119578303Y-121033937D01*
X119534110Y-121035326D01*
X119514657Y-121040978D01*
X119495303Y-121044986D01*
X119475204Y-121047525D01*
X119434096Y-121063801D01*
X119422870Y-121067644D01*
X119380408Y-121079981D01*
X119362964Y-121090297D01*
X119345215Y-121098991D01*
X119326384Y-121106446D01*
X119290625Y-121132427D01*
X119280706Y-121138943D01*
X119242636Y-121161457D01*
X119228309Y-121175785D01*
X119213279Y-121188622D01*
X119196894Y-121200526D01*
X119168711Y-121234593D01*
X119160723Y-121243370D01*
X115979500Y-124424595D01*
X115917188Y-124458620D01*
X115890405Y-124461500D01*
X111833200Y-124461500D01*
X111765079Y-124441498D01*
X111739565Y-124419812D01*
X111736253Y-124416133D01*
X111581753Y-124303883D01*
X111581752Y-124303882D01*
X111407288Y-124226206D01*
X111220487Y-124186500D01*
X111220485Y-124186500D01*
X111164594Y-124186500D01*
X111096473Y-124166498D01*
X111075499Y-124149595D01*
X103182121Y-116256216D01*
X103148095Y-116193904D01*
X103145908Y-116180309D01*
X103128542Y-116015072D01*
X103069527Y-115833444D01*
X103069527Y-115833443D01*
X102974041Y-115668057D01*
X102846252Y-115526133D01*
X102695355Y-115416500D01*
X102691752Y-115413882D01*
X102517288Y-115336206D01*
X102330487Y-115296500D01*
X102139513Y-115296500D01*
X102102885Y-115304285D01*
X101991282Y-115328007D01*
X101920492Y-115322605D01*
X101863859Y-115279788D01*
X101839366Y-115213150D01*
X101845251Y-115165830D01*
X101858542Y-115124928D01*
X101878504Y-114935000D01*
X101858542Y-114745072D01*
X101821139Y-114629957D01*
X101799527Y-114563443D01*
X101704041Y-114398057D01*
X101576252Y-114256133D01*
X101459134Y-114171042D01*
X101421752Y-114143882D01*
X101247288Y-114066206D01*
X101060487Y-114026500D01*
X100869513Y-114026500D01*
X100744979Y-114052970D01*
X100682711Y-114066206D01*
X100508246Y-114143883D01*
X100353747Y-114256133D01*
X100225958Y-114398057D01*
X100130472Y-114563443D01*
X100071458Y-114745070D01*
X100051496Y-114935000D01*
X93980000Y-114935000D01*
X93980000Y-113665000D01*
X105766496Y-113665000D01*
X105768073Y-113680000D01*
X105786458Y-113854929D01*
X105845472Y-114036556D01*
X105940958Y-114201942D01*
X105940960Y-114201944D01*
X106014137Y-114283215D01*
X106044853Y-114347220D01*
X106046500Y-114367524D01*
X106046500Y-114536147D01*
X106044204Y-114556935D01*
X106046438Y-114627984D01*
X106046500Y-114631943D01*
X106046500Y-114659856D01*
X106046995Y-114663774D01*
X106046997Y-114663806D01*
X106047008Y-114663888D01*
X106047937Y-114675697D01*
X106049326Y-114719892D01*
X106054977Y-114739341D01*
X106058986Y-114758696D01*
X106061525Y-114778794D01*
X106061525Y-114778796D01*
X106061526Y-114778797D01*
X106072370Y-114806187D01*
X106077801Y-114819903D01*
X106081644Y-114831130D01*
X106093980Y-114873590D01*
X106104294Y-114891030D01*
X106112987Y-114908774D01*
X106114796Y-114913342D01*
X106120449Y-114927619D01*
X106146431Y-114963380D01*
X106152948Y-114973301D01*
X106175458Y-115011363D01*
X106189778Y-115025683D01*
X106202618Y-115040716D01*
X106214526Y-115057105D01*
X106248598Y-115085292D01*
X106257378Y-115093282D01*
X107317877Y-116153781D01*
X107351903Y-116216093D01*
X107354092Y-116229705D01*
X107371458Y-116394929D01*
X107430472Y-116576556D01*
X107525958Y-116741942D01*
X107653746Y-116883866D01*
X107653747Y-116883866D01*
X107808248Y-116996118D01*
X107982712Y-117073794D01*
X108169513Y-117113500D01*
X108169515Y-117113500D01*
X108360485Y-117113500D01*
X108360487Y-117113500D01*
X108547288Y-117073794D01*
X108721752Y-116996118D01*
X108876253Y-116883866D01*
X109004040Y-116741944D01*
X109099527Y-116576556D01*
X109158542Y-116394928D01*
X109178504Y-116205000D01*
X109158542Y-116015072D01*
X109099527Y-115833444D01*
X109099527Y-115833443D01*
X109004041Y-115668057D01*
X108876252Y-115526133D01*
X108725355Y-115416500D01*
X108721752Y-115413882D01*
X108547288Y-115336206D01*
X108360487Y-115296500D01*
X108360485Y-115296500D01*
X108304595Y-115296500D01*
X108236474Y-115276498D01*
X108215500Y-115259595D01*
X107379837Y-114423932D01*
X107345811Y-114361620D01*
X107350876Y-114290805D01*
X107375294Y-114250527D01*
X107419040Y-114201944D01*
X107514527Y-114036556D01*
X107573542Y-113854928D01*
X107593504Y-113665000D01*
X107573542Y-113475072D01*
X107515896Y-113297656D01*
X107514527Y-113293443D01*
X107419041Y-113128057D01*
X107291252Y-112986133D01*
X107136753Y-112873883D01*
X107136752Y-112873882D01*
X106962288Y-112796206D01*
X106775487Y-112756500D01*
X106584513Y-112756500D01*
X106459979Y-112782970D01*
X106397711Y-112796206D01*
X106223246Y-112873883D01*
X106068747Y-112986133D01*
X105940958Y-113128057D01*
X105845472Y-113293443D01*
X105786458Y-113475070D01*
X105771106Y-113621134D01*
X105766496Y-113665000D01*
X93980000Y-113665000D01*
X93980000Y-104775000D01*
X101321496Y-104775000D01*
X101326879Y-104826216D01*
X101341458Y-104964929D01*
X101400472Y-105146556D01*
X101495958Y-105311942D01*
X101495960Y-105311944D01*
X101623747Y-105453866D01*
X101778248Y-105566118D01*
X101952712Y-105643794D01*
X102139513Y-105683500D01*
X102195406Y-105683500D01*
X102263527Y-105703502D01*
X102284501Y-105720405D01*
X103632754Y-107068659D01*
X103645833Y-107084983D01*
X103697651Y-107133643D01*
X103700493Y-107136398D01*
X103720230Y-107156135D01*
X103723360Y-107158563D01*
X103723432Y-107158619D01*
X103732442Y-107166314D01*
X103764679Y-107196586D01*
X103782426Y-107206342D01*
X103798950Y-107217196D01*
X103814959Y-107229614D01*
X103855542Y-107247175D01*
X103866193Y-107252393D01*
X103904940Y-107273695D01*
X103924560Y-107278732D01*
X103943267Y-107285137D01*
X103949880Y-107287998D01*
X103961854Y-107293181D01*
X103972505Y-107294867D01*
X104005530Y-107300098D01*
X104017125Y-107302498D01*
X104059970Y-107313500D01*
X104080224Y-107313500D01*
X104099934Y-107315051D01*
X104119942Y-107318220D01*
X104119942Y-107318219D01*
X104119943Y-107318220D01*
X104163961Y-107314058D01*
X104175819Y-107313500D01*
X106606800Y-107313500D01*
X106674921Y-107333502D01*
X106700435Y-107355188D01*
X106703746Y-107358866D01*
X106791893Y-107422908D01*
X106858248Y-107471118D01*
X107032712Y-107548794D01*
X107219513Y-107588500D01*
X107219515Y-107588500D01*
X107410485Y-107588500D01*
X107410487Y-107588500D01*
X107597288Y-107548794D01*
X107771752Y-107471118D01*
X107926253Y-107358866D01*
X108054040Y-107216944D01*
X108149527Y-107051556D01*
X108208542Y-106869928D01*
X108228504Y-106680000D01*
X108208542Y-106490072D01*
X108149527Y-106308444D01*
X108149527Y-106308443D01*
X108054041Y-106143057D01*
X108041663Y-106129310D01*
X108010946Y-106065303D01*
X108019709Y-105994849D01*
X108041663Y-105960689D01*
X108054040Y-105946944D01*
X108057402Y-105941122D01*
X108149527Y-105781556D01*
X108177688Y-105694886D01*
X108208542Y-105599928D01*
X108228504Y-105410000D01*
X108208542Y-105220072D01*
X108153291Y-105050028D01*
X108149527Y-105038443D01*
X108054041Y-104873057D01*
X107929565Y-104734812D01*
X107926253Y-104731134D01*
X107906269Y-104716615D01*
X107820521Y-104654315D01*
X107771752Y-104618882D01*
X107597288Y-104541206D01*
X107410487Y-104501500D01*
X107219513Y-104501500D01*
X107141351Y-104518114D01*
X107032711Y-104541206D01*
X106858246Y-104618883D01*
X106703746Y-104731133D01*
X106700435Y-104734812D01*
X106639988Y-104772051D01*
X106606800Y-104776500D01*
X105802113Y-104776500D01*
X105733992Y-104756498D01*
X105687499Y-104702842D01*
X105676803Y-104663672D01*
X105668542Y-104585072D01*
X105609527Y-104403444D01*
X105609527Y-104403443D01*
X105514041Y-104238057D01*
X105440863Y-104156783D01*
X105410146Y-104092775D01*
X105408500Y-104072473D01*
X105408500Y-82619207D01*
X105428502Y-82551086D01*
X105445400Y-82530117D01*
X107457517Y-80518000D01*
X108814496Y-80518000D01*
X108834458Y-80707929D01*
X108893472Y-80889556D01*
X108988958Y-81054942D01*
X108988960Y-81054944D01*
X109116747Y-81196866D01*
X109271248Y-81309118D01*
X109445712Y-81386794D01*
X109632513Y-81426500D01*
X109632515Y-81426500D01*
X109823485Y-81426500D01*
X109823487Y-81426500D01*
X110010288Y-81386794D01*
X110184752Y-81309118D01*
X110339253Y-81196866D01*
X110342564Y-81193188D01*
X110403012Y-81155949D01*
X110436200Y-81151500D01*
X111168147Y-81151500D01*
X111188935Y-81153795D01*
X111191907Y-81153701D01*
X111191909Y-81153702D01*
X111259985Y-81151562D01*
X111263945Y-81151500D01*
X111287894Y-81151500D01*
X111291856Y-81151500D01*
X111295856Y-81150994D01*
X111307699Y-81150061D01*
X111351889Y-81148673D01*
X111371338Y-81143021D01*
X111390698Y-81139012D01*
X111410797Y-81136474D01*
X111451915Y-81120193D01*
X111463117Y-81116357D01*
X111505593Y-81104018D01*
X111523039Y-81093699D01*
X111540780Y-81085009D01*
X111559617Y-81077552D01*
X111595392Y-81051558D01*
X111605303Y-81045048D01*
X111643362Y-81022542D01*
X111657691Y-81008212D01*
X111672719Y-80995377D01*
X111689107Y-80983472D01*
X111717303Y-80949386D01*
X111725272Y-80940630D01*
X113742498Y-78923405D01*
X113804811Y-78889379D01*
X113831594Y-78886500D01*
X113887485Y-78886500D01*
X113887487Y-78886500D01*
X114074288Y-78846794D01*
X114248752Y-78769118D01*
X114403253Y-78656866D01*
X114531040Y-78514944D01*
X114626527Y-78349556D01*
X114685542Y-78167928D01*
X114705504Y-77978000D01*
X114685542Y-77788072D01*
X114642854Y-77656693D01*
X114626527Y-77606443D01*
X114531041Y-77441057D01*
X114403252Y-77299133D01*
X114248753Y-77186883D01*
X114248752Y-77186882D01*
X114074288Y-77109206D01*
X113887487Y-77069500D01*
X113696513Y-77069500D01*
X113571979Y-77095970D01*
X113509711Y-77109206D01*
X113335246Y-77186883D01*
X113180747Y-77299133D01*
X113052958Y-77441057D01*
X112957472Y-77606443D01*
X112898458Y-77788070D01*
X112881093Y-77953291D01*
X112854079Y-78018948D01*
X112844878Y-78029215D01*
X111026498Y-79847596D01*
X110964188Y-79881620D01*
X110937405Y-79884500D01*
X110436200Y-79884500D01*
X110368079Y-79864498D01*
X110342565Y-79842812D01*
X110339253Y-79839133D01*
X110184753Y-79726883D01*
X110184752Y-79726882D01*
X110010288Y-79649206D01*
X109823487Y-79609500D01*
X109632513Y-79609500D01*
X109507978Y-79635970D01*
X109445711Y-79649206D01*
X109271246Y-79726883D01*
X109116747Y-79839133D01*
X108988958Y-79981057D01*
X108893472Y-80146443D01*
X108834458Y-80328070D01*
X108814496Y-80518000D01*
X107457517Y-80518000D01*
X117737076Y-70238440D01*
X117799386Y-70204416D01*
X117870201Y-70209481D01*
X117927037Y-70252028D01*
X117935289Y-70264538D01*
X118005108Y-70385470D01*
X118021988Y-70448469D01*
X118021988Y-95659916D01*
X118001986Y-95728037D01*
X117985083Y-95749011D01*
X110539500Y-103194595D01*
X110477188Y-103228621D01*
X110450405Y-103231500D01*
X110394513Y-103231500D01*
X110269979Y-103257970D01*
X110207711Y-103271206D01*
X110033246Y-103348883D01*
X109878747Y-103461133D01*
X109750958Y-103603057D01*
X109655472Y-103768443D01*
X109596458Y-103950070D01*
X109576496Y-104140000D01*
X109596458Y-104329929D01*
X109655472Y-104511556D01*
X109750958Y-104676942D01*
X109844141Y-104780432D01*
X109878747Y-104818866D01*
X110033248Y-104931118D01*
X110207712Y-105008794D01*
X110394513Y-105048500D01*
X110394515Y-105048500D01*
X110585485Y-105048500D01*
X110585487Y-105048500D01*
X110772288Y-105008794D01*
X110946752Y-104931118D01*
X111101253Y-104818866D01*
X111229040Y-104676944D01*
X111324527Y-104511556D01*
X111383542Y-104329928D01*
X111400907Y-104164702D01*
X111427920Y-104099048D01*
X111437113Y-104088789D01*
X119044147Y-96481755D01*
X119060468Y-96468681D01*
X119062503Y-96466513D01*
X119062507Y-96466511D01*
X119109165Y-96416823D01*
X119111857Y-96414045D01*
X119131623Y-96394281D01*
X119134090Y-96391099D01*
X119141797Y-96382073D01*
X119172075Y-96349832D01*
X119181832Y-96332081D01*
X119192688Y-96315554D01*
X119205102Y-96299552D01*
X119222661Y-96258972D01*
X119227882Y-96248318D01*
X119234599Y-96236101D01*
X119284946Y-96186044D01*
X119354364Y-96171154D01*
X119420812Y-96196157D01*
X119463194Y-96253116D01*
X119471011Y-96296806D01*
X119471011Y-98217221D01*
X119451009Y-98285342D01*
X119397353Y-98331835D01*
X119327079Y-98341939D01*
X119270950Y-98319157D01*
X119201753Y-98268883D01*
X119201752Y-98268882D01*
X119027288Y-98191206D01*
X118840487Y-98151500D01*
X118649513Y-98151500D01*
X118524978Y-98177970D01*
X118462711Y-98191206D01*
X118288246Y-98268883D01*
X118133747Y-98381133D01*
X118005958Y-98523057D01*
X117910472Y-98688443D01*
X117851458Y-98870070D01*
X117834093Y-99035291D01*
X117807079Y-99100948D01*
X117797878Y-99111215D01*
X115726825Y-101182268D01*
X115710505Y-101195344D01*
X115661859Y-101247146D01*
X115659110Y-101249983D01*
X115642156Y-101266938D01*
X115642149Y-101266945D01*
X115639354Y-101269741D01*
X115636931Y-101272863D01*
X115636915Y-101272882D01*
X115636854Y-101272962D01*
X115629178Y-101281947D01*
X115598903Y-101314188D01*
X115589141Y-101331945D01*
X115578290Y-101348463D01*
X115565874Y-101364470D01*
X115548313Y-101405050D01*
X115543093Y-101415706D01*
X115521793Y-101454451D01*
X115516756Y-101474070D01*
X115510353Y-101492772D01*
X115502307Y-101511366D01*
X115495390Y-101555035D01*
X115492984Y-101566655D01*
X115481989Y-101609480D01*
X115481989Y-101629734D01*
X115480438Y-101649444D01*
X115477268Y-101669453D01*
X115481430Y-101713472D01*
X115481989Y-101725330D01*
X115481989Y-112804916D01*
X115461987Y-112873037D01*
X115445084Y-112894011D01*
X111809500Y-116529595D01*
X111747188Y-116563621D01*
X111720405Y-116566500D01*
X111664513Y-116566500D01*
X111581557Y-116584133D01*
X111477711Y-116606206D01*
X111303246Y-116683883D01*
X111148747Y-116796133D01*
X111020958Y-116938057D01*
X110925472Y-117103443D01*
X110866458Y-117285070D01*
X110866457Y-117285072D01*
X110866458Y-117285072D01*
X110846496Y-117475000D01*
X110856477Y-117569964D01*
X110866458Y-117664929D01*
X110925472Y-117846556D01*
X111020958Y-118011942D01*
X111020960Y-118011944D01*
X111148747Y-118153866D01*
X111303248Y-118266118D01*
X111477712Y-118343794D01*
X111664513Y-118383500D01*
X111664515Y-118383500D01*
X111855485Y-118383500D01*
X111855487Y-118383500D01*
X112042288Y-118343794D01*
X112216752Y-118266118D01*
X112371253Y-118153866D01*
X112499040Y-118011944D01*
X112533434Y-117952372D01*
X112601149Y-117835087D01*
X112603497Y-117836442D01*
X112632738Y-117793677D01*
X112698134Y-117766039D01*
X112768091Y-117778143D01*
X112820398Y-117826148D01*
X112826862Y-117840302D01*
X112925958Y-118011942D01*
X112925960Y-118011944D01*
X113053747Y-118153866D01*
X113208248Y-118266118D01*
X113382712Y-118343794D01*
X113569513Y-118383500D01*
X113569515Y-118383500D01*
X113760485Y-118383500D01*
X113760487Y-118383500D01*
X113947288Y-118343794D01*
X114121752Y-118266118D01*
X114276253Y-118153866D01*
X114279564Y-118150188D01*
X114340012Y-118112949D01*
X114373200Y-118108500D01*
X114851147Y-118108500D01*
X114871935Y-118110795D01*
X114874907Y-118110701D01*
X114874909Y-118110702D01*
X114942985Y-118108562D01*
X114946945Y-118108500D01*
X114970894Y-118108500D01*
X114974856Y-118108500D01*
X114978856Y-118107994D01*
X114990699Y-118107061D01*
X115034889Y-118105673D01*
X115054338Y-118100021D01*
X115073698Y-118096012D01*
X115093797Y-118093474D01*
X115134915Y-118077193D01*
X115146117Y-118073357D01*
X115188593Y-118061018D01*
X115206039Y-118050699D01*
X115223780Y-118042009D01*
X115242617Y-118034552D01*
X115278392Y-118008558D01*
X115288303Y-118002048D01*
X115326362Y-117979542D01*
X115340691Y-117965212D01*
X115355719Y-117952377D01*
X115372107Y-117940472D01*
X115400303Y-117906386D01*
X115408272Y-117897630D01*
X118531407Y-114774496D01*
X118593717Y-114740472D01*
X118664533Y-114745537D01*
X118721368Y-114788084D01*
X118746179Y-114854604D01*
X118746500Y-114863593D01*
X118746499Y-116137473D01*
X118726497Y-116205594D01*
X118714136Y-116221782D01*
X118640960Y-116303053D01*
X118545472Y-116468443D01*
X118486458Y-116650070D01*
X118466496Y-116840000D01*
X118486458Y-117029929D01*
X118545472Y-117211556D01*
X118640958Y-117376942D01*
X118640960Y-117376944D01*
X118768747Y-117518866D01*
X118923248Y-117631118D01*
X119097712Y-117708794D01*
X119284513Y-117748500D01*
X119284515Y-117748500D01*
X119475485Y-117748500D01*
X119475487Y-117748500D01*
X119662288Y-117708794D01*
X119836752Y-117631118D01*
X119991253Y-117518866D01*
X120119040Y-117376944D01*
X120214527Y-117211556D01*
X120273542Y-117029928D01*
X120293504Y-116840000D01*
X120273542Y-116650072D01*
X120225387Y-116501866D01*
X120214527Y-116468443D01*
X120135751Y-116332000D01*
X128016000Y-116332000D01*
X128016000Y-118364000D01*
X130048000Y-118364000D01*
X130048000Y-116332000D01*
X128016000Y-116332000D01*
X120135751Y-116332000D01*
X120119041Y-116303057D01*
X120045863Y-116221783D01*
X120015146Y-116157775D01*
X120013500Y-116137473D01*
X120013500Y-104454594D01*
X120033502Y-104386473D01*
X120050405Y-104365499D01*
X121870499Y-102545405D01*
X121932811Y-102511379D01*
X121959594Y-102508500D01*
X122015485Y-102508500D01*
X122015487Y-102508500D01*
X122202288Y-102468794D01*
X122376752Y-102391118D01*
X122531253Y-102278866D01*
X122659040Y-102136944D01*
X122754527Y-101971556D01*
X122813542Y-101789928D01*
X122833504Y-101600000D01*
X122813542Y-101410072D01*
X122761073Y-101248589D01*
X122754527Y-101228443D01*
X122659041Y-101063057D01*
X122582312Y-100977841D01*
X122551595Y-100913833D01*
X122560359Y-100843379D01*
X122586850Y-100804438D01*
X123442289Y-99948999D01*
X125451496Y-99948999D01*
X125471458Y-100138929D01*
X125530472Y-100320556D01*
X125625958Y-100485942D01*
X125625960Y-100485944D01*
X125753747Y-100627866D01*
X125908248Y-100740118D01*
X126082712Y-100817794D01*
X126269513Y-100857500D01*
X126269515Y-100857500D01*
X126460485Y-100857500D01*
X126460487Y-100857500D01*
X126647288Y-100817794D01*
X126821752Y-100740118D01*
X126976253Y-100627866D01*
X126979564Y-100624188D01*
X127040012Y-100586949D01*
X127073200Y-100582500D01*
X127984166Y-100582500D01*
X128052287Y-100602502D01*
X128058223Y-100606561D01*
X128067248Y-100613118D01*
X128241712Y-100690794D01*
X128428513Y-100730500D01*
X128428515Y-100730500D01*
X128619485Y-100730500D01*
X128619487Y-100730500D01*
X128806288Y-100690794D01*
X128980752Y-100613118D01*
X128989774Y-100606562D01*
X129056642Y-100582705D01*
X129063834Y-100582500D01*
X141354406Y-100582500D01*
X141422527Y-100602502D01*
X141443501Y-100619405D01*
X146109595Y-105285499D01*
X146143621Y-105347811D01*
X146146500Y-105374594D01*
X146146500Y-109866147D01*
X146144204Y-109886935D01*
X146146438Y-109957984D01*
X146146500Y-109961943D01*
X146146500Y-109989856D01*
X146146995Y-109993774D01*
X146146997Y-109993806D01*
X146147008Y-109993888D01*
X146147937Y-110005697D01*
X146149326Y-110049892D01*
X146154977Y-110069341D01*
X146158986Y-110088696D01*
X146161525Y-110108794D01*
X146161525Y-110108796D01*
X146161526Y-110108797D01*
X146172729Y-110137094D01*
X146177801Y-110149903D01*
X146181644Y-110161130D01*
X146193980Y-110203590D01*
X146204294Y-110221030D01*
X146212987Y-110238774D01*
X146220448Y-110257617D01*
X146220449Y-110257619D01*
X146246431Y-110293380D01*
X146252948Y-110303301D01*
X146275458Y-110341363D01*
X146289778Y-110355683D01*
X146302618Y-110370716D01*
X146314526Y-110387105D01*
X146348598Y-110415292D01*
X146357378Y-110423282D01*
X146605132Y-110671036D01*
X146639158Y-110733348D01*
X146638182Y-110791060D01*
X146610436Y-110900629D01*
X146604780Y-110968883D01*
X146591844Y-111125000D01*
X146610436Y-111349368D01*
X146610436Y-111349371D01*
X146610437Y-111349372D01*
X146665702Y-111567611D01*
X146665703Y-111567614D01*
X146665704Y-111567616D01*
X146672284Y-111582616D01*
X146756139Y-111773790D01*
X146879278Y-111962268D01*
X147031762Y-112127908D01*
X147051034Y-112142908D01*
X147209424Y-112266189D01*
X147242682Y-112284187D01*
X147293070Y-112334197D01*
X147308423Y-112403513D01*
X147283863Y-112470127D01*
X147242683Y-112505811D01*
X147209423Y-112523810D01*
X147031762Y-112662091D01*
X146879278Y-112827731D01*
X146756139Y-113016209D01*
X146665702Y-113222388D01*
X146622878Y-113391500D01*
X146610436Y-113440632D01*
X146591844Y-113665000D01*
X146610436Y-113889368D01*
X146610436Y-113889371D01*
X146610437Y-113889372D01*
X146665702Y-114107611D01*
X146665703Y-114107614D01*
X146665704Y-114107616D01*
X146672284Y-114122616D01*
X146756139Y-114313790D01*
X146836272Y-114436443D01*
X146879278Y-114502268D01*
X147024349Y-114659856D01*
X147031762Y-114667908D01*
X147174227Y-114778794D01*
X147209424Y-114806189D01*
X147407426Y-114913342D01*
X147620365Y-114986444D01*
X147842431Y-115023500D01*
X147842434Y-115023500D01*
X148067566Y-115023500D01*
X148067569Y-115023500D01*
X148289635Y-114986444D01*
X148502574Y-114913342D01*
X148700576Y-114806189D01*
X148878240Y-114667906D01*
X149030722Y-114502268D01*
X149153860Y-114313791D01*
X149244296Y-114107616D01*
X149299564Y-113889368D01*
X149318156Y-113665000D01*
X149299564Y-113440632D01*
X149244296Y-113222384D01*
X149153860Y-113016209D01*
X149030722Y-112827732D01*
X148878240Y-112662094D01*
X148878239Y-112662093D01*
X148878237Y-112662091D01*
X148700578Y-112523812D01*
X148667317Y-112505812D01*
X148616927Y-112455798D01*
X148601576Y-112386481D01*
X148626138Y-112319868D01*
X148667315Y-112284188D01*
X148700576Y-112266189D01*
X148878240Y-112127906D01*
X149030722Y-111962268D01*
X149153860Y-111773791D01*
X149244296Y-111567616D01*
X149299564Y-111349368D01*
X149318156Y-111125000D01*
X149299564Y-110900632D01*
X149244296Y-110682384D01*
X149153860Y-110476209D01*
X149030722Y-110287732D01*
X148887157Y-110131780D01*
X148855737Y-110068117D01*
X148863724Y-109997571D01*
X148908583Y-109942542D01*
X148935827Y-109928388D01*
X149050963Y-109885445D01*
X149167904Y-109797904D01*
X149255445Y-109680962D01*
X149306494Y-109544093D01*
X149312640Y-109486936D01*
X149313000Y-109480222D01*
X149313000Y-108839000D01*
X148386116Y-108839000D01*
X148414493Y-108794844D01*
X148455000Y-108656889D01*
X148455000Y-108513111D01*
X148414493Y-108375156D01*
X148386116Y-108331000D01*
X149313000Y-108331000D01*
X149313000Y-107689777D01*
X149312640Y-107683063D01*
X149306494Y-107625906D01*
X149255445Y-107489037D01*
X149167904Y-107372095D01*
X149050962Y-107284554D01*
X148914093Y-107233505D01*
X148856936Y-107227359D01*
X148850223Y-107227000D01*
X148209000Y-107227000D01*
X148209000Y-108151325D01*
X148097315Y-108100320D01*
X147990763Y-108085000D01*
X147919237Y-108085000D01*
X147812685Y-108100320D01*
X147701000Y-108151325D01*
X147701000Y-107227000D01*
X147539500Y-107227000D01*
X147471379Y-107206998D01*
X147424886Y-107153342D01*
X147413500Y-107101000D01*
X147413500Y-105143853D01*
X147415795Y-105123062D01*
X147413562Y-105052000D01*
X147413500Y-105048042D01*
X147413500Y-105024108D01*
X147413500Y-105020144D01*
X147412995Y-105016152D01*
X147412062Y-105004306D01*
X147410674Y-104960111D01*
X147405019Y-104940647D01*
X147401013Y-104921307D01*
X147398474Y-104901203D01*
X147382195Y-104860087D01*
X147378356Y-104848872D01*
X147366019Y-104806407D01*
X147355703Y-104788964D01*
X147347007Y-104771214D01*
X147339552Y-104752383D01*
X147313554Y-104716600D01*
X147307058Y-104706710D01*
X147284542Y-104668638D01*
X147270212Y-104654308D01*
X147257378Y-104639281D01*
X147245472Y-104622893D01*
X147240624Y-104618882D01*
X147211394Y-104594700D01*
X147202616Y-104586712D01*
X142176244Y-99560339D01*
X142163171Y-99544021D01*
X142111348Y-99495356D01*
X142108506Y-99492601D01*
X142091574Y-99475669D01*
X142088770Y-99472865D01*
X142085575Y-99470386D01*
X142076554Y-99462682D01*
X142044320Y-99432413D01*
X142026567Y-99422653D01*
X142010041Y-99411797D01*
X141994041Y-99399386D01*
X141953466Y-99381828D01*
X141942804Y-99376604D01*
X141904063Y-99355305D01*
X141890313Y-99351775D01*
X141884437Y-99350266D01*
X141865731Y-99343862D01*
X141847145Y-99335819D01*
X141803475Y-99328902D01*
X141791853Y-99326495D01*
X141749030Y-99315500D01*
X141749029Y-99315500D01*
X141728776Y-99315500D01*
X141709066Y-99313949D01*
X141689057Y-99310779D01*
X141645039Y-99314941D01*
X141633181Y-99315500D01*
X129346550Y-99315500D01*
X129278429Y-99295498D01*
X129252917Y-99273813D01*
X129135253Y-99143134D01*
X129135252Y-99143133D01*
X129135251Y-99143132D01*
X128980753Y-99030883D01*
X128980752Y-99030882D01*
X128806288Y-98953206D01*
X128619487Y-98913500D01*
X128428513Y-98913500D01*
X128303978Y-98939970D01*
X128241711Y-98953206D01*
X128067246Y-99030883D01*
X127912748Y-99143132D01*
X127862313Y-99199146D01*
X127795084Y-99273811D01*
X127734641Y-99311050D01*
X127701450Y-99315500D01*
X127073200Y-99315500D01*
X127005079Y-99295498D01*
X126979565Y-99273812D01*
X126976253Y-99270133D01*
X126821753Y-99157883D01*
X126821752Y-99157882D01*
X126647288Y-99080206D01*
X126460487Y-99040500D01*
X126269513Y-99040500D01*
X126144979Y-99066970D01*
X126082711Y-99080206D01*
X125908246Y-99157883D01*
X125753747Y-99270133D01*
X125625958Y-99412057D01*
X125530472Y-99577443D01*
X125471458Y-99759070D01*
X125451496Y-99948999D01*
X123442289Y-99948999D01*
X141828887Y-81562402D01*
X141891197Y-81528378D01*
X141918670Y-81528458D01*
X141918612Y-81526588D01*
X141934522Y-81526087D01*
X141934523Y-81526088D01*
X142002599Y-81523948D01*
X142006559Y-81523886D01*
X142030508Y-81523886D01*
X142034470Y-81523886D01*
X142038470Y-81523380D01*
X142050313Y-81522447D01*
X142094503Y-81521059D01*
X142113952Y-81515407D01*
X142133312Y-81511398D01*
X142153411Y-81508860D01*
X142194529Y-81492579D01*
X142205731Y-81488743D01*
X142248207Y-81476404D01*
X142265653Y-81466085D01*
X142283394Y-81457395D01*
X142302231Y-81449938D01*
X142338006Y-81423944D01*
X142347917Y-81417434D01*
X142385976Y-81394928D01*
X142400305Y-81380598D01*
X142415333Y-81367763D01*
X142431721Y-81355858D01*
X142459917Y-81321772D01*
X142467886Y-81313016D01*
X143168658Y-80612244D01*
X143184979Y-80599170D01*
X143187014Y-80597002D01*
X143187018Y-80597000D01*
X143233676Y-80547312D01*
X143236368Y-80544534D01*
X143256135Y-80524769D01*
X143258597Y-80521593D01*
X143266318Y-80512551D01*
X143296586Y-80480321D01*
X143306345Y-80462567D01*
X143317198Y-80446045D01*
X143329614Y-80430040D01*
X143347174Y-80389459D01*
X143352388Y-80378815D01*
X143373695Y-80340060D01*
X143378732Y-80320439D01*
X143385138Y-80301730D01*
X143393181Y-80283145D01*
X143400096Y-80239477D01*
X143402504Y-80227853D01*
X143406507Y-80212265D01*
X143413500Y-80185030D01*
X143413500Y-80164774D01*
X143415051Y-80145063D01*
X143418220Y-80125057D01*
X143414059Y-80081036D01*
X143413500Y-80069179D01*
X143413500Y-78093852D01*
X143415795Y-78073061D01*
X143413562Y-78002000D01*
X143413500Y-77998042D01*
X143413500Y-77974108D01*
X143413500Y-77970144D01*
X143412995Y-77966152D01*
X143412062Y-77954306D01*
X143412030Y-77953291D01*
X143410674Y-77910111D01*
X143405020Y-77890652D01*
X143401013Y-77871306D01*
X143398474Y-77851203D01*
X143382194Y-77810086D01*
X143378353Y-77798866D01*
X143375217Y-77788072D01*
X143366018Y-77756407D01*
X143355706Y-77738970D01*
X143347008Y-77721215D01*
X143339552Y-77702383D01*
X143313565Y-77666616D01*
X143307047Y-77656693D01*
X143284542Y-77618638D01*
X143270212Y-77604308D01*
X143257378Y-77589281D01*
X143245472Y-77572893D01*
X143245471Y-77572892D01*
X143211400Y-77544705D01*
X143202621Y-77536717D01*
X143000404Y-77334499D01*
X142966379Y-77272187D01*
X142963500Y-77245404D01*
X142963500Y-75939730D01*
X142963500Y-75939729D01*
X142963500Y-75936362D01*
X142956989Y-75875799D01*
X142905889Y-75738796D01*
X142905888Y-75738794D01*
X142818261Y-75621738D01*
X142701205Y-75534111D01*
X142632702Y-75508561D01*
X142564201Y-75483011D01*
X142503638Y-75476500D01*
X140706362Y-75476500D01*
X140703013Y-75476859D01*
X140703013Y-75476860D01*
X140645799Y-75483011D01*
X140508794Y-75534111D01*
X140391738Y-75621738D01*
X140304109Y-75738796D01*
X140260000Y-75857057D01*
X140217453Y-75913893D01*
X140150933Y-75938703D01*
X140081559Y-75923611D01*
X140049246Y-75898363D01*
X139988240Y-75832094D01*
X139988239Y-75832093D01*
X139988237Y-75832091D01*
X139810578Y-75693812D01*
X139612573Y-75586657D01*
X139459510Y-75534111D01*
X139399635Y-75513556D01*
X139177569Y-75476500D01*
X138952431Y-75476500D01*
X138730365Y-75513556D01*
X138730362Y-75513556D01*
X138730362Y-75513557D01*
X138517426Y-75586657D01*
X138319421Y-75693812D01*
X138141762Y-75832091D01*
X137989278Y-75997731D01*
X137900483Y-76133643D01*
X137846479Y-76179731D01*
X137776131Y-76189306D01*
X137711774Y-76159328D01*
X137689517Y-76133643D01*
X137600721Y-75997731D01*
X137523542Y-75913893D01*
X137448240Y-75832094D01*
X137448239Y-75832093D01*
X137448237Y-75832091D01*
X137270578Y-75693812D01*
X137072573Y-75586657D01*
X136919510Y-75534111D01*
X136859635Y-75513556D01*
X136637569Y-75476500D01*
X136412431Y-75476500D01*
X136190365Y-75513556D01*
X136190362Y-75513556D01*
X136190362Y-75513557D01*
X135977426Y-75586657D01*
X135779421Y-75693812D01*
X135601762Y-75832091D01*
X135449278Y-75997731D01*
X135360483Y-76133643D01*
X135306479Y-76179731D01*
X135236131Y-76189306D01*
X135171774Y-76159328D01*
X135149517Y-76133643D01*
X135060721Y-75997731D01*
X134983542Y-75913893D01*
X134908240Y-75832094D01*
X134908239Y-75832093D01*
X134908237Y-75832091D01*
X134730578Y-75693812D01*
X134532573Y-75586657D01*
X134379510Y-75534111D01*
X134319635Y-75513556D01*
X134097569Y-75476500D01*
X133872431Y-75476500D01*
X133650365Y-75513556D01*
X133650362Y-75513556D01*
X133650362Y-75513557D01*
X133437426Y-75586657D01*
X133239421Y-75693812D01*
X133061762Y-75832091D01*
X132909278Y-75997731D01*
X132786139Y-76186209D01*
X132695702Y-76392388D01*
X132640437Y-76610627D01*
X132640436Y-76610632D01*
X132621844Y-76835000D01*
X132640436Y-77059368D01*
X132640436Y-77059371D01*
X132640437Y-77059372D01*
X132695702Y-77277611D01*
X132786139Y-77483790D01*
X132844353Y-77572893D01*
X132909278Y-77672268D01*
X133000755Y-77771638D01*
X133061762Y-77837908D01*
X133239418Y-77976185D01*
X133239420Y-77976186D01*
X133239424Y-77976189D01*
X133272682Y-77994187D01*
X133323071Y-78044200D01*
X133338423Y-78113517D01*
X133313862Y-78180130D01*
X133272683Y-78215812D01*
X133247794Y-78229281D01*
X133239418Y-78233814D01*
X133061762Y-78372091D01*
X132909278Y-78537731D01*
X132786139Y-78726209D01*
X132695702Y-78932388D01*
X132640437Y-79150627D01*
X132640436Y-79150632D01*
X132621844Y-79375000D01*
X132640436Y-79599368D01*
X132640436Y-79599371D01*
X132640437Y-79599372D01*
X132695702Y-79817611D01*
X132786139Y-80023790D01*
X132909278Y-80212268D01*
X133061762Y-80377908D01*
X133239422Y-80516188D01*
X133239424Y-80516189D01*
X133285469Y-80541107D01*
X133335859Y-80591118D01*
X133351500Y-80651920D01*
X133351500Y-83895709D01*
X133331498Y-83963830D01*
X133314595Y-83984804D01*
X125943595Y-91355805D01*
X125881283Y-91389831D01*
X125810468Y-91384766D01*
X125753632Y-91342219D01*
X125728821Y-91275699D01*
X125728500Y-91266710D01*
X125728500Y-77537524D01*
X125748502Y-77469403D01*
X125760858Y-77453220D01*
X125834040Y-77371944D01*
X125929527Y-77206556D01*
X125988542Y-77024928D01*
X126008504Y-76835000D01*
X125988542Y-76645072D01*
X125929527Y-76463444D01*
X125929527Y-76463443D01*
X125834041Y-76298057D01*
X125706252Y-76156133D01*
X125551753Y-76043883D01*
X125551752Y-76043882D01*
X125377288Y-75966206D01*
X125190487Y-75926500D01*
X124999513Y-75926500D01*
X124874978Y-75952970D01*
X124812711Y-75966206D01*
X124638246Y-76043883D01*
X124483747Y-76156133D01*
X124355958Y-76298057D01*
X124260472Y-76463443D01*
X124201458Y-76645070D01*
X124181496Y-76835000D01*
X124201458Y-77024929D01*
X124260472Y-77206556D01*
X124355958Y-77371942D01*
X124355960Y-77371944D01*
X124429137Y-77453215D01*
X124459853Y-77517220D01*
X124461500Y-77537524D01*
X124461500Y-91372473D01*
X124441498Y-91440594D01*
X124429137Y-91456783D01*
X124355958Y-91538057D01*
X124260472Y-91703443D01*
X124201458Y-91885070D01*
X124181496Y-92075000D01*
X124201458Y-92264929D01*
X124260472Y-92446556D01*
X124355958Y-92611942D01*
X124433013Y-92697520D01*
X124463730Y-92761528D01*
X124454966Y-92831982D01*
X124428472Y-92870926D01*
X123354803Y-93944596D01*
X123292493Y-93978620D01*
X123265710Y-93981500D01*
X121356793Y-93981500D01*
X121333184Y-93979268D01*
X121329786Y-93978620D01*
X121325091Y-93977724D01*
X121269049Y-93981251D01*
X121261137Y-93981500D01*
X121245144Y-93981500D01*
X121241238Y-93981993D01*
X121241226Y-93981994D01*
X121229273Y-93983504D01*
X121221404Y-93984247D01*
X121165348Y-93987774D01*
X121157507Y-93990322D01*
X121134376Y-93995493D01*
X121126203Y-93996525D01*
X121074004Y-94017192D01*
X121066562Y-94019871D01*
X121013126Y-94037234D01*
X121006159Y-94041656D01*
X120985038Y-94052417D01*
X120977384Y-94055447D01*
X120977382Y-94055448D01*
X120977383Y-94055448D01*
X120938068Y-94084010D01*
X120871201Y-94107867D01*
X120802050Y-94091785D01*
X120752571Y-94040870D01*
X120738011Y-93982072D01*
X120738011Y-82551086D01*
X120738011Y-71083465D01*
X120754889Y-71020471D01*
X120849527Y-70856556D01*
X120908542Y-70674928D01*
X120928504Y-70485000D01*
X120908542Y-70295072D01*
X120877931Y-70200862D01*
X120849527Y-70113443D01*
X120754002Y-69947989D01*
X120737264Y-69878994D01*
X120760484Y-69811902D01*
X120816292Y-69768015D01*
X120863121Y-69758989D01*
X128751204Y-69758989D01*
X128819325Y-69778991D01*
X128844840Y-69800678D01*
X128928747Y-69893866D01*
X129083248Y-70006118D01*
X129257712Y-70083794D01*
X129444513Y-70123500D01*
X129444515Y-70123500D01*
X129635485Y-70123500D01*
X129635487Y-70123500D01*
X129822288Y-70083794D01*
X129996752Y-70006118D01*
X130151253Y-69893866D01*
X130279040Y-69751944D01*
X130374527Y-69586556D01*
X130433542Y-69404928D01*
X130453504Y-69215000D01*
X130433542Y-69025072D01*
X130374527Y-68843444D01*
X130374527Y-68843443D01*
X130279041Y-68678058D01*
X130279040Y-68678056D01*
X130266664Y-68664311D01*
X130235946Y-68600306D01*
X130244708Y-68529852D01*
X130266663Y-68495689D01*
X130279040Y-68481944D01*
X130374527Y-68316556D01*
X130433542Y-68134928D01*
X130453504Y-67945000D01*
X130433542Y-67755072D01*
X130402931Y-67660862D01*
X130374527Y-67573443D01*
X130279041Y-67408057D01*
X130151252Y-67266133D01*
X129996753Y-67153883D01*
X129996752Y-67153882D01*
X129906117Y-67113529D01*
X129845212Y-67086412D01*
X129791116Y-67040431D01*
X129770467Y-66972504D01*
X129776626Y-66932375D01*
X129798542Y-66864928D01*
X129818504Y-66675000D01*
X129798542Y-66485072D01*
X129739527Y-66303444D01*
X129739527Y-66303443D01*
X129644041Y-66138057D01*
X129570863Y-66056783D01*
X129540146Y-65992775D01*
X129538500Y-65972473D01*
X129538500Y-62498085D01*
X129558502Y-62429964D01*
X129612158Y-62383471D01*
X129682432Y-62373367D01*
X129690698Y-62374838D01*
X129698513Y-62376500D01*
X129889485Y-62376500D01*
X129889487Y-62376500D01*
X130076288Y-62336794D01*
X130250752Y-62259118D01*
X130405253Y-62146866D01*
X130408564Y-62143188D01*
X130469012Y-62105949D01*
X130502200Y-62101500D01*
X135943800Y-62101500D01*
X136011921Y-62121502D01*
X136037435Y-62143188D01*
X136040746Y-62146866D01*
X136106836Y-62194883D01*
X136195248Y-62259118D01*
X136369712Y-62336794D01*
X136556513Y-62376500D01*
X136556515Y-62376500D01*
X136747485Y-62376500D01*
X136747487Y-62376500D01*
X136934288Y-62336794D01*
X136984251Y-62314548D01*
X137054617Y-62305114D01*
X137118914Y-62335220D01*
X137156728Y-62395308D01*
X137161500Y-62429655D01*
X137161500Y-65972473D01*
X137141498Y-66040594D01*
X137129137Y-66056783D01*
X137055958Y-66138057D01*
X136960472Y-66303443D01*
X136901458Y-66485070D01*
X136881496Y-66674999D01*
X136901458Y-66864929D01*
X136960472Y-67046556D01*
X137055958Y-67211942D01*
X137146047Y-67311996D01*
X137183747Y-67353866D01*
X137338248Y-67466118D01*
X137512712Y-67543794D01*
X137699513Y-67583500D01*
X137699515Y-67583500D01*
X137890485Y-67583500D01*
X137890487Y-67583500D01*
X138077288Y-67543794D01*
X138251752Y-67466118D01*
X138406253Y-67353866D01*
X138534040Y-67211944D01*
X138629527Y-67046556D01*
X138688542Y-66864928D01*
X138708504Y-66675000D01*
X138688542Y-66485072D01*
X138629527Y-66303444D01*
X138629527Y-66303443D01*
X138534041Y-66138057D01*
X138460863Y-66056783D01*
X138430146Y-65992775D01*
X138428500Y-65972473D01*
X138428500Y-61027524D01*
X138448502Y-60959403D01*
X138460858Y-60943220D01*
X138534040Y-60861944D01*
X138629527Y-60696556D01*
X138688542Y-60514928D01*
X138708504Y-60325000D01*
X138688542Y-60135072D01*
X138629527Y-59953444D01*
X138629527Y-59953443D01*
X138534041Y-59788057D01*
X138406252Y-59646133D01*
X138251753Y-59533883D01*
X138251752Y-59533882D01*
X138077288Y-59456206D01*
X137890487Y-59416500D01*
X137699513Y-59416500D01*
X137574979Y-59442970D01*
X137512711Y-59456206D01*
X137338246Y-59533883D01*
X137183746Y-59646133D01*
X137180435Y-59649812D01*
X137119988Y-59687051D01*
X137086800Y-59691500D01*
X129613200Y-59691500D01*
X129545079Y-59671498D01*
X129519565Y-59649812D01*
X129516253Y-59646133D01*
X129361753Y-59533883D01*
X129361752Y-59533882D01*
X129187288Y-59456206D01*
X129000487Y-59416500D01*
X128809513Y-59416500D01*
X128684979Y-59442970D01*
X128622711Y-59456206D01*
X128448246Y-59533883D01*
X128293747Y-59646133D01*
X128165958Y-59788057D01*
X128070472Y-59953443D01*
X128011458Y-60135070D01*
X127991496Y-60325000D01*
X128011458Y-60514929D01*
X128070472Y-60696556D01*
X128165958Y-60861942D01*
X128165960Y-60861944D01*
X128239137Y-60943215D01*
X128269853Y-61007220D01*
X128271500Y-61027524D01*
X128271500Y-65972473D01*
X128251498Y-66040594D01*
X128239137Y-66056783D01*
X128165958Y-66138057D01*
X128070472Y-66303443D01*
X128011458Y-66485070D01*
X127991496Y-66674999D01*
X128011458Y-66864929D01*
X128070472Y-67046556D01*
X128114319Y-67122500D01*
X128131057Y-67191495D01*
X128107837Y-67258587D01*
X128052030Y-67302474D01*
X128005200Y-67311500D01*
X118193849Y-67311500D01*
X118173064Y-67309205D01*
X118102033Y-67311438D01*
X118098075Y-67311500D01*
X118070144Y-67311500D01*
X118066232Y-67311993D01*
X118066199Y-67311996D01*
X118066101Y-67312009D01*
X118054300Y-67312937D01*
X118010110Y-67314326D01*
X117990657Y-67319978D01*
X117971303Y-67323986D01*
X117951201Y-67326526D01*
X117910084Y-67342804D01*
X117898859Y-67346647D01*
X117856408Y-67358980D01*
X117838967Y-67369295D01*
X117821219Y-67377989D01*
X117802383Y-67385447D01*
X117766614Y-67411434D01*
X117756697Y-67417948D01*
X117718637Y-67440457D01*
X117704305Y-67454788D01*
X117689281Y-67467619D01*
X117672896Y-67479524D01*
X117644711Y-67513593D01*
X117636723Y-67522370D01*
X105909500Y-79249595D01*
X105847188Y-79283621D01*
X105820405Y-79286500D01*
X105193549Y-79286500D01*
X105172759Y-79284204D01*
X105101697Y-79286438D01*
X105097739Y-79286500D01*
X105069839Y-79286500D01*
X105065914Y-79286995D01*
X105065893Y-79286997D01*
X105065819Y-79287007D01*
X105054008Y-79287936D01*
X105009804Y-79289325D01*
X104990348Y-79294978D01*
X104970996Y-79298986D01*
X104950895Y-79301526D01*
X104909789Y-79317800D01*
X104898565Y-79321643D01*
X104856100Y-79333981D01*
X104838655Y-79344297D01*
X104820912Y-79352989D01*
X104802079Y-79360446D01*
X104766311Y-79386433D01*
X104756392Y-79392949D01*
X104718331Y-79415458D01*
X104704006Y-79429783D01*
X104688979Y-79442617D01*
X104672589Y-79454525D01*
X104644396Y-79488604D01*
X104636408Y-79497381D01*
X101846336Y-82287452D01*
X101830016Y-82300528D01*
X101781370Y-82352330D01*
X101778621Y-82355167D01*
X101761667Y-82372122D01*
X101761660Y-82372129D01*
X101758865Y-82374925D01*
X101756442Y-82378047D01*
X101756426Y-82378066D01*
X101756365Y-82378146D01*
X101748689Y-82387131D01*
X101718414Y-82419372D01*
X101708652Y-82437129D01*
X101697801Y-82453647D01*
X101685385Y-82469654D01*
X101667824Y-82510234D01*
X101662604Y-82520890D01*
X101641304Y-82559635D01*
X101636267Y-82579254D01*
X101629864Y-82597956D01*
X101621818Y-82616550D01*
X101614901Y-82660219D01*
X101612495Y-82671839D01*
X101601500Y-82714664D01*
X101601500Y-82734918D01*
X101599949Y-82754628D01*
X101596779Y-82774637D01*
X101600941Y-82818656D01*
X101601500Y-82830514D01*
X101601500Y-104072473D01*
X101581498Y-104140594D01*
X101569137Y-104156783D01*
X101495958Y-104238057D01*
X101400472Y-104403443D01*
X101341458Y-104585070D01*
X101326106Y-104731134D01*
X101321496Y-104775000D01*
X93980000Y-104775000D01*
X93980000Y-70586294D01*
X101201500Y-70586294D01*
X101201894Y-70589796D01*
X101201895Y-70589803D01*
X101216565Y-70720001D01*
X101275880Y-70889513D01*
X101371430Y-71041580D01*
X101498419Y-71168569D01*
X101650486Y-71264119D01*
X101820001Y-71323435D01*
X101953706Y-71338500D01*
X101957241Y-71338500D01*
X105962759Y-71338500D01*
X105966294Y-71338500D01*
X106099999Y-71323435D01*
X106269514Y-71264119D01*
X106421579Y-71168570D01*
X106548570Y-71041579D01*
X106644119Y-70889514D01*
X106703435Y-70719999D01*
X106718500Y-70586294D01*
X106718500Y-68583657D01*
X108747115Y-68583657D01*
X108767062Y-68926143D01*
X108767910Y-68933403D01*
X108827482Y-69271255D01*
X108829172Y-69278382D01*
X108927563Y-69607029D01*
X108930066Y-69613908D01*
X109065943Y-69928907D01*
X109069231Y-69935453D01*
X109240760Y-70232550D01*
X109244778Y-70238659D01*
X109449646Y-70513844D01*
X109454341Y-70519439D01*
X109457742Y-70523045D01*
X109457743Y-70523045D01*
X110533913Y-69446875D01*
X110652632Y-69599404D01*
X110835523Y-69767768D01*
X110893538Y-69805670D01*
X109820215Y-70878994D01*
X109957894Y-70994519D01*
X109963764Y-70998889D01*
X110250396Y-71187409D01*
X110256718Y-71191059D01*
X110563303Y-71345032D01*
X110570018Y-71347928D01*
X110892380Y-71465258D01*
X110899403Y-71467361D01*
X111233225Y-71546479D01*
X111240413Y-71547746D01*
X111581159Y-71587574D01*
X111588473Y-71588000D01*
X111931527Y-71588000D01*
X111938840Y-71587574D01*
X112279586Y-71547746D01*
X112286774Y-71546479D01*
X112620596Y-71467361D01*
X112627619Y-71465258D01*
X112949981Y-71347928D01*
X112956696Y-71345032D01*
X113263281Y-71191059D01*
X113269603Y-71187409D01*
X113556235Y-70998889D01*
X113562105Y-70994519D01*
X113699783Y-70878994D01*
X113699783Y-70878993D01*
X112626461Y-69805671D01*
X112684477Y-69767768D01*
X112867368Y-69599404D01*
X112986085Y-69446875D01*
X114062255Y-70523045D01*
X114062256Y-70523045D01*
X114065654Y-70519443D01*
X114070355Y-70513842D01*
X114275221Y-70238659D01*
X114279239Y-70232550D01*
X114450768Y-69935453D01*
X114454056Y-69928907D01*
X114589933Y-69613908D01*
X114592436Y-69607029D01*
X114690827Y-69278382D01*
X114692517Y-69271255D01*
X114752089Y-68933403D01*
X114752937Y-68926143D01*
X114772885Y-68583657D01*
X114772885Y-68576342D01*
X114752937Y-68233856D01*
X114752089Y-68226596D01*
X114692517Y-67888744D01*
X114690827Y-67881617D01*
X114592436Y-67552970D01*
X114589933Y-67546091D01*
X114454056Y-67231092D01*
X114450768Y-67224546D01*
X114279239Y-66927449D01*
X114275221Y-66921340D01*
X114070353Y-66646154D01*
X114065659Y-66640561D01*
X114062256Y-66636953D01*
X114062255Y-66636953D01*
X112986085Y-67713122D01*
X112867368Y-67560596D01*
X112684477Y-67392232D01*
X112626460Y-67354328D01*
X113699783Y-66281004D01*
X113562105Y-66165480D01*
X113556235Y-66161110D01*
X113269603Y-65972590D01*
X113263281Y-65968940D01*
X112956696Y-65814967D01*
X112949981Y-65812071D01*
X112627619Y-65694741D01*
X112620596Y-65692638D01*
X112286774Y-65613520D01*
X112279586Y-65612253D01*
X111938840Y-65572425D01*
X111931527Y-65572000D01*
X111588473Y-65572000D01*
X111581159Y-65572425D01*
X111240413Y-65612253D01*
X111233225Y-65613520D01*
X110899403Y-65692638D01*
X110892380Y-65694741D01*
X110570018Y-65812071D01*
X110563303Y-65814967D01*
X110256718Y-65968940D01*
X110250396Y-65972590D01*
X109963764Y-66161110D01*
X109957894Y-66165480D01*
X109820215Y-66281005D01*
X110893538Y-67354328D01*
X110835523Y-67392232D01*
X110652632Y-67560596D01*
X110533914Y-67713124D01*
X109457743Y-66636953D01*
X109457740Y-66636953D01*
X109454342Y-66640555D01*
X109449656Y-66646141D01*
X109244778Y-66921340D01*
X109240760Y-66927449D01*
X109069231Y-67224546D01*
X109065943Y-67231092D01*
X108930066Y-67546091D01*
X108927563Y-67552970D01*
X108829172Y-67881617D01*
X108827482Y-67888744D01*
X108767910Y-68226596D01*
X108767062Y-68233856D01*
X108747115Y-68576342D01*
X108747115Y-68583657D01*
X106718500Y-68583657D01*
X106718500Y-66573706D01*
X106703435Y-66440001D01*
X106644119Y-66270486D01*
X106578139Y-66165480D01*
X106548569Y-66118419D01*
X106421582Y-65991432D01*
X106347463Y-65944859D01*
X106300426Y-65891679D01*
X106288500Y-65838172D01*
X106288500Y-60963957D01*
X109117389Y-60963957D01*
X109136310Y-61264715D01*
X109137303Y-61272576D01*
X109193770Y-61568587D01*
X109195741Y-61576264D01*
X109288865Y-61862866D01*
X109291780Y-61870229D01*
X109420091Y-62142905D01*
X109423903Y-62149839D01*
X109585381Y-62404289D01*
X109590026Y-62410682D01*
X109671555Y-62509234D01*
X110531453Y-61649335D01*
X110532567Y-61651404D01*
X110672855Y-61827320D01*
X110842299Y-61975358D01*
X110893348Y-62005859D01*
X110028318Y-62870889D01*
X110028318Y-62870890D01*
X110257125Y-63037130D01*
X110263806Y-63041370D01*
X110527903Y-63186558D01*
X110535038Y-63189916D01*
X110815250Y-63300860D01*
X110822776Y-63303305D01*
X111114666Y-63378250D01*
X111122438Y-63379732D01*
X111421424Y-63417503D01*
X111429315Y-63418000D01*
X111730685Y-63418000D01*
X111738575Y-63417503D01*
X112037561Y-63379732D01*
X112045333Y-63378250D01*
X112337223Y-63303305D01*
X112344749Y-63300860D01*
X112624961Y-63189916D01*
X112632096Y-63186558D01*
X112896193Y-63041370D01*
X112902874Y-63037130D01*
X113131680Y-62870891D01*
X113131680Y-62870889D01*
X112266849Y-62006058D01*
X112405747Y-61905144D01*
X112561239Y-61742512D01*
X112625050Y-61645841D01*
X113488443Y-62509234D01*
X113488444Y-62509233D01*
X113569964Y-62410694D01*
X113574622Y-62404282D01*
X113736096Y-62149839D01*
X113739908Y-62142905D01*
X113868219Y-61870229D01*
X113871134Y-61862866D01*
X113964258Y-61576264D01*
X113966229Y-61568587D01*
X114022696Y-61272576D01*
X114023689Y-61264715D01*
X114042611Y-60963957D01*
X114042611Y-60956042D01*
X114023689Y-60655284D01*
X114022696Y-60647423D01*
X113966229Y-60351412D01*
X113964258Y-60343735D01*
X113871134Y-60057133D01*
X113868219Y-60049770D01*
X113739908Y-59777094D01*
X113736096Y-59770160D01*
X113574618Y-59515710D01*
X113569973Y-59509317D01*
X113488443Y-59410764D01*
X112628545Y-60270662D01*
X112627433Y-60268596D01*
X112487145Y-60092680D01*
X112317701Y-59944642D01*
X112266649Y-59914140D01*
X112930290Y-59250499D01*
X145634732Y-59250499D01*
X145640440Y-59326674D01*
X145638240Y-59336953D01*
X145643254Y-59369413D01*
X145644378Y-59379221D01*
X145644635Y-59382647D01*
X145644988Y-59392072D01*
X145644988Y-59419666D01*
X145648306Y-59431637D01*
X145653778Y-59504659D01*
X145671482Y-59582227D01*
X145670773Y-59593788D01*
X145681221Y-59626802D01*
X145683932Y-59636770D01*
X145684846Y-59640773D01*
X145686530Y-59649587D01*
X145690430Y-59674839D01*
X145694898Y-59684817D01*
X145710492Y-59753139D01*
X145740724Y-59830168D01*
X145741839Y-59842752D01*
X145757888Y-59875166D01*
X145762261Y-59885041D01*
X145764243Y-59890091D01*
X145767081Y-59898107D01*
X145774057Y-59920151D01*
X145779147Y-59928068D01*
X145803606Y-59990387D01*
X145846586Y-60064830D01*
X145849807Y-60078110D01*
X145871375Y-60108773D01*
X145877430Y-60118255D01*
X145881151Y-60124699D01*
X145884953Y-60131798D01*
X145893931Y-60149930D01*
X145899119Y-60155822D01*
X145931041Y-60211112D01*
X145986637Y-60280827D01*
X145992181Y-60294407D01*
X146018960Y-60322232D01*
X146026683Y-60331043D01*
X146033063Y-60339043D01*
X146037614Y-60345115D01*
X146047272Y-60358846D01*
X146052061Y-60362866D01*
X146089950Y-60410377D01*
X146124372Y-60442316D01*
X146157675Y-60473217D01*
X146165680Y-60486657D01*
X146197154Y-60510649D01*
X146206472Y-60518493D01*
X146216651Y-60527938D01*
X146221734Y-60532929D01*
X146230535Y-60542074D01*
X146234477Y-60544478D01*
X146276782Y-60583732D01*
X146355791Y-60637599D01*
X146366322Y-60650442D01*
X146401803Y-60669736D01*
X146412582Y-60676318D01*
X146427896Y-60686759D01*
X146433283Y-60690645D01*
X146439457Y-60695352D01*
X146442163Y-60696486D01*
X146487366Y-60727305D01*
X146553968Y-60759379D01*
X146576436Y-60770199D01*
X146589460Y-60781958D01*
X146628116Y-60795842D01*
X146640192Y-60800902D01*
X146662089Y-60811447D01*
X146667600Y-60814271D01*
X146669196Y-60815139D01*
X146670364Y-60815432D01*
X146705847Y-60832520D01*
X146716998Y-60837890D01*
X146814565Y-60867985D01*
X146829959Y-60878176D01*
X146870829Y-60886103D01*
X146883971Y-60889394D01*
X146960542Y-60913013D01*
X147064724Y-60928716D01*
X147082277Y-60936877D01*
X147124340Y-60938489D01*
X147138286Y-60939804D01*
X147174404Y-60945248D01*
X147212562Y-60951000D01*
X147321178Y-60951000D01*
X147340596Y-60956701D01*
X147382783Y-60951831D01*
X147397234Y-60951000D01*
X147467432Y-60951000D01*
X147467435Y-60951000D01*
X147578055Y-60934326D01*
X147598955Y-60937186D01*
X147640184Y-60925856D01*
X147654773Y-60922762D01*
X147719458Y-60913013D01*
X147829475Y-60879076D01*
X147851409Y-60878778D01*
X147890621Y-60861200D01*
X147905022Y-60855773D01*
X147963004Y-60837889D01*
X148069684Y-60786514D01*
X148092135Y-60782817D01*
X148128328Y-60759379D01*
X148142145Y-60751619D01*
X148192634Y-60727305D01*
X148293163Y-60658765D01*
X148315580Y-60651515D01*
X148347843Y-60622763D01*
X148360690Y-60612725D01*
X148403217Y-60583732D01*
X148494809Y-60498746D01*
X148516598Y-60487885D01*
X148544117Y-60454517D01*
X148555613Y-60442329D01*
X148590050Y-60410377D01*
X148669997Y-60310126D01*
X148690552Y-60295698D01*
X148712650Y-60258529D01*
X148722437Y-60244369D01*
X148748959Y-60211112D01*
X148814708Y-60097229D01*
X148833431Y-60079377D01*
X148849579Y-60039311D01*
X148857319Y-60023425D01*
X148876393Y-59990388D01*
X148969508Y-59753137D01*
X149026222Y-59504657D01*
X149045268Y-59250500D01*
X149026222Y-58996343D01*
X148969508Y-58747863D01*
X148876393Y-58510612D01*
X148876392Y-58510611D01*
X148876391Y-58510607D01*
X148857328Y-58477589D01*
X148849582Y-58461691D01*
X148836707Y-58429747D01*
X148814710Y-58403773D01*
X148748958Y-58289886D01*
X148722447Y-58256643D01*
X148712652Y-58242472D01*
X148694897Y-58212607D01*
X148669999Y-58190876D01*
X148590050Y-58090623D01*
X148555630Y-58058686D01*
X148544124Y-58046489D01*
X148521843Y-58019472D01*
X148494809Y-58002253D01*
X148473521Y-57982501D01*
X148403217Y-57917268D01*
X148360694Y-57888276D01*
X148347846Y-57878239D01*
X148321533Y-57854789D01*
X148293163Y-57842234D01*
X148192636Y-57773696D01*
X148142160Y-57749388D01*
X148128341Y-57741626D01*
X148098600Y-57722366D01*
X148069684Y-57714485D01*
X147963004Y-57663110D01*
X147905029Y-57645228D01*
X147890625Y-57639801D01*
X147858180Y-57625256D01*
X147829476Y-57621923D01*
X147719461Y-57587988D01*
X147719458Y-57587987D01*
X147654787Y-57578239D01*
X147640192Y-57575145D01*
X147605834Y-57565703D01*
X147578057Y-57566673D01*
X147467435Y-57550000D01*
X147397230Y-57550000D01*
X147382780Y-57549169D01*
X147347386Y-57545082D01*
X147321177Y-57550000D01*
X147212565Y-57550000D01*
X147174404Y-57555752D01*
X147138305Y-57561193D01*
X147124352Y-57562508D01*
X147088821Y-57563869D01*
X147064726Y-57572283D01*
X146960542Y-57587987D01*
X146883990Y-57611600D01*
X146870843Y-57614892D01*
X146836088Y-57621632D01*
X146814567Y-57633014D01*
X146716995Y-57663110D01*
X146670367Y-57685566D01*
X146669462Y-57685714D01*
X146667577Y-57686740D01*
X146662057Y-57689568D01*
X146640196Y-57700095D01*
X146628122Y-57705154D01*
X146595043Y-57717034D01*
X146576439Y-57730799D01*
X146487364Y-57773696D01*
X146442164Y-57804512D01*
X146440048Y-57805196D01*
X146433264Y-57810367D01*
X146427868Y-57814258D01*
X146412602Y-57824667D01*
X146401813Y-57831256D01*
X146371252Y-57847874D01*
X146355794Y-57863399D01*
X146276780Y-57917270D01*
X146234477Y-57956521D01*
X146231347Y-57958081D01*
X146221724Y-57968080D01*
X146216641Y-57973071D01*
X146206478Y-57982501D01*
X146197161Y-57990343D01*
X146169884Y-58011135D01*
X146157677Y-58027781D01*
X146089952Y-58090621D01*
X146052062Y-58138133D01*
X146048185Y-58140853D01*
X146037606Y-58155894D01*
X146033060Y-58161960D01*
X146026690Y-58169948D01*
X146018965Y-58178762D01*
X145995613Y-58203025D01*
X145986638Y-58220171D01*
X145931043Y-58289885D01*
X145899121Y-58345175D01*
X145894817Y-58349278D01*
X145884948Y-58369210D01*
X145881156Y-58376290D01*
X145877442Y-58382724D01*
X145871378Y-58392222D01*
X145852459Y-58419118D01*
X145846588Y-58436166D01*
X145803607Y-58510611D01*
X145788294Y-58549627D01*
X145781129Y-58567886D01*
X145779149Y-58572930D01*
X145774779Y-58578565D01*
X145767078Y-58602898D01*
X145764240Y-58610915D01*
X145762261Y-58615957D01*
X145757890Y-58625827D01*
X145743729Y-58654428D01*
X145740725Y-58670830D01*
X145710492Y-58747861D01*
X145694899Y-58816180D01*
X145690855Y-58823408D01*
X145686529Y-58851416D01*
X145684849Y-58860209D01*
X145683937Y-58864206D01*
X145681222Y-58874193D01*
X145671951Y-58903488D01*
X145671483Y-58918771D01*
X145653778Y-58996340D01*
X145648306Y-59069362D01*
X145644988Y-59078165D01*
X145644988Y-59108927D01*
X145644635Y-59118343D01*
X145644378Y-59121782D01*
X145643255Y-59131584D01*
X145638781Y-59160547D01*
X145640440Y-59174323D01*
X145634732Y-59250499D01*
X112930290Y-59250499D01*
X113131680Y-59049109D01*
X113131680Y-59049107D01*
X112902874Y-58882870D01*
X112896193Y-58878629D01*
X112632096Y-58733441D01*
X112624961Y-58730083D01*
X112344749Y-58619139D01*
X112337223Y-58616694D01*
X112045333Y-58541749D01*
X112037561Y-58540267D01*
X111738575Y-58502496D01*
X111730685Y-58502000D01*
X111429315Y-58502000D01*
X111421424Y-58502496D01*
X111122438Y-58540267D01*
X111114666Y-58541749D01*
X110822776Y-58616694D01*
X110815250Y-58619139D01*
X110535038Y-58730083D01*
X110527903Y-58733441D01*
X110263806Y-58878629D01*
X110257125Y-58882870D01*
X110028318Y-59049107D01*
X110028318Y-59049109D01*
X110893150Y-59913941D01*
X110754253Y-60014856D01*
X110598761Y-60177488D01*
X110534949Y-60274158D01*
X109671555Y-59410764D01*
X109590026Y-59509317D01*
X109585381Y-59515710D01*
X109423903Y-59770160D01*
X109420091Y-59777094D01*
X109291780Y-60049770D01*
X109288865Y-60057133D01*
X109195741Y-60343735D01*
X109193770Y-60351412D01*
X109137303Y-60647423D01*
X109136310Y-60655284D01*
X109117389Y-60956042D01*
X109117389Y-60963957D01*
X106288500Y-60963957D01*
X106288500Y-60883156D01*
X106288500Y-60883155D01*
X106288500Y-60881162D01*
X106273641Y-60644980D01*
X106245746Y-60498748D01*
X106240732Y-60472465D01*
X106238500Y-60448855D01*
X106238500Y-59212661D01*
X106238500Y-59209456D01*
X106227887Y-59105575D01*
X106191691Y-58996343D01*
X106172115Y-58937265D01*
X106160708Y-58918771D01*
X106079030Y-58786349D01*
X105953651Y-58660970D01*
X105802737Y-58567886D01*
X105802734Y-58567884D01*
X105634424Y-58512112D01*
X105533745Y-58501826D01*
X105533724Y-58501824D01*
X105530544Y-58501500D01*
X105527339Y-58501500D01*
X104307552Y-58501500D01*
X104276224Y-58497542D01*
X104250975Y-58491060D01*
X104247044Y-58490563D01*
X104247042Y-58490563D01*
X103941752Y-58451996D01*
X103941742Y-58451995D01*
X103937821Y-58451500D01*
X103622179Y-58451500D01*
X103618258Y-58451995D01*
X103618247Y-58451996D01*
X103312957Y-58490563D01*
X103312952Y-58490563D01*
X103309025Y-58491060D01*
X103283775Y-58497542D01*
X103252448Y-58501500D01*
X102029456Y-58501500D01*
X102026276Y-58501824D01*
X102026254Y-58501826D01*
X101925575Y-58512112D01*
X101757265Y-58567884D01*
X101606346Y-58660972D01*
X101480972Y-58786346D01*
X101387884Y-58937265D01*
X101332112Y-59105575D01*
X101321826Y-59206254D01*
X101321824Y-59206276D01*
X101321500Y-59209456D01*
X101321500Y-59212660D01*
X101321500Y-59212661D01*
X101321500Y-60448855D01*
X101319268Y-60472465D01*
X101287102Y-60641081D01*
X101287100Y-60641093D01*
X101286359Y-60644980D01*
X101286110Y-60648930D01*
X101286109Y-60648942D01*
X101271625Y-60879165D01*
X101271624Y-60879185D01*
X101271500Y-60881162D01*
X101271500Y-60883156D01*
X101271500Y-66261598D01*
X101264429Y-66303213D01*
X101216565Y-66439998D01*
X101211487Y-66485072D01*
X101201500Y-66573706D01*
X101201500Y-70586294D01*
X93980000Y-70586294D01*
X93980000Y-59250499D01*
X95634732Y-59250499D01*
X95640440Y-59326674D01*
X95638240Y-59336953D01*
X95643254Y-59369413D01*
X95644378Y-59379221D01*
X95644635Y-59382647D01*
X95644988Y-59392072D01*
X95644988Y-59419666D01*
X95648306Y-59431637D01*
X95653778Y-59504659D01*
X95671482Y-59582227D01*
X95670773Y-59593788D01*
X95681221Y-59626802D01*
X95683932Y-59636770D01*
X95684846Y-59640773D01*
X95686530Y-59649587D01*
X95690430Y-59674839D01*
X95694898Y-59684817D01*
X95710492Y-59753139D01*
X95740724Y-59830168D01*
X95741839Y-59842752D01*
X95757888Y-59875166D01*
X95762261Y-59885041D01*
X95764243Y-59890091D01*
X95767081Y-59898107D01*
X95774057Y-59920151D01*
X95779147Y-59928068D01*
X95803606Y-59990387D01*
X95846586Y-60064830D01*
X95849807Y-60078110D01*
X95871375Y-60108773D01*
X95877430Y-60118255D01*
X95881151Y-60124699D01*
X95884953Y-60131798D01*
X95893931Y-60149930D01*
X95899119Y-60155822D01*
X95931041Y-60211112D01*
X95986637Y-60280827D01*
X95992181Y-60294407D01*
X96018960Y-60322232D01*
X96026683Y-60331043D01*
X96033063Y-60339043D01*
X96037614Y-60345115D01*
X96047272Y-60358846D01*
X96052061Y-60362866D01*
X96089950Y-60410377D01*
X96124372Y-60442316D01*
X96157675Y-60473217D01*
X96165680Y-60486657D01*
X96197154Y-60510649D01*
X96206472Y-60518493D01*
X96216651Y-60527938D01*
X96221734Y-60532929D01*
X96230535Y-60542074D01*
X96234477Y-60544478D01*
X96276782Y-60583732D01*
X96355791Y-60637599D01*
X96366322Y-60650442D01*
X96401803Y-60669736D01*
X96412582Y-60676318D01*
X96427896Y-60686759D01*
X96433283Y-60690645D01*
X96439457Y-60695352D01*
X96442163Y-60696486D01*
X96487366Y-60727305D01*
X96553968Y-60759379D01*
X96576436Y-60770199D01*
X96589460Y-60781958D01*
X96628116Y-60795842D01*
X96640192Y-60800902D01*
X96662089Y-60811447D01*
X96667600Y-60814271D01*
X96669196Y-60815139D01*
X96670364Y-60815432D01*
X96705847Y-60832520D01*
X96716998Y-60837890D01*
X96814565Y-60867985D01*
X96829959Y-60878176D01*
X96870829Y-60886103D01*
X96883971Y-60889394D01*
X96960542Y-60913013D01*
X97064724Y-60928716D01*
X97082277Y-60936877D01*
X97124340Y-60938489D01*
X97138286Y-60939804D01*
X97174404Y-60945248D01*
X97212562Y-60951000D01*
X97321178Y-60951000D01*
X97340596Y-60956701D01*
X97382783Y-60951831D01*
X97397234Y-60951000D01*
X97467432Y-60951000D01*
X97467435Y-60951000D01*
X97578055Y-60934326D01*
X97598955Y-60937186D01*
X97640184Y-60925856D01*
X97654773Y-60922762D01*
X97719458Y-60913013D01*
X97829475Y-60879076D01*
X97851409Y-60878778D01*
X97890621Y-60861200D01*
X97905022Y-60855773D01*
X97963004Y-60837889D01*
X98069684Y-60786514D01*
X98092135Y-60782817D01*
X98128328Y-60759379D01*
X98142145Y-60751619D01*
X98192634Y-60727305D01*
X98293163Y-60658765D01*
X98315580Y-60651515D01*
X98347843Y-60622763D01*
X98360690Y-60612725D01*
X98403217Y-60583732D01*
X98494809Y-60498746D01*
X98516598Y-60487885D01*
X98544117Y-60454517D01*
X98555613Y-60442329D01*
X98590050Y-60410377D01*
X98669997Y-60310126D01*
X98690552Y-60295698D01*
X98712650Y-60258529D01*
X98722437Y-60244369D01*
X98748959Y-60211112D01*
X98814708Y-60097229D01*
X98833431Y-60079377D01*
X98849579Y-60039311D01*
X98857319Y-60023425D01*
X98876393Y-59990388D01*
X98969508Y-59753137D01*
X99026222Y-59504657D01*
X99045268Y-59250500D01*
X99026222Y-58996343D01*
X98969508Y-58747863D01*
X98876393Y-58510612D01*
X98876392Y-58510611D01*
X98876391Y-58510607D01*
X98857328Y-58477589D01*
X98849582Y-58461691D01*
X98836707Y-58429747D01*
X98814710Y-58403773D01*
X98748958Y-58289886D01*
X98722447Y-58256643D01*
X98712652Y-58242472D01*
X98694897Y-58212607D01*
X98669999Y-58190876D01*
X98590050Y-58090623D01*
X98555630Y-58058686D01*
X98544124Y-58046489D01*
X98521843Y-58019472D01*
X98494809Y-58002253D01*
X98473521Y-57982501D01*
X98403217Y-57917268D01*
X98360694Y-57888276D01*
X98347846Y-57878239D01*
X98321533Y-57854789D01*
X98293163Y-57842234D01*
X98192636Y-57773696D01*
X98142160Y-57749388D01*
X98128341Y-57741626D01*
X98098600Y-57722366D01*
X98069684Y-57714485D01*
X97963004Y-57663110D01*
X97905029Y-57645228D01*
X97890625Y-57639801D01*
X97858180Y-57625256D01*
X97829476Y-57621923D01*
X97719461Y-57587988D01*
X97719458Y-57587987D01*
X97654787Y-57578239D01*
X97640192Y-57575145D01*
X97605834Y-57565703D01*
X97578057Y-57566673D01*
X97467435Y-57550000D01*
X97397230Y-57550000D01*
X97382780Y-57549169D01*
X97347386Y-57545082D01*
X97321177Y-57550000D01*
X97212565Y-57550000D01*
X97174404Y-57555752D01*
X97138305Y-57561193D01*
X97124352Y-57562508D01*
X97088821Y-57563869D01*
X97064726Y-57572283D01*
X96960541Y-57587987D01*
X96960542Y-57587987D01*
X96883990Y-57611600D01*
X96870843Y-57614892D01*
X96836088Y-57621632D01*
X96814567Y-57633014D01*
X96716995Y-57663110D01*
X96670367Y-57685566D01*
X96669462Y-57685714D01*
X96667577Y-57686740D01*
X96662057Y-57689568D01*
X96640196Y-57700095D01*
X96628122Y-57705154D01*
X96595043Y-57717034D01*
X96576439Y-57730799D01*
X96487364Y-57773696D01*
X96442164Y-57804512D01*
X96440048Y-57805196D01*
X96433264Y-57810367D01*
X96427868Y-57814258D01*
X96412602Y-57824667D01*
X96401813Y-57831256D01*
X96371252Y-57847874D01*
X96355794Y-57863399D01*
X96276780Y-57917270D01*
X96234477Y-57956521D01*
X96231347Y-57958081D01*
X96221724Y-57968080D01*
X96216641Y-57973071D01*
X96206478Y-57982501D01*
X96197161Y-57990343D01*
X96169884Y-58011135D01*
X96157677Y-58027781D01*
X96089952Y-58090621D01*
X96052062Y-58138133D01*
X96048185Y-58140853D01*
X96037606Y-58155894D01*
X96033060Y-58161960D01*
X96026690Y-58169948D01*
X96018965Y-58178762D01*
X95995613Y-58203025D01*
X95986638Y-58220171D01*
X95931043Y-58289885D01*
X95899121Y-58345175D01*
X95894817Y-58349278D01*
X95884948Y-58369210D01*
X95881156Y-58376290D01*
X95877442Y-58382724D01*
X95871378Y-58392222D01*
X95852459Y-58419118D01*
X95846588Y-58436166D01*
X95803607Y-58510611D01*
X95788294Y-58549627D01*
X95781129Y-58567886D01*
X95779149Y-58572930D01*
X95774779Y-58578565D01*
X95767078Y-58602898D01*
X95764240Y-58610915D01*
X95762261Y-58615957D01*
X95757890Y-58625827D01*
X95743729Y-58654428D01*
X95740725Y-58670830D01*
X95710492Y-58747861D01*
X95694899Y-58816180D01*
X95690855Y-58823408D01*
X95686529Y-58851416D01*
X95684849Y-58860209D01*
X95683937Y-58864206D01*
X95681222Y-58874193D01*
X95671951Y-58903488D01*
X95671483Y-58918771D01*
X95653778Y-58996340D01*
X95648306Y-59069362D01*
X95644988Y-59078165D01*
X95644988Y-59108927D01*
X95644635Y-59118343D01*
X95644378Y-59121782D01*
X95643255Y-59131584D01*
X95638781Y-59160547D01*
X95640440Y-59174323D01*
X95634732Y-59250499D01*
X93980000Y-59250499D01*
X93980000Y-56006000D01*
X94000002Y-55937879D01*
X94053658Y-55891386D01*
X94106000Y-55880000D01*
X150369000Y-55880000D01*
X150437121Y-55900002D01*
G37*
%TD.AperFunction*%
%TD*%
M02*
